<svg width="533" height="382" viewBox="0 0 533 382" fill="none" xmlns="http://www.w3.org/2000/svg">
<path d="M531.376 317.583H1.62376C1.41728 317.583 1.21925 317.501 1.07325 317.355C0.927241 317.209 0.845215 317.011 0.845215 316.805C0.849535 316.6 0.932945 316.405 1.07803 316.26C1.22311 316.115 1.41863 316.031 1.62376 316.027H531.376C531.581 316.031 531.777 316.115 531.922 316.26C532.067 316.405 532.15 316.6 532.155 316.805C532.155 317.011 532.073 317.209 531.927 317.355C531.781 317.501 531.583 317.583 531.376 317.583Z" fill="#D1D3D4"/>
<path d="M492.804 1.51226H50.3678C45.3482 1.51226 41.2791 5.57942 41.2791 10.5965V273.803C41.2791 278.82 45.3482 282.887 50.3678 282.887H492.804C497.824 282.887 501.893 278.82 501.893 273.803V10.5965C501.893 5.57942 497.824 1.51226 492.804 1.51226Z" fill="white"/>
<path d="M492.787 283.733H50.3678C47.7314 283.729 45.2044 282.679 43.3417 280.814C41.479 278.949 40.4329 276.421 40.4329 273.786V10.5965C40.4373 7.96582 41.486 5.44441 43.3487 3.58581C45.2114 1.72722 47.7359 0.683334 50.3678 0.683338H492.787C495.422 0.683338 497.949 1.72954 499.812 3.59179C501.676 5.45405 502.722 7.9798 502.722 10.6134V273.786C502.722 276.421 501.676 278.949 499.813 280.814C497.951 282.679 495.424 283.729 492.787 283.733ZM50.3678 2.375C48.1818 2.375 46.0853 3.24298 44.5395 4.78798C42.9938 6.33299 42.1254 8.42846 42.1254 10.6134V273.786C42.1254 275.973 42.9932 278.07 44.5385 279.617C46.0838 281.165 48.1802 282.037 50.3678 282.041H492.787C494.975 282.037 497.071 281.165 498.617 279.617C500.162 278.07 501.03 275.973 501.03 273.786V10.5965C501.025 8.41447 500.155 6.32334 498.61 4.782C497.064 3.24065 494.97 2.375 492.787 2.375H50.3678Z" fill="#2F2E41"/>
<path d="M245.767 203.125H67.8513C67.6448 203.125 67.4468 203.043 67.3008 202.897C67.1548 202.751 67.0728 202.553 67.0728 202.347C67.0771 202.142 67.1605 201.946 67.3056 201.801C67.4507 201.656 67.6462 201.573 67.8513 201.569H245.767C245.972 201.573 246.168 201.656 246.313 201.801C246.458 201.946 246.541 202.142 246.545 202.347C246.545 202.449 246.525 202.55 246.486 202.645C246.447 202.739 246.39 202.825 246.317 202.897C246.245 202.969 246.159 203.027 246.065 203.066C245.97 203.105 245.869 203.125 245.767 203.125Z" fill="#D1D3D4"/>
<path d="M163.799 268.542C163.593 268.542 163.395 268.46 163.249 268.314C163.103 268.168 163.021 267.97 163.021 267.764V201.992C163.021 201.785 163.103 201.587 163.249 201.441C163.395 201.295 163.593 201.213 163.799 201.213C164.004 201.218 164.2 201.301 164.345 201.446C164.49 201.591 164.573 201.787 164.578 201.992V267.73C164.58 267.834 164.561 267.938 164.524 268.035C164.486 268.133 164.429 268.222 164.357 268.297C164.284 268.372 164.198 268.433 164.102 268.475C164.007 268.517 163.904 268.54 163.799 268.542Z" fill="#D1D3D4"/>
<path d="M470.683 159.311H266.094C265.887 159.311 265.689 159.229 265.543 159.083C265.397 158.937 265.315 158.739 265.315 158.533C265.313 158.43 265.332 158.328 265.37 158.232C265.408 158.137 265.465 158.05 265.538 157.977C265.611 157.905 265.698 157.847 265.793 157.809C265.889 157.771 265.991 157.752 266.094 157.755H470.683C470.786 157.752 470.888 157.771 470.984 157.809C471.079 157.847 471.166 157.905 471.239 157.977C471.312 158.05 471.369 158.137 471.407 158.232C471.446 158.328 471.464 158.43 471.462 158.533C471.462 158.739 471.38 158.937 471.234 159.083C471.088 159.229 470.89 159.311 470.683 159.311Z" fill="#D1D3D4"/>
<path d="M470.683 179.306H266.094C265.991 179.309 265.889 179.29 265.793 179.252C265.698 179.214 265.611 179.156 265.538 179.084C265.465 179.011 265.408 178.924 265.37 178.829C265.332 178.733 265.313 178.631 265.315 178.528C265.315 178.322 265.397 178.124 265.543 177.978C265.689 177.832 265.887 177.75 266.094 177.75H470.683C470.89 177.75 471.088 177.832 471.234 177.978C471.38 178.124 471.462 178.322 471.462 178.528C471.464 178.631 471.446 178.733 471.407 178.829C471.369 178.924 471.312 179.011 471.239 179.084C471.166 179.156 471.079 179.214 470.984 179.252C470.888 179.29 470.786 179.309 470.683 179.306Z" fill="#D1D3D4"/>
<path d="M470.683 199.319H266.094C265.887 199.319 265.689 199.237 265.543 199.091C265.397 198.945 265.315 198.747 265.315 198.541C265.315 198.334 265.397 198.136 265.543 197.99C265.689 197.845 265.887 197.763 266.094 197.763H470.683C470.785 197.763 470.887 197.783 470.981 197.822C471.076 197.861 471.161 197.918 471.234 197.99C471.306 198.063 471.363 198.148 471.402 198.243C471.442 198.337 471.462 198.438 471.462 198.541C471.462 198.643 471.442 198.744 471.402 198.838C471.363 198.933 471.306 199.019 471.234 199.091C471.161 199.163 471.076 199.22 470.981 199.26C470.887 199.299 470.785 199.319 470.683 199.319Z" fill="#D1D3D4"/>
<path d="M470.683 219.331H266.094C265.905 219.303 265.732 219.209 265.608 219.064C265.483 218.92 265.414 218.735 265.414 218.545C265.414 218.354 265.483 218.169 265.608 218.025C265.732 217.88 265.905 217.786 266.094 217.758H470.683C470.872 217.786 471.045 217.88 471.169 218.025C471.294 218.169 471.363 218.354 471.363 218.545C471.363 218.735 471.294 218.92 471.169 219.064C471.045 219.209 470.872 219.303 470.683 219.331Z" fill="#D1D3D4"/>
<path d="M470.683 239.327H266.094C265.887 239.327 265.689 239.245 265.543 239.099C265.397 238.953 265.315 238.755 265.315 238.549C265.315 238.342 265.397 238.144 265.543 237.998C265.689 237.852 265.887 237.77 266.094 237.77H470.683C470.785 237.77 470.887 237.791 470.981 237.83C471.076 237.869 471.161 237.926 471.234 237.998C471.306 238.071 471.363 238.156 471.402 238.251C471.442 238.345 471.462 238.446 471.462 238.549C471.462 238.651 471.442 238.752 471.402 238.846C471.363 238.941 471.306 239.027 471.234 239.099C471.161 239.171 471.076 239.228 470.981 239.268C470.887 239.307 470.785 239.327 470.683 239.327Z" fill="#D1D3D4"/>
<path d="M481.177 132.312H244.802C244.596 132.312 244.398 132.23 244.252 132.084C244.106 131.938 244.024 131.74 244.024 131.534C244.028 131.329 244.111 131.133 244.256 130.988C244.402 130.843 244.597 130.76 244.802 130.756H481.177C481.382 130.76 481.577 130.843 481.723 130.988C481.868 131.133 481.951 131.329 481.955 131.534C481.955 131.74 481.873 131.938 481.727 132.084C481.581 132.23 481.383 132.312 481.177 132.312Z" fill="#D1D3D4"/>
<path d="M343.255 58.1831H268.971C267.027 58.1831 265.451 59.7584 265.451 61.7017V109.914C265.451 111.858 267.027 113.433 268.971 113.433H343.255C345.199 113.433 346.775 111.858 346.775 109.914V61.7017C346.775 59.7584 345.199 58.1831 343.255 58.1831Z" fill="#F9A826"/>
<path d="M245.445 266.952C245.342 266.954 245.24 266.935 245.145 266.897C245.049 266.859 244.962 266.802 244.89 266.729C244.817 266.656 244.76 266.569 244.721 266.474C244.683 266.379 244.664 266.276 244.667 266.173V42.2307C244.667 42.0243 244.749 41.8264 244.895 41.6804C245.041 41.5345 245.239 41.4525 245.445 41.4525C245.65 41.4568 245.846 41.5402 245.991 41.6852C246.136 41.8302 246.219 42.0256 246.224 42.2307V266.173C246.224 266.276 246.204 266.377 246.165 266.471C246.125 266.566 246.068 266.652 245.996 266.724C245.923 266.796 245.838 266.853 245.743 266.892C245.649 266.932 245.547 266.952 245.445 266.952Z" fill="#D1D3D4"/>
<path d="M482.751 42.4506H59.6257C59.4192 42.4506 59.2212 42.3686 59.0752 42.2227C58.9292 42.0767 58.8472 41.8788 58.8472 41.6724C58.8515 41.4674 58.9349 41.272 59.08 41.127C59.2251 40.9819 59.4206 40.8986 59.6257 40.8942H482.751C482.959 40.8942 483.159 40.9756 483.307 41.1211C483.456 41.2666 483.542 41.4645 483.546 41.6724C483.546 41.7761 483.526 41.8786 483.485 41.9742C483.445 42.0697 483.386 42.1562 483.312 42.2287C483.238 42.3012 483.15 42.3582 483.054 42.3963C482.957 42.4344 482.854 42.4528 482.751 42.4506Z" fill="#D1D3D4"/>
<path d="M474.034 269.117H69.1206C66.4841 269.117 63.9554 268.071 62.0895 266.21C60.2237 264.348 59.1732 261.822 59.1687 259.187V25.2125C59.1732 22.5758 60.2231 20.0483 62.0885 18.1839C63.9539 16.3194 66.4826 15.27 69.1206 15.2655H474.034C476.672 15.27 479.201 16.3194 481.066 18.1839C482.932 20.0483 483.982 22.5758 483.986 25.2125V259.187C483.982 261.822 482.931 264.348 481.065 266.21C479.2 268.071 476.671 269.117 474.034 269.117ZM69.1206 16.9572C66.9314 16.9616 64.8332 17.8328 63.2853 19.38C61.7373 20.9272 60.8657 23.0244 60.8612 25.2125V259.187C60.8657 261.373 61.7378 263.469 63.2863 265.013C64.8347 266.558 66.933 267.425 69.1206 267.425H474.034C476.222 267.425 478.32 266.558 479.869 265.013C481.417 263.469 482.289 261.373 482.294 259.187V25.2125C482.289 23.0244 481.418 20.9272 479.87 19.38C478.322 17.8328 476.223 16.9616 474.034 16.9572H69.1206Z" fill="#2F2E41"/>
<path d="M318.46 282.972L269.885 282.853L221.327 282.972C221.327 282.972 217.045 326.955 189.17 345.783H350.651C322.742 327.006 318.46 282.972 318.46 282.972Z" fill="white"/>
<path d="M350.634 346.629H189.136C188.957 346.629 188.783 346.572 188.64 346.465C188.496 346.358 188.391 346.208 188.34 346.037C188.282 345.864 188.284 345.677 188.345 345.505C188.407 345.333 188.524 345.187 188.679 345.09C215.911 326.752 220.43 283.327 220.481 282.887C220.502 282.678 220.6 282.484 220.757 282.343C220.913 282.202 221.117 282.125 221.327 282.126L269.885 282.008L318.46 282.126C318.669 282.129 318.871 282.207 319.026 282.347C319.182 282.487 319.281 282.679 319.306 282.887C319.306 283.327 323.876 326.752 351.108 345.09C351.257 345.192 351.369 345.339 351.43 345.509C351.49 345.679 351.496 345.864 351.447 346.037C351.392 346.21 351.284 346.36 351.138 346.467C350.992 346.573 350.815 346.63 350.634 346.629ZM191.793 344.938H347.994C323.96 326.854 318.426 289.603 317.715 283.818L269.885 283.699L222.072 283.818C221.344 289.603 215.827 326.854 191.793 344.938Z" fill="#2F2E41"/>
<path d="M362.871 345.783H176.916C172.373 345.783 168.69 349.464 168.69 354.005V354.309C168.69 358.85 172.373 362.531 176.916 362.531H362.871C367.414 362.531 371.096 358.85 371.096 354.309V354.005C371.096 349.464 367.414 345.783 362.871 345.783Z" fill="white"/>
<path d="M362.871 363.394H176.916C174.511 363.389 172.207 362.432 170.506 360.733C168.806 359.033 167.849 356.73 167.844 354.326V354.005C167.849 351.601 168.806 349.298 170.506 347.598C172.207 345.899 174.511 344.942 176.916 344.938H362.871C365.276 344.942 367.58 345.899 369.281 347.598C370.981 349.298 371.938 351.601 371.943 354.005V354.326C371.938 356.73 370.981 359.033 369.281 360.733C367.58 362.432 365.276 363.389 362.871 363.394ZM176.916 346.629C174.96 346.634 173.086 347.412 171.703 348.794C170.32 350.177 169.541 352.05 169.537 354.005V354.326C169.541 356.281 170.32 358.154 171.703 359.537C173.086 360.919 174.96 361.697 176.916 361.702H362.871C364.827 361.697 366.701 360.919 368.084 359.537C369.467 358.154 370.246 356.281 370.25 354.326V354.005C370.246 352.05 369.467 350.177 368.084 348.794C366.701 347.412 364.827 346.634 362.871 346.629H176.916Z" fill="#2F2E41"/>
<path d="M86.5365 35.3794C89.4623 35.3794 91.8341 33.0088 91.8341 30.0845C91.8341 27.1602 89.4623 24.7896 86.5365 24.7896C83.6108 24.7896 81.239 27.1602 81.239 30.0845C81.239 33.0088 83.6108 35.3794 86.5365 35.3794Z" fill="#F9A826"/>
<path d="M107.236 35.3794C110.162 35.3794 112.533 33.0088 112.533 30.0845C112.533 27.1602 110.162 24.7896 107.236 24.7896C104.31 24.7896 101.938 27.1602 101.938 30.0845C101.938 33.0088 104.31 35.3794 107.236 35.3794Z" fill="#2F2E41"/>
<path d="M127.952 35.3794C130.878 35.3794 133.25 33.0088 133.25 30.0845C133.25 27.1602 130.878 24.7896 127.952 24.7896C125.026 24.7896 122.655 27.1602 122.655 30.0845C122.655 33.0088 125.026 35.3794 127.952 35.3794Z" fill="#2F2E41"/>
<path d="M96.2177 305.911L110.028 356.576C110.028 356.576 134.265 362.209 133.723 363.766C133.182 365.322 95.5576 370.414 95.5576 370.414L79.5635 311.95" fill="white"/>
<path d="M95.5575 371.26C95.3722 371.259 95.1923 371.197 95.0456 371.084C94.8988 370.971 94.7932 370.813 94.7451 370.634L78.7509 312.102C78.7203 311.996 78.7114 311.884 78.7248 311.774C78.7382 311.664 78.7735 311.557 78.8287 311.461C78.884 311.365 78.958 311.281 79.0464 311.214C79.1348 311.146 79.2357 311.098 79.3433 311.07C79.5587 311.013 79.788 311.043 79.9813 311.154C80.1746 311.265 80.3163 311.448 80.3757 311.662L96.1837 369.467C108.607 367.775 127.444 364.95 132.149 363.597C124.843 361.092 117.394 359.025 109.842 357.405C109.694 357.372 109.558 357.299 109.448 357.195C109.338 357.091 109.258 356.959 109.216 356.813L95.4051 306.063C95.3468 305.839 95.38 305.6 95.4974 305.4C95.6149 305.201 95.8069 305.056 96.0314 304.997C96.2558 304.939 96.4942 304.972 96.6942 305.089C96.8942 305.207 97.0393 305.399 97.0976 305.623L110.79 355.933C119.456 357.963 133.537 361.482 134.485 363.258C134.605 363.523 134.634 363.82 134.57 364.104C134.366 364.713 133.876 366.168 95.6421 371.311L95.5575 371.26Z" fill="#2F2E41"/>
<path d="M53.245 289.045L49.2676 365.846C49.2676 365.846 87.1288 374.051 87.2642 373.07C87.3996 372.089 66.9542 357.49 66.9542 357.49L72.8949 302.917" fill="white"/>
<path d="M86.9257 373.933C85.064 373.933 78.057 372.968 49.0137 366.675C48.8154 366.632 48.6388 366.52 48.5149 366.359C48.3911 366.198 48.328 365.999 48.3367 365.796L52.3141 289.011C52.3253 288.787 52.4252 288.576 52.5919 288.425C52.7585 288.275 52.9782 288.196 53.2027 288.207C53.4271 288.219 53.6379 288.319 53.7887 288.485C53.9394 288.652 54.0178 288.871 54.0066 289.096L50.0631 365.221C61.7752 367.758 79.2926 371.378 85.0978 372.19C81.7128 369.297 72.3872 362.565 66.2942 358.234C66.1742 358.146 66.0797 358.027 66.0202 357.89C65.9608 357.754 65.9385 357.604 65.9557 357.456L71.8625 302.832C71.8731 302.721 71.9056 302.613 71.9582 302.514C72.0108 302.415 72.0825 302.328 72.1691 302.257C72.2556 302.186 72.3554 302.134 72.4625 302.101C72.5697 302.069 72.6821 302.059 72.7934 302.071C73.0197 302.096 73.2267 302.21 73.3694 302.388C73.512 302.565 73.5788 302.792 73.555 303.018L67.6651 357.151C88.229 371.767 88.0936 372.63 87.9751 373.256C87.9295 373.493 87.7966 373.704 87.6027 373.848C87.6027 373.848 87.4504 373.933 86.9257 373.933Z" fill="#2F2E41"/>
<path d="M118.034 356.119L112.956 363.901L92.9849 366.253L94.9482 373.899C94.9482 373.899 138.953 368.401 139.884 364.392C140.815 360.382 118.034 356.119 118.034 356.119Z" fill="#2F2E41"/>
<path d="M45.6626 367.606L46.8135 359.757L69.9331 366.083L74.4351 360.146C74.4351 360.146 91.3601 372.427 89.0583 375.066C86.7565 377.705 61.7075 372.935 45.6626 367.606Z" fill="#2F2E41"/>
<path d="M37.911 101.524C40.154 100.861 42.562 101.042 44.681 102.031C46.0242 98.8696 48.1258 96.0875 50.8003 93.9307C53.4747 91.7739 56.6396 90.3088 60.0151 89.665C62.3653 89.281 64.7422 89.083 67.1236 89.0729C70.6778 89.0729 74.5029 89.2928 77.2786 91.4751C78.8725 92.9029 80.0344 94.7484 80.6327 96.8025C81.2309 98.8565 81.2417 101.037 80.6636 103.097C78.5987 111.555 72.2011 113.636 66.3958 118.423C63.5793 120.897 61.3213 123.941 59.7718 127.353C58.2224 130.766 57.4168 134.468 57.4086 138.216C57.4086 154.896 62.6892 173.335 44.3933 183.35C32.732 189.71 16.924 184.787 9.10466 174.045C7.34528 171.719 6.04697 169.077 5.27962 166.264C3.36709 158.668 6.68439 150.717 10.8479 144.086C15.0115 137.455 19.3104 131.449 22.797 124.649C25.8096 118.728 26.182 111.589 30.5486 106.277C32.4445 103.962 35.0196 102.299 37.911 101.524Z" fill="white"/>
<path d="M33.0197 187.02C28.2541 186.976 23.564 185.825 19.3197 183.658C15.0754 181.492 11.393 178.369 8.56306 174.536C6.74219 172.122 5.39808 169.383 4.60261 166.467C2.91011 159.852 4.78879 152.375 10.2725 143.629C11.4742 141.718 12.7097 139.84 13.9283 137.962C16.9256 133.546 19.6827 128.972 22.1877 124.26C23.2987 121.89 24.2156 119.435 24.9295 116.918C25.8849 112.898 27.6091 109.101 30.007 105.736C31.9741 103.298 34.6456 101.526 37.6571 100.661C39.846 100.017 42.184 100.094 44.3256 100.881C45.7904 97.7681 47.9787 95.0508 50.708 92.9555C53.4374 90.8602 56.6285 89.4478 60.0151 88.8361C62.4103 88.4462 64.8322 88.2426 67.259 88.2271C70.8471 88.2271 74.9091 88.4301 77.9894 90.7984C79.7283 92.318 81.0022 94.2979 81.6639 96.5098C82.3258 98.7217 82.3486 101.076 81.7298 103.3C80.0373 110.067 75.9076 112.892 71.5748 115.92C70.1531 116.901 68.6807 117.916 67.259 119.066C64.5365 121.457 62.3542 124.4 60.8572 127.698C59.3602 130.997 58.5827 134.577 58.5764 138.199C58.5764 141.227 58.7626 144.374 58.9319 147.419C59.7273 161.29 60.6244 175.652 45.1211 184.077C41.4046 186.074 37.2387 187.087 33.0197 187.02ZM38.0972 102.336C35.4369 103.098 33.0742 104.656 31.3272 106.802C29.0632 109.997 27.4369 113.598 26.5374 117.408C25.8066 120.022 24.8554 122.568 23.694 125.021C21.1659 129.787 18.3804 134.412 15.35 138.876C14.1314 140.753 12.8959 142.631 11.7111 144.526C6.48129 152.866 4.70417 159.903 6.24434 166.061C6.9887 168.764 8.24084 171.302 9.93399 173.538C17.9057 184.5 33.2566 188.56 44.1394 182.605C58.6272 174.671 57.8825 161.476 57.0701 147.503C56.9009 144.441 56.7147 141.278 56.7147 138.216C56.7204 134.341 57.5538 130.512 59.1591 126.985C60.7644 123.458 63.1047 120.314 66.0234 117.764C67.4959 116.563 68.9853 115.531 70.4409 114.533C74.7737 111.555 78.5141 108.984 79.9866 102.911C80.8497 99.409 80.2066 94.7231 76.8724 92.1348C74.2151 90.0879 70.4747 89.868 67.2082 89.9188C64.8713 89.9191 62.5386 90.1172 60.2351 90.5108C57 91.1226 53.9662 92.5237 51.4033 94.5896C48.8404 96.6554 46.8278 99.322 45.5442 102.353C45.4424 102.556 45.2669 102.713 45.0534 102.792C44.8399 102.868 44.6067 102.868 44.3933 102.792C42.4339 101.873 40.2033 101.71 38.131 102.336H38.0972Z" fill="#2F2E41"/>
<path d="M93.2218 157.027C89.4644 158.465 83.2868 159.802 81.6789 154.591C81.431 153.666 81.3508 152.703 81.442 151.749C81.5942 150.345 81.8488 148.954 82.2036 147.588C83.2113 143.763 84.536 140.028 86.164 136.423C86.5533 135.509 87.3319 134.41 88.2797 134.731C89.2275 135.052 89.1936 136.051 89.1767 136.896C89.1767 139.248 88.7874 141.633 88.8382 143.984C93.8141 142.716 96.9453 137.455 101.684 136.321C103.021 136.017 104.646 135.915 104.798 137.641C104.968 139.772 101.109 141.447 99.8225 142.547C101.266 141.309 102.923 140.345 104.714 139.705C105.214 139.486 105.762 139.399 106.305 139.451C106.579 139.489 106.833 139.615 107.028 139.81C107.224 140.006 107.35 140.26 107.388 140.533C107.374 140.756 107.316 140.974 107.217 141.175C107.118 141.375 106.981 141.554 106.813 141.701C106.075 142.533 105.259 143.292 104.375 143.968C105.246 142.93 106.437 142.21 107.76 141.921C108.089 141.804 108.447 141.791 108.783 141.885C109.119 141.979 109.418 142.175 109.639 142.445C110.198 143.342 109.131 144.357 108.217 144.881C108.942 144.227 109.832 143.783 110.79 143.595C111.269 143.514 111.76 143.62 112.164 143.891C112.567 144.161 112.85 144.576 112.956 145.05C112.938 145.429 112.837 145.798 112.662 146.134C112.487 146.47 112.241 146.764 111.941 146.996C107.1 151.817 99.5179 154.625 93.2218 157.027Z" fill="white"/>
<path d="M87.2136 159.159C86.0484 159.193 84.8908 158.962 83.8286 158.482C83.1019 158.122 82.4603 157.612 81.9467 156.985C81.433 156.357 81.0591 155.628 80.8498 154.845C80.5548 153.818 80.4572 152.745 80.562 151.681C80.7154 150.232 80.9757 148.796 81.3406 147.385C82.3719 143.488 83.7307 139.685 85.4026 136.017C86.1473 134.325 87.349 133.445 88.5676 133.868C89.2615 134.105 90.0908 134.816 90.04 136.846C90.04 137.861 90.04 138.876 89.8708 139.891C89.7015 140.906 89.7354 141.802 89.7015 142.75C91.5549 141.884 93.2667 140.743 94.779 139.366C96.6735 137.588 98.9397 136.254 101.414 135.458C101.941 135.275 102.5 135.202 103.057 135.246C103.613 135.289 104.154 135.448 104.646 135.712C104.924 135.927 105.15 136.2 105.309 136.514C105.467 136.827 105.553 137.171 105.56 137.522C105.589 137.876 105.549 138.232 105.442 138.571C105.756 138.52 106.076 138.52 106.39 138.571C106.834 138.659 107.238 138.888 107.543 139.223C107.847 139.558 108.036 139.982 108.082 140.432C108.1 140.612 108.1 140.793 108.082 140.973C108.512 140.908 108.951 140.965 109.349 141.139C109.748 141.312 110.089 141.595 110.333 141.954C110.477 142.18 110.57 142.434 110.604 142.699C111.406 142.62 112.208 142.856 112.838 143.358C113.079 143.55 113.28 143.788 113.428 144.058C113.576 144.328 113.669 144.625 113.701 144.932C113.696 145.433 113.579 145.927 113.36 146.377C113.14 146.828 112.823 147.224 112.432 147.537C107.625 152.274 100.483 155.014 94.2036 157.433L93.3573 157.771C91.4008 158.572 89.3244 159.041 87.2136 159.159ZM87.9413 135.475C87.6705 135.475 87.2474 136 86.9428 136.693C85.3237 140.299 84.0102 144.033 83.0162 147.858C82.6726 149.186 82.4293 150.537 82.2884 151.901C82.2088 152.753 82.2775 153.611 82.4915 154.439C82.6371 154.997 82.8995 155.517 83.2612 155.967C83.623 156.416 84.076 156.783 84.5902 157.044C87.0782 158.245 90.8694 157.044 92.9173 156.317L93.7635 155.995C99.8904 153.627 106.847 150.92 111.416 146.471C111.755 146.133 112.212 145.625 112.178 145.219C112.157 145.053 112.072 144.901 111.941 144.796C111.659 144.585 111.311 144.483 110.959 144.509C110.458 144.591 109.983 144.788 109.571 145.084C109.305 145.316 109.016 145.52 108.708 145.693C108.52 145.798 108.299 145.828 108.089 145.778C107.879 145.728 107.695 145.601 107.574 145.422C107.459 145.243 107.415 145.026 107.453 144.816C107.491 144.606 107.607 144.417 107.777 144.289L108.539 143.731C108.751 143.569 108.915 143.353 109.013 143.105C108.911 142.817 108.505 142.733 107.981 142.834C107.421 142.951 106.884 143.156 106.39 143.443C105.911 143.899 105.408 144.328 104.883 144.729C104.719 144.865 104.508 144.933 104.295 144.921C104.082 144.908 103.881 144.816 103.734 144.662C103.586 144.507 103.502 144.303 103.499 144.09C103.495 143.876 103.573 143.669 103.715 143.511C104.204 142.954 104.775 142.475 105.408 142.09C105.696 141.819 105.966 141.532 106.237 141.227C106.508 140.923 106.593 140.753 106.593 140.652C106.593 140.55 106.423 140.415 106.203 140.381C105.809 140.356 105.414 140.425 105.053 140.584C104.426 140.808 103.815 141.074 103.225 141.379C102.734 141.734 102.226 142.056 101.752 142.36C101.294 142.637 100.853 142.943 100.432 143.274C100.35 143.353 100.252 143.415 100.145 143.455C100.038 143.495 99.9244 143.514 99.8103 143.509C99.6962 143.504 99.5842 143.476 99.4811 143.427C99.378 143.378 99.2859 143.308 99.2105 143.223C99.135 143.137 99.0777 143.037 99.042 142.928C99.0062 142.82 98.9929 142.705 99.0026 142.592C99.0124 142.478 99.0451 142.367 99.0988 142.266C99.1524 142.166 99.226 142.077 99.3149 142.005C100.226 141.224 101.219 140.543 102.277 139.975C103.225 139.282 103.969 138.503 103.969 137.81C103.969 137.387 103.783 137.269 103.732 137.235C103.682 137.201 103.106 136.964 101.904 137.235C99.6755 137.981 97.6365 139.205 95.9299 140.821C93.9938 142.648 91.684 144.033 89.1599 144.881C89.0363 144.915 88.9065 144.921 88.7805 144.897C88.6544 144.874 88.5353 144.822 88.4322 144.746C88.3319 144.666 88.2499 144.566 88.1915 144.452C88.1331 144.339 88.0997 144.214 88.0937 144.086C88.0937 142.682 88.0937 141.278 88.2629 139.908C88.3475 138.926 88.4152 137.945 88.4322 136.964C88.4491 135.983 88.2798 135.678 88.0937 135.628L87.9413 135.475Z" fill="#2F2E41"/>
<path d="M89.0752 144.204C90.2108 145.576 90.8447 147.294 90.8724 149.075C90.9001 150.856 90.3199 152.592 89.2275 153.999H89.7184" fill="white"/>
<path d="M89.2276 154.845C89.0694 154.843 88.9147 154.798 88.7804 154.715C88.6461 154.631 88.5373 154.512 88.466 154.371C88.3951 154.225 88.367 154.062 88.3849 153.9C88.4029 153.738 88.4662 153.585 88.5675 153.458C89.5344 152.208 90.0476 150.666 90.023 149.086C89.9984 147.507 89.4375 145.982 88.4321 144.763C88.2863 144.592 88.2141 144.371 88.2316 144.147C88.249 143.923 88.3547 143.716 88.5252 143.57C88.6958 143.424 88.9173 143.352 89.1411 143.37C89.3649 143.387 89.5726 143.493 89.7184 143.663C90.872 145.042 91.5668 146.746 91.7064 148.538C91.8459 150.329 91.4232 152.12 90.497 153.661C90.5047 153.745 90.5047 153.83 90.497 153.915C90.5039 154.026 90.4887 154.137 90.4524 154.242C90.4161 154.348 90.3594 154.445 90.2855 154.528C90.2116 154.611 90.122 154.679 90.0218 154.728C89.9215 154.776 89.8127 154.805 89.7015 154.811H89.2107L89.2276 154.845Z" fill="#2F2E41"/>
<path d="M208.312 88.9545H95.7438C92.6217 88.9545 90.0908 91.4842 90.0908 94.6047V142.056C90.0908 145.176 92.6217 147.706 95.7438 147.706H208.312C211.434 147.706 213.965 145.176 213.965 142.056V94.6047C213.965 91.4842 211.434 88.9545 208.312 88.9545Z" fill="white"/>
<path d="M208.312 148.552H95.7436C94.8901 148.552 94.045 148.384 93.2565 148.057C92.4679 147.731 91.7515 147.252 91.148 146.649C90.5445 146.046 90.0657 145.33 89.7391 144.542C89.4125 143.754 89.2444 142.909 89.2444 142.056V94.6893C89.2444 92.9664 89.9291 91.3141 91.148 90.0959C92.3668 88.8777 94.0199 88.1933 95.7436 88.1933H208.312C210.035 88.1933 211.689 88.8777 212.907 90.0959C214.126 91.3141 214.811 92.9664 214.811 94.6893V142.141C214.789 143.849 214.094 145.479 212.878 146.679C211.661 147.879 210.021 148.552 208.312 148.552ZM95.7436 89.8003C94.4688 89.8003 93.2462 90.3065 92.3447 91.2075C91.4433 92.1085 90.9369 93.3305 90.9369 94.6047V142.056C90.9369 143.33 91.4433 144.552 92.3447 145.453C93.2462 146.354 94.4688 146.86 95.7436 146.86H208.312C209.587 146.86 210.809 146.354 211.711 145.453C212.612 144.552 213.118 143.33 213.118 142.056V94.6893C213.118 93.4151 212.612 92.1931 211.711 91.2921C210.809 90.3911 209.587 89.8849 208.312 89.8849L95.7436 89.8003Z" fill="#2F2E41"/>
<path d="M118.643 134.054C127.327 134.054 134.367 127.018 134.367 118.339C134.367 109.659 127.327 102.623 118.643 102.623C109.959 102.623 102.92 109.659 102.92 118.339C102.92 127.018 109.959 134.054 118.643 134.054Z" fill="#2F2E41"/>
<path d="M200.391 110.845H150.445C150.221 110.845 150.006 110.756 149.847 110.597C149.688 110.438 149.599 110.223 149.599 109.999C149.599 109.775 149.688 109.559 149.847 109.401C150.006 109.242 150.221 109.153 150.445 109.153H200.391C200.616 109.153 200.831 109.242 200.989 109.401C201.148 109.559 201.237 109.775 201.237 109.999C201.237 110.223 201.148 110.438 200.989 110.597C200.831 110.756 200.616 110.845 200.391 110.845Z" fill="#2F2E41"/>
<path d="M200.391 119.185H150.445C150.221 119.185 150.006 119.095 149.847 118.937C149.688 118.778 149.599 118.563 149.599 118.339C149.599 118.114 149.688 117.899 149.847 117.741C150.006 117.582 150.221 117.493 150.445 117.493H200.391C200.616 117.493 200.831 117.582 200.989 117.741C201.148 117.899 201.237 118.114 201.237 118.339C201.237 118.563 201.148 118.778 200.989 118.937C200.831 119.095 200.616 119.185 200.391 119.185Z" fill="#2F2E41"/>
<path d="M183.043 127.558H150.445C150.221 127.558 150.006 127.469 149.847 127.311C149.688 127.152 149.599 126.937 149.599 126.713C149.599 126.488 149.688 126.273 149.847 126.114C150.006 125.956 150.221 125.867 150.445 125.867H183.043C183.267 125.867 183.483 125.956 183.641 126.114C183.8 126.273 183.889 126.488 183.889 126.713C183.889 126.937 183.8 127.152 183.641 127.311C183.483 127.469 183.267 127.558 183.043 127.558Z" fill="#2F2E41"/>
<path d="M92.1726 156.418C92.1726 156.418 112.28 169.816 120.099 165.79C127.918 161.764 144.014 147.486 144.014 147.486C144.014 147.486 147.822 138.097 151.173 138.757C154.524 139.417 151.393 148.366 151.393 148.366C151.393 148.366 171.28 144.982 171.06 147.029C170.84 149.076 160.33 153.948 155.641 154.845C150.953 155.742 134.011 182.554 122.638 185.684C111.264 188.814 99.8396 181.878 87.5352 174.282" fill="white"/>
<path d="M116.781 187.308C106.982 187.308 97.2669 181.303 87.078 175.01C86.9817 174.952 86.8979 174.876 86.8317 174.786C86.7655 174.696 86.7184 174.593 86.6931 174.484C86.6678 174.375 86.6648 174.262 86.6844 174.151C86.7041 174.041 86.7458 173.936 86.8072 173.842C86.8627 173.747 86.9372 173.663 87.0261 173.597C87.115 173.531 87.2165 173.484 87.3242 173.459C87.432 173.433 87.5438 173.43 87.6528 173.45C87.7619 173.469 87.8657 173.511 87.9581 173.572C99.9241 180.947 111.213 187.934 122.384 184.872C128.95 183.062 137.616 172.878 144.606 164.707C150.191 158.144 153.458 154.422 155.54 154.016C160.143 153.136 168.453 149.059 170.027 147.249C167.776 146.877 159.263 147.858 151.579 149.161C151.436 149.184 151.289 149.169 151.152 149.119C151.016 149.069 150.895 148.984 150.801 148.873C150.703 148.761 150.638 148.625 150.611 148.48C150.584 148.334 150.597 148.184 150.648 148.044C151.461 145.693 152.442 141.43 151.596 139.958C151.548 139.85 151.473 139.756 151.378 139.685C151.283 139.614 151.172 139.568 151.055 139.552C149.244 139.18 146.282 144.221 144.86 147.74C144.807 147.859 144.732 147.968 144.64 148.061C143.963 148.653 128.375 162.474 120.539 166.501C112.381 170.696 92.5787 157.619 91.7663 157.061C91.6021 156.929 91.4931 156.74 91.4608 156.532C91.4286 156.324 91.4752 156.111 91.5917 155.935C91.7081 155.759 91.886 155.633 92.0905 155.582C92.295 155.531 92.5113 155.557 92.6971 155.657C98.1808 159.311 113.735 168.108 119.777 164.995C127.038 161.273 141.78 148.366 143.371 146.928C144.217 144.898 147.686 137.15 151.41 137.878C151.768 137.945 152.106 138.093 152.4 138.31C152.693 138.527 152.933 138.807 153.102 139.129C154.236 141.109 153.322 145.135 152.696 147.266C159.686 146.116 170.129 144.695 171.635 146.116C171.761 146.241 171.858 146.392 171.92 146.559C171.981 146.725 172.005 146.903 171.991 147.08C171.669 149.888 159.991 154.845 155.878 155.623C154.287 155.928 150.039 160.918 145.926 165.773C138.801 174.113 129.949 184.517 122.874 186.462C120.891 187.019 118.841 187.304 116.781 187.308Z" fill="#2F2E41"/>
<path d="M84.5225 203.413C86.215 215.102 86.5704 219.703 103.242 315.367C103.242 315.367 64.314 324.519 49.2846 327.209C39.1296 306.283 34.5429 287.455 27.6206 265.311C23.1355 250.948 19.7336 231.714 26.182 218.13C27.2144 215.965 37.1663 194.87 37.1663 194.87C37.1663 194.87 84.5902 203.836 84.5225 203.413Z" fill="#2F2E41"/>
<path d="M50.5371 150.261C51.1295 137.488 48.5569 111.589 48.5569 111.589C48.5569 111.589 64.8387 112.519 70.3055 104.704C77.0755 109.948 78.3957 124.733 77.0755 129.165C74.6552 137.894 63.3155 135.932 63.3155 135.932L64.7541 151.901L50.5371 150.261Z" fill="white"/>
<path d="M64.8387 152.781L50.5201 151.089C50.3078 151.064 50.1129 150.959 49.9747 150.796C49.8366 150.633 49.7654 150.423 49.7754 150.21C50.3678 137.658 47.8291 111.927 47.7952 111.674C47.786 111.551 47.8023 111.427 47.8431 111.311C47.8839 111.194 47.9482 111.087 48.0322 110.997C48.1187 110.911 48.222 110.845 48.3356 110.801C48.4492 110.757 48.5706 110.738 48.6922 110.743C48.8446 110.743 64.5679 111.555 69.6962 104.213C69.7617 104.118 69.846 104.038 69.9438 103.976C70.0417 103.915 70.1511 103.875 70.2652 103.857C70.3794 103.84 70.4959 103.846 70.6076 103.875C70.7193 103.904 70.8239 103.956 70.9148 104.027C77.9387 109.525 79.3773 124.699 78.074 129.402C75.9246 137.082 67.4451 137.167 64.4156 136.93L65.7696 151.885C65.7852 152.009 65.7702 152.136 65.726 152.254C65.6818 152.372 65.6096 152.477 65.5157 152.561C65.4256 152.645 65.3184 152.708 65.2015 152.746C65.0845 152.784 64.9607 152.796 64.8387 152.781ZM51.4172 149.55L63.9078 151.022L62.5538 136.017C62.5375 135.885 62.5537 135.752 62.6009 135.628C62.6481 135.504 62.7249 135.394 62.8246 135.306C62.9193 135.22 63.0328 135.156 63.1562 135.121C63.2795 135.086 63.4094 135.08 63.5355 135.103C63.9755 135.103 74.1644 136.795 76.3477 128.895C77.397 125.139 76.3477 111.437 70.4409 105.888C65.1434 112.232 53.0589 112.486 49.4877 112.435C49.9447 117.171 51.8234 138.03 51.4172 149.55Z" fill="#2F2E41"/>
<path d="M63.4001 136.017C60.8371 135.705 58.4081 134.699 56.3762 133.107C56.3762 133.107 59.4735 140.855 64.2463 142.005L63.4001 136.017Z" fill="#2F2E41"/>
<path d="M64.2464 142.783H64.0602C58.9827 141.532 55.8008 133.75 55.5977 133.412C55.5326 133.247 55.5256 133.065 55.5779 132.896C55.6302 132.727 55.7387 132.58 55.8854 132.481C56.0366 132.385 56.2157 132.343 56.3939 132.361C56.572 132.38 56.7388 132.458 56.8671 132.583C58.9658 134.697 63.3832 135.255 63.417 135.272C63.5878 135.29 63.7475 135.365 63.8704 135.484C63.9933 135.604 64.0721 135.762 64.094 135.932L64.9403 141.921C64.9626 142.044 64.9525 142.172 64.911 142.29C64.8695 142.409 64.7979 142.515 64.7033 142.597C64.5746 142.706 64.4146 142.771 64.2464 142.783ZM58.3226 135.306C59.444 137.546 61.152 139.44 63.2647 140.787L62.6723 136.643C61.1705 136.388 59.7083 135.939 58.3226 135.306Z" fill="#2F2E41"/>
<path d="M75.6707 143.68L112.906 163.98L103.919 189.981C103.919 189.981 57.1886 165.266 56.867 158.567C56.5455 151.868 75.6707 143.68 75.6707 143.68Z" fill="#F9A826"/>
<path d="M85.0979 207.997C87.4098 194.889 87.5984 181.495 85.6564 168.328C84.2347 159.734 84.7933 153.695 81.9329 149.043C72.3703 133.428 35.1015 138.081 29.6855 148.924C24.2695 159.768 34.3737 199.353 34.3737 199.353L85.0979 207.997Z" fill="#F9A826"/>
<path d="M51.214 120.673C51.0062 119.669 50.5272 118.741 49.829 117.989C49.1309 117.238 48.2402 116.692 47.2535 116.41C46.8082 116.273 46.3393 116.229 45.8762 116.282C45.4131 116.334 44.9659 116.482 44.5625 116.715C44.0821 117.124 43.7169 117.651 43.5032 118.244C43.2894 118.838 43.2345 119.477 43.3439 120.098C43.4871 122.04 44.3646 123.854 45.798 125.173C47.227 126.485 49.1047 127.199 51.0447 127.169" fill="white"/>
<path d="M50.9432 127.914C48.8261 127.916 46.7849 127.125 45.2225 125.698C43.6407 124.234 42.6679 122.229 42.4976 120.081C42.3834 119.324 42.4702 118.551 42.7495 117.838C43.0287 117.126 43.4905 116.499 44.0885 116.021C44.5892 115.712 45.1508 115.514 45.7349 115.441C46.319 115.368 46.912 115.421 47.4735 115.598C48.6112 115.92 49.6388 116.548 50.4446 117.413C51.2503 118.278 51.8032 119.347 52.0433 120.504C52.0832 120.726 52.0347 120.954 51.9082 121.141C51.7817 121.327 51.5872 121.457 51.3663 121.502C51.1464 121.542 50.9199 121.493 50.736 121.366C50.5521 121.239 50.4258 121.045 50.3846 120.826C50.199 119.977 49.7859 119.195 49.1896 118.563C48.5933 117.932 47.8363 117.474 46.9996 117.239C46.6766 117.125 46.3328 117.08 45.9912 117.11C45.6497 117.139 45.3183 117.241 45.0194 117.408C44.6837 117.732 44.4303 118.131 44.2801 118.573C44.13 119.014 44.0875 119.485 44.1562 119.946C44.278 121.667 45.0529 123.277 46.3226 124.446C47.6036 125.59 49.277 126.196 50.9939 126.137C51.217 126.142 51.4298 126.232 51.5875 126.39C51.7453 126.548 51.8359 126.76 51.8402 126.983C51.8402 127.208 51.751 127.423 51.5923 127.581C51.4336 127.74 51.2184 127.829 50.9939 127.829L50.9432 127.914Z" fill="#2F2E41"/>
<path d="M71.2593 114.416C71.6697 114.288 71.8084 113.563 71.5689 112.796C71.3295 112.029 70.8026 111.511 70.3921 111.639C69.9817 111.767 69.843 112.492 70.0825 113.259C70.322 114.026 70.8488 114.544 71.2593 114.416Z" fill="#2F2E41"/>
<path d="M74.2829 129.791C73.271 130.441 72.1629 130.926 70.9994 131.229C70.2415 131.515 69.4205 131.592 68.6225 131.453C67.8245 131.313 67.0788 130.961 66.4635 130.434C66.0243 129.895 65.6964 129.274 65.4988 128.607" fill="white"/>
<path d="M69.2052 132.329C68.5793 132.365 67.953 132.265 67.3689 132.038C66.7848 131.81 66.2566 131.459 65.8202 131.009C65.3038 130.388 64.9181 129.669 64.6862 128.895C64.6457 128.792 64.6263 128.681 64.6292 128.571C64.632 128.46 64.6571 128.351 64.7028 128.25C64.7486 128.149 64.8141 128.058 64.8956 127.983C64.977 127.908 65.0728 127.85 65.1771 127.812C65.2815 127.771 65.3929 127.752 65.5049 127.754C65.617 127.757 65.7274 127.782 65.8297 127.828C65.9321 127.873 66.0243 127.939 66.1011 128.02C66.178 128.102 66.2378 128.198 66.2772 128.303C66.4384 128.873 66.7085 129.408 67.0727 129.876C68.1051 131.009 70.1699 130.586 70.7792 130.417C71.8506 130.127 72.872 129.676 73.8088 129.081C73.9974 128.96 74.2263 128.919 74.4452 128.966C74.6641 129.014 74.8552 129.146 74.9766 129.335C75.0388 129.427 75.0815 129.531 75.1024 129.641C75.1233 129.751 75.1218 129.863 75.0981 129.972C75.0744 130.081 75.029 130.184 74.9645 130.275C74.9 130.366 74.8178 130.443 74.7228 130.502C73.6358 131.197 72.4485 131.722 71.2024 132.058C70.5508 132.232 69.8797 132.323 69.2052 132.329Z" fill="#2F2E41"/>
<path d="M74.3842 114.516C74.3842 114.516 80.9173 121.959 79.3094 123.566C77.7015 125.173 73.9272 124.378 73.9272 124.378" fill="white"/>
<path d="M76.0091 125.427C75.2481 125.421 74.4891 125.348 73.7412 125.207C73.632 125.183 73.5287 125.138 73.4372 125.073C73.3457 125.009 73.2678 124.928 73.208 124.833C73.1482 124.739 73.1077 124.634 73.0888 124.524C73.0699 124.414 73.0731 124.301 73.098 124.192C73.1201 124.083 73.1636 123.981 73.2261 123.889C73.2885 123.798 73.3686 123.72 73.4617 123.66C73.5548 123.6 73.6589 123.559 73.7679 123.54C73.877 123.521 73.9887 123.524 74.0966 123.549C75.0275 123.735 77.6678 124.023 78.7171 122.974C79.0726 122.23 76.7031 118.457 73.7412 115.074C73.5851 114.913 73.4977 114.697 73.4977 114.473C73.4977 114.249 73.5851 114.034 73.7412 113.873C73.8184 113.794 73.9106 113.731 74.0123 113.689C74.114 113.646 74.2232 113.624 74.3336 113.624C74.4439 113.624 74.5531 113.646 74.6548 113.689C74.7566 113.731 74.8487 113.794 74.9259 113.873C77.5662 116.867 81.6959 122.196 79.8342 124.023C78.7807 124.954 77.4153 125.455 76.0091 125.427Z" fill="#2F2E41"/>
<path d="M103.851 190.894C103.709 190.893 103.57 190.858 103.445 190.793C103.191 190.657 77.4986 176.938 68.1222 171.846C68.0248 171.795 67.9386 171.724 67.8687 171.639C67.7988 171.554 67.7466 171.456 67.7151 171.35C67.6836 171.245 67.6734 171.134 67.6852 171.025C67.697 170.915 67.7304 170.809 67.7837 170.713C67.8354 170.613 67.9063 170.525 67.9923 170.453C68.0783 170.382 68.1778 170.328 68.2849 170.295C68.3919 170.262 68.5045 170.25 68.616 170.261C68.7276 170.272 68.8358 170.305 68.9346 170.357C78.2941 175.432 103.986 189.152 104.24 189.304C104.339 189.354 104.427 189.423 104.498 189.508C104.57 189.592 104.624 189.69 104.657 189.796C104.69 189.902 104.702 190.013 104.691 190.123C104.681 190.233 104.648 190.34 104.596 190.438C104.525 190.574 104.418 190.689 104.287 190.769C104.156 190.85 104.005 190.893 103.851 190.894Z" fill="#2F2E41"/>
<path d="M423.902 202.55L427.034 202.465C428.385 202.409 429.723 202.749 430.884 203.444C432.045 204.138 432.977 205.156 433.567 206.373L494.649 375.049C495.461 377.282 493.836 379.16 491.027 379.244L487.913 379.329C486.56 379.38 485.222 379.038 484.059 378.344C482.897 377.651 481.96 376.635 481.363 375.421L420.331 206.728C419.536 204.495 421.144 202.618 423.902 202.55Z" fill="white"/>
<path d="M487.777 380.175C486.28 380.201 484.807 379.794 483.536 379.001C482.266 378.209 481.252 377.065 480.618 375.709L419.536 207.067C419.319 206.516 419.238 205.921 419.3 205.332C419.362 204.743 419.565 204.177 419.891 203.683C420.367 203.068 420.981 202.574 421.684 202.242C422.387 201.91 423.159 201.749 423.936 201.772L427.051 201.687C428.577 201.635 430.086 202.027 431.394 202.817C432.701 203.607 433.75 204.76 434.413 206.136L495.495 374.829C495.714 375.38 495.795 375.975 495.733 376.565C495.671 377.154 495.468 377.719 495.14 378.213C494.667 378.827 494.056 379.32 493.356 379.652C492.655 379.984 491.886 380.146 491.112 380.124L487.981 380.209L487.777 380.175ZM423.987 203.396C423.479 203.367 422.97 203.458 422.503 203.66C422.036 203.863 421.623 204.172 421.296 204.563C421.117 204.838 421.007 205.154 420.978 205.481C420.948 205.808 421 206.138 421.127 206.441L482.209 375.134C482.746 376.18 483.568 377.053 484.58 377.652C485.593 378.251 486.754 378.551 487.93 378.517L491.061 378.433C491.57 378.45 492.076 378.353 492.542 378.148C493.008 377.943 493.421 377.635 493.752 377.248C493.929 376.972 494.035 376.656 494.061 376.328C494.088 376.001 494.034 375.672 493.904 375.371L432.822 206.678C432.295 205.623 431.475 204.743 430.461 204.143C429.446 203.543 428.28 203.248 427.101 203.294L423.987 203.379V203.396Z" fill="#D1D3D4"/>
<path d="M427.287 215.796L370.555 216.76C369.531 216.795 368.519 216.534 367.639 216.009C366.76 215.484 366.05 214.717 365.596 213.799C364.986 212.108 366.222 210.687 368.338 210.636L425.07 209.672C426.095 209.633 427.109 209.892 427.989 210.417C428.869 210.943 429.578 211.712 430.029 212.632C430.672 214.324 429.454 215.745 427.287 215.796Z" fill="white"/>
<path d="M370.454 217.606C369.277 217.622 368.122 217.299 367.125 216.675C366.128 216.05 365.333 215.152 364.834 214.087C364.655 213.635 364.588 213.146 364.641 212.662C364.694 212.178 364.865 211.715 365.139 211.313C365.515 210.822 366.003 210.428 366.563 210.163C367.122 209.898 367.736 209.77 368.355 209.79L425.087 208.758C426.291 208.703 427.483 209.008 428.511 209.635C429.54 210.262 430.357 211.182 430.859 212.277C431.038 212.725 431.106 213.211 431.056 213.691C431.005 214.172 430.839 214.633 430.571 215.034C430.197 215.53 429.71 215.928 429.151 216.196C428.591 216.464 427.975 216.593 427.355 216.574L370.623 217.538L370.454 217.606ZM425.24 210.45H425.138L368.389 211.414C368.038 211.392 367.687 211.453 367.363 211.591C367.04 211.729 366.754 211.941 366.527 212.209C366.413 212.392 366.344 212.6 366.326 212.815C366.309 213.029 366.343 213.245 366.425 213.444C366.814 214.2 367.411 214.828 368.146 215.254C368.881 215.679 369.723 215.885 370.572 215.846L427.305 214.882C427.655 214.904 428.007 214.844 428.33 214.706C428.653 214.568 428.94 214.356 429.166 214.087C429.284 213.906 429.356 213.698 429.373 213.482C429.391 213.267 429.355 213.05 429.268 212.852C428.887 212.117 428.308 211.502 427.596 211.078C426.884 210.653 426.068 210.436 425.24 210.45Z" fill="#D1D3D4"/>
<path d="M435.851 239.327L379.119 240.291C378.094 240.33 377.08 240.071 376.2 239.546C375.32 239.02 374.611 238.251 374.16 237.331C373.55 235.639 374.769 234.218 376.902 234.167L433.634 233.203C434.658 233.168 435.67 233.429 436.55 233.954C437.429 234.479 438.139 235.246 438.593 236.163C439.135 237.855 437.967 239.208 435.851 239.327Z" fill="white"/>
<path d="M378.967 241.137C377.793 241.152 376.64 240.828 375.646 240.204C374.652 239.58 373.86 238.682 373.365 237.618C373.185 237.17 373.118 236.684 373.168 236.204C373.218 235.724 373.384 235.263 373.652 234.861C374.028 234.364 374.518 233.965 375.081 233.697C375.643 233.43 376.262 233.301 376.885 233.321L433.617 232.357C434.818 232.315 436.005 232.626 437.031 233.252C438.057 233.877 438.877 234.789 439.389 235.876C439.567 236.327 439.634 236.815 439.584 237.298C439.534 237.781 439.368 238.245 439.101 238.65C438.72 239.14 438.229 239.534 437.667 239.798C437.106 240.063 436.489 240.191 435.869 240.173L379.136 241.137H378.967ZM433.77 234.133H433.651L376.919 235.098C376.568 235.074 376.216 235.134 375.893 235.272C375.569 235.41 375.283 235.623 375.057 235.893C374.939 236.074 374.868 236.282 374.85 236.497C374.832 236.713 374.868 236.929 374.955 237.128C375.342 237.884 375.939 238.514 376.674 238.94C377.41 239.366 378.253 239.571 379.102 239.53L435.835 238.565C436.186 238.589 436.537 238.529 436.861 238.391C437.184 238.253 437.471 238.04 437.696 237.77C437.81 237.588 437.879 237.38 437.897 237.165C437.915 236.95 437.881 236.735 437.798 236.535C437.414 235.803 436.834 235.19 436.123 234.766C435.412 234.342 434.598 234.123 433.77 234.133Z" fill="#D1D3D4"/>
<path d="M444.365 262.892L387.632 263.839C386.609 263.88 385.597 263.623 384.717 263.101C383.837 262.579 383.127 261.813 382.673 260.896C382.064 259.204 383.299 257.783 385.415 257.715L442.148 256.768C443.173 256.724 444.189 256.981 445.07 257.507C445.951 258.033 446.659 258.805 447.107 259.728C447.716 261.403 446.497 262.892 444.365 262.892Z" fill="white"/>
<path d="M387.497 264.685C386.321 264.701 385.165 264.378 384.168 263.754C383.171 263.129 382.376 262.231 381.878 261.166C381.696 260.714 381.629 260.225 381.682 259.741C381.736 259.257 381.907 258.794 382.182 258.392C382.56 257.901 383.048 257.506 383.606 257.238C384.165 256.971 384.779 256.839 385.398 256.852L442.131 255.905C443.334 255.852 444.525 256.158 445.553 256.785C446.581 257.412 447.399 258.33 447.902 259.424C448.082 259.872 448.149 260.358 448.099 260.838C448.049 261.318 447.883 261.779 447.615 262.181C447.238 262.673 446.75 263.069 446.192 263.337C445.633 263.604 445.018 263.736 444.399 263.721L387.666 264.668L387.497 264.685ZM442.283 257.597H442.182L385.432 258.544C385.082 258.53 384.733 258.594 384.411 258.731C384.089 258.869 383.802 259.076 383.57 259.339C383.455 259.525 383.387 259.736 383.372 259.955C383.357 260.173 383.396 260.391 383.486 260.591C383.868 261.346 384.463 261.973 385.196 262.397C385.929 262.82 386.77 263.022 387.615 262.976L444.348 262.029C444.698 262.047 445.048 261.985 445.371 261.847C445.694 261.709 445.981 261.499 446.21 261.234C446.328 261.053 446.399 260.845 446.417 260.629C446.435 260.414 446.398 260.197 446.311 259.999C445.93 259.263 445.351 258.649 444.639 258.224C443.928 257.8 443.112 257.583 442.283 257.597Z" fill="#D1D3D4"/>
<path d="M452.895 286.406L396.162 287.37C395.138 287.409 394.124 287.15 393.244 286.625C392.364 286.099 391.655 285.33 391.203 284.41C390.594 282.718 391.813 281.297 393.945 281.246L450.678 280.282C451.702 280.245 452.715 280.505 453.595 281.03C454.475 281.555 455.184 282.324 455.637 283.242C456.246 284.883 455.011 286.355 452.895 286.406Z" fill="white"/>
<path d="M396.01 288.267C394.836 288.282 393.683 287.958 392.69 287.334C391.696 286.709 390.903 285.812 390.408 284.748C390.23 284.296 390.163 283.809 390.213 283.326C390.263 282.843 390.429 282.379 390.696 281.974C391.076 281.482 391.567 281.088 392.129 280.824C392.691 280.559 393.307 280.431 393.928 280.451L450.661 279.487C451.863 279.436 453.054 279.743 454.081 280.37C455.109 280.996 455.927 281.914 456.432 283.006C456.612 283.454 456.679 283.939 456.629 284.42C456.579 284.9 456.413 285.361 456.145 285.763C455.767 286.258 455.277 286.657 454.715 286.924C454.153 287.192 453.535 287.322 452.912 287.302L396.179 288.267H396.01ZM450.813 281.179H450.695L393.962 282.143C393.611 282.119 393.26 282.179 392.936 282.317C392.612 282.456 392.326 282.668 392.1 282.938C391.982 283.119 391.911 283.327 391.893 283.543C391.876 283.758 391.912 283.975 391.999 284.173C392.387 284.928 392.984 285.556 393.72 285.982C394.455 286.408 395.297 286.614 396.145 286.575L452.878 285.611C453.229 285.634 453.581 285.574 453.904 285.436C454.228 285.298 454.514 285.085 454.74 284.816C454.854 284.633 454.923 284.425 454.94 284.21C454.958 283.996 454.924 283.78 454.841 283.581C454.466 282.837 453.889 282.213 453.178 281.78C452.466 281.346 451.647 281.12 450.813 281.128V281.179Z" fill="#D1D3D4"/>
<path d="M461.408 309.954L404.676 310.901C403.653 310.941 402.641 310.683 401.763 310.157C400.886 309.631 400.18 308.861 399.734 307.941C399.107 306.249 400.343 304.845 402.458 304.777L459.191 303.83C460.215 303.785 461.229 304.04 462.11 304.562C462.991 305.085 463.7 305.854 464.15 306.773C464.759 308.465 463.541 309.886 461.408 309.954Z" fill="white"/>
<path d="M404.54 311.747C403.366 311.764 402.212 311.441 401.218 310.817C400.224 310.192 399.432 309.293 398.938 308.228C398.751 307.781 398.68 307.295 398.73 306.813C398.78 306.331 398.951 305.87 399.226 305.471C399.6 304.977 400.088 304.579 400.647 304.312C401.206 304.044 401.822 303.913 402.442 303.931L459.174 302.984C460.375 302.93 461.565 303.234 462.593 303.857C463.621 304.481 464.44 305.396 464.946 306.486C465.125 306.937 465.193 307.425 465.143 307.908C465.092 308.391 464.926 308.855 464.658 309.26C464.279 309.749 463.791 310.143 463.232 310.41C462.674 310.678 462.061 310.811 461.442 310.8L404.71 311.747H404.54ZM459.327 304.659H459.225L402.475 305.606C402.125 305.592 401.777 305.656 401.455 305.793C401.133 305.931 400.845 306.139 400.614 306.401C400.502 306.586 400.437 306.794 400.422 307.009C400.407 307.223 400.444 307.439 400.529 307.636C400.913 308.392 401.507 309.02 402.239 309.446C402.972 309.872 403.812 310.078 404.659 310.038L461.391 309.091C461.742 309.109 462.092 309.047 462.414 308.909C462.737 308.771 463.024 308.562 463.253 308.296C463.371 308.112 463.442 307.901 463.46 307.683C463.478 307.464 463.442 307.245 463.355 307.044C462.971 306.312 462.391 305.701 461.68 305.279C460.968 304.858 460.153 304.643 459.327 304.659Z" fill="#D1D3D4"/>
<path d="M469.939 333.485L413.206 334.449C412.181 334.488 411.168 334.229 410.287 333.704C409.407 333.178 408.698 332.409 408.247 331.489C407.638 329.797 408.856 328.376 410.989 328.325L467.721 327.361C468.746 327.324 469.759 327.584 470.638 328.109C471.518 328.634 472.227 329.403 472.68 330.321C473.29 332.013 472.054 333.434 469.939 333.485Z" fill="white"/>
<path d="M413.054 335.295C411.88 335.31 410.727 334.986 409.733 334.362C408.739 333.738 407.947 332.84 407.451 331.776C407.272 331.325 407.204 330.837 407.255 330.354C407.305 329.871 407.471 329.407 407.739 329.002C408.119 328.511 408.61 328.117 409.172 327.852C409.734 327.587 410.351 327.46 410.972 327.479L467.704 326.515C468.906 326.469 470.095 326.778 471.121 327.404C472.148 328.03 472.967 328.945 473.476 330.034C473.655 330.482 473.723 330.968 473.673 331.448C473.623 331.929 473.456 332.39 473.188 332.791C472.811 333.287 472.321 333.685 471.759 333.953C471.196 334.22 470.578 334.35 469.955 334.331L413.223 335.295H413.054ZM467.908 328.207H467.789L411.057 329.171C410.705 329.148 410.354 329.208 410.03 329.346C409.707 329.484 409.421 329.697 409.195 329.966C409.077 330.147 409.005 330.355 408.988 330.571C408.97 330.786 409.006 331.003 409.093 331.201C409.48 331.958 410.077 332.587 410.812 333.013C411.548 333.439 412.391 333.644 413.24 333.603L469.972 332.639C470.323 332.66 470.674 332.599 470.997 332.461C471.32 332.323 471.607 332.112 471.834 331.844C471.948 331.661 472.017 331.454 472.035 331.239C472.052 331.024 472.018 330.808 471.936 330.609C471.553 329.875 470.974 329.261 470.262 328.837C469.551 328.413 468.736 328.195 467.908 328.207Z" fill="#D1D3D4"/>
<path d="M478.452 357.016L421.736 357.98C420.711 358.019 419.698 357.761 418.817 357.235C417.937 356.71 417.228 355.94 416.777 355.02C416.151 353.328 417.386 351.907 419.502 351.856L476.235 350.892C477.259 350.853 478.273 351.112 479.153 351.637C480.033 352.163 480.742 352.932 481.194 353.853C481.803 355.544 480.584 356.965 478.452 357.016Z" fill="white"/>
<path d="M421.584 358.826C420.41 358.843 419.256 358.52 418.261 357.896C417.267 357.271 416.475 356.372 415.982 355.307C415.798 354.86 415.728 354.374 415.778 353.892C415.828 353.411 415.997 352.95 416.269 352.55C416.642 352.054 417.129 351.655 417.689 351.387C418.248 351.119 418.865 350.99 419.485 351.011L476.218 350.046C477.42 349.998 478.609 350.306 479.636 350.932C480.663 351.558 481.482 352.475 481.989 353.565C482.168 354.016 482.236 354.504 482.186 354.987C482.136 355.471 481.97 355.934 481.701 356.339C481.324 356.829 480.836 357.223 480.277 357.487C479.718 357.752 479.104 357.88 478.486 357.862L421.753 358.826H421.584ZM476.37 351.738H476.268L419.519 352.702C419.168 352.68 418.817 352.741 418.494 352.879C418.17 353.017 417.884 353.229 417.657 353.497C417.546 353.682 417.48 353.89 417.465 354.105C417.451 354.319 417.487 354.535 417.573 354.732C417.955 355.489 418.548 356.119 419.281 356.545C420.014 356.972 420.855 357.176 421.702 357.134L478.435 356.17C478.786 356.196 479.139 356.138 479.463 355.999C479.787 355.861 480.073 355.647 480.297 355.375C480.415 355.194 480.486 354.986 480.504 354.77C480.521 354.555 480.485 354.338 480.398 354.14C480.017 353.405 479.438 352.79 478.726 352.366C478.015 351.941 477.199 351.724 476.37 351.738Z" fill="#D1D3D4"/>
<path d="M362.82 203.683L365.934 203.582C367.287 203.531 368.626 203.873 369.788 204.567C370.95 205.26 371.887 206.275 372.484 207.49L433.567 376.183C434.362 378.416 432.754 380.293 429.945 380.361H426.814C425.464 380.418 424.127 380.081 422.966 379.39C421.806 378.699 420.872 377.684 420.281 376.47L359.198 207.777C358.386 205.578 360.011 203.683 362.82 203.683Z" fill="white"/>
<path d="M426.644 381.308C425.149 381.336 423.677 380.931 422.407 380.142C421.136 379.352 420.122 378.212 419.485 376.859L358.403 208.099C358.184 207.548 358.103 206.952 358.165 206.363C358.227 205.774 358.43 205.209 358.758 204.715C359.232 204.103 359.844 203.613 360.544 203.283C361.244 202.954 362.013 202.795 362.786 202.821L365.917 202.736C367.447 202.666 368.964 203.051 370.275 203.843C371.585 204.635 372.631 205.798 373.28 207.185L434.362 375.878C434.579 376.429 434.66 377.024 434.598 377.613C434.536 378.202 434.333 378.767 434.007 379.261C433.531 379.877 432.917 380.371 432.214 380.703C431.511 381.035 430.739 381.196 429.962 381.173H426.847L426.644 381.308ZM362.837 204.546C362.331 204.517 361.825 204.608 361.361 204.811C360.896 205.014 360.486 205.323 360.163 205.713C359.979 205.987 359.867 206.302 359.838 206.631C359.808 206.959 359.862 207.289 359.994 207.591L421.076 376.233C421.604 377.286 422.425 378.165 423.439 378.765C424.453 379.365 425.619 379.661 426.797 379.617H429.911C430.42 379.647 430.928 379.557 431.396 379.354C431.863 379.151 432.276 378.841 432.602 378.449C432.781 378.174 432.891 377.859 432.92 377.532C432.95 377.204 432.898 376.875 432.771 376.572L371.689 207.879C371.164 206.823 370.344 205.942 369.329 205.341C368.314 204.741 367.147 204.447 365.968 204.495L362.837 204.546Z" fill="#D1D3D4"/>
<path d="M405.471 104.501C393.302 111.555 379.22 117.07 364.936 114.296C352.817 111.961 341.884 103.875 337.585 92.1687C336.722 89.868 336.18 87.4489 335.266 85.1483C334.894 84.2348 334.318 83.2197 333.337 83.1352C331.746 82.9998 331.204 85.199 331.39 86.7722C331.543 88.041 331.695 89.2082 331.729 90.4601C331.729 91.3228 331.729 93.5728 332.491 94.2156L321.659 83.7272C321.159 83.1569 320.517 82.7306 319.797 82.4923C319.435 82.385 319.046 82.422 318.712 82.5956C318.377 82.7691 318.123 83.0656 318.003 83.4228C317.977 83.7348 318.021 84.0487 318.132 84.3415C318.244 84.6342 318.419 84.8983 318.646 85.1144L322.962 90.68C321.049 89.0357 319.055 87.4887 316.987 86.0448C314.212 84.1332 313.348 86.9414 314.99 89.056L319.374 94.6892C317.926 93.2047 316.364 91.8359 314.702 90.5954C314.212 90.2233 313.551 89.868 313.01 90.2063C312.854 90.3413 312.743 90.5204 312.692 90.7198C312.641 90.9192 312.651 91.1295 312.722 91.3228C312.868 91.7127 313.1 92.0652 313.399 92.3548L317.478 97.0068C316.767 96.2963 313.247 92.9807 312.299 94.7907C311.757 95.8227 313.771 97.4636 314.381 98.0726C318.358 101.963 322.386 105.685 326.499 109.356C337.551 119.235 350.194 128.387 365.105 131.754C381.438 135.458 399.378 131.246 413.138 121.824" fill="white"/>
<path d="M377.24 133.851C373.079 133.862 368.929 133.408 364.868 132.498C348.383 128.759 334.725 117.814 325.941 109.914C321.388 105.837 317.478 102.133 313.822 98.597L313.535 98.3433C312.502 97.379 310.793 95.7888 311.571 94.3171C311.691 94.0602 311.872 93.8373 312.1 93.6688C312.328 93.5003 312.594 93.3917 312.875 93.3528H313.213L312.773 92.8622C312.404 92.4785 312.116 92.0239 311.927 91.5258C311.804 91.1594 311.798 90.7638 311.91 90.394C312.023 90.0241 312.247 89.6984 312.553 89.462C312.78 89.3049 313.043 89.2058 313.317 89.1734C313.591 89.141 313.869 89.1762 314.127 89.2759C313.631 88.7063 313.34 87.9872 313.3 87.233C313.26 86.4789 313.474 85.7331 313.907 85.1144C314.212 84.793 315.363 83.8626 317.444 85.3005L318.088 85.7572L317.952 85.5881C317.668 85.2836 317.45 84.9233 317.313 84.53C317.176 84.1368 317.123 83.7193 317.157 83.3043C317.21 83.0444 317.315 82.7979 317.467 82.5798C317.618 82.3617 317.812 82.1766 318.037 82.0356C318.319 81.8516 318.635 81.7268 318.967 81.6686C319.298 81.6105 319.638 81.6202 319.966 81.6972C320.833 81.9719 321.611 82.4743 322.217 83.1521L330.917 91.6104V90.5785C330.882 89.5824 330.798 88.5887 330.663 87.6012L330.578 86.9583C330.476 86.2737 330.514 85.5753 330.692 84.9062C330.869 84.2371 331.182 83.6114 331.611 83.0675C331.843 82.8209 332.128 82.6304 332.445 82.5102C332.761 82.3901 333.101 82.3435 333.438 82.3739C334.556 82.4754 335.453 83.3382 336.079 84.9283C336.587 86.1802 336.976 87.4827 337.365 88.7346C337.754 89.9864 338.025 90.8999 338.414 91.9657C342.493 102.86 352.767 111.132 365.224 113.551C376.919 115.835 389.985 112.655 405.167 103.858C405.262 103.788 405.372 103.74 405.488 103.715C405.603 103.69 405.723 103.69 405.839 103.714C405.955 103.739 406.064 103.787 406.16 103.857C406.256 103.926 406.336 104.015 406.396 104.117C406.455 104.219 406.493 104.333 406.506 104.451C406.518 104.568 406.506 104.687 406.47 104.8C406.434 104.913 406.375 105.017 406.296 105.105C406.217 105.193 406.121 105.264 406.013 105.313C390.459 114.329 377.02 117.561 364.902 115.209C351.87 112.689 341.106 103.993 336.823 92.5577C336.417 91.4582 336.079 90.3417 335.74 89.1744C335.402 88.0072 334.979 86.6877 334.505 85.5035C334.251 84.8437 333.828 84.0656 333.286 84.0148C333.198 84.0061 333.109 84.0184 333.027 84.0507C332.944 84.0831 332.871 84.1346 332.812 84.2009C332.318 84.9417 332.124 85.843 332.271 86.7215V87.3474C332.389 88.3962 332.508 89.3943 332.541 90.4601C332.541 93.0145 332.948 93.5389 333.032 93.6404C333.113 93.7163 333.178 93.8081 333.222 93.9099C333.266 94.0117 333.289 94.1215 333.289 94.2325C333.289 94.3435 333.266 94.4532 333.222 94.5551C333.178 94.6569 333.113 94.7486 333.032 94.8246C332.955 94.9033 332.863 94.9659 332.761 95.0087C332.659 95.0514 332.55 95.0734 332.44 95.0734C332.33 95.0734 332.22 95.0514 332.119 95.0087C332.017 94.9659 331.925 94.9033 331.848 94.8246L321.016 84.3532C320.619 83.8983 320.12 83.5446 319.56 83.3212C319.338 83.2832 319.11 83.3252 318.917 83.4397C318.884 83.457 318.855 83.481 318.831 83.5101C318.808 83.5392 318.791 83.5728 318.781 83.6088C318.781 83.8457 319.086 84.3024 319.255 84.5223L323.588 90.1048C323.706 90.2711 323.76 90.4746 323.741 90.6776C323.721 90.8806 323.628 91.0696 323.479 91.2097C323.331 91.3498 323.137 91.4316 322.933 91.4399C322.729 91.4483 322.529 91.3826 322.37 91.2552C320.477 89.6237 318.5 88.0934 316.446 86.6707C315.752 86.1971 315.261 86.1125 315.109 86.2647C314.956 86.417 314.838 87.4827 315.6 88.4639L319.983 94.0972C320.12 94.2672 320.186 94.4836 320.167 94.7012C320.148 94.9188 320.046 95.1206 319.882 95.2644C319.722 95.4106 319.514 95.4918 319.298 95.4918C319.081 95.4918 318.873 95.4106 318.714 95.2644C317.296 93.8122 315.768 92.4718 314.144 91.2552C313.952 91.0811 313.719 90.9589 313.467 90.8999C313.467 90.8999 313.467 90.8999 313.467 91.0691C313.587 91.3331 313.753 91.5736 313.958 91.7796L318.054 96.4317C318.204 96.589 318.287 96.798 318.287 97.0153C318.287 97.2326 318.204 97.4416 318.054 97.5989C317.893 97.75 317.682 97.8341 317.461 97.8341C317.241 97.8341 317.029 97.75 316.869 97.5989C315.176 95.9072 313.619 95.0276 313.112 95.1122C313.01 95.3321 313.112 95.8227 314.652 97.176L314.956 97.4805C318.544 100.999 322.505 104.67 327.041 108.73C335.74 116.512 349.179 127.338 365.274 130.925C380.828 134.46 398.532 130.789 412.664 121.13C412.755 121.06 412.859 121.009 412.97 120.98C413.082 120.951 413.197 120.945 413.311 120.962C413.425 120.98 413.533 121.02 413.631 121.081C413.728 121.142 413.812 121.221 413.878 121.316C413.943 121.41 413.989 121.517 414.012 121.629C414.035 121.741 414.035 121.857 414.012 121.97C413.988 122.082 413.942 122.189 413.877 122.283C413.811 122.377 413.727 122.457 413.629 122.517C402.904 129.842 390.23 133.79 377.24 133.851Z" fill="#2F2E41"/>
<path d="M461.984 290.246L463.507 301.394C463.507 301.394 432.467 304.608 433.668 301.935C435.942 298.061 438.44 294.321 441.149 290.737" fill="white"/>
<path d="M440.218 303.83C436.376 303.83 433.567 303.542 433.008 302.747C432.885 302.581 432.81 302.385 432.789 302.18C432.768 301.975 432.803 301.767 432.89 301.58C435.191 297.651 437.723 293.86 440.472 290.229C440.609 290.053 440.809 289.937 441.03 289.906C441.251 289.874 441.476 289.93 441.657 290.06C441.836 290.194 441.955 290.395 441.987 290.617C442.019 290.839 441.961 291.065 441.826 291.244C441.826 291.329 436.19 298.873 434.65 301.834C437.222 302.612 450.322 301.834 462.559 300.65L461.137 290.347C461.108 290.123 461.17 289.896 461.308 289.717C461.446 289.538 461.649 289.421 461.874 289.392C462.098 289.362 462.325 289.424 462.504 289.562C462.684 289.7 462.801 289.903 462.83 290.128L464.37 301.276C464.386 301.389 464.379 301.504 464.35 301.614C464.321 301.724 464.27 301.828 464.201 301.918C464.053 302.098 463.84 302.214 463.609 302.24C456.771 302.95 446.904 303.83 440.218 303.83Z" fill="#2F2E41"/>
<path d="M418.486 247.481C418.486 247.481 424.969 255.618 423.784 257.106C422.599 258.595 388.241 260.287 389.714 256.717C391.186 253.148 400.394 245.552 400.394 245.552" fill="white"/>
<path d="M403.237 259.694C397.026 259.694 391.39 259.305 389.697 258.29C389.342 258.137 389.062 257.851 388.916 257.494C388.771 257.136 388.771 256.736 388.918 256.379C390.459 252.657 399.446 245.214 399.835 244.892C400.008 244.752 400.23 244.686 400.452 244.708C400.674 244.73 400.878 244.839 401.02 245.011C401.092 245.097 401.146 245.197 401.179 245.304C401.212 245.411 401.224 245.524 401.213 245.636C401.202 245.748 401.168 245.856 401.115 245.955C401.061 246.054 400.989 246.141 400.901 246.212C398.447 248.225 391.914 254.01 390.56 256.852C393.2 258.781 419.925 257.851 423.073 256.548C423.073 255.482 420.737 251.693 417.809 248.005C417.738 247.92 417.684 247.822 417.651 247.716C417.618 247.61 417.607 247.498 417.618 247.388C417.629 247.277 417.662 247.17 417.715 247.073C417.769 246.976 417.841 246.89 417.928 246.821C418.106 246.682 418.332 246.618 418.556 246.643C418.781 246.668 418.987 246.781 419.13 246.956C422.278 250.915 425.747 255.973 424.427 257.631C423.53 258.781 412.664 259.694 403.237 259.694Z" fill="#2F2E41"/>
<path d="M406.436 160.36C406.436 160.36 367.661 184.415 368.152 197.424C368.473 206.255 395.604 250.61 395.604 250.61L421.618 249.172C421.618 249.172 397.923 212.987 403.152 207.693C408.382 202.398 437.443 187.799 437.443 187.799L437.967 291.819C437.967 291.819 464.523 289.958 464.523 288.453C464.523 286.947 470.26 164.775 470.26 164.775L406.436 160.36Z" fill="#2F2E41"/>
<path d="M462.678 48.5575C462.557 46.9421 461.881 45.4181 460.765 44.2437C460.185 43.692 459.428 43.3637 458.628 43.3173C457.829 43.2708 457.039 43.5092 456.398 43.99C456.602 41.1142 453.995 38.915 451.456 37.4771C448.289 35.7373 444.859 34.5259 441.301 33.8908C438.951 33.5086 436.574 33.3106 434.193 33.2987C430.622 33.2987 426.813 33.5186 424.038 35.7008C422.437 37.1239 421.271 38.9691 420.672 41.0248C420.073 43.0805 420.067 45.2633 420.653 47.3226C421.87 51.4465 424.215 55.1491 427.423 58.0139C431.044 61.8158 435.542 64.6734 440.523 66.3369C443.487 67.1698 446.549 67.6022 449.628 67.6226C454.554 67.7917 456.686 65.4742 459.208 61.7187C462.006 57.9366 463.248 53.2266 462.678 48.5575Z" fill="white"/>
<path d="M449.967 68.4853H449.476C446.323 68.456 443.188 68.0124 440.15 67.1658C435.014 65.4928 430.366 62.5889 426.61 58.7075C423.284 55.7348 420.857 51.8906 419.604 47.6102C418.983 45.3874 419.003 43.0346 419.662 40.8228C420.32 38.611 421.591 36.6303 423.327 35.1088C426.407 32.7404 430.486 32.4698 434.074 32.5374C436.496 32.5437 438.913 32.7473 441.301 33.1464C444.972 33.7833 448.513 35.0238 451.778 36.8173C453.606 37.8154 456.466 39.8116 457.059 42.6874C457.787 42.4915 458.554 42.4817 459.287 42.6591C460.02 42.8364 460.697 43.1952 461.256 43.7024C462.52 45.0084 463.292 46.7124 463.439 48.5237C464.099 53.1081 462.898 57.4726 459.682 62.26C457.38 65.7448 455.129 68.4853 449.967 68.4853ZM433.33 34.1276C430.209 33.8854 427.094 34.6695 424.461 36.3606C421.076 38.9488 420.484 43.6347 421.33 47.1196C422.518 51.0932 424.785 54.6595 427.88 57.4218C431.407 61.1248 435.789 63.907 440.641 65.5249C443.533 66.3405 446.522 66.7616 449.527 66.7768C453.792 66.929 455.721 65.1866 458.362 61.245C461.11 57.6653 462.36 53.1589 461.848 48.6759C461.748 47.2481 461.149 45.901 460.156 44.8697C459.736 44.456 459.184 44.2024 458.597 44.1529C458.009 44.1035 457.423 44.2613 456.94 44.599C456.821 44.7203 456.667 44.8005 456.5 44.8279C456.332 44.8553 456.16 44.8284 456.009 44.7513C455.854 44.6824 455.724 44.5676 455.636 44.4224C455.548 44.2772 455.507 44.1085 455.518 43.9393C455.705 41.2157 452.777 39.1857 451.016 38.2214C447.917 36.5096 444.553 35.3262 441.064 34.7197C438.759 34.3407 436.427 34.1484 434.091 34.1445L433.33 34.1276Z" fill="#2F2E41"/>
<path d="M450.779 94.4862C450.187 81.7142 452.776 55.8147 452.776 55.8147C452.776 55.8147 436.495 56.7452 431.011 48.9128C424.241 54.1738 422.938 68.959 424.156 73.3743C426.593 82.1202 437.933 80.1409 437.933 80.1409L436.478 96.1103L450.779 94.4862Z" fill="white"/>
<path d="M436.478 97.0068C436.258 97.0047 436.046 96.9202 435.885 96.77C435.799 96.6804 435.732 96.5742 435.689 96.4578C435.645 96.3415 435.625 96.2175 435.631 96.0933L437.002 81.139C433.973 81.3758 425.476 81.2913 423.344 73.6111C422.041 68.9252 423.479 53.7509 430.486 48.2361C430.676 48.0968 430.913 48.0362 431.146 48.0669C431.259 48.0836 431.367 48.1239 431.463 48.1851C431.56 48.2463 431.642 48.3271 431.705 48.4222C436.782 55.764 452.556 54.952 452.726 54.952C452.848 54.9406 452.971 54.9575 453.085 55.0015C453.2 55.0455 453.303 55.1154 453.386 55.2058C453.47 55.2951 453.534 55.4022 453.572 55.5193C453.61 55.6363 453.622 55.7604 453.606 55.8824C453.606 56.1362 451.05 81.8664 451.626 94.4186C451.64 94.6331 451.57 94.8448 451.431 95.0089C451.292 95.173 451.095 95.2768 450.881 95.2982L436.579 96.9899L436.478 97.0068ZM437.933 79.3458C438.146 79.3459 438.35 79.4242 438.509 79.5657C438.601 79.6552 438.673 79.7634 438.72 79.8831C438.766 80.0028 438.787 80.1311 438.779 80.2593L437.425 95.1968L449.916 93.725C449.51 82.2555 451.389 61.3973 451.829 56.6944C448.291 56.6944 436.19 56.4914 430.892 50.1477C424.935 55.6794 423.936 69.3988 424.969 73.1543C427.169 81.0375 437.358 79.4304 437.798 79.3628L437.933 79.3458Z" fill="#2F2E41"/>
<path d="M437.933 80.1917C437.933 80.1917 442.621 79.5996 444.94 77.282C444.94 77.282 441.843 85.0298 437.07 86.1802L437.933 80.1917Z" fill="#2F2E41"/>
<path d="M437.07 86.9583C436.976 86.9597 436.883 86.9424 436.796 86.9076C436.709 86.8727 436.629 86.821 436.562 86.7553C436.468 86.6715 436.396 86.5661 436.352 86.4482C436.308 86.3304 436.293 86.2036 436.308 86.0787L437.172 80.0733C437.196 79.9087 437.274 79.7568 437.393 79.6407C437.513 79.5246 437.667 79.4508 437.832 79.4304C437.832 79.4304 442.3 78.8383 444.399 76.7407C444.527 76.6158 444.694 76.5378 444.872 76.5194C445.05 76.501 445.229 76.5432 445.38 76.6392C445.527 76.7384 445.635 76.8847 445.688 77.0538C445.74 77.223 445.733 77.4049 445.668 77.5696C445.533 77.9079 442.368 85.6896 437.206 86.9245L437.07 86.9583ZM438.627 80.8683L438.018 85.0129C440.136 83.6671 441.849 81.773 442.977 79.5319C441.588 80.1566 440.127 80.6055 438.627 80.8683Z" fill="#2F2E41"/>
<path d="M427.795 86.2309L390.645 106.531L399.632 132.633C399.632 132.633 446.362 107.918 446.667 101.236C446.971 94.5539 427.795 86.2309 427.795 86.2309Z" fill="#F9A826"/>
<path d="M405.471 161.07C405.471 161.07 407.248 134.494 410.549 114.245C411.97 105.634 411.429 99.612 414.289 94.9599C423.852 79.3289 461.121 83.9979 466.537 94.8415C471.953 105.685 470.26 164.775 470.26 164.775L405.471 161.07Z" fill="#F9A826"/>
<path d="M450.119 64.9667C450.326 63.964 450.805 63.0375 451.504 62.2886C452.202 61.5397 453.094 60.9973 454.08 60.7206C454.522 60.5785 454.989 60.5322 455.45 60.5847C455.911 60.6373 456.355 60.7874 456.754 61.0251C457.224 61.4243 457.584 61.9369 457.8 62.5141C458.016 63.0914 458.082 63.7143 457.99 64.3238C457.847 66.2592 456.971 68.0672 455.54 69.3784C454.108 70.6896 452.23 71.4049 450.289 71.3781" fill="white"/>
<path d="M450.39 72.1393H450.272C450.16 72.1371 450.051 72.1131 449.949 72.0685C449.847 72.024 449.755 71.9598 449.678 71.8797C449.601 71.7996 449.541 71.7051 449.5 71.6016C449.46 71.4981 449.44 71.3877 449.442 71.2766C449.442 71.1648 449.465 71.0542 449.508 70.9514C449.552 70.8485 449.616 70.7556 449.697 70.6782C449.778 70.6007 449.873 70.5404 449.978 70.5008C450.082 70.4612 450.194 70.4431 450.305 70.4477C452.019 70.5199 453.693 69.9118 454.96 68.756C456.236 67.5898 457.017 65.9798 457.143 64.2562C457.208 63.7952 457.163 63.3255 457.013 62.8849C456.863 62.4442 456.612 62.0448 456.28 61.7187C455.981 61.552 455.649 61.4507 455.308 61.4216C454.967 61.3924 454.623 61.436 454.3 61.5495C453.461 61.7808 452.702 62.2374 452.106 62.8697C451.509 63.5021 451.097 64.2858 450.915 65.1358C450.87 65.3532 450.742 65.5448 450.56 65.6708C450.377 65.7969 450.152 65.8476 449.933 65.8125C449.712 65.7675 449.518 65.6378 449.391 65.4513C449.265 65.2648 449.216 65.0362 449.256 64.8144C449.493 63.6557 450.044 62.5846 450.851 61.7191C451.657 60.8535 452.686 60.2271 453.826 59.9086C454.387 59.7273 454.98 59.6711 455.565 59.7442C456.15 59.8173 456.712 60.0178 457.211 60.3315C457.807 60.8064 458.267 61.4307 458.543 62.1409C458.82 62.8511 458.903 63.6218 458.785 64.3746C458.631 66.5107 457.671 68.5088 456.101 69.9656C454.53 71.4224 452.465 72.2295 450.322 72.2239L450.39 72.1393Z" fill="#2F2E41"/>
<path d="M431.22 57.4713C431.459 56.7043 431.32 55.9787 430.91 55.8507C430.499 55.7227 429.973 56.2407 429.733 57.0077C429.494 57.7747 429.632 58.5003 430.043 58.6283C430.453 58.7563 430.98 58.2383 431.22 57.4713Z" fill="#2F2E41"/>
<path d="M427.034 74.0171C428.049 74.6601 429.156 75.1449 430.317 75.455C431.078 75.7407 431.901 75.8176 432.702 75.6778C433.503 75.538 434.251 75.1866 434.87 74.6599C435.296 74.1123 435.623 73.4939 435.835 72.8329" fill="white"/>
<path d="M432.128 76.5546C431.442 76.5519 430.76 76.4609 430.097 76.2839C428.853 75.9415 427.667 75.417 426.577 74.7276C426.388 74.6062 426.256 74.4152 426.208 74.1964C426.161 73.9776 426.202 73.7489 426.323 73.5603C426.381 73.4654 426.458 73.3832 426.549 73.3187C426.64 73.2543 426.744 73.2088 426.853 73.1851C426.962 73.1614 427.074 73.16 427.184 73.1809C427.294 73.2017 427.398 73.2445 427.491 73.3066C428.433 73.902 429.46 74.3525 430.537 74.643C431.146 74.7953 433.211 75.2351 434.244 74.1017C434.595 73.6255 434.864 73.0937 435.039 72.5284C435.119 72.3207 435.277 72.1527 435.48 72.0609C435.683 71.9691 435.914 71.9608 436.122 72.0378C436.333 72.1142 436.505 72.2711 436.6 72.4741C436.696 72.6771 436.706 72.9096 436.63 73.1205C436.391 73.8915 436.006 74.6094 435.496 75.2351C435.058 75.6784 434.532 76.0249 433.952 76.2522C433.372 76.4795 432.751 76.5825 432.128 76.5546Z" fill="#2F2E41"/>
<path d="M426.949 58.7413C426.949 58.7413 420.416 66.1847 422.007 67.7917C423.598 69.3988 427.406 68.5868 427.406 68.5868" fill="white"/>
<path d="M425.324 69.6526C423.906 69.7488 422.506 69.2943 421.415 68.3838C419.536 66.5061 423.683 61.1773 426.306 58.2338C426.467 58.0778 426.682 57.9905 426.907 57.9905C427.131 57.9905 427.347 58.0778 427.508 58.2338C427.587 58.3125 427.65 58.406 427.693 58.5091C427.736 58.6122 427.758 58.7227 427.758 58.8344C427.758 58.946 427.736 59.0566 427.693 59.1597C427.65 59.2627 427.587 59.3563 427.508 59.4349C424.546 62.8183 422.193 66.5907 422.565 67.3519C423.598 68.3669 426.238 68.0963 427.169 67.9102C427.394 67.8653 427.627 67.9114 427.817 68.0383C428.007 68.1652 428.14 68.3625 428.185 68.5868C428.229 68.8112 428.183 69.0441 428.056 69.2345C427.929 69.4248 427.732 69.557 427.508 69.6018C426.784 69.6945 426.052 69.7115 425.324 69.6526Z" fill="#2F2E41"/>
<path d="M399.632 133.428C399.479 133.431 399.329 133.391 399.198 133.313C399.066 133.236 398.959 133.123 398.887 132.989C398.783 132.79 398.761 132.56 398.824 132.345C398.887 132.13 399.031 131.949 399.226 131.838C399.48 131.703 425.189 117.983 434.548 112.908C434.645 112.855 434.751 112.822 434.86 112.81C434.97 112.798 435.081 112.808 435.186 112.84C435.292 112.871 435.39 112.924 435.475 112.993C435.56 113.063 435.631 113.149 435.682 113.247C435.738 113.344 435.774 113.451 435.787 113.563C435.8 113.674 435.791 113.787 435.759 113.894C435.728 114.002 435.674 114.102 435.603 114.188C435.532 114.275 435.443 114.346 435.344 114.397C425.984 119.472 400.292 133.192 400.021 133.327C399.903 133.394 399.768 133.429 399.632 133.428Z" fill="#2F2E41"/>
<path d="M172.685 261.877C172.571 261.875 172.459 261.848 172.357 261.799C172.254 261.749 172.164 261.677 172.092 261.589C172.026 261.51 171.977 261.419 171.946 261.321C171.916 261.223 171.905 261.12 171.914 261.018C171.924 260.916 171.953 260.817 172.001 260.726C172.049 260.635 172.115 260.555 172.194 260.49L237.727 206.83C237.888 206.701 238.093 206.64 238.298 206.659C238.503 206.678 238.693 206.775 238.828 206.931C238.893 207.011 238.941 207.103 238.97 207.202C238.999 207.3 239.009 207.404 238.998 207.506C238.987 207.608 238.956 207.707 238.906 207.797C238.857 207.887 238.79 207.967 238.709 208.031L173.277 261.691C173.112 261.829 172.899 261.895 172.685 261.877Z" fill="#D1D3D4"/>
<path d="M238.134 261.877C237.953 261.873 237.78 261.808 237.643 261.691L172.194 208.031C172.115 207.966 172.049 207.885 172.001 207.795C171.953 207.704 171.924 207.604 171.914 207.502C171.905 207.4 171.916 207.297 171.946 207.199C171.977 207.101 172.026 207.01 172.092 206.931C172.227 206.775 172.417 206.678 172.622 206.659C172.827 206.64 173.032 206.701 173.192 206.83L238.625 260.49C238.705 260.554 238.772 260.633 238.821 260.723C238.871 260.813 238.902 260.912 238.913 261.015C238.924 261.117 238.915 261.22 238.886 261.319C238.856 261.417 238.808 261.509 238.743 261.589C238.668 261.678 238.575 261.749 238.47 261.799C238.364 261.849 238.25 261.875 238.134 261.877Z" fill="#D1D3D4"/>
<path d="M437.442 188.628C437.251 188.638 437.063 188.581 436.908 188.468C436.754 188.355 436.644 188.192 436.596 188.007C436.548 187.822 436.566 187.626 436.646 187.452C436.726 187.278 436.864 187.138 437.036 187.054C437.138 187.054 445.956 182.301 448.19 178.055C448.241 177.957 448.312 177.871 448.397 177.801C448.482 177.731 448.58 177.679 448.686 177.648C448.791 177.616 448.902 177.606 449.012 177.618C449.121 177.63 449.227 177.663 449.324 177.716C449.423 177.766 449.511 177.836 449.582 177.92C449.654 178.004 449.708 178.102 449.741 178.208C449.774 178.314 449.786 178.425 449.775 178.535C449.764 178.645 449.732 178.752 449.679 178.85C447.208 183.553 438.204 188.34 437.832 188.543C437.708 188.595 437.576 188.624 437.442 188.628Z" fill="white"/>
<path d="M54.1927 285.272C54.0401 285.275 53.8898 285.235 53.7584 285.157C53.627 285.08 53.5196 284.967 53.448 284.833C50.1815 278.776 39.8065 265.074 39.7049 264.939C39.6208 264.853 39.5558 264.75 39.5144 264.638C39.4731 264.525 39.4562 264.405 39.4649 264.285C39.4736 264.165 39.5077 264.048 39.565 263.943C39.6223 263.837 39.7014 263.745 39.7971 263.673C39.8927 263.6 40.0028 263.548 40.1199 263.522C40.237 263.495 40.3585 263.493 40.4762 263.517C40.594 263.541 40.7054 263.589 40.8029 263.659C40.9005 263.729 40.982 263.82 41.042 263.924C41.4651 264.482 51.6032 277.863 54.9374 284.037C54.99 284.135 55.0226 284.242 55.0331 284.352C55.0437 284.462 55.0321 284.574 54.999 284.679C54.9659 284.785 54.9119 284.883 54.8403 284.967C54.7686 285.052 54.6808 285.121 54.582 285.171C54.4634 285.238 54.3291 285.273 54.1927 285.272Z" fill="white"/>
</svg>
