<svg width="167" height="145" viewBox="0 0 167 145" fill="none" xmlns="http://www.w3.org/2000/svg">
<path d="M166.462 120.723H0.244282C0.179494 120.723 0.117361 120.692 0.0715488 120.636C0.025737 120.581 0 120.505 0 120.427C0.00135545 120.349 0.0275266 120.274 0.0730479 120.219C0.118569 120.164 0.179919 120.132 0.244282 120.13H166.462C166.527 120.132 166.588 120.164 166.634 120.219C166.679 120.274 166.705 120.349 166.707 120.427C166.707 120.505 166.681 120.581 166.635 120.636C166.589 120.692 166.527 120.723 166.462 120.723Z" fill="#D1D3D4"/>
<path d="M154.36 0.315674H15.5384C13.9635 0.315674 12.6867 1.86506 12.6867 3.77633V104.045C12.6867 105.956 13.9635 107.506 15.5384 107.506H154.36C155.935 107.506 157.211 105.956 157.211 104.045V3.77633C157.211 1.86506 155.935 0.315674 154.36 0.315674Z" fill="#F5F5F5"/>
<path d="M154.354 107.828H15.5385C14.7113 107.826 13.9184 107.426 13.334 106.716C12.7495 106.005 12.4213 105.043 12.4213 104.039V3.77643C12.4227 2.77427 12.7517 1.81373 13.3362 1.1057C13.9206 0.397667 14.7127 -1.45423e-06 15.5385 0H154.354C155.181 0 155.974 0.398552 156.559 1.10798C157.143 1.81741 157.472 2.77959 157.472 3.78287V104.039C157.472 105.043 157.143 106.005 156.559 106.716C155.975 107.426 155.182 107.826 154.354 107.828ZM15.5385 0.644442C14.8526 0.644442 14.1948 0.975098 13.7098 1.56367C13.2248 2.15224 12.9523 2.95051 12.9523 3.78287V104.039C12.9523 104.872 13.2246 105.671 13.7095 106.26C14.1944 106.85 14.8522 107.182 15.5385 107.184H154.354C155.041 107.182 155.699 106.85 156.184 106.26C156.668 105.671 156.941 104.872 156.941 104.039V3.77643C156.939 2.94518 156.666 2.14856 156.181 1.56139C155.696 0.97421 155.039 0.64444 154.354 0.644442H15.5385Z" fill="#231F20"/>
<path d="M76.8479 77.1202H21.0241C20.9593 77.1202 20.8972 77.089 20.8514 77.0334C20.8056 76.9778 20.7798 76.9024 20.7798 76.8238C20.7812 76.7457 20.8073 76.6712 20.8529 76.616C20.8984 76.5608 20.9597 76.529 21.0241 76.5273H76.8479C76.9122 76.529 76.9736 76.5608 77.0191 76.616C77.0646 76.6712 77.0908 76.7457 77.0921 76.8238C77.0921 76.8627 77.0858 76.9013 77.0735 76.9372C77.0613 76.9732 77.0433 77.0059 77.0206 77.0334C76.9979 77.0609 76.971 77.0828 76.9413 77.0977C76.9117 77.1126 76.8799 77.1202 76.8479 77.1202Z" fill="#D1D3D4"/>
<path d="M51.1293 102.041C51.0645 102.041 51.0023 102.009 50.9565 101.954C50.9107 101.898 50.885 101.823 50.885 101.744V76.6883C50.885 76.6097 50.9107 76.5343 50.9565 76.4787C51.0023 76.4231 51.0645 76.3918 51.1293 76.3918C51.1936 76.3935 51.255 76.4253 51.3005 76.4805C51.346 76.5357 51.3722 76.6102 51.3735 76.6883V101.731C51.3742 101.771 51.3685 101.811 51.3566 101.848C51.3447 101.885 51.3269 101.919 51.3042 101.947C51.2815 101.976 51.2544 101.999 51.2244 102.015C51.1944 102.031 51.162 102.04 51.1293 102.041Z" fill="#D1D3D4"/>
<path d="M147.419 60.4291H83.2258C83.161 60.4291 83.0989 60.3979 83.0531 60.3423C83.0073 60.2867 82.9815 60.2113 82.9815 60.1327C82.9808 60.0935 82.9866 60.0546 82.9987 60.0182C83.0107 59.9818 83.0286 59.9488 83.0515 59.9211C83.0743 59.8934 83.1015 59.8716 83.1315 59.857C83.1615 59.8424 83.1935 59.8354 83.2258 59.8363H147.419C147.451 59.8354 147.483 59.8424 147.513 59.857C147.543 59.8716 147.57 59.8934 147.593 59.9211C147.616 59.9488 147.634 59.9818 147.646 60.0182C147.658 60.0546 147.664 60.0935 147.663 60.1327C147.663 60.2113 147.637 60.2867 147.592 60.3423C147.546 60.3979 147.484 60.4291 147.419 60.4291Z" fill="#D1D3D4"/>
<path d="M147.419 68.0467H83.2258C83.1935 68.0476 83.1615 68.0406 83.1315 68.026C83.1015 68.0114 83.0743 67.9896 83.0515 67.9619C83.0286 67.9342 83.0107 67.9011 82.9987 67.8648C82.9866 67.8284 82.9808 67.7895 82.9815 67.7503C82.9815 67.6717 83.0073 67.5963 83.0531 67.5407C83.0989 67.4851 83.161 67.4539 83.2258 67.4539H147.419C147.484 67.4539 147.546 67.4851 147.592 67.5407C147.637 67.5963 147.663 67.6717 147.663 67.7503C147.664 67.7895 147.658 67.8284 147.646 67.8648C147.634 67.9011 147.616 67.9342 147.593 67.9619C147.57 67.9896 147.543 68.0114 147.513 68.026C147.483 68.0406 147.451 68.0476 147.419 68.0467Z" fill="#D1D3D4"/>
<path d="M147.419 75.6703H83.2258C83.161 75.6703 83.0988 75.639 83.053 75.5834C83.0072 75.5279 82.9815 75.4525 82.9815 75.3738C82.9815 75.2952 83.0072 75.2198 83.053 75.1642C83.0988 75.1086 83.161 75.0774 83.2258 75.0774H147.419C147.451 75.0774 147.483 75.0851 147.512 75.1C147.542 75.1149 147.569 75.1367 147.592 75.1642C147.614 75.1917 147.632 75.2244 147.645 75.2604C147.657 75.2964 147.663 75.3349 147.663 75.3738C147.663 75.4128 147.657 75.4513 147.645 75.4873C147.632 75.5232 147.614 75.5559 147.592 75.5834C147.569 75.611 147.542 75.6328 147.512 75.6477C147.483 75.6626 147.451 75.6703 147.419 75.6703Z" fill="#D1D3D4"/>
<path d="M147.419 83.294H83.2259C83.1666 83.2835 83.1125 83.2474 83.0733 83.1924C83.0342 83.1373 83.0126 83.0671 83.0126 82.9944C83.0126 82.9217 83.0342 82.8514 83.0733 82.7964C83.1125 82.7414 83.1666 82.7053 83.2259 82.6947H147.419C147.478 82.7053 147.532 82.7414 147.572 82.7964C147.611 82.8514 147.632 82.9217 147.632 82.9944C147.632 83.0671 147.611 83.1373 147.572 83.1924C147.532 83.2474 147.478 83.2835 147.419 83.294Z" fill="#D1D3D4"/>
<path d="M147.419 90.9115H83.2258C83.161 90.9115 83.0988 90.8803 83.053 90.8247C83.0072 90.7691 82.9815 90.6937 82.9815 90.6151C82.9815 90.5364 83.0072 90.461 83.053 90.4054C83.0988 90.3498 83.161 90.3186 83.2258 90.3186H147.419C147.451 90.3186 147.483 90.3263 147.512 90.3412C147.542 90.3561 147.569 90.3779 147.592 90.4054C147.614 90.433 147.632 90.4656 147.645 90.5016C147.657 90.5376 147.663 90.5761 147.663 90.6151C147.663 90.654 147.657 90.6925 147.645 90.7285C147.632 90.7645 147.614 90.7971 147.592 90.8247C147.569 90.8522 147.542 90.874 147.512 90.8889C147.483 90.9038 147.451 90.9115 147.419 90.9115Z" fill="#D1D3D4"/>
<path d="M150.711 50.1442H76.5452C76.4805 50.1442 76.4183 50.1129 76.3725 50.0573C76.3267 50.0017 76.301 49.9263 76.301 49.8477C76.3023 49.7696 76.3285 49.6952 76.374 49.6399C76.4195 49.5847 76.4809 49.5529 76.5452 49.5513H150.711C150.776 49.5529 150.837 49.5847 150.883 49.6399C150.928 49.6952 150.954 49.7696 150.956 49.8477C150.956 49.9263 150.93 50.0017 150.884 50.0573C150.838 50.1129 150.776 50.1442 150.711 50.1442Z" fill="#D1D3D4"/>
<path d="M107.436 21.9045H84.1287C83.5186 21.9045 83.0241 22.5047 83.0241 23.245V41.6116C83.0241 42.3519 83.5186 42.952 84.1287 42.952H107.436C108.046 42.952 108.541 42.3519 108.541 41.6116V23.245C108.541 22.5047 108.046 21.9045 107.436 21.9045Z" fill="#F9A826"/>
<path d="M76.7471 101.435C76.7148 101.436 76.6827 101.429 76.6528 101.414C76.6228 101.4 76.5956 101.378 76.5728 101.35C76.5499 101.322 76.532 101.289 76.52 101.253C76.5079 101.217 76.5021 101.178 76.5028 101.139V15.8273C76.5028 15.7487 76.5286 15.6733 76.5744 15.6177C76.6202 15.5621 76.6823 15.5309 76.7471 15.5309C76.8115 15.5325 76.8728 15.5643 76.9184 15.6195C76.9639 15.6748 76.99 15.7492 76.9914 15.8273V101.139C76.9914 101.177 76.9851 101.216 76.9728 101.252C76.9605 101.288 76.9425 101.321 76.9198 101.348C76.8972 101.376 76.8702 101.398 76.8406 101.412C76.811 101.427 76.7792 101.435 76.7471 101.435Z" fill="#D1D3D4"/>
<path d="M151.205 15.9114H18.4433C18.3785 15.9114 18.3163 15.8801 18.2705 15.8245C18.2247 15.7689 18.199 15.6936 18.199 15.6149C18.2003 15.5368 18.2265 15.4624 18.272 15.4071C18.3175 15.3519 18.3789 15.3201 18.4433 15.3185H151.205C151.271 15.3185 151.333 15.3495 151.38 15.4049C151.427 15.4603 151.453 15.5357 151.455 15.6149C151.455 15.6544 151.448 15.6935 151.436 15.7299C151.423 15.7663 151.405 15.7992 151.381 15.8269C151.358 15.8545 151.331 15.8762 151.3 15.8907C151.27 15.9052 151.238 15.9122 151.205 15.9114Z" fill="#D1D3D4"/>
<path d="M148.47 102.26H21.4224C20.5952 102.26 19.8018 101.862 19.2163 101.152C18.6309 100.443 18.3013 99.4809 18.2999 98.477V9.34425C18.3013 8.33979 18.6307 7.37695 19.216 6.66668C19.8013 5.95641 20.5947 5.55664 21.4224 5.55493H148.47C149.298 5.55664 150.091 5.95641 150.677 6.66668C151.262 7.37695 151.592 8.33979 151.593 9.34425V98.477C151.592 99.4809 151.262 100.443 150.676 101.152C150.091 101.862 149.298 102.26 148.47 102.26ZM21.4224 6.19937C20.7355 6.20108 20.0772 6.53296 19.5915 7.12237C19.1058 7.71178 18.8323 8.5107 18.8309 9.34425V98.477C18.8323 99.31 19.106 100.108 19.5918 100.697C20.0777 101.285 20.736 101.615 21.4224 101.615H148.47C149.157 101.615 149.815 101.285 150.301 100.697C150.787 100.108 151.06 99.31 151.062 98.477V9.34425C151.06 8.5107 150.787 7.71178 150.301 7.12237C149.816 6.53296 149.157 6.20108 148.47 6.19937H21.4224Z" fill="#231F20"/>
<path d="M99.6566 107.538L84.4155 107.493L69.1797 107.538C69.1797 107.538 67.8362 124.294 59.0898 131.466H109.757C101 124.313 99.6566 107.538 99.6566 107.538Z" fill="#F5F5F5"/>
<path d="M109.752 131.788H59.0791C59.023 131.788 58.9684 131.766 58.9235 131.726C58.8785 131.685 58.8455 131.628 58.8295 131.563C58.8112 131.497 58.8117 131.425 58.831 131.36C58.8503 131.295 58.8872 131.239 58.9357 131.202C67.4803 124.216 68.8982 107.673 68.9141 107.506C68.9207 107.426 68.9516 107.352 69.0007 107.298C69.0498 107.245 69.1136 107.215 69.1796 107.216L84.4154 107.171L99.6565 107.216C99.7222 107.217 99.7854 107.247 99.8342 107.3C99.8831 107.353 99.9143 107.427 99.922 107.506C99.922 107.673 101.356 124.216 109.9 131.202C109.947 131.241 109.982 131.297 110.001 131.362C110.02 131.426 110.022 131.497 110.007 131.563C109.99 131.629 109.956 131.686 109.91 131.726C109.864 131.767 109.808 131.789 109.752 131.788ZM59.9128 131.144H108.923C101.382 124.255 99.6458 110.064 99.4228 107.86L84.4154 107.815L69.4133 107.86C69.1849 110.064 67.4537 124.255 59.9128 131.144Z" fill="#231F20"/>
<path d="M113.591 131.466H55.2448C53.8194 131.466 52.6639 132.868 52.6639 134.598V134.714C52.6639 136.444 53.8194 137.846 55.2448 137.846H113.591C115.016 137.846 116.172 136.444 116.172 134.714V134.598C116.172 132.868 115.016 131.466 113.591 131.466Z" fill="#F5F5F5"/>
<path d="M113.591 138.175H55.2449C54.4904 138.173 53.7672 137.809 53.2337 137.161C52.7002 136.514 52.3999 135.636 52.3985 134.721V134.598C52.3999 133.683 52.7002 132.805 53.2337 132.158C53.7672 131.51 54.4904 131.146 55.2449 131.144H113.591C114.346 131.146 115.069 131.51 115.602 132.158C116.136 132.805 116.436 133.683 116.438 134.598V134.721C116.436 135.636 116.136 136.514 115.602 137.161C115.069 137.809 114.346 138.173 113.591 138.175ZM55.2449 131.788C54.6313 131.79 54.0432 132.087 53.6092 132.613C53.1753 133.14 52.9309 133.853 52.9295 134.598V134.721C52.9309 135.465 53.1753 136.179 53.6092 136.705C54.0432 137.232 54.6313 137.529 55.2449 137.53H113.591C114.205 137.529 114.793 137.232 115.227 136.705C115.661 136.179 115.905 135.465 115.907 134.721V134.598C115.905 133.853 115.661 133.14 115.227 132.613C114.793 132.087 114.205 131.79 113.591 131.788H55.2449Z" fill="#231F20"/>
<path d="M26.887 13.2174C27.805 13.2174 28.5492 12.3143 28.5492 11.2003C28.5492 10.0863 27.805 9.18323 26.887 9.18323C25.969 9.18323 25.2248 10.0863 25.2248 11.2003C25.2248 12.3143 25.969 13.2174 26.887 13.2174Z" fill="#F9A826"/>
<path d="M33.3818 13.2174C34.2998 13.2174 35.044 12.3143 35.044 11.2003C35.044 10.0863 34.2998 9.18323 33.3818 9.18323C32.4638 9.18323 31.7196 10.0863 31.7196 11.2003C31.7196 12.3143 32.4638 13.2174 33.3818 13.2174Z" fill="#231F20"/>
<path d="M39.8817 13.2174C40.7997 13.2174 41.5438 12.3143 41.5438 11.2003C41.5438 10.0863 40.7997 9.18323 39.8817 9.18323C38.9637 9.18323 38.2195 10.0863 38.2195 11.2003C38.2195 12.3143 38.9637 13.2174 39.8817 13.2174Z" fill="#231F20"/>
<path d="M29.9246 116.276L34.258 135.578C34.258 135.578 41.8626 137.724 41.6926 138.316C41.5227 138.909 29.7175 140.849 29.7175 140.849L24.6991 118.577" fill="#F5F5F5"/>
<path d="M29.7175 141.171C29.6594 141.171 29.603 141.147 29.5569 141.104C29.5109 141.061 29.4777 141.001 29.4626 140.933L24.4442 118.635C24.4346 118.595 24.4318 118.552 24.436 118.51C24.4402 118.468 24.4513 118.428 24.4686 118.391C24.486 118.354 24.5092 118.322 24.5369 118.297C24.5646 118.271 24.5963 118.253 24.6301 118.242C24.6977 118.22 24.7696 118.232 24.8302 118.274C24.8909 118.316 24.9354 118.386 24.954 118.468L29.914 140.488C33.8119 139.844 39.7225 138.768 41.1988 138.252C38.9063 137.298 36.5691 136.51 34.1996 135.893C34.1532 135.881 34.1104 135.853 34.0759 135.813C34.0413 135.774 34.0162 135.723 34.0031 135.668L29.6697 116.335C29.6514 116.249 29.6618 116.158 29.6987 116.082C29.7355 116.006 29.7958 115.951 29.8662 115.929C29.9366 115.906 30.0114 115.919 30.0742 115.964C30.1369 116.008 30.1825 116.082 30.2008 116.167L34.4969 135.333C37.2159 136.106 41.6342 137.446 41.9316 138.123C41.9691 138.224 41.9785 138.337 41.9582 138.445C41.8944 138.677 41.7404 139.232 29.7441 141.191L29.7175 141.171Z" fill="#231F20"/>
<path d="M16.4413 109.851L15.1933 139.109C15.1933 139.109 27.0729 142.235 27.1154 141.861C27.1578 141.487 20.7428 135.926 20.7428 135.926L22.6068 115.136" fill="#F5F5F5"/>
<path d="M27.0092 142.19C26.425 142.19 24.2265 141.822 15.1137 139.425C15.0515 139.408 14.996 139.366 14.9572 139.304C14.9183 139.243 14.8985 139.167 14.9013 139.09L16.1492 109.839C16.1528 109.753 16.1841 109.673 16.2364 109.615C16.2887 109.558 16.3576 109.528 16.428 109.533C16.4985 109.537 16.5646 109.575 16.6119 109.638C16.6592 109.702 16.6838 109.785 16.6803 109.871L15.443 138.871C19.1178 139.837 24.6142 141.216 26.4356 141.526C25.3736 140.424 22.4475 137.859 20.5357 136.209C20.4981 136.176 20.4684 136.13 20.4497 136.078C20.4311 136.026 20.4241 135.969 20.4295 135.913L22.2829 115.104C22.2862 115.061 22.2964 115.02 22.3129 114.983C22.3294 114.945 22.3519 114.912 22.379 114.885C22.4062 114.858 22.4375 114.838 22.4711 114.825C22.5047 114.813 22.54 114.809 22.5749 114.814C22.6459 114.823 22.7109 114.867 22.7557 114.934C22.8004 115.002 22.8214 115.088 22.8139 115.175L20.9659 135.797C27.4181 141.365 27.3756 141.693 27.3384 141.932C27.3241 142.022 27.2824 142.103 27.2216 142.157C27.2216 142.157 27.1738 142.19 27.0092 142.19Z" fill="#231F20"/>
<path d="M36.7698 135.404L35.1766 138.368L28.9102 139.264L29.5263 142.177C29.5263 142.177 43.3335 140.082 43.6256 138.555C43.9177 137.028 36.7698 135.404 36.7698 135.404Z" fill="#231F20"/>
<path d="M14.0622 139.779L14.4233 136.789L21.6775 139.199L23.09 136.937C23.09 136.937 28.4005 141.616 27.6783 142.621C26.9561 143.627 19.0966 141.809 14.0622 139.779Z" fill="#231F20"/>
<path d="M11.6299 38.4152C12.3337 38.1628 13.0893 38.2316 13.7541 38.6085C14.1756 37.4042 14.835 36.3443 15.6741 35.5227C16.5133 34.7011 17.5063 34.1429 18.5654 33.8977C19.3028 33.7514 20.0486 33.676 20.7958 33.6721C21.911 33.6721 23.1112 33.7559 23.9821 34.5872C24.4822 35.1312 24.8468 35.8342 25.0345 36.6167C25.2222 37.3992 25.2256 38.2299 25.0442 39.0145C24.3963 42.2368 22.389 43.0294 20.5675 44.8532C19.6837 45.7955 18.9753 46.9551 18.4891 48.255C18.0029 49.555 17.7502 50.9656 17.7476 52.3932C17.7476 58.7474 19.4045 65.7718 13.6638 69.5869C10.0049 72.01 5.04494 70.1347 2.5915 66.0424C2.03947 65.1561 1.63211 64.1499 1.39134 63.078C0.791252 60.1845 1.83211 57.1556 3.13848 54.6294C4.44486 52.1032 5.79372 49.8154 6.88768 47.2247C7.83295 44.9692 7.94978 42.2496 9.31988 40.2261C9.91474 39.3439 10.7227 38.7106 11.6299 38.4152Z" fill="#F5F5F5"/>
<path d="M10.0953 70.9851C8.59999 70.9682 7.12841 70.5297 5.79669 69.7043C4.46498 68.879 3.30956 67.6893 2.42163 66.2292C1.8503 65.3096 1.42857 64.2663 1.17898 63.1552C0.647928 60.6354 1.23739 57.787 2.95799 54.4552C3.33503 53.727 3.7227 53.0117 4.10505 52.2963C5.04551 50.6141 5.9106 48.8716 6.69657 47.0764C7.04516 46.1738 7.33287 45.2385 7.55686 44.2795C7.85663 42.7482 8.39761 41.3017 9.15001 40.0197C9.76721 39.091 10.6054 38.4159 11.5503 38.0864C12.2371 37.8411 12.9707 37.8704 13.6427 38.1702C14.1023 36.9844 14.7889 35.9492 15.6453 35.151C16.5016 34.3528 17.5029 33.8148 18.5655 33.5817C19.317 33.4332 20.0769 33.3556 20.8384 33.3497C21.9642 33.3497 23.2387 33.4271 24.2052 34.3293C24.7508 34.9082 25.1505 35.6624 25.3582 36.505C25.5658 37.3477 25.573 38.2444 25.3788 39.0917C24.8478 41.6695 23.552 42.7457 22.1925 43.8993C21.7465 44.273 21.2844 44.6597 20.8384 45.0979C19.9841 46.0087 19.2994 47.1297 18.8297 48.3864C18.36 49.643 18.1161 51.0066 18.1141 52.3866C18.1141 53.5401 18.1725 54.7388 18.2256 55.8988C18.4752 61.1832 18.7567 66.6545 13.8923 69.8638C12.7262 70.6246 11.419 71.0106 10.0953 70.9851ZM11.6884 38.7244C10.8537 39.0147 10.1124 39.6085 9.56422 40.4257C8.85387 41.6428 8.3436 43.0148 8.06136 44.4664C7.83206 45.4619 7.53361 46.432 7.1692 47.3663C6.37596 49.1819 5.50198 50.9439 4.55113 52.6443C4.16878 53.3597 3.78111 54.075 3.40938 54.7968C1.76844 57.9739 1.21084 60.6547 1.69409 63.0005C1.92765 64.0305 2.32053 64.9971 2.85178 65.8489C5.35301 70.0249 10.1696 71.5716 13.5843 69.3032C18.13 66.2807 17.8964 61.2541 17.6415 55.931C17.5884 54.7645 17.5299 53.5594 17.5299 52.393C17.5317 50.9169 17.7932 49.4582 18.2969 48.1145C18.8006 46.7709 19.5349 45.5732 20.4507 44.6017C20.9127 44.1441 21.38 43.751 21.8367 43.3708C23.1962 42.2366 24.3698 41.257 24.8319 38.9435C25.1027 37.6095 24.9009 35.8244 23.8547 34.8384C23.021 34.0586 21.8474 33.9748 20.8224 33.9942C20.0892 33.9943 19.3573 34.0698 18.6345 34.2197C17.6195 34.4528 16.6676 34.9865 15.8634 35.7735C15.0593 36.5605 14.4278 37.5764 14.025 38.7308C13.9931 38.8084 13.938 38.8683 13.871 38.8984C13.8041 38.9274 13.7309 38.9274 13.6639 38.8984C13.0491 38.548 12.3492 38.486 11.699 38.7244H11.6884Z" fill="#231F20"/>
<path d="M28.9847 59.5596C27.8058 60.1073 25.8674 60.6165 25.3629 58.6316C25.2852 58.2789 25.26 57.9123 25.2886 57.5489C25.3364 57.0141 25.4162 56.4843 25.5276 55.9636C25.8438 54.5064 26.2594 53.0837 26.7702 51.7103C26.8924 51.3623 27.1366 50.9434 27.434 51.0658C27.7314 51.1883 27.7208 51.5685 27.7155 51.8907C27.7155 52.7865 27.5933 53.6952 27.6093 54.5909C29.1706 54.1076 30.153 52.1034 31.6399 51.6716C32.0595 51.5556 32.5693 51.5169 32.6171 52.1743C32.6702 52.9863 31.4594 53.6243 31.0558 54.0431C31.5086 53.5716 32.0287 53.2046 32.5905 52.9605C32.7474 52.8774 32.9192 52.8441 33.0897 52.8638C33.1756 52.8783 33.2553 52.9264 33.3167 53.0008C33.378 53.0753 33.4177 53.172 33.4296 53.2763C33.4251 53.3612 33.4069 53.4442 33.3759 53.5205C33.3449 53.5968 33.3018 53.6649 33.249 53.7209C33.0177 54.0381 32.7616 54.3273 32.4843 54.5845C32.7575 54.1892 33.131 53.9149 33.5464 53.8047C33.6496 53.7601 33.7617 53.7554 33.8672 53.7912C33.9728 53.8269 34.0666 53.9015 34.1359 54.0045C34.3111 54.346 33.9765 54.7327 33.6898 54.9325C33.9172 54.6834 34.1963 54.5141 34.497 54.4427C34.6472 54.4118 34.8015 54.4521 34.928 54.5552C35.0544 54.6584 35.1435 54.8165 35.1767 54.9969C35.1709 55.141 35.1394 55.2819 35.0843 55.4099C35.0293 55.5378 34.9521 55.6498 34.8581 55.738C33.3393 57.5747 30.9602 58.6445 28.9847 59.5596Z" fill="#F5F5F5"/>
<path d="M27.0993 60.3715C26.7337 60.3847 26.3705 60.2965 26.0372 60.1137C25.8092 59.9767 25.6079 59.7822 25.4467 59.5433C25.2855 59.3044 25.1682 59.0265 25.1025 58.7282C25.01 58.337 24.9794 57.9281 25.0123 57.5231C25.0604 56.9709 25.142 56.4238 25.2565 55.8862C25.5801 54.4017 26.0065 52.953 26.531 51.5555C26.7647 50.9111 27.1418 50.576 27.5241 50.7371C27.7418 50.8273 28.0021 51.098 27.9861 51.8713C27.9861 52.258 27.9861 52.6446 27.933 53.0313C27.8799 53.418 27.8905 53.7595 27.8799 54.1204C28.4614 53.7906 28.9985 53.3561 29.4731 52.8315C30.0675 52.1542 30.7785 51.6458 31.5548 51.3429C31.7201 51.2728 31.8957 51.2452 32.0703 51.2619C32.2449 51.2785 32.4147 51.339 32.5691 51.4395C32.6562 51.5212 32.7272 51.6256 32.7768 51.7449C32.8265 51.8642 32.8534 51.9955 32.8558 52.1291C32.8649 52.2639 32.8523 52.3996 32.8187 52.5286C32.9171 52.5093 33.0176 52.5093 33.116 52.5286C33.2554 52.5623 33.3822 52.6493 33.4778 52.7769C33.5734 52.9045 33.6328 53.0659 33.6471 53.2375C33.6528 53.3061 33.6528 53.3752 33.6471 53.4437C33.7819 53.4188 33.9198 53.4406 34.0447 53.5068C34.1697 53.5729 34.2767 53.6807 34.3534 53.8175C34.3986 53.9033 34.4276 54.0001 34.4384 54.1011C34.6901 54.071 34.9415 54.1611 35.1393 54.3524C35.215 54.4254 35.278 54.5161 35.3245 54.619C35.371 54.7219 35.4001 54.835 35.4102 54.9517C35.4085 55.1426 35.3719 55.3307 35.303 55.5023C35.2341 55.674 35.1347 55.8249 35.0119 55.9442C33.5037 57.7486 31.2627 58.7926 29.2925 59.7142L29.027 59.8431C28.4131 60.1481 27.7616 60.3267 27.0993 60.3715ZM27.3276 51.3493C27.2427 51.3493 27.1099 51.5491 27.0143 51.8133C26.5063 53.1868 26.0942 54.6095 25.7823 56.0666C25.6745 56.5724 25.5981 57.0872 25.5539 57.6068C25.5289 57.9311 25.5505 58.2582 25.6176 58.5735C25.6633 58.786 25.7457 58.9844 25.8592 59.1554C25.9727 59.3265 26.1148 59.4664 26.2761 59.5659C27.0568 60.0235 28.2463 59.5659 28.8889 59.2888L29.1544 59.1664C31.0768 58.2642 33.2594 57.2331 34.6933 55.5382C34.7995 55.4093 34.9428 55.216 34.9322 55.0613C34.9257 54.9979 34.899 54.9401 34.8579 54.9002C34.7695 54.8196 34.6601 54.7807 34.5499 54.7906C34.3927 54.8218 34.2437 54.8968 34.1144 55.0097C34.0308 55.098 33.9401 55.1757 33.8436 55.2417C33.7844 55.2816 33.715 55.2932 33.6492 55.2741C33.5833 55.255 33.5257 55.2067 33.4878 55.1386C33.4515 55.0702 33.4379 54.9876 33.4498 54.9076C33.4616 54.8275 33.4979 54.7558 33.5515 54.7069L33.7905 54.4942C33.8571 54.4327 33.9085 54.3503 33.9392 54.2557C33.9073 54.1462 33.7799 54.114 33.6152 54.1526C33.4397 54.1971 33.2712 54.2754 33.116 54.3846C32.9659 54.5581 32.8081 54.7216 32.6434 54.8744C32.5917 54.9262 32.5258 54.9523 32.4589 54.9475C32.392 54.9428 32.3291 54.9075 32.2827 54.8488C32.2363 54.7901 32.21 54.7123 32.2089 54.631C32.2079 54.5497 32.2322 54.4709 32.277 54.4104C32.4303 54.1983 32.6094 54.0157 32.808 53.8691C32.8983 53.766 32.9833 53.6564 33.0682 53.5404C33.1532 53.4244 33.1798 53.36 33.1798 53.3213C33.1798 53.2826 33.1267 53.2311 33.0576 53.2182C32.9339 53.2086 32.8101 53.2351 32.6965 53.2955C32.5 53.3808 32.3084 53.482 32.123 53.5984C31.969 53.7337 31.8097 53.8562 31.661 53.9722C31.5171 54.0777 31.3788 54.1939 31.2468 54.3202C31.2209 54.3503 31.1903 54.3738 31.1568 54.3892C31.1232 54.4046 31.0875 54.4116 31.0517 54.4097C31.0159 54.4079 30.9807 54.3973 30.9484 54.3786C30.9161 54.3598 30.8872 54.3333 30.8635 54.3007C30.8398 54.268 30.8218 54.2299 30.8106 54.1886C30.7994 54.1472 30.7952 54.1036 30.7983 54.0603C30.8013 54.0169 30.8116 53.9748 30.8284 53.9364C30.8453 53.898 30.8683 53.8641 30.8963 53.8369C31.1822 53.5393 31.4938 53.28 31.8256 53.0635C32.123 52.7993 32.3566 52.5029 32.3566 52.2386C32.3566 52.0775 32.2982 52.0324 32.2823 52.0195C32.2664 52.0066 32.0858 51.9164 31.7088 52.0195C31.0094 52.3039 30.3696 52.7702 29.8342 53.3857C29.2267 54.0818 28.5019 54.6095 27.71 54.9324C27.6712 54.9454 27.6305 54.9475 27.5909 54.9385C27.5513 54.9296 27.514 54.9099 27.4816 54.8809C27.4502 54.8506 27.4244 54.8125 27.4061 54.7691C27.3878 54.7258 27.3773 54.6782 27.3754 54.6295C27.3754 54.0946 27.3754 53.5597 27.4285 53.0377C27.4551 52.664 27.4763 52.2902 27.4816 51.9164C27.4869 51.5426 27.4338 51.4266 27.3754 51.4073L27.3276 51.3493Z" fill="#231F20"/>
<path d="M27.6835 54.6744C28.0398 55.1972 28.2387 55.8516 28.2474 56.5299C28.2561 57.2082 28.0741 57.8699 27.7313 58.4058H27.8853" fill="#F5F5F5"/>
<path d="M27.7312 58.7278C27.6816 58.7272 27.6331 58.71 27.5909 58.6782C27.5488 58.6464 27.5146 58.6011 27.4923 58.5473C27.47 58.4916 27.4612 58.4293 27.4668 58.3678C27.4725 58.3062 27.4923 58.2478 27.5241 58.1993C27.8275 57.7231 27.9885 57.1359 27.9808 56.5341C27.9731 55.9322 27.7971 55.3514 27.4816 54.8869C27.4359 54.822 27.4132 54.7376 27.4187 54.6524C27.4242 54.5672 27.4573 54.4881 27.5109 54.4326C27.5644 54.377 27.6339 54.3496 27.7041 54.3562C27.7743 54.3628 27.8395 54.4031 27.8852 54.468C28.2472 54.9933 28.4652 55.6423 28.509 56.325C28.5528 57.0076 28.4201 57.6898 28.1295 58.2767C28.1319 58.3088 28.1319 58.3412 28.1295 58.3733C28.1317 58.4157 28.1269 58.4581 28.1155 58.4982C28.1042 58.5383 28.0864 58.5753 28.0632 58.607C28.04 58.6387 28.0119 58.6646 27.9804 58.6831C27.949 58.7016 27.9148 58.7124 27.8799 58.7149H27.7259L27.7312 58.7278Z" fill="#231F20"/>
<path d="M65.0958 33.6271H29.7758C28.7963 33.6271 28.0021 34.5908 28.0021 35.7795V53.8561C28.0021 55.0449 28.7963 56.0086 29.7758 56.0086H65.0958C66.0754 56.0086 66.8695 55.0449 66.8695 53.8561V35.7795C66.8695 34.5908 66.0754 33.6271 65.0958 33.6271Z" fill="#F5F5F5"/>
<path d="M65.0957 56.3309H29.7757C29.5079 56.3309 29.2428 56.2668 28.9954 56.1425C28.7479 56.0181 28.5231 55.8358 28.3338 55.606C28.1444 55.3762 27.9942 55.1034 27.8917 54.8032C27.7893 54.503 27.7365 54.1812 27.7365 53.8562V35.8118C27.7365 35.1555 27.9514 34.5261 28.3338 34.062C28.7162 33.5979 29.2349 33.3372 29.7757 33.3372H65.0957C65.6366 33.3372 66.1553 33.5979 66.5377 34.062C66.9201 34.5261 67.135 35.1555 67.135 35.8118V53.8884C67.128 54.5391 66.91 55.1603 66.5284 55.6175C66.1467 56.0746 65.632 56.3309 65.0957 56.3309ZM29.7757 33.9494C29.3757 33.9494 28.9921 34.1422 28.7093 34.4854C28.4265 34.8287 28.2676 35.2942 28.2676 35.7796V53.8562C28.2676 54.3416 28.4265 54.8071 28.7093 55.1503C28.9921 55.4936 29.3757 55.6864 29.7757 55.6864H65.0957C65.4957 55.6864 65.8793 55.4936 66.1622 55.1503C66.445 54.8071 66.6039 54.3416 66.6039 53.8562V35.8118C66.6039 35.3264 66.445 34.8609 66.1622 34.5177C65.8793 34.1744 65.4957 33.9816 65.0957 33.9816L29.7757 33.9494Z" fill="#231F20"/>
<path d="M36.9608 50.8077C39.6855 50.8077 41.8943 48.1273 41.8943 44.8209C41.8943 41.5144 39.6855 38.834 36.9608 38.834C34.2362 38.834 32.0274 41.5144 32.0274 44.8209C32.0274 48.1273 34.2362 50.8077 36.9608 50.8077Z" fill="#231F20"/>
<path d="M62.6106 41.966H46.9394C46.8689 41.966 46.8014 41.932 46.7516 41.8716C46.7018 41.8112 46.6738 41.7292 46.6738 41.6438C46.6738 41.5583 46.7018 41.4763 46.7516 41.4159C46.8014 41.3555 46.8689 41.3215 46.9394 41.3215H62.6106C62.681 41.3215 62.7485 41.3555 62.7983 41.4159C62.8481 41.4763 62.8761 41.5583 62.8761 41.6438C62.8761 41.7292 62.8481 41.8112 62.7983 41.8716C62.7485 41.932 62.681 41.966 62.6106 41.966Z" fill="#231F20"/>
<path d="M62.6106 45.1429H46.9394C46.8689 45.1429 46.8014 45.1089 46.7516 45.0485C46.7018 44.9881 46.6738 44.9061 46.6738 44.8206C46.6738 44.7352 46.7018 44.6532 46.7516 44.5928C46.8014 44.5324 46.8689 44.4984 46.9394 44.4984H62.6106C62.681 44.4984 62.7485 44.5324 62.7983 44.5928C62.8481 44.6532 62.8761 44.7352 62.8761 44.8206C62.8761 44.9061 62.8481 44.9881 62.7983 45.0485C62.7485 45.1089 62.681 45.1429 62.6106 45.1429Z" fill="#231F20"/>
<path d="M57.1673 48.3332H46.9394C46.8689 48.3332 46.8014 48.2992 46.7516 48.2388C46.7018 48.1784 46.6738 48.0964 46.6738 48.0109C46.6738 47.9255 46.7018 47.8435 46.7516 47.7831C46.8014 47.7227 46.8689 47.6887 46.9394 47.6887H57.1673C57.2378 47.6887 57.3053 47.7227 57.3551 47.7831C57.4049 47.8435 57.4329 47.9255 57.4329 48.0109C57.4329 48.0964 57.4049 48.1784 57.3551 48.2388C57.3053 48.2992 57.2378 48.3332 57.1673 48.3332Z" fill="#231F20"/>
<path d="M28.6553 59.3272C28.6553 59.3272 34.9641 64.4312 37.4176 62.8974C39.871 61.3636 44.9213 55.9245 44.9213 55.9245C44.9213 55.9245 46.1161 52.3479 47.1676 52.5992C48.2191 52.8505 47.2367 56.2596 47.2367 56.2596C47.2367 56.2596 53.4765 54.9707 53.4074 55.7505C53.3384 56.5303 50.0406 58.3863 48.5696 58.7278C47.0986 59.0694 41.7828 69.2838 38.2142 70.476C34.6455 71.6682 31.0609 69.026 27.2002 66.1325" fill="#F5F5F5"/>
<path d="M36.3767 71.0946C33.302 71.0946 30.2537 68.8068 27.0568 66.4095C27.0266 66.3878 27.0003 66.3588 26.9795 66.3244C26.9588 66.29 26.944 66.2508 26.936 66.2092C26.9281 66.1677 26.9272 66.1246 26.9333 66.0826C26.9395 66.0406 26.9526 66.0005 26.9719 65.9649C26.9893 65.9284 27.0126 65.8966 27.0405 65.8715C27.0684 65.8463 27.1003 65.8284 27.1341 65.8187C27.1679 65.8091 27.203 65.8079 27.2372 65.8153C27.2714 65.8227 27.304 65.8385 27.333 65.8617C31.0875 68.6715 34.6296 71.3331 38.1345 70.1666C40.195 69.4771 42.9139 65.5975 45.1072 62.4849C46.8596 59.9844 47.8845 58.5667 48.5377 58.412C49.9822 58.0769 52.5896 56.5238 53.0835 55.8342C52.3772 55.6924 49.706 56.0662 47.2951 56.5624C47.25 56.5712 47.2039 56.5657 47.1611 56.5465C47.1183 56.5273 47.0803 56.4951 47.0508 56.4529C47.0203 56.4103 46.9998 56.3585 46.9914 56.3029C46.9829 56.2474 46.987 56.1901 47.003 56.1371C47.2579 55.2413 47.5659 53.6173 47.3004 53.0567C47.2853 53.0154 47.2618 52.9796 47.232 52.9525C47.2023 52.9254 47.1673 52.908 47.1304 52.902C46.5622 52.7602 45.6329 54.6807 45.1868 56.0211C45.1701 56.0667 45.1467 56.1081 45.1178 56.1436C44.9054 56.3691 40.0144 61.6342 37.5557 63.168C34.996 64.7662 28.7827 59.7847 28.5278 59.572C28.4763 59.5216 28.4421 59.4497 28.432 59.3704C28.4219 59.2911 28.4365 59.21 28.4731 59.1431C28.5096 59.0761 28.5654 59.0282 28.6296 59.0086C28.6937 58.989 28.7616 58.9992 28.8199 59.0371C30.5405 60.4291 35.4208 63.7802 37.3167 62.5944C39.5949 61.1767 44.2203 56.2596 44.7195 55.7118C44.985 54.9385 46.0737 51.9869 47.242 52.264C47.3544 52.2898 47.4605 52.3461 47.5525 52.4287C47.6444 52.5113 47.7198 52.618 47.773 52.7409C48.1288 53.4949 47.842 55.0287 47.6456 55.8407C49.8388 55.4024 53.1154 54.8611 53.588 55.4025C53.6275 55.4501 53.658 55.5077 53.6772 55.5711C53.6965 55.6346 53.7041 55.7024 53.6995 55.7698C53.5986 56.8396 49.9344 58.7278 48.6439 59.0242C48.1447 59.1402 46.8118 61.0413 45.5214 62.8909C43.2857 66.068 40.5083 70.0313 38.2885 70.7724C37.6662 70.9846 37.0231 71.093 36.3767 71.0946Z" fill="#231F20"/>
<path d="M26.255 77.2303C26.7861 81.6834 26.8976 83.4362 32.1284 119.879C32.1284 119.879 19.9143 123.366 15.1986 124.391C12.0123 116.419 10.5732 109.246 8.40121 100.81C6.99393 95.3391 5.92652 88.0118 7.94981 82.8369C8.27375 82.012 11.3963 73.9758 11.3963 73.9758C11.3963 73.9758 26.2763 77.3914 26.255 77.2303Z" fill="#231F20"/>
<path d="M15.5917 56.9815C15.7775 52.116 14.9703 42.2496 14.9703 42.2496C14.9703 42.2496 20.079 42.604 21.7943 39.6267C23.9185 41.6245 24.3327 47.2569 23.9185 48.9453C23.1591 52.2707 19.6011 51.5231 19.6011 51.5231L20.0525 57.6066L15.5917 56.9815Z" fill="#F5F5F5"/>
<path d="M20.0788 57.9418L15.5861 57.2973C15.5195 57.2876 15.4584 57.2477 15.415 57.1855C15.3717 57.1233 15.3493 57.0436 15.3525 56.9622C15.5384 52.1804 14.7418 42.3785 14.7312 42.2818C14.7283 42.235 14.7334 42.1879 14.7462 42.1435C14.759 42.0992 14.7792 42.0585 14.8055 42.024C14.8326 41.9914 14.8651 41.966 14.9007 41.9494C14.9364 41.9327 14.9745 41.9252 15.0126 41.9274C15.0604 41.9274 19.9938 42.2367 21.6029 39.4398C21.6235 39.4036 21.6499 39.3729 21.6806 39.3496C21.7113 39.3262 21.7457 39.3108 21.7815 39.3041C21.8173 39.2975 21.8539 39.2998 21.8889 39.3109C21.924 39.3221 21.9567 39.3418 21.9853 39.3689C24.1891 41.4634 24.6405 47.244 24.2316 49.0356C23.5572 51.9613 20.8966 51.9936 19.9461 51.9033L20.3709 57.6002C20.3758 57.6478 20.3711 57.6961 20.3572 57.741C20.3433 57.7859 20.3207 57.826 20.2912 57.858C20.263 57.8898 20.2293 57.9138 20.1926 57.9283C20.156 57.9428 20.1171 57.9474 20.0788 57.9418ZM15.8676 56.7109L19.7867 57.2715L19.3619 51.5553C19.3568 51.5052 19.3619 51.4544 19.3767 51.4072C19.3915 51.36 19.4156 51.318 19.4469 51.2847C19.4766 51.2517 19.5122 51.2276 19.5509 51.2142C19.5896 51.2008 19.6303 51.1984 19.6699 51.2073C19.808 51.2073 23.0049 51.8518 23.6899 48.8422C24.0192 47.4116 23.6899 42.1916 21.8366 40.0778C20.1744 42.4945 16.3827 42.5911 15.2622 42.5718C15.4056 44.3763 15.9951 52.3222 15.8676 56.7109Z" fill="#231F20"/>
<path d="M19.6276 51.5556C18.8234 51.437 18.0613 51.0537 17.4238 50.4471C17.4238 50.4471 18.3956 53.3987 19.8931 53.8369L19.6276 51.5556Z" fill="#231F20"/>
<path d="M19.8929 54.1333H19.8345C18.2414 53.6564 17.243 50.692 17.1793 50.5631C17.1589 50.5003 17.1567 50.431 17.1731 50.3666C17.1895 50.3021 17.2235 50.2464 17.2696 50.2086C17.317 50.172 17.3732 50.156 17.4291 50.163C17.485 50.17 17.5373 50.1997 17.5776 50.2473C18.2361 51.0528 19.6221 51.2655 19.6327 51.2719C19.6863 51.2787 19.7364 51.3071 19.775 51.3528C19.8135 51.3984 19.8383 51.4585 19.8452 51.5233L20.1107 53.8046C20.1177 53.8517 20.1145 53.9002 20.1015 53.9454C20.0885 53.9906 20.066 54.0309 20.0363 54.0624C19.9959 54.1039 19.9457 54.1287 19.8929 54.1333ZM18.0343 51.2848C18.3861 52.1381 18.922 52.8597 19.5849 53.3728L19.3991 51.7939C18.9279 51.6969 18.4691 51.5258 18.0343 51.2848Z" fill="#231F20"/>
<path d="M23.4776 54.4749L35.1606 62.2082L32.3408 72.1132C32.3408 72.1132 17.6785 62.6979 17.5776 60.1459C17.4767 57.594 23.4776 54.4749 23.4776 54.4749Z" fill="#F9A826"/>
<path d="M26.4356 78.9763C27.1609 73.9829 27.2201 68.8804 26.6108 63.8642C26.1647 60.5904 26.34 58.2897 25.4425 56.5175C22.4421 50.5693 10.7484 52.3416 9.04906 56.4724C7.3497 60.6033 10.5201 75.6832 10.5201 75.6832L26.4356 78.9763Z" fill="#F9A826"/>
<path d="M15.8039 45.7102C15.7387 45.3276 15.5884 44.974 15.3693 44.6877C15.1503 44.4014 14.8708 44.1934 14.5612 44.0862C14.4215 44.0339 14.2744 44.0173 14.1291 44.0372C13.9838 44.0572 13.8435 44.1133 13.7169 44.2022C13.5661 44.358 13.4516 44.5589 13.3845 44.7849C13.3174 45.011 13.3002 45.2544 13.3345 45.4911C13.3795 46.2308 13.6548 46.9221 14.1045 47.4244C14.5529 47.9241 15.1421 48.1963 15.7508 48.1848" fill="#F5F5F5"/>
<path d="M15.7191 48.4684C15.0548 48.4694 14.4144 48.1682 13.9242 47.6242C13.4278 47.0667 13.1226 46.3028 13.0692 45.4847C13.0333 45.1964 13.0606 44.9017 13.1482 44.6303C13.2358 44.3588 13.3807 44.1201 13.5683 43.938C13.7254 43.8201 13.9016 43.7447 14.0849 43.7169C14.2682 43.6891 14.4543 43.7095 14.6304 43.7769C14.9874 43.8995 15.3098 44.1386 15.5626 44.4681C15.8154 44.7976 15.989 45.2049 16.0643 45.6458C16.0768 45.7303 16.0616 45.8173 16.0219 45.8884C15.9822 45.9594 15.9212 46.0088 15.8519 46.026C15.7829 46.0411 15.7118 46.0224 15.6541 45.9741C15.5964 45.9258 15.5568 45.8518 15.5438 45.7682C15.4856 45.445 15.356 45.1471 15.1689 44.9064C14.9818 44.6658 14.7443 44.4914 14.4818 44.402C14.3804 44.3583 14.2725 44.3415 14.1653 44.3526C14.0582 44.3637 13.9542 44.4026 13.8604 44.4664C13.7551 44.5897 13.6756 44.7418 13.6285 44.9099C13.5814 45.0781 13.568 45.2574 13.5896 45.4331C13.6278 46.0888 13.8709 46.702 14.2693 47.1473C14.6713 47.5832 15.1963 47.8141 15.735 47.7918C15.805 47.7934 15.8718 47.8279 15.9213 47.888C15.9708 47.948 15.9992 48.029 16.0005 48.114C16.0005 48.1994 15.9726 48.2814 15.9228 48.3418C15.873 48.4023 15.8054 48.4362 15.735 48.4362L15.7191 48.4684Z" fill="#231F20"/>
<path d="M22.0936 43.3269C22.2223 43.2781 22.2658 43.0017 22.1907 42.7095C22.1156 42.4173 21.9503 42.22 21.8215 42.2688C21.6927 42.3175 21.6492 42.5939 21.7243 42.8861C21.7995 43.1783 21.9648 43.3756 22.0936 43.3269Z" fill="#231F20"/>
<path d="M23.0423 49.1837C22.7248 49.431 22.3771 49.6159 22.012 49.7314C21.7742 49.8404 21.5166 49.8698 21.2663 49.8165C21.0159 49.7632 20.7819 49.6292 20.5888 49.4285C20.451 49.2231 20.3481 48.9865 20.2861 48.7325" fill="#F5F5F5"/>
<path d="M21.449 50.1506C21.2526 50.1642 21.0561 50.1264 20.8728 50.0397C20.6895 49.9529 20.5238 49.8193 20.3869 49.6479C20.2248 49.4112 20.1038 49.1372 20.0311 48.8424C20.0184 48.8031 20.0123 48.7611 20.0132 48.7189C20.0141 48.6767 20.0219 48.6351 20.0363 48.5967C20.0506 48.5582 20.0712 48.5236 20.0968 48.495C20.1223 48.4664 20.1524 48.4442 20.1851 48.4299C20.2178 48.4144 20.2528 48.4069 20.288 48.4079C20.3231 48.4089 20.3578 48.4184 20.3899 48.4358C20.422 48.4532 20.4509 48.4781 20.475 48.5092C20.4991 48.5403 20.5179 48.5769 20.5303 48.6168C20.5809 48.8342 20.6656 49.0377 20.7799 49.2161C21.1038 49.6479 21.7517 49.4868 21.9429 49.4224C22.279 49.3116 22.5995 49.14 22.8934 48.9133C22.9526 48.8672 23.0244 48.8516 23.0931 48.8697C23.1618 48.8878 23.2218 48.9382 23.2599 49.0099C23.2793 49.0452 23.2928 49.0849 23.2993 49.1267C23.3059 49.1684 23.3054 49.2113 23.298 49.2528C23.2905 49.2943 23.2763 49.3336 23.256 49.3683C23.2358 49.4029 23.21 49.4323 23.1802 49.4546C22.8391 49.7196 22.4666 49.9195 22.0756 50.0475C21.8712 50.1139 21.6606 50.1485 21.449 50.1506Z" fill="#231F20"/>
<path d="M23.0739 43.3645C23.0739 43.3645 25.1238 46.2 24.6193 46.8123C24.1148 47.4245 22.9305 47.1216 22.9305 47.1216" fill="#F5F5F5"/>
<path d="M23.5838 47.5211C23.345 47.519 23.1068 47.491 22.8722 47.4373C22.8379 47.4282 22.8055 47.4109 22.7768 47.3865C22.7481 47.3621 22.7236 47.331 22.7049 47.295C22.6861 47.2591 22.6734 47.219 22.6675 47.177C22.6616 47.1351 22.6625 47.0921 22.6704 47.0507C22.6773 47.0093 22.6909 46.9701 22.7105 46.9353C22.7301 46.9005 22.7553 46.8709 22.7845 46.848C22.8137 46.8252 22.8463 46.8097 22.8806 46.8025C22.9148 46.7952 22.9498 46.7963 22.9837 46.8058C23.2758 46.8767 24.1042 46.9862 24.4335 46.5867C24.545 46.3031 23.8015 44.866 22.8722 43.5771C22.8232 43.5158 22.7958 43.4337 22.7958 43.3483C22.7958 43.2629 22.8232 43.1809 22.8722 43.1196C22.8964 43.0896 22.9253 43.0657 22.9572 43.0494C22.9891 43.0332 23.0234 43.0248 23.058 43.0248C23.0927 43.0248 23.1269 43.0332 23.1588 43.0494C23.1908 43.0657 23.2197 43.0896 23.2439 43.1196C24.0723 44.2602 25.3681 46.2902 24.7839 46.9862C24.4534 47.341 24.025 47.5319 23.5838 47.5211Z" fill="#231F20"/>
<path d="M32.3196 72.4612C32.2752 72.4607 32.2315 72.4474 32.1922 72.4225C32.1125 72.3709 24.0512 67.1445 21.1092 65.2047C21.0786 65.1851 21.0516 65.1583 21.0297 65.1259C21.0077 65.0935 20.9913 65.0561 20.9815 65.0159C20.9716 64.9757 20.9684 64.9335 20.9721 64.8918C20.9758 64.8501 20.9863 64.8097 21.003 64.773C21.0192 64.7351 21.0415 64.7015 21.0684 64.6742C21.0954 64.6469 21.1266 64.6263 21.1602 64.6137C21.1938 64.6011 21.2291 64.5968 21.2641 64.6009C21.2991 64.605 21.3331 64.6175 21.3641 64.6376C24.3008 66.571 32.3621 71.7974 32.4418 71.8554C32.4728 71.8744 32.5003 71.9008 32.5228 71.933C32.5453 71.9652 32.5622 72.0025 32.5726 72.0427C32.583 72.083 32.5866 72.1253 32.5833 72.1673C32.58 72.2093 32.5698 72.25 32.5533 72.2872C32.5311 72.3392 32.4976 72.3829 32.4564 72.4136C32.4152 72.4443 32.3679 72.4607 32.3196 72.4612Z" fill="#231F20"/>
<path d="M132.741 76.9013L133.723 76.8691C134.147 76.8478 134.567 76.9773 134.931 77.2418C135.296 77.5063 135.588 77.8942 135.773 78.3577L154.939 142.615C155.193 143.466 154.684 144.181 153.802 144.213L152.825 144.245C152.4 144.265 151.981 144.134 151.616 143.87C151.251 143.606 150.957 143.219 150.77 142.757L131.62 78.4931C131.371 77.6424 131.875 76.9271 132.741 76.9013Z" fill="#F5F5F5"/>
<path d="M152.782 144.568C152.313 144.578 151.85 144.422 151.452 144.12C151.053 143.819 150.735 143.383 150.536 142.866L131.371 78.6219C131.303 78.412 131.277 78.1853 131.297 77.9609C131.316 77.7366 131.38 77.5212 131.482 77.333C131.631 77.0987 131.824 76.9105 132.045 76.7839C132.265 76.6573 132.507 76.596 132.751 76.6048L133.728 76.5726C134.208 76.5525 134.681 76.7021 135.091 77.0031C135.501 77.304 135.831 77.7434 136.039 78.2675L155.204 142.531C155.273 142.741 155.298 142.968 155.279 143.192C155.259 143.417 155.195 143.632 155.093 143.82C154.944 144.054 154.752 144.242 154.533 144.368C154.313 144.495 154.072 144.557 153.829 144.548L152.846 144.581L152.782 144.568ZM132.767 77.2235C132.608 77.2126 132.448 77.2471 132.302 77.3243C132.155 77.4015 132.025 77.5193 131.923 77.6681C131.867 77.773 131.832 77.8931 131.823 78.0178C131.814 78.1425 131.83 78.268 131.87 78.3835L151.035 142.647C151.204 143.046 151.462 143.378 151.779 143.607C152.097 143.835 152.461 143.949 152.83 143.936L153.813 143.904C153.972 143.911 154.131 143.874 154.277 143.795C154.424 143.717 154.553 143.6 154.657 143.453C154.713 143.347 154.746 143.227 154.754 143.102C154.763 142.978 154.746 142.852 154.705 142.737L135.539 78.4737C135.374 78.072 135.117 77.7368 134.798 77.5082C134.48 77.2796 134.114 77.1673 133.744 77.1848L132.767 77.217V77.2235Z" fill="#D1D3D4"/>
<path d="M133.803 81.9473L116.002 82.3146C115.681 82.3279 115.363 82.2286 115.087 82.0286C114.811 81.8286 114.589 81.5363 114.446 81.1868C114.255 80.5424 114.643 80.0011 115.306 79.9817L133.107 79.6144C133.429 79.5995 133.747 79.6981 134.023 79.8983C134.299 80.0985 134.522 80.3916 134.663 80.7422C134.865 81.3866 134.483 81.9279 133.803 81.9473Z" fill="#F5F5F5"/>
<path d="M115.97 82.6367C115.601 82.6429 115.239 82.5197 114.926 82.2819C114.613 82.0442 114.364 81.7019 114.207 81.2962C114.151 81.124 114.13 80.9376 114.147 80.7533C114.163 80.5691 114.217 80.3926 114.303 80.2393C114.421 80.0523 114.574 79.9021 114.749 79.8012C114.925 79.7004 115.118 79.6517 115.312 79.6593L133.112 79.2662C133.49 79.2451 133.864 79.3615 134.187 79.6003C134.51 79.8392 134.766 80.1896 134.923 80.6067C134.98 80.7775 135.001 80.9624 134.985 81.1454C134.969 81.3284 134.917 81.504 134.833 81.6571C134.716 81.8457 134.563 81.9974 134.387 82.0995C134.212 82.2015 134.019 82.2509 133.824 82.2435L116.023 82.6109L115.97 82.6367ZM133.16 79.9107H133.128L115.322 80.278C115.212 80.2696 115.102 80.2927 115.001 80.3453C114.899 80.3979 114.809 80.4785 114.738 80.5809C114.702 80.6506 114.681 80.7296 114.675 80.8114C114.67 80.8933 114.68 80.9755 114.706 81.0513C114.828 81.3391 115.016 81.5783 115.246 81.7406C115.477 81.9028 115.741 81.9812 116.007 81.9664L133.808 81.5991C133.918 81.6075 134.028 81.5845 134.13 81.5319C134.231 81.4793 134.321 81.3986 134.392 81.2962C134.429 81.2272 134.452 81.148 134.457 81.0659C134.463 80.9838 134.451 80.9012 134.424 80.8258C134.305 80.5456 134.123 80.3115 133.9 80.1498C133.676 79.9881 133.42 79.9053 133.16 79.9107Z" fill="#D1D3D4"/>
<path d="M136.49 90.9112L118.689 91.2785C118.368 91.2934 118.05 91.1948 117.774 90.9946C117.497 90.7945 117.275 90.5013 117.133 90.1508C116.942 89.5063 117.325 88.965 117.994 88.9457L135.794 88.5783C136.116 88.565 136.433 88.6643 136.709 88.8643C136.985 89.0643 137.208 89.3566 137.35 89.7061C137.52 90.3505 137.154 90.8661 136.49 90.9112Z" fill="#F5F5F5"/>
<path d="M118.641 91.601C118.273 91.6067 117.911 91.4833 117.6 91.2455C117.288 91.0077 117.039 90.6657 116.884 90.2605C116.827 90.0897 116.806 89.9048 116.822 89.7218C116.838 89.5388 116.89 89.3631 116.974 89.2101C117.092 89.0209 117.246 88.869 117.422 88.7669C117.599 88.6649 117.793 88.6157 117.988 88.6236L135.789 88.2563C136.166 88.2404 136.538 88.3588 136.86 88.5971C137.182 88.8353 137.439 89.1829 137.6 89.5967C137.656 89.7688 137.677 89.9546 137.661 90.1386C137.645 90.3225 137.593 90.4991 137.51 90.6536C137.39 90.8404 137.236 90.9903 137.06 91.0911C136.883 91.1918 136.69 91.2407 136.495 91.2336L118.694 91.601H118.641ZM135.837 88.933H135.8L117.999 89.3003C117.889 89.2914 117.778 89.3142 117.677 89.3668C117.575 89.4195 117.486 89.5004 117.415 89.6032C117.378 89.6722 117.355 89.7514 117.35 89.8335C117.344 89.9157 117.356 89.9982 117.383 90.0736C117.504 90.3619 117.691 90.6016 117.922 90.7639C118.153 90.9263 118.417 91.0043 118.684 90.9887L136.485 90.6214C136.595 90.6303 136.705 90.6075 136.807 90.5549C136.908 90.5022 136.998 90.4213 137.069 90.3185C137.105 90.2488 137.126 90.1698 137.132 90.088C137.137 90.0062 137.127 89.9239 137.101 89.8481C136.98 89.5688 136.798 89.3356 136.575 89.174C136.352 89.0125 136.096 88.9291 135.837 88.933Z" fill="#D1D3D4"/>
<path d="M139.161 99.8883L121.36 100.249C121.04 100.265 120.722 100.167 120.446 99.968C120.17 99.769 119.947 99.4772 119.804 99.1278C119.613 98.4834 120.001 97.9421 120.665 97.9163L138.466 97.5554C138.787 97.5388 139.106 97.6368 139.382 97.8371C139.659 98.0375 139.881 98.3316 140.021 98.6832C140.213 99.3212 139.83 99.8883 139.161 99.8883Z" fill="#F5F5F5"/>
<path d="M121.318 100.572C120.949 100.578 120.586 100.455 120.273 100.217C119.961 99.9791 119.711 99.6369 119.555 99.2312C119.498 99.0591 119.477 98.8726 119.494 98.6882C119.51 98.5039 119.564 98.3274 119.65 98.1743C119.769 97.9873 119.922 97.8367 120.097 97.7348C120.272 97.6329 120.465 97.5826 120.659 97.5879L138.46 97.227C138.838 97.2068 139.211 97.3235 139.534 97.5622C139.856 97.801 140.113 98.1509 140.271 98.5674C140.327 98.7383 140.348 98.9232 140.333 99.1062C140.317 99.2892 140.265 99.4648 140.181 99.6179C140.063 99.8053 139.91 99.9561 139.734 100.058C139.559 100.16 139.366 100.21 139.172 100.204L121.371 100.565L121.318 100.572ZM138.508 97.8714H138.476L120.67 98.2323C120.56 98.2268 120.451 98.2512 120.35 98.3036C120.249 98.356 120.159 98.4351 120.086 98.5352C120.05 98.606 120.028 98.6865 120.024 98.7696C120.019 98.8528 120.031 98.936 120.059 99.0121C120.179 99.2997 120.366 99.5387 120.596 99.7001C120.826 99.8614 121.09 99.9381 121.355 99.9207L139.156 99.5599C139.266 99.5667 139.376 99.543 139.477 99.4905C139.578 99.438 139.668 99.3582 139.74 99.257C139.777 99.1879 139.799 99.1088 139.805 99.0266C139.81 98.9445 139.799 98.862 139.772 98.7865C139.652 98.5063 139.471 98.2722 139.247 98.1106C139.024 97.9489 138.768 97.8661 138.508 97.8714Z" fill="#D1D3D4"/>
<path d="M141.838 108.846L124.037 109.214C123.715 109.229 123.397 109.13 123.121 108.93C122.845 108.73 122.623 108.437 122.481 108.086C122.29 107.442 122.672 106.9 123.341 106.881L141.142 106.514C141.463 106.499 141.781 106.598 142.057 106.798C142.333 106.999 142.556 107.291 142.698 107.641C142.889 108.266 142.501 108.827 141.838 108.846Z" fill="#F5F5F5"/>
<path d="M123.989 109.555C123.621 109.561 123.259 109.437 122.947 109.2C122.635 108.962 122.387 108.62 122.231 108.215C122.175 108.042 122.154 107.857 122.17 107.673C122.186 107.489 122.238 107.312 122.321 107.158C122.441 106.97 122.595 106.82 122.771 106.72C122.947 106.619 123.141 106.57 123.336 106.578L141.137 106.21C141.514 106.191 141.887 106.308 142.21 106.547C142.532 106.785 142.789 107.135 142.947 107.551C143.004 107.722 143.025 107.907 143.009 108.09C142.993 108.273 142.941 108.448 142.857 108.601C142.739 108.79 142.585 108.942 142.409 109.044C142.232 109.146 142.038 109.195 141.843 109.188L124.042 109.555H123.989ZM141.184 106.855H141.147L123.346 107.222C123.236 107.213 123.126 107.236 123.024 107.289C122.923 107.341 122.833 107.422 122.762 107.525C122.725 107.594 122.703 107.673 122.697 107.755C122.692 107.837 122.703 107.92 122.73 107.995C122.852 108.283 123.04 108.522 123.27 108.685C123.501 108.847 123.765 108.925 124.031 108.911L141.832 108.543C141.942 108.552 142.053 108.529 142.154 108.477C142.256 108.424 142.346 108.343 142.416 108.24C142.452 108.171 142.474 108.092 142.479 108.01C142.485 107.928 142.474 107.846 142.448 107.77C142.33 107.487 142.149 107.249 141.926 107.084C141.703 106.919 141.446 106.833 141.184 106.835V106.855Z" fill="#D1D3D4"/>
<path d="M144.509 117.817L126.708 118.178C126.387 118.193 126.07 118.095 125.794 117.894C125.519 117.694 125.298 117.401 125.157 117.05C124.961 116.406 125.349 115.871 126.012 115.845L143.813 115.484C144.134 115.467 144.453 115.564 144.729 115.763C145.005 115.962 145.228 116.255 145.369 116.605C145.56 117.25 145.178 117.791 144.509 117.817Z" fill="#F5F5F5"/>
<path d="M126.665 118.5C126.297 118.506 125.935 118.383 125.623 118.145C125.311 117.907 125.063 117.565 124.908 117.159C124.849 116.989 124.827 116.804 124.842 116.62C124.858 116.437 124.912 116.261 124.998 116.109C125.115 115.921 125.268 115.769 125.444 115.667C125.619 115.565 125.812 115.516 126.007 115.522L143.808 115.162C144.185 115.141 144.558 115.257 144.88 115.494C145.203 115.732 145.46 116.08 145.619 116.496C145.675 116.667 145.696 116.853 145.68 117.037C145.665 117.221 145.612 117.398 145.528 117.552C145.409 117.739 145.256 117.889 145.081 117.991C144.906 118.092 144.713 118.143 144.519 118.139L126.719 118.5H126.665ZM143.855 115.8H143.824L126.018 116.16C125.908 116.155 125.798 116.179 125.697 116.232C125.596 116.284 125.506 116.363 125.433 116.463C125.398 116.534 125.378 116.613 125.373 116.695C125.369 116.776 125.38 116.858 125.407 116.934C125.527 117.222 125.714 117.461 125.943 117.623C126.173 117.786 126.437 117.864 126.703 117.849L144.503 117.488C144.613 117.495 144.723 117.471 144.824 117.419C144.926 117.366 145.016 117.286 145.087 117.185C145.125 117.115 145.147 117.035 145.152 116.951C145.158 116.868 145.147 116.785 145.119 116.708C144.999 116.429 144.817 116.196 144.594 116.036C144.371 115.875 144.115 115.794 143.855 115.8Z" fill="#D1D3D4"/>
<path d="M147.185 126.781L129.384 127.148C129.063 127.163 128.745 127.065 128.469 126.865C128.192 126.664 127.97 126.371 127.829 126.021C127.637 125.376 128.02 124.835 128.689 124.816L146.49 124.448C146.811 124.434 147.129 124.533 147.405 124.733C147.681 124.933 147.903 125.226 148.046 125.576C148.237 126.22 147.849 126.762 147.185 126.781Z" fill="#F5F5F5"/>
<path d="M129.337 127.47C128.969 127.476 128.607 127.353 128.295 127.115C127.983 126.877 127.734 126.535 127.579 126.13C127.523 125.958 127.502 125.772 127.517 125.588C127.533 125.404 127.585 125.227 127.669 125.073C127.789 124.886 127.943 124.736 128.119 124.635C128.295 124.534 128.489 124.485 128.684 124.493L146.484 124.126C146.861 124.108 147.234 124.226 147.556 124.464C147.879 124.703 148.136 125.051 148.295 125.466C148.351 125.637 148.373 125.822 148.357 126.005C148.341 126.188 148.289 126.364 148.205 126.517C148.087 126.705 147.933 126.857 147.756 126.959C147.58 127.061 147.386 127.11 147.191 127.103L129.39 127.47H129.337ZM146.548 124.77H146.511L128.71 125.138C128.6 125.129 128.49 125.151 128.388 125.204C128.287 125.257 128.197 125.338 128.126 125.44C128.089 125.509 128.067 125.589 128.061 125.671C128.055 125.753 128.067 125.835 128.094 125.911C128.215 126.199 128.403 126.439 128.634 126.601C128.864 126.763 129.129 126.842 129.395 126.826L147.196 126.459C147.306 126.466 147.416 126.443 147.517 126.391C147.619 126.338 147.709 126.258 147.78 126.156C147.816 126.086 147.837 126.007 147.843 125.925C147.849 125.843 147.838 125.761 147.812 125.685C147.692 125.406 147.51 125.172 147.287 125.01C147.064 124.849 146.808 124.766 146.548 124.77Z" fill="#D1D3D4"/>
<path d="M149.856 135.745L132.061 136.113C131.739 136.127 131.421 136.029 131.145 135.829C130.869 135.628 130.647 135.335 130.505 134.985C130.308 134.34 130.696 133.799 131.36 133.78L149.161 133.412C149.482 133.397 149.8 133.496 150.076 133.696C150.353 133.896 150.575 134.19 150.717 134.54C150.908 135.185 150.525 135.726 149.856 135.745Z" fill="#F5F5F5"/>
<path d="M132.013 136.435C131.645 136.442 131.283 136.318 130.971 136.081C130.659 135.843 130.41 135.5 130.255 135.094C130.198 134.924 130.176 134.739 130.191 134.555C130.207 134.372 130.26 134.196 130.346 134.044C130.463 133.855 130.615 133.703 130.791 133.601C130.967 133.499 131.16 133.45 131.355 133.458L149.155 133.09C149.533 133.072 149.906 133.189 150.228 133.428C150.55 133.666 150.807 134.015 150.966 134.431C151.023 134.603 151.044 134.789 151.028 134.973C151.012 135.157 150.96 135.333 150.876 135.488C150.758 135.674 150.604 135.824 150.429 135.925C150.254 136.026 150.061 136.075 149.867 136.068L132.066 136.435H132.013ZM149.203 133.735H149.171L131.365 134.102C131.255 134.094 131.145 134.117 131.044 134.169C130.942 134.222 130.852 134.303 130.781 134.405C130.746 134.475 130.726 134.554 130.721 134.636C130.716 134.718 130.728 134.8 130.755 134.875C130.874 135.164 131.061 135.404 131.291 135.566C131.521 135.728 131.785 135.806 132.05 135.79L149.851 135.423C149.961 135.433 150.072 135.411 150.174 135.358C150.275 135.305 150.365 135.224 150.435 135.12C150.472 135.051 150.495 134.972 150.5 134.89C150.506 134.808 150.494 134.725 150.467 134.65C150.347 134.37 150.166 134.136 149.942 133.974C149.719 133.812 149.463 133.729 149.203 133.735Z" fill="#D1D3D4"/>
<path d="M113.575 77.3329L114.552 77.2942C114.977 77.2749 115.397 77.4052 115.761 77.6694C116.126 77.9336 116.42 78.3204 116.608 78.7829L135.773 143.047C136.023 143.897 135.518 144.613 134.637 144.638H133.654C133.231 144.66 132.811 144.532 132.447 144.268C132.083 144.005 131.79 143.619 131.604 143.156L112.439 78.8924C112.184 78.0547 112.694 77.3329 113.575 77.3329Z" fill="#F5F5F5"/>
<path d="M133.601 144.999C133.132 145.01 132.67 144.856 132.271 144.555C131.873 144.254 131.554 143.82 131.355 143.305L112.189 79.015C112.121 78.8052 112.095 78.5784 112.114 78.3539C112.134 78.1295 112.198 77.9141 112.301 77.7261C112.449 77.493 112.641 77.3061 112.861 77.1806C113.081 77.0551 113.322 76.9947 113.565 77.0043L114.547 76.9721C115.027 76.9453 115.503 77.0921 115.914 77.3938C116.325 77.6956 116.654 78.1387 116.857 78.667L136.023 142.931C136.091 143.141 136.116 143.367 136.097 143.592C136.077 143.816 136.014 144.031 135.911 144.22C135.762 144.454 135.569 144.642 135.349 144.769C135.128 144.895 134.886 144.957 134.642 144.948H133.665L133.601 144.999ZM113.581 77.6617C113.422 77.6508 113.263 77.6853 113.117 77.7626C112.972 77.8398 112.843 77.9576 112.741 78.1063C112.684 78.2106 112.649 78.3307 112.639 78.4557C112.63 78.5808 112.647 78.7066 112.688 78.8217L131.854 143.066C132.02 143.467 132.277 143.802 132.595 144.031C132.914 144.259 133.279 144.372 133.649 144.355H134.626C134.786 144.366 134.945 144.332 135.092 144.255C135.238 144.178 135.368 144.06 135.47 143.91C135.527 143.805 135.561 143.685 135.57 143.561C135.579 143.436 135.563 143.31 135.523 143.195L116.358 78.9312C116.193 78.529 115.936 78.1933 115.617 77.9646C115.299 77.7359 114.933 77.624 114.563 77.6423L113.581 77.6617Z" fill="#D1D3D4"/>
<path d="M126.958 39.5495C123.139 42.2368 118.721 44.3377 114.239 43.2808C110.437 42.3915 107.006 39.311 105.657 34.8515C105.386 33.9751 105.216 33.0535 104.93 32.1771C104.813 31.8291 104.632 31.4424 104.324 31.4102C103.825 31.3586 103.655 32.1964 103.714 32.7957C103.761 33.2791 103.809 33.7237 103.82 34.2006C103.82 34.5293 103.82 35.3864 104.059 35.6313L100.66 31.6357C100.503 31.4185 100.302 31.256 100.076 31.1653C99.9625 31.1244 99.8405 31.1385 99.7355 31.2046C99.6305 31.2707 99.5507 31.3837 99.513 31.5197C99.5049 31.6386 99.5188 31.7582 99.5537 31.8697C99.5886 31.9812 99.6437 32.0818 99.7148 32.1642L101.069 34.2844C100.469 33.658 99.8433 33.0687 99.1944 32.5186C98.3235 31.7904 98.0526 32.8602 98.5677 33.6657L99.9432 35.8117C99.4889 35.2462 98.9989 34.7247 98.4775 34.2522C98.3235 34.1104 98.1164 33.9751 97.9464 34.1039C97.8976 34.1554 97.8628 34.2236 97.8467 34.2995C97.8306 34.3755 97.8339 34.4556 97.8561 34.5293C97.9021 34.6778 97.9746 34.8121 98.0686 34.9224L99.3484 36.6946C99.1253 36.4239 98.0208 35.1608 97.7234 35.8504C97.5534 36.2435 98.1854 36.8686 98.3766 37.1006C99.6245 38.5828 100.888 40.0006 102.179 41.399C105.647 45.1626 109.614 48.649 114.292 49.9314C119.417 51.3428 125.046 49.7381 129.363 46.1486" fill="#F5F5F5"/>
<path d="M118.1 50.7307C116.794 50.7349 115.492 50.562 114.218 50.2151C109.045 48.7909 104.76 44.6214 102.004 41.6118C100.575 40.0587 99.3485 38.6474 98.2015 37.3005L98.1112 37.2039C97.7872 36.8365 97.2509 36.2308 97.4952 35.6701C97.5326 35.5722 97.5896 35.4873 97.661 35.4231C97.7325 35.359 97.816 35.3176 97.9041 35.3028H98.0103L97.8722 35.1159C97.7563 34.9697 97.6659 34.7965 97.6067 34.6068C97.5681 34.4672 97.5663 34.3165 97.6015 34.1756C97.6367 34.0347 97.7072 33.9106 97.8032 33.8205C97.8745 33.7607 97.9568 33.723 98.0429 33.7106C98.1289 33.6983 98.2162 33.7117 98.2971 33.7497C98.1414 33.5327 98.05 33.2587 98.0375 32.9714C98.025 32.6841 98.0921 32.4 98.228 32.1643C98.3236 32.0419 98.6847 31.6874 99.3379 32.2352L99.5397 32.4092L99.4972 32.3448C99.4081 32.2288 99.3398 32.0915 99.2968 31.9417C99.2539 31.7919 99.2371 31.6329 99.2476 31.4748C99.2643 31.3757 99.2974 31.2818 99.3449 31.1988C99.3923 31.1157 99.4532 31.0452 99.5238 30.9914C99.6122 30.9214 99.7115 30.8738 99.8156 30.8517C99.9196 30.8295 100.026 30.8332 100.129 30.8626C100.401 30.9672 100.645 31.1586 100.835 31.4168L103.565 34.639V34.2459C103.554 33.8664 103.528 33.4878 103.485 33.1117L103.459 32.8668C103.427 32.606 103.439 32.3399 103.495 32.085C103.55 31.8301 103.648 31.5917 103.783 31.3846C103.856 31.2906 103.945 31.218 104.044 31.1723C104.144 31.1265 104.25 31.1087 104.356 31.1203C104.707 31.159 104.988 31.4877 105.185 32.0934C105.344 32.5703 105.466 33.0665 105.588 33.5434C105.71 34.0203 105.795 34.3683 105.918 34.7743C107.197 38.9245 110.421 42.0758 114.329 42.9974C117.999 43.8674 122.099 42.6558 126.862 39.3047C126.892 39.2782 126.926 39.2597 126.963 39.2502C126.999 39.2408 127.037 39.2407 127.073 39.25C127.109 39.2593 127.144 39.2778 127.174 39.3042C127.204 39.3306 127.229 39.3644 127.248 39.4034C127.267 39.4424 127.278 39.4857 127.282 39.5305C127.286 39.5753 127.282 39.6207 127.271 39.6636C127.26 39.7065 127.241 39.7461 127.216 39.7798C127.192 39.8134 127.161 39.8404 127.128 39.859C122.247 43.2938 118.031 44.5247 114.228 43.629C110.139 42.6687 106.762 39.3563 105.418 34.9999C105.291 34.581 105.185 34.1557 105.079 33.711C104.972 33.2663 104.84 32.7637 104.691 32.3125C104.611 32.0612 104.478 31.7648 104.309 31.7454C104.281 31.7421 104.253 31.7468 104.227 31.7591C104.201 31.7715 104.178 31.7911 104.16 31.8163C104.005 32.0985 103.944 32.4419 103.99 32.7765V33.015C104.027 33.4145 104.064 33.7948 104.075 34.2008C104.075 35.1739 104.202 35.3736 104.229 35.4123C104.254 35.4412 104.275 35.4762 104.288 35.515C104.302 35.5538 104.309 35.5956 104.309 35.6379C104.309 35.6801 104.302 35.722 104.288 35.7608C104.275 35.7996 104.254 35.8345 104.229 35.8634C104.205 35.8934 104.176 35.9173 104.144 35.9335C104.112 35.9498 104.078 35.9582 104.043 35.9582C104.008 35.9582 103.974 35.9498 103.942 35.9335C103.91 35.9173 103.881 35.8934 103.857 35.8634L100.458 31.8743C100.334 31.7011 100.178 31.5663 100.002 31.4812C99.9322 31.4667 99.8606 31.4827 99.7999 31.5263C99.7896 31.5329 99.7804 31.5421 99.7731 31.5532C99.7658 31.5643 99.7605 31.5771 99.7574 31.5908C99.7574 31.681 99.853 31.855 99.9061 31.9388L101.266 34.0654C101.303 34.1288 101.32 34.2063 101.313 34.2836C101.307 34.361 101.278 34.433 101.231 34.4863C101.185 34.5397 101.124 34.5709 101.06 34.574C100.996 34.5772 100.933 34.5522 100.883 34.5037C100.29 33.8821 99.6691 33.2992 99.0246 32.7572C98.8069 32.5768 98.6529 32.5445 98.6051 32.6025C98.5573 32.6605 98.5201 33.0665 98.7591 33.4403L100.134 35.5863C100.177 35.6511 100.198 35.7335 100.192 35.8164C100.186 35.8993 100.154 35.9762 100.103 36.031C100.053 36.0867 99.9873 36.1176 99.9194 36.1176C99.8516 36.1176 99.7862 36.0867 99.7362 36.031C99.2914 35.4778 98.812 34.9671 98.3024 34.5037C98.2422 34.4374 98.1691 34.3908 98.0899 34.3683C98.0899 34.3683 98.0899 34.3683 98.0899 34.4328C98.1277 34.5333 98.1798 34.625 98.2439 34.7034L99.5291 36.4756C99.5762 36.5356 99.6024 36.6152 99.6024 36.698C99.6024 36.7808 99.5762 36.8604 99.5291 36.9203C99.4788 36.9779 99.4123 37.0099 99.3432 37.0099C99.2741 37.0099 99.2076 36.9779 99.1573 36.9203C98.6263 36.2759 98.1377 35.9408 97.9784 35.973C97.9466 36.0568 97.9784 36.2436 98.4617 36.7592L98.5573 36.8752C99.6831 38.2156 100.926 39.6141 102.349 41.1607C105.079 44.1252 109.295 48.2496 114.345 49.6158C119.226 50.9627 124.78 49.5643 129.215 45.8845C129.243 45.8577 129.276 45.8382 129.311 45.8273C129.346 45.8163 129.382 45.814 129.418 45.8207C129.453 45.8273 129.487 45.8426 129.518 45.8658C129.548 45.8889 129.575 45.9193 129.595 45.9552C129.616 45.9912 129.63 46.0318 129.637 46.0746C129.645 46.1174 129.645 46.1616 129.637 46.2044C129.63 46.2472 129.616 46.2878 129.595 46.3237C129.574 46.3595 129.548 46.3899 129.517 46.4129C126.152 49.2035 122.176 50.7073 118.1 50.7307Z" fill="#231F20"/>
<path d="M144.689 110.309L145.167 114.556C145.167 114.556 135.428 115.781 135.805 114.762C136.518 113.286 137.302 111.862 138.152 110.496" fill="#F5F5F5"/>
<path d="M137.86 115.484C136.655 115.484 135.773 115.375 135.598 115.072C135.559 115.008 135.535 114.934 135.529 114.856C135.522 114.777 135.533 114.698 135.561 114.627C136.283 113.13 137.077 111.686 137.94 110.303C137.983 110.236 138.046 110.192 138.115 110.18C138.184 110.168 138.255 110.189 138.311 110.238C138.368 110.29 138.405 110.366 138.415 110.451C138.425 110.535 138.407 110.621 138.365 110.689C138.365 110.722 136.596 113.596 136.113 114.724C136.92 115.02 141.03 114.724 144.87 114.273L144.424 110.348C144.415 110.262 144.434 110.176 144.477 110.108C144.52 110.04 144.584 109.995 144.655 109.984C144.725 109.973 144.796 109.996 144.853 110.049C144.909 110.101 144.946 110.179 144.955 110.264L145.438 114.511C145.443 114.554 145.441 114.598 145.432 114.64C145.423 114.682 145.407 114.721 145.385 114.756C145.338 114.824 145.272 114.868 145.199 114.878C143.054 115.149 139.958 115.484 137.86 115.484Z" fill="#231F20"/>
<path d="M131.041 94.0176C131.041 94.0176 133.075 97.1174 132.703 97.6845C132.332 98.2516 121.551 98.8961 122.013 97.5363C122.475 96.1765 125.364 93.283 125.364 93.283" fill="#F5F5F5"/>
<path d="M126.257 98.6705C124.308 98.6705 122.539 98.5223 122.008 98.1356C121.897 98.0774 121.809 97.9684 121.763 97.8322C121.718 97.696 121.718 97.5434 121.764 97.4074C122.247 95.9896 125.067 93.1541 125.189 93.0316C125.244 92.9782 125.313 92.953 125.383 92.9614C125.452 92.9699 125.516 93.0113 125.561 93.0767C125.584 93.1096 125.601 93.1476 125.611 93.1885C125.621 93.2294 125.625 93.2724 125.621 93.315C125.618 93.3576 125.608 93.3989 125.591 93.4366C125.574 93.4742 125.551 93.5075 125.524 93.5343C124.754 94.3012 122.704 96.5052 122.279 97.5878C123.108 98.3225 131.493 97.9681 132.481 97.4718C132.481 97.0658 131.748 95.6223 130.829 94.2174C130.807 94.1851 130.79 94.1476 130.779 94.1073C130.769 94.0669 130.765 94.0244 130.769 93.9823C130.772 93.9402 130.783 93.8994 130.799 93.8623C130.816 93.8252 130.839 93.7926 130.866 93.7663C130.922 93.7132 130.993 93.6889 131.063 93.6986C131.134 93.7082 131.198 93.751 131.243 93.8179C132.231 95.3259 133.32 97.2527 132.905 97.8843C132.624 98.3225 129.215 98.6705 126.257 98.6705Z" fill="#231F20"/>
<path d="M127.26 60.8287C127.26 60.8287 115.094 69.9927 115.248 74.9485C115.349 78.3125 123.862 95.2097 123.862 95.2097L132.024 94.6619C132.024 94.6619 124.589 80.8773 126.23 78.8602C127.871 76.8431 136.989 71.2816 136.989 71.2816L137.154 110.908C137.154 110.908 145.486 110.199 145.486 109.626C145.486 109.052 147.286 62.5107 147.286 62.5107L127.26 60.8287Z" fill="#231F20"/>
<path d="M144.907 18.2377C144.869 17.6223 144.657 17.0417 144.307 16.5943C144.125 16.3842 143.887 16.2591 143.637 16.2414C143.386 16.2237 143.138 16.3145 142.937 16.4977C143.001 15.4021 142.183 14.5644 141.386 14.0166C140.392 13.3538 139.316 12.8923 138.2 12.6504C137.462 12.5048 136.717 12.4294 135.97 12.4248C134.849 12.4248 133.654 12.5086 132.783 13.3399C132.281 13.882 131.915 14.585 131.727 15.3681C131.539 16.1512 131.537 16.9827 131.721 17.7672C132.103 19.3382 132.839 20.7487 133.845 21.8401C134.982 23.2884 136.393 24.377 137.956 25.0108C138.886 25.328 139.847 25.4928 140.813 25.5005C142.358 25.565 143.027 24.6821 143.818 23.2514C144.696 21.8107 145.086 20.0164 144.907 18.2377Z" fill="#F5F5F5"/>
<path d="M140.919 25.8292H140.765C139.775 25.8181 138.792 25.6491 137.839 25.3266C136.227 24.6892 134.769 23.583 133.59 22.1044C132.547 20.9719 131.785 19.5074 131.392 17.8768C131.197 17.0301 131.203 16.1338 131.41 15.2912C131.617 14.4486 132.015 13.694 132.56 13.1144C133.527 12.2122 134.806 12.1091 135.932 12.1348C136.692 12.1372 137.45 12.2148 138.2 12.3668C139.352 12.6095 140.462 13.082 141.487 13.7653C142.061 14.1455 142.958 14.9059 143.144 16.0015C143.373 15.9268 143.613 15.9231 143.843 15.9907C144.073 16.0583 144.286 16.1949 144.461 16.3882C144.858 16.8857 145.1 17.5348 145.146 18.2248C145.353 19.9713 144.976 21.6339 143.967 23.4577C143.245 24.7852 142.538 25.8292 140.919 25.8292ZM135.699 12.7406C134.719 12.6483 133.742 12.9471 132.916 13.5913C131.854 14.5773 131.668 16.3624 131.933 17.6899C132.306 19.2037 133.018 20.5623 133.989 21.6146C135.095 23.0252 136.47 24.0851 137.993 24.7015C138.9 25.0122 139.838 25.1726 140.781 25.1783C142.119 25.2363 142.724 24.5726 143.553 23.071C144.415 21.7073 144.807 19.9906 144.647 18.2828C144.615 17.7389 144.427 17.2257 144.116 16.8328C143.984 16.6752 143.811 16.5786 143.627 16.5598C143.442 16.5409 143.258 16.6011 143.107 16.7297C143.069 16.7759 143.021 16.8065 142.969 16.8169C142.916 16.8273 142.862 16.8171 142.815 16.7877C142.766 16.7615 142.725 16.7177 142.698 16.6624C142.67 16.6071 142.657 16.5429 142.661 16.4784C142.719 15.4408 141.8 14.6675 141.248 14.3002C140.275 13.6481 139.22 13.1972 138.126 12.9662C137.402 12.8218 136.671 12.7485 135.938 12.7471L135.699 12.7406Z" fill="#231F20"/>
<path d="M141.174 35.7343C140.988 30.8688 141.8 21.0024 141.8 21.0024C141.8 21.0024 136.692 21.3568 134.971 18.373C132.847 20.3773 132.438 26.0097 132.82 27.6917C133.585 31.0234 137.143 30.2694 137.143 30.2694L136.686 36.353L141.174 35.7343Z" fill="#F5F5F5"/>
<path d="M136.686 36.6945C136.617 36.6937 136.551 36.6615 136.501 36.6043C136.474 36.5702 136.453 36.5297 136.439 36.4854C136.425 36.4411 136.419 36.3938 136.421 36.3465L136.851 30.6497C135.9 30.7399 133.235 30.7077 132.566 27.7819C132.157 25.9968 132.608 20.2162 134.807 18.1153C134.866 18.0622 134.94 18.0391 135.014 18.0508C135.049 18.0572 135.083 18.0725 135.113 18.0959C135.143 18.1192 135.169 18.1499 135.189 18.1862C136.782 20.983 141.731 20.6737 141.784 20.6737C141.823 20.6694 141.861 20.6758 141.897 20.6926C141.933 20.7093 141.966 20.736 141.992 20.7704C142.018 20.8044 142.038 20.8452 142.05 20.8898C142.062 20.9344 142.066 20.9817 142.061 21.0282C142.061 21.1248 141.259 30.9268 141.439 35.7085C141.444 35.7903 141.422 35.8709 141.378 35.9334C141.335 35.996 141.273 36.0355 141.206 36.0437L136.718 36.6881L136.686 36.6945ZM137.143 29.9666C137.21 29.9666 137.274 29.9964 137.324 30.0503C137.353 30.0844 137.375 30.1257 137.39 30.1712C137.405 30.2168 137.411 30.2657 137.409 30.3146L136.984 36.005L140.903 35.4443C140.775 31.075 141.365 23.129 141.503 21.3375C140.393 21.3375 136.596 21.2602 134.934 18.8435C133.065 20.9508 132.751 26.1772 133.075 27.6079C133.766 30.611 136.963 29.9988 137.101 29.973L137.143 29.9666Z" fill="#231F20"/>
<path d="M137.143 30.2886C137.143 30.2886 138.614 30.0631 139.342 29.1802C139.342 29.1802 138.37 32.1317 136.872 32.5699L137.143 30.2886Z" fill="#231F20"/>
<path d="M136.872 32.8666C136.843 32.8672 136.814 32.8606 136.786 32.8473C136.759 32.834 136.734 32.8143 136.713 32.7893C136.684 32.7574 136.661 32.7172 136.647 32.6723C136.633 32.6274 136.628 32.5791 136.633 32.5315L136.904 30.2438C136.912 30.1811 136.936 30.1232 136.974 30.079C137.011 30.0348 137.06 30.0066 137.111 29.9989C137.111 29.9989 138.513 29.7733 139.172 28.9742C139.212 28.9266 139.264 28.8969 139.32 28.8899C139.376 28.8829 139.432 28.899 139.48 28.9356C139.526 28.9734 139.56 29.0291 139.576 29.0935C139.593 29.158 139.59 29.2273 139.57 29.29C139.528 29.4189 138.535 32.3833 136.915 32.8538L136.872 32.8666ZM137.361 30.5467L137.17 32.1255C137.834 31.6128 138.372 30.8913 138.726 30.0375C138.29 30.2755 137.832 30.4465 137.361 30.5467Z" fill="#231F20"/>
<path d="M133.962 32.5896L122.306 40.3229L125.125 50.2666C125.125 50.2666 139.788 40.8513 139.883 38.3058C139.979 35.7603 133.962 32.5896 133.962 32.5896Z" fill="#F9A826"/>
<path d="M126.958 61.0996C126.958 61.0996 127.515 50.9754 128.551 43.2614C128.997 39.9812 128.827 37.687 129.724 35.9148C132.725 29.9601 144.419 31.7388 146.118 35.8697C147.817 40.0005 147.286 62.5109 147.286 62.5109L126.958 61.0996Z" fill="#F9A826"/>
<path d="M140.967 24.4884C141.032 24.1065 141.182 23.7535 141.401 23.4682C141.62 23.183 141.9 22.9763 142.209 22.8709C142.348 22.8168 142.494 22.7991 142.639 22.8192C142.784 22.8392 142.923 22.8963 143.048 22.9869C143.196 23.139 143.309 23.3342 143.377 23.5542C143.444 23.7741 143.465 24.0114 143.436 24.2436C143.391 24.9808 143.116 25.6696 142.667 26.1691C142.218 26.6686 141.629 26.9411 141.02 26.9309" fill="#F5F5F5"/>
<path d="M141.052 27.2213H141.014C140.98 27.2205 140.945 27.2113 140.913 27.1944C140.881 27.1774 140.852 27.1529 140.828 27.1224C140.804 27.0919 140.785 27.0559 140.772 27.0165C140.76 26.9771 140.754 26.935 140.754 26.8927C140.754 26.8501 140.761 26.8079 140.775 26.7688C140.789 26.7296 140.809 26.6942 140.834 26.6647C140.859 26.6352 140.889 26.6122 140.922 26.5971C140.955 26.582 140.99 26.5751 141.025 26.5769C141.563 26.6044 142.088 26.3727 142.485 25.9324C142.886 25.4882 143.131 24.8748 143.17 24.2182C143.191 24.0426 143.177 23.8637 143.13 23.6958C143.083 23.5279 143.004 23.3758 142.9 23.2516C142.806 23.1881 142.702 23.1495 142.595 23.1384C142.488 23.1273 142.38 23.1439 142.278 23.1871C142.015 23.2752 141.777 23.4492 141.59 23.6901C141.403 23.9309 141.273 24.2295 141.216 24.5533C141.202 24.6361 141.162 24.7091 141.105 24.7571C141.047 24.8052 140.977 24.8245 140.908 24.8111C140.839 24.794 140.778 24.7446 140.738 24.6735C140.698 24.6025 140.683 24.5154 140.696 24.4309C140.77 23.9895 140.943 23.5814 141.196 23.2517C141.449 22.922 141.772 22.6833 142.13 22.562C142.306 22.4929 142.492 22.4716 142.675 22.4994C142.859 22.5272 143.035 22.6036 143.192 22.7231C143.379 22.904 143.523 23.1419 143.61 23.4124C143.697 23.6829 143.723 23.9766 143.686 24.2633C143.637 25.0771 143.336 25.8383 142.843 26.3932C142.351 26.9482 141.703 27.2557 141.03 27.2536L141.052 27.2213Z" fill="#231F20"/>
<path d="M135.037 21.6335C135.112 21.3413 135.068 21.0649 134.939 21.0161C134.811 20.9674 134.645 21.1647 134.57 21.4569C134.495 21.7491 134.539 22.0255 134.667 22.0743C134.796 22.123 134.961 21.9257 135.037 21.6335Z" fill="#231F20"/>
<path d="M133.723 27.9365C134.042 28.1814 134.389 28.3661 134.753 28.4842C134.992 28.5931 135.25 28.6224 135.502 28.5691C135.753 28.5159 135.988 28.382 136.182 28.1814C136.316 27.9727 136.418 27.7371 136.485 27.4854" fill="#F5F5F5"/>
<path d="M135.322 28.9033C135.106 28.9023 134.892 28.8676 134.684 28.8002C134.294 28.6698 133.922 28.47 133.58 28.2073C133.521 28.1611 133.479 28.0883 133.464 28.005C133.449 27.9216 133.462 27.8345 133.5 27.7627C133.519 27.7265 133.543 27.6952 133.571 27.6706C133.6 27.6461 133.632 27.6288 133.666 27.6197C133.701 27.6107 133.736 27.6101 133.77 27.6181C133.805 27.626 133.838 27.6423 133.867 27.666C134.162 27.8928 134.485 28.0644 134.822 28.1751C135.014 28.2331 135.662 28.4007 135.985 27.9689C136.096 27.7875 136.18 27.5849 136.235 27.3695C136.26 27.2904 136.31 27.2264 136.373 27.1914C136.437 27.1565 136.509 27.1533 136.575 27.1827C136.641 27.2117 136.695 27.2715 136.725 27.3489C136.755 27.4262 136.758 27.5148 136.734 27.5951C136.659 27.8888 136.539 28.1623 136.378 28.4007C136.241 28.5695 136.076 28.7016 135.894 28.7881C135.712 28.8747 135.517 28.914 135.322 28.9033Z" fill="#231F20"/>
<path d="M133.697 22.1173C133.697 22.1173 131.647 24.9529 132.146 25.5651C132.645 26.1773 133.84 25.868 133.84 25.868" fill="#F5F5F5"/>
<path d="M133.187 26.2739C132.742 26.3105 132.302 26.1374 131.96 25.7905C131.371 25.0752 132.672 23.0452 133.495 21.9239C133.545 21.8644 133.613 21.8312 133.683 21.8312C133.754 21.8312 133.821 21.8644 133.872 21.9239C133.897 21.9538 133.916 21.9895 133.93 22.0287C133.943 22.068 133.95 22.1101 133.95 22.1527C133.95 22.1952 133.943 22.2373 133.93 22.2766C133.916 22.3158 133.897 22.3515 133.872 22.3814C132.942 23.6703 132.204 25.1074 132.321 25.3974C132.645 25.7841 133.473 25.681 133.766 25.6101C133.836 25.593 133.909 25.6105 133.969 25.6589C134.029 25.7072 134.07 25.7824 134.084 25.8679C134.098 25.9533 134.084 26.0421 134.044 26.1146C134.004 26.1871 133.942 26.2374 133.872 26.2545C133.645 26.2898 133.415 26.2963 133.187 26.2739Z" fill="#231F20"/>
<path d="M125.126 50.5694C125.078 50.5703 125.03 50.5551 124.989 50.5255C124.948 50.496 124.914 50.4532 124.892 50.4019C124.859 50.3264 124.852 50.2385 124.872 50.1567C124.892 50.0749 124.937 50.0057 124.998 49.9636C125.078 49.9121 133.144 44.6857 136.081 42.7523C136.111 42.7321 136.145 42.7193 136.179 42.7148C136.213 42.7103 136.248 42.7142 136.281 42.7262C136.314 42.7382 136.345 42.7581 136.372 42.7847C136.399 42.8113 136.421 42.8441 136.437 42.8812C136.454 42.9182 136.466 42.9592 136.47 43.0016C136.474 43.044 136.471 43.0869 136.461 43.1279C136.451 43.1689 136.434 43.207 136.412 43.2399C136.39 43.2728 136.362 43.2999 136.331 43.3194C133.394 45.2528 125.333 50.4792 125.248 50.5308C125.21 50.5564 125.168 50.5697 125.126 50.5694Z" fill="#231F20"/>
<path d="M53.9172 99.5018C53.8815 99.5011 53.8464 99.4909 53.8143 99.472C53.7822 99.4531 53.7538 99.4258 53.7313 99.3922C53.7107 99.3622 53.6951 99.3276 53.6855 99.2902C53.6759 99.2529 53.6725 99.2137 53.6754 99.1747C53.6784 99.1358 53.6877 99.0979 53.7027 99.0634C53.7178 99.0288 53.7384 98.9982 53.7632 98.9733L74.3254 78.5316C74.3758 78.4825 74.44 78.4592 74.5044 78.4664C74.5688 78.4736 74.6284 78.5108 74.6706 78.5703C74.6909 78.6007 74.7062 78.6357 74.7153 78.6732C74.7245 78.7108 74.7274 78.7502 74.724 78.7891C74.7205 78.8281 74.7107 78.8658 74.6952 78.9002C74.6796 78.9345 74.6586 78.9647 74.6334 78.9892L54.1031 99.4309C54.0513 99.4834 53.9845 99.5089 53.9172 99.5018Z" fill="#D1D3D4"/>
<path d="M74.4528 99.5018C74.3963 99.5005 74.3419 99.4754 74.2988 99.4309L53.7632 78.9892C53.7384 78.9643 53.7178 78.9337 53.7027 78.8991C53.6877 78.8645 53.6784 78.8267 53.6754 78.7878C53.6725 78.7488 53.6759 78.7096 53.6855 78.6723C53.6951 78.6349 53.7107 78.6003 53.7313 78.5703C53.7735 78.5108 53.8331 78.4736 53.8975 78.4664C53.9619 78.4592 54.0261 78.4825 54.0765 78.5316L74.6068 98.9733C74.6321 98.9977 74.6531 99.028 74.6686 99.0623C74.6842 99.0967 74.694 99.1344 74.6974 99.1734C74.7009 99.2123 74.6979 99.2517 74.6888 99.2893C74.6796 99.3268 74.6644 99.3618 74.644 99.3922C74.6205 99.426 74.5912 99.4533 74.5582 99.4722C74.5252 99.4911 74.4893 99.5012 74.4528 99.5018Z" fill="#D1D3D4"/>
<path d="M136.989 71.5976C136.929 71.6014 136.87 71.58 136.822 71.5369C136.773 71.4938 136.738 71.4317 136.723 71.3612C136.708 71.2906 136.714 71.2159 136.739 71.1498C136.764 71.0836 136.808 71.0301 136.862 70.9983C136.894 70.9983 139.66 69.1874 140.361 67.5698C140.377 67.5327 140.4 67.4999 140.426 67.4733C140.453 67.4467 140.484 67.4268 140.517 67.4148C140.55 67.4028 140.585 67.3989 140.619 67.4034C140.654 67.4079 140.687 67.4207 140.717 67.4409C140.748 67.46 140.776 67.4864 140.798 67.5185C140.821 67.5507 140.838 67.588 140.848 67.6283C140.858 67.6685 140.862 67.7109 140.859 67.7529C140.855 67.7948 140.845 67.8356 140.829 67.8727C140.053 69.6643 137.228 71.488 137.111 71.5654C137.073 71.5852 137.031 71.5961 136.989 71.5976Z" fill="#F5F5F5"/>
<path d="M16.7387 108.414C16.6908 108.415 16.6436 108.4 16.6024 108.37C16.5612 108.341 16.5275 108.298 16.505 108.247C15.4801 105.94 12.2248 100.72 12.1929 100.668C12.1665 100.636 12.1461 100.596 12.1331 100.553C12.1201 100.511 12.1148 100.465 12.1176 100.419C12.1203 100.373 12.131 100.329 12.149 100.289C12.167 100.249 12.1918 100.214 12.2218 100.186C12.2518 100.158 12.2864 100.139 12.3231 100.128C12.3598 100.118 12.398 100.118 12.4349 100.127C12.4719 100.136 12.5068 100.154 12.5374 100.181C12.568 100.208 12.5936 100.242 12.6124 100.281C12.7452 100.494 15.9262 105.592 16.9723 107.944C16.9888 107.981 16.999 108.022 17.0024 108.064C17.0057 108.106 17.002 108.148 16.9916 108.188C16.9813 108.229 16.9643 108.266 16.9418 108.298C16.9194 108.33 16.8918 108.357 16.8608 108.376C16.8236 108.401 16.7815 108.415 16.7387 108.414Z" fill="#F5F5F5"/>
</svg>
