<svg width="65" height="62" viewBox="0 0 65 62" fill="none" xmlns="http://www.w3.org/2000/svg">
<path d="M57.0791 46.0739L58.0367 45.7857L58.0367 45.7857L57.0791 46.0739ZM39.8977 40.5513L39.2682 39.7743L38.3073 40.5528L39.2697 41.3295L39.8977 40.5513ZM43.0562 46.2092L42.0684 46.3649L43.0562 46.2092ZM56.1902 46.2002H42.152V48.2002H56.1902V46.2002ZM56.1216 46.3621C56.1183 46.3512 56.1147 46.3267 56.121 46.2958C56.1269 46.2668 56.1392 46.2443 56.1512 46.2294C56.1753 46.1995 56.1966 46.2002 56.1902 46.2002V48.2002C57.384 48.2002 58.4307 47.0947 58.0367 45.7857L56.1216 46.3621ZM46.7018 39.3335C50.0428 39.3335 52.2026 40.5559 53.621 42.0073C55.0657 43.4856 55.7877 45.2526 56.1216 46.3621L58.0367 45.7857C57.6521 44.5076 56.8055 42.4044 55.0514 40.6094C53.2709 38.7875 50.6012 37.3335 46.7018 37.3335V39.3335ZM40.5272 41.3283C41.9178 40.2018 43.8856 39.3335 46.7018 39.3335V37.3335C43.4339 37.3335 41.0201 38.3551 39.2682 39.7743L40.5272 41.3283ZM39.2697 41.3295C41.2448 42.9235 41.8724 45.1219 42.0684 46.3649L44.044 46.0534C43.8111 44.5765 43.0495 41.8099 40.5257 39.7731L39.2697 41.3295ZM42.0684 46.3649C42.0658 46.3489 42.066 46.3221 42.0757 46.2917C42.0849 46.2628 42.0993 46.2409 42.1127 46.2265C42.1389 46.1985 42.1583 46.2002 42.152 46.2002V48.2002C43.2261 48.2002 44.2396 47.2938 44.044 46.0534L42.0684 46.3649Z" fill="#F9A826"/>
<path d="M25.1064 40.551L25.7344 41.3292L26.6969 40.5525L25.7359 39.774L25.1064 40.551ZM7.92497 46.0736L6.9674 45.7854L6.9674 45.7854L7.92497 46.0736ZM22.8507 47.1999V48.1999L22.8521 46.1999L22.8507 47.1999ZM21.9479 46.2089L22.9357 46.3647V46.3647L21.9479 46.2089ZM18.3024 39.3333C21.1185 39.3333 23.0864 40.2015 24.4769 41.328L25.7359 39.774C23.9841 38.3548 21.5703 37.3333 18.3024 37.3333V39.3333ZM8.88254 46.3618C9.21646 45.2524 9.93841 43.4854 11.3832 42.0071C12.8016 40.5556 14.9614 39.3333 18.3024 39.3333V37.3333C14.4029 37.3333 11.7333 38.7873 9.95279 40.6092C8.19859 42.4042 7.35206 44.5074 6.9674 45.7854L8.88254 46.3618ZM8.81386 46.1999C8.80749 46.1999 8.82882 46.1992 8.85289 46.2291C8.86495 46.2441 8.87717 46.2666 8.88312 46.2956C8.88945 46.3264 8.88583 46.3509 8.88254 46.3618L6.9674 45.7854C6.57343 47.0945 7.62006 48.1999 8.81386 48.1999V46.1999ZM22.8507 46.1999H8.81386V48.1999H22.8507V46.1999ZM22.8521 46.1999C22.8459 46.1999 22.8652 46.1983 22.8914 46.2264C22.9049 46.2408 22.9193 46.2626 22.9284 46.2916C22.9381 46.3219 22.9382 46.3487 22.9357 46.3647L20.9601 46.0531C20.7647 47.2924 21.7763 48.1985 22.8494 48.1999L22.8521 46.1999ZM22.9357 46.3647C23.1317 45.1217 23.7593 42.9232 25.7344 41.3292L24.4784 39.7728C21.9546 41.8096 21.193 44.5762 20.9601 46.0531L22.9357 46.3647Z" fill="#F9A826"/>
<path d="M32.502 38.3335C40.9369 38.3335 42.6912 43.8956 43.056 46.2092C43.142 46.7547 42.7041 47.2002 42.1518 47.2002H22.8522C22.2999 47.2002 21.8619 46.7547 21.948 46.2092C22.3128 43.8956 24.0671 38.3335 32.502 38.3335Z" stroke="#F9A826" stroke-width="2" stroke-linecap="round"/>
<ellipse cx="32.502" cy="26.5112" rx="7.09987" ry="5.91111" fill="#F9A826"/>
<ellipse cx="46.7017" cy="26.5112" rx="7.09987" ry="5.91111" fill="#F9A826"/>
<ellipse cx="18.3021" cy="26.5112" rx="7.09987" ry="5.91111" fill="#F9A826"/>
<path d="M50 1H62C63.1046 1 64 1.89543 64 3V14.3333M50 61H62C63.1046 61 64 60.1046 64 59V47.6667M15 1H3C1.89543 1 1 1.89543 1 3V14.3333M15 61H3C1.89543 61 1 60.1046 1 59V47.6667" stroke="#F9A826" stroke-width="2" stroke-linecap="round"/>
</svg>
