
<!--<?xml version="1.0" encoding="utf-8"?> Generator: Adobe Illustrator 26.0.1, SVG Export Plug-In . SVG Version: 6.00 Build 0)  -->
<svg version="1.1" id="Layer_2" xmlns="http://www.w3.org/2000/svg" xmlns:xlink="http://www.w3.org/1999/xlink" x="0px" y="0px"
	 viewBox="0 0 866 683" style="enable-background:new 0 0 866 683;" xml:space="preserve">
<style type="text/css">
	.ste0{fill:#EBEBEB;}
	.ste1{fill:#E0E0E0;}
	.ste2{fill:#F5F5F5;}
	.ste3{fill:#E6E6E6;}
	.ste4{fill:#F0F0F0;}
	.ste5{opacity:0.2;fill:#E0E0E0;enable-background:new    ;}
	.ste6{fill:#F9A826;}
	.ste7{opacity:0.7;fill:#FFFFFF;enable-background:new    ;}
	.ste8{opacity:0.2;enable-background:new    ;}
	.ste9{opacity:0.4;fill:#FFFFFF;enable-background:new    ;}
	.ste10{opacity:0.3;fill:#FFFFFF;enable-background:new    ;}
	.ste11{opacity:0.5;fill:#FFFFFF;enable-background:new    ;}
	.ste12{fill:#2F2E41;}
	.ste13{fill:#C2C4C6;}
	.ste14{fill:#2E3135;}
	.ste15{fill:#3F4347;}
	.ste16{fill:#F9B499;}
	.ste17{fill:#9EA0A3;}
	.ste18{fill:#E1E1E2;}
	.ste19{fill:#F7A48B;}
	.ste20{fill:none;stroke:#F7A48B;stroke-miterlimit:10;}
	.ste21{fill:#FFFFFF;}
</style>
<g id="Layer_1">
	<path class="ste0" d="M862.2,606.5H3.6v0.4h858.6V606.5z"/>
	<path class="ste0" d="M776.1,634.1h-56.9v0.4h56.9V634.1z"/>
	<path class="ste0" d="M572.3,638.8h-14.9v0.4h14.9V638.8z"/>
	<path class="ste0" d="M717.5,618.2h-33v0.4h33V618.2z"/>
	<path class="ste0" d="M167.8,621H93.7v0.4h74.2V621z"/>
	<path class="ste0" d="M194,621h-10.9v0.4H194V621z"/>
	<path class="ste0" d="M390.2,628.3H229.4v0.4h160.9V628.3z"/>
	<path class="ste0" d="M410.6,529.9H79c-2.6,0-5.1-1-6.9-2.9c-1.8-1.8-2.9-4.3-2.9-6.9V54c0-2.6,1.1-5.1,2.9-6.9
		c1.8-1.8,4.3-2.8,6.9-2.8h331.6c2.6,0,5.1,1,6.9,2.9c1.8,1.8,2.9,4.3,2.9,6.9v466c0,2.6-1,5.1-2.9,6.9
		C415.7,528.8,413.2,529.9,410.6,529.9z M79,44.6c-1.2,0-2.5,0.2-3.6,0.7c-1.1,0.5-2.2,1.2-3,2c-0.9,0.9-1.6,1.9-2,3
		c-0.5,1.1-0.7,2.4-0.7,3.6v466.1c0,2.5,1,4.9,2.7,6.6c1.8,1.8,4.1,2.7,6.6,2.7h331.6c2.5,0,4.9-1,6.6-2.7c1.8-1.8,2.7-4.1,2.7-6.6
		V54c0-2.5-1-4.9-2.7-6.6c-1.8-1.8-4.1-2.7-6.6-2.7L79,44.6z"/>
	<path class="ste0" d="M782,529.9H450.4c-2.6,0-5.1-1-6.9-2.9c-1.8-1.8-2.9-4.3-2.9-6.9V54c0-2.6,1.1-5,2.9-6.9
		c1.8-1.8,4.3-2.8,6.9-2.8H782c2.6,0,5,1,6.9,2.8c1.8,1.8,2.9,4.3,2.9,6.9v466.1c0,2.6-1,5.1-2.9,6.9
		C787.1,528.8,784.6,529.9,782,529.9z M450.4,44.6c-1.2,0-2.5,0.2-3.6,0.7c-1.1,0.5-2.2,1.2-3.1,2c-0.9,0.9-1.6,1.9-2,3
		c-0.5,1.1-0.7,2.4-0.7,3.6v466.1c0,2.5,1,4.9,2.8,6.6s4.1,2.7,6.6,2.8H782c2.5,0,4.9-1,6.6-2.7c1.8-1.8,2.7-4.1,2.8-6.6V54
		c0-2.5-1-4.9-2.7-6.6c-1.8-1.8-4.1-2.8-6.6-2.8H450.4z"/>
	<path class="ste1" d="M768.5,151h-416v401h416V151z"/>
	<path class="ste2" d="M768.5,158.3H359.1V545h409.4V158.3z"/>
	<path class="ste3" d="M362.1,451.4V335.1h12.1v-15.4l27.2-12.7v-15.7h4.5v43.8h4.5v116.3h6V391h13.6v-31.7h4.5v92.2h10.6v-34.8h7.6
		v-9.1h16.6v-31.7h9.1v-21.1H489V323h4.5v31.7h10.6v21.1h9v31.7h16.6v9.1h7.5v34.8h9.1v-43.8H563v-96.7h4.5v-10.6h36.2v10.6h7.6
		v69.5h30.2v7.5h10.6v4.5h-10.6v27.2h31.7V329h6v-18.1h15.1v-69.5h4.5v69.5h10.6V329h58.9v216H359.1v-93.6H362.1z"/>
	<path class="ste4" d="M737,333.8h-4.3v4.3h4.3V333.8z"/>
	<path class="ste4" d="M737,340.9h-4.3v4.3h4.3V340.9z"/>
	<path class="ste4" d="M737,369.6h-4.3v4.3h4.3V369.6z"/>
	<path class="ste4" d="M737,376.8h-4.3v4.3h4.3V376.8z"/>
	<path class="ste4" d="M737,384h-4.3v4.3h4.3V384z"/>
	<path class="ste4" d="M737,405.5h-4.3v4.3h4.3V405.5z"/>
	<path class="ste4" d="M737,412.7h-4.3v4.3h4.3V412.7z"/>
	<path class="ste4" d="M730.2,362.5h-4.3v4.3h4.3V362.5z"/>
	<path class="ste4" d="M730.2,369.6h-4.3v4.3h4.3V369.6z"/>
	<path class="ste4" d="M730.2,376.8h-4.3v4.3h4.3V376.8z"/>
	<path class="ste4" d="M730.2,384h-4.3v4.3h4.3V384z"/>
	<path class="ste4" d="M730.2,391.2h-4.3v4.3h4.3V391.2z"/>
	<path class="ste4" d="M730.2,405.5h-4.3v4.3h4.3V405.5z"/>
	<path class="ste4" d="M730.2,412.7h-4.3v4.3h4.3V412.7z"/>
	<path class="ste4" d="M723.4,333.8h-4.3v4.3h4.3V333.8z"/>
	<path class="ste4" d="M723.4,340.9h-4.3v4.3h4.3V340.9z"/>
	<path class="ste4" d="M723.4,348.1h-4.3v4.3h4.3V348.1z"/>
	<path class="ste4" d="M723.4,355.3h-4.3v4.3h4.3V355.3z"/>
	<path class="ste4" d="M723.4,362.5h-4.3v4.3h4.3V362.5z"/>
	<path class="ste4" d="M723.4,369.6h-4.3v4.3h4.3V369.6z"/>
	<path class="ste4" d="M723.4,376.8h-4.3v4.3h4.3V376.8z"/>
	<path class="ste4" d="M723.4,384h-4.3v4.3h4.3V384z"/>
	<path class="ste4" d="M723.4,391.2h-4.3v4.3h4.3V391.2z"/>
	<path class="ste4" d="M723.4,398.3h-4.3v4.3h4.3V398.3z"/>
	<path class="ste4" d="M723.4,412.7h-4.3v4.3h4.3V412.7z"/>
	<path class="ste4" d="M716.6,333.8h-4.3v4.3h4.3V333.8z"/>
	<path class="ste4" d="M716.6,340.9h-4.3v4.3h4.3V340.9z"/>
	<path class="ste4" d="M716.6,348.1h-4.3v4.3h4.3V348.1z"/>
	<path class="ste4" d="M716.6,355.3h-4.3v4.3h4.3V355.3z"/>
	<path class="ste4" d="M716.6,362.5h-4.3v4.3h4.3V362.5z"/>
	<path class="ste4" d="M716.6,369.6h-4.3v4.3h4.3V369.6z"/>
	<path class="ste4" d="M716.6,376.8h-4.3v4.3h4.3V376.8z"/>
	<path class="ste4" d="M716.6,441.4h-4.3v4.3h4.3V441.4z"/>
	<path class="ste4" d="M709.8,333.8h-4.3v4.3h4.3V333.8z"/>
	<path class="ste4" d="M709.8,340.9h-4.3v4.3h4.3V340.9z"/>
	<path class="ste4" d="M709.8,348.1h-4.3v4.3h4.3V348.1z"/>
	<path class="ste4" d="M709.8,355.3h-4.3v4.3h4.3V355.3z"/>
	<path class="ste4" d="M709.8,362.5h-4.3v4.3h4.3V362.5z"/>
	<path class="ste4" d="M709.8,369.6h-4.3v4.3h4.3V369.6z"/>
	<path class="ste4" d="M709.8,376.8h-4.3v4.3h4.3V376.8z"/>
	<path class="ste4" d="M709.8,384h-4.3v4.3h4.3V384z"/>
	<path class="ste4" d="M709.8,427h-4.3v4.3h4.3V427z"/>
	<path class="ste4" d="M709.8,434.2h-4.3v4.3h4.3V434.2z"/>
	<path class="ste4" d="M709.8,441.4h-4.3v4.3h4.3V441.4z"/>
	<path class="ste4" d="M709.8,448.6h-4.3v4.3h4.3V448.6z"/>
	<path class="ste4" d="M709.8,477.3h-4.3v4.3h4.3V477.3z"/>
	<path class="ste4" d="M703,333.8h-4.3v4.3h4.3V333.8z"/>
	<path class="ste4" d="M703,340.9h-4.3v4.3h4.3V340.9z"/>
	<path class="ste4" d="M703,348.1h-4.3v4.3h4.3V348.1z"/>
	<path class="ste4" d="M703,355.3h-4.3v4.3h4.3V355.3z"/>
	<path class="ste4" d="M703,362.5h-4.3v4.3h4.3V362.5z"/>
	<path class="ste4" d="M703,369.6h-4.3v4.3h4.3V369.6z"/>
	<path class="ste4" d="M703,376.8h-4.3v4.3h4.3V376.8z"/>
	<path class="ste4" d="M703,384h-4.3v4.3h4.3V384z"/>
	<path class="ste4" d="M703,391.2h-4.3v4.3h4.3V391.2z"/>
	<path class="ste4" d="M703,398.3h-4.3v4.3h4.3V398.3z"/>
	<path class="ste4" d="M703,419.9h-4.3v4.3h4.3V419.9z"/>
	<path class="ste4" d="M703,427h-4.3v4.3h4.3V427z"/>
	<path class="ste4" d="M703,434.2h-4.3v4.3h4.3V434.2z"/>
	<path class="ste4" d="M703,441.4h-4.3v4.3h4.3V441.4z"/>
	<path class="ste4" d="M703,448.6h-4.3v4.3h4.3V448.6z"/>
	<path class="ste4" d="M703,477.3h-4.3v4.3h4.3V477.3z"/>
	<path class="ste4" d="M696.2,333.8h-4.3v4.3h4.3V333.8z"/>
	<path class="ste4" d="M696.2,340.9h-4.3v4.3h4.3V340.9z"/>
	<path class="ste4" d="M696.2,348.1h-4.3v4.3h4.3V348.1z"/>
	<path class="ste4" d="M696.2,355.3h-4.3v4.3h4.3V355.3z"/>
	<path class="ste4" d="M696.2,362.5h-4.3v4.3h4.3V362.5z"/>
	<path class="ste4" d="M696.2,369.6h-4.3v4.3h4.3V369.6z"/>
	<path class="ste4" d="M696.2,376.8h-4.3v4.3h4.3V376.8z"/>
	<path class="ste4" d="M696.2,384h-4.3v4.3h4.3V384z"/>
	<path class="ste4" d="M696.2,391.2h-4.3v4.3h4.3V391.2z"/>
	<path class="ste4" d="M696.2,398.3h-4.3v4.3h4.3V398.3z"/>
	<path class="ste4" d="M696.2,405.5h-4.3v4.3h4.3V405.5z"/>
	<path class="ste4" d="M696.2,412.7h-4.3v4.3h4.3V412.7z"/>
	<path class="ste4" d="M696.2,419.9h-4.3v4.3h4.3V419.9z"/>
	<path class="ste4" d="M696.2,427h-4.3v4.3h4.3V427z"/>
	<path class="ste4" d="M696.2,434.2h-4.3v4.3h4.3V434.2z"/>
	<path class="ste4" d="M696.2,441.4h-4.3v4.3h4.3V441.4z"/>
	<path class="ste4" d="M696.2,448.6h-4.3v4.3h4.3V448.6z"/>
	<path class="ste4" d="M696.2,455.7h-4.3v4.3h4.3V455.7z"/>
	<path class="ste4" d="M689.4,333.8h-4.3v4.3h4.3V333.8z"/>
	<path class="ste4" d="M689.4,340.9h-4.3v4.3h4.3V340.9z"/>
	<path class="ste4" d="M689.4,348.1h-4.3v4.3h4.3V348.1z"/>
	<path class="ste4" d="M689.4,355.3h-4.3v4.3h4.3V355.3z"/>
	<path class="ste4" d="M689.4,362.5h-4.3v4.3h4.3V362.5z"/>
	<path class="ste4" d="M689.4,369.6h-4.3v4.3h4.3V369.6z"/>
	<path class="ste4" d="M689.4,376.8h-4.3v4.3h4.3V376.8z"/>
	<path class="ste4" d="M689.4,384h-4.3v4.3h4.3V384z"/>
	<path class="ste4" d="M689.4,391.2h-4.3v4.3h4.3V391.2z"/>
	<path class="ste4" d="M689.4,398.3h-4.3v4.3h4.3V398.3z"/>
	<path class="ste4" d="M689.4,419.9h-4.3v4.3h4.3V419.9z"/>
	<path class="ste4" d="M689.4,427h-4.3v4.3h4.3V427z"/>
	<path class="ste4" d="M689.4,434.2h-4.3v4.3h4.3V434.2z"/>
	<path class="ste4" d="M689.4,441.4h-4.3v4.3h4.3V441.4z"/>
	<path class="ste4" d="M682.6,333.8h-4.3v4.3h4.3V333.8z"/>
	<path class="ste4" d="M682.6,340.9h-4.3v4.3h4.3V340.9z"/>
	<path class="ste4" d="M682.6,348.1h-4.3v4.3h4.3V348.1z"/>
	<path class="ste4" d="M682.6,355.3h-4.3v4.3h4.3V355.3z"/>
	<path class="ste4" d="M682.6,362.5h-4.3v4.3h4.3V362.5z"/>
	<path class="ste4" d="M682.6,369.6h-4.3v4.3h4.3V369.6z"/>
	<path class="ste4" d="M682.6,376.8h-4.3v4.3h4.3V376.8z"/>
	<path class="ste4" d="M682.6,384h-4.3v4.3h4.3V384z"/>
	<path class="ste4" d="M682.6,391.2h-4.3v4.3h4.3V391.2z"/>
	<path class="ste4" d="M682.6,398.3h-4.3v4.3h4.3V398.3z"/>
	<path class="ste4" d="M682.6,419.9h-4.3v4.3h4.3V419.9z"/>
	<path class="ste4" d="M682.6,427h-4.3v4.3h4.3V427z"/>
	<path class="ste4" d="M682.6,434.2h-4.3v4.3h4.3V434.2z"/>
	<path class="ste4" d="M606.1,315.1h-4.3v4.3h4.3V315.1z"/>
	<path class="ste4" d="M606.1,322.3h-4.3v4.3h4.3V322.3z"/>
	<path class="ste4" d="M606.1,329.5h-4.3v4.3h4.3V329.5z"/>
	<path class="ste4" d="M606.1,336.7h-4.3v4.3h4.3V336.7z"/>
	<path class="ste4" d="M606.1,343.8h-4.3v4.3h4.3V343.8z"/>
	<path class="ste4" d="M606.1,351h-4.3v4.3h4.3V351z"/>
	<path class="ste4" d="M606.1,358.2h-4.3v4.3h4.3V358.2z"/>
	<path class="ste4" d="M606.1,365.4h-4.3v4.3h4.3V365.4z"/>
	<path class="ste4" d="M606.1,386.9h-4.3v4.3h4.3V386.9z"/>
	<path class="ste4" d="M606.1,394.1h-4.3v4.3h4.3V394.1z"/>
	<path class="ste4" d="M599.3,315.1H595v4.3h4.3V315.1z"/>
	<path class="ste4" d="M599.3,322.3H595v4.3h4.3V322.3z"/>
	<path class="ste4" d="M599.3,329.5H595v4.3h4.3V329.5z"/>
	<path class="ste4" d="M599.3,336.7H595v4.3h4.3V336.7z"/>
	<path class="ste4" d="M599.3,343.8H595v4.3h4.3V343.8z"/>
	<path class="ste4" d="M599.3,351H595v4.3h4.3V351z"/>
	<path class="ste4" d="M599.3,358.2H595v4.3h4.3V358.2z"/>
	<path class="ste4" d="M599.3,365.4H595v4.3h4.3V365.4z"/>
	<path class="ste4" d="M599.3,394.1H595v4.3h4.3V394.1z"/>
	<path class="ste4" d="M592.5,315.1h-4.3v4.3h4.3V315.1z"/>
	<path class="ste4" d="M592.5,322.3h-4.3v4.3h4.3V322.3z"/>
	<path class="ste4" d="M592.5,329.5h-4.3v4.3h4.3V329.5z"/>
	<path class="ste4" d="M592.5,336.7h-4.3v4.3h4.3V336.7z"/>
	<path class="ste4" d="M592.5,343.8h-4.3v4.3h4.3V343.8z"/>
	<path class="ste4" d="M592.5,351h-4.3v4.3h4.3V351z"/>
	<path class="ste4" d="M592.5,358.2h-4.3v4.3h4.3V358.2z"/>
	<path class="ste4" d="M592.5,365.4h-4.3v4.3h4.3V365.4z"/>
	<path class="ste4" d="M585.7,315.1h-4.3v4.3h4.3V315.1z"/>
	<path class="ste4" d="M585.7,322.3h-4.3v4.3h4.3V322.3z"/>
	<path class="ste4" d="M585.7,329.5h-4.3v4.3h4.3V329.5z"/>
	<path class="ste4" d="M585.7,336.7h-4.3v4.3h4.3V336.7z"/>
	<path class="ste4" d="M585.7,343.8h-4.3v4.3h4.3V343.8z"/>
	<path class="ste4" d="M585.7,351h-4.3v4.3h4.3V351z"/>
	<path class="ste4" d="M585.7,365.4h-4.3v4.3h4.3V365.4z"/>
	<path class="ste4" d="M585.7,372.5h-4.3v4.3h4.3V372.5z"/>
	<path class="ste4" d="M585.7,394.1h-4.3v4.3h4.3V394.1z"/>
	<path class="ste4" d="M585.7,401.2h-4.3v4.3h4.3V401.2z"/>
	<path class="ste4" d="M585.7,408.4h-4.3v4.3h4.3V408.4z"/>
	<path class="ste4" d="M585.7,415.6h-4.3v4.3h4.3V415.6z"/>
	<path class="ste4" d="M585.7,422.8h-4.3v4.3h4.3V422.8z"/>
	<path class="ste4" d="M585.7,429.9h-4.3v4.3h4.3V429.9z"/>
	<path class="ste4" d="M585.7,437.1h-4.3v4.3h4.3V437.1z"/>
	<path class="ste4" d="M578.9,315.1h-4.3v4.3h4.3V315.1z"/>
	<path class="ste4" d="M578.9,322.3h-4.3v4.3h4.3V322.3z"/>
	<path class="ste4" d="M578.9,329.5h-4.3v4.3h4.3V329.5z"/>
	<path class="ste4" d="M578.9,336.7h-4.3v4.3h4.3V336.7z"/>
	<path class="ste4" d="M578.9,343.8h-4.3v4.3h4.3V343.8z"/>
	<path class="ste4" d="M578.9,351h-4.3v4.3h4.3V351z"/>
	<path class="ste4" d="M578.9,372.5h-4.3v4.3h4.3V372.5z"/>
	<path class="ste4" d="M578.9,379.7h-4.3v4.3h4.3V379.7z"/>
	<path class="ste4" d="M578.9,386.9h-4.3v4.3h4.3V386.9z"/>
	<path class="ste4" d="M578.9,394.1h-4.3v4.3h4.3V394.1z"/>
	<path class="ste4" d="M578.9,401.2h-4.3v4.3h4.3V401.2z"/>
	<path class="ste4" d="M578.9,408.4h-4.3v4.3h4.3V408.4z"/>
	<path class="ste4" d="M578.9,415.6h-4.3v4.3h4.3V415.6z"/>
	<path class="ste4" d="M578.9,422.8h-4.3v4.3h4.3V422.8z"/>
	<path class="ste4" d="M578.9,429.9h-4.3v4.3h4.3V429.9z"/>
	<path class="ste4" d="M578.9,437.1h-4.3v4.3h4.3V437.1z"/>
	<path class="ste4" d="M578.9,444.3h-4.3v4.3h4.3V444.3z"/>
	<path class="ste4" d="M578.9,458.6h-4.3v4.3h4.3V458.6z"/>
	<path class="ste4" d="M572.1,315.1h-4.3v4.3h4.3V315.1z"/>
	<path class="ste4" d="M572.1,322.3h-4.3v4.3h4.3V322.3z"/>
	<path class="ste4" d="M572.1,329.5h-4.3v4.3h4.3V329.5z"/>
	<path class="ste4" d="M572.1,336.7h-4.3v4.3h4.3V336.7z"/>
	<path class="ste4" d="M572.1,343.8h-4.3v4.3h4.3V343.8z"/>
	<path class="ste4" d="M572.1,351h-4.3v4.3h4.3V351z"/>
	<path class="ste4" d="M572.1,372.5h-4.3v4.3h4.3V372.5z"/>
	<path class="ste4" d="M572.1,379.7h-4.3v4.3h4.3V379.7z"/>
	<path class="ste4" d="M572.1,386.9h-4.3v4.3h4.3V386.9z"/>
	<path class="ste4" d="M572.1,394.1h-4.3v4.3h4.3V394.1z"/>
	<path class="ste4" d="M572.1,415.6h-4.3v4.3h4.3V415.6z"/>
	<path class="ste4" d="M572.1,422.8h-4.3v4.3h4.3V422.8z"/>
	<path class="ste4" d="M572.1,429.9h-4.3v4.3h4.3V429.9z"/>
	<path class="ste4" d="M572.1,437.1h-4.3v4.3h4.3V437.1z"/>
	<path class="ste4" d="M572.1,444.3h-4.3v4.3h4.3V444.3z"/>
	<path class="ste4" d="M572.1,458.6h-4.3v4.3h4.3V458.6z"/>
	<path class="ste4" d="M572.1,465.8h-4.3v4.3h4.3V465.8z"/>
	<path class="ste4" d="M510.4,381.9h-4.3v4.3h4.3V381.9z"/>
	<path class="ste4" d="M510.4,389h-4.3v4.3h4.3V389z"/>
	<path class="ste4" d="M510.4,396.2h-4.3v4.3h4.3V396.2z"/>
	<path class="ste4" d="M510.4,403.4h-4.3v4.3h4.3V403.4z"/>
	<path class="ste4" d="M510.4,410.5h-4.3v4.3h4.3V410.5z"/>
	<path class="ste4" d="M510.4,417.7h-4.3v4.3h4.3V417.7z"/>
	<path class="ste4" d="M510.4,424.9h-4.3v4.3h4.3V424.9z"/>
	<path class="ste4" d="M510.4,446.4h-4.3v4.3h4.3V446.4z"/>
	<path class="ste4" d="M510.4,453.6h-4.3v4.3h4.3V453.6z"/>
	<path class="ste4" d="M510.4,460.8h-4.3v4.3h4.3V460.8z"/>
	<path class="ste4" d="M503.6,381.9h-4.3v4.3h4.3V381.9z"/>
	<path class="ste4" d="M503.6,389h-4.3v4.3h4.3V389z"/>
	<path class="ste4" d="M503.6,396.2h-4.3v4.3h4.3V396.2z"/>
	<path class="ste4" d="M503.6,403.4h-4.3v4.3h4.3V403.4z"/>
	<path class="ste4" d="M503.6,410.5h-4.3v4.3h4.3V410.5z"/>
	<path class="ste4" d="M503.6,417.7h-4.3v4.3h4.3V417.7z"/>
	<path class="ste4" d="M503.6,424.9h-4.3v4.3h4.3V424.9z"/>
	<path class="ste4" d="M496.8,381.9h-4.3v4.3h4.3V381.9z"/>
	<path class="ste4" d="M496.8,389h-4.3v4.3h4.3V389z"/>
	<path class="ste4" d="M496.8,396.2h-4.3v4.3h4.3V396.2z"/>
	<path class="ste4" d="M496.8,403.4h-4.3v4.3h4.3V403.4z"/>
	<path class="ste4" d="M496.8,410.5h-4.3v4.3h4.3V410.5z"/>
	<path class="ste4" d="M496.8,417.7h-4.3v4.3h4.3V417.7z"/>
	<path class="ste4" d="M496.8,424.9h-4.3v4.3h4.3V424.9z"/>
	<path class="ste4" d="M490,381.9h-4.3v4.3h4.3V381.9z"/>
	<path class="ste4" d="M490,389h-4.3v4.3h4.3V389z"/>
	<path class="ste4" d="M490,396.2h-4.3v4.3h4.3V396.2z"/>
	<path class="ste4" d="M490,403.4h-4.3v4.3h4.3V403.4z"/>
	<path class="ste4" d="M490,410.5h-4.3v4.3h4.3V410.5z"/>
	<path class="ste4" d="M490,417.7h-4.3v4.3h4.3V417.7z"/>
	<path class="ste4" d="M490,424.9h-4.3v4.3h4.3V424.9z"/>
	<path class="ste4" d="M490,432.1h-4.3v4.3h4.3V432.1z"/>
	<path class="ste4" d="M490,439.3h-4.3v4.3h4.3V439.3z"/>
	<path class="ste4" d="M490,446.4h-4.3v4.3h4.3V446.4z"/>
	<path class="ste4" d="M490,453.6h-4.3v4.3h4.3V453.6z"/>
	<path class="ste4" d="M483.2,381.9h-4.3v4.3h4.3V381.9z"/>
	<path class="ste4" d="M483.2,389h-4.3v4.3h4.3V389z"/>
	<path class="ste4" d="M483.2,396.2h-4.3v4.3h4.3V396.2z"/>
	<path class="ste4" d="M483.2,403.4h-4.3v4.3h4.3V403.4z"/>
	<path class="ste4" d="M483.2,410.5h-4.3v4.3h4.3V410.5z"/>
	<path class="ste4" d="M483.2,417.7h-4.3v4.3h4.3V417.7z"/>
	<path class="ste4" d="M483.2,424.9h-4.3v4.3h4.3V424.9z"/>
	<path class="ste4" d="M483.2,432.1h-4.3v4.3h4.3V432.1z"/>
	<path class="ste4" d="M483.2,439.3h-4.3v4.3h4.3V439.3z"/>
	<path class="ste4" d="M483.2,446.4h-4.3v4.3h4.3V446.4z"/>
	<path class="ste4" d="M483.2,453.6h-4.3v4.3h4.3V453.6z"/>
	<path class="ste4" d="M483.2,460.8h-4.3v4.3h4.3V460.8z"/>
	<path class="ste4" d="M483.2,482.3h-4.3v4.3h4.3V482.3z"/>
	<path class="ste4" d="M483.2,489.5h-4.3v4.3h4.3V489.5z"/>
	<path class="ste4" d="M476.4,381.9h-4.3v4.3h4.3V381.9z"/>
	<path class="ste4" d="M476.4,389h-4.3v4.3h4.3V389z"/>
	<path class="ste4" d="M476.4,396.2h-4.3v4.3h4.3V396.2z"/>
	<path class="ste4" d="M476.4,417.7h-4.3v4.3h4.3V417.7z"/>
	<path class="ste4" d="M476.4,424.9h-4.3v4.3h4.3V424.9z"/>
	<path class="ste4" d="M476.4,432.1h-4.3v4.3h4.3V432.1z"/>
	<path class="ste4" d="M476.4,439.3h-4.3v4.3h4.3V439.3z"/>
	<path class="ste4" d="M476.4,446.4h-4.3v4.3h4.3V446.4z"/>
	<path class="ste4" d="M476.4,453.6h-4.3v4.3h4.3V453.6z"/>
	<path class="ste4" d="M476.4,460.8h-4.3v4.3h4.3V460.8z"/>
	<path class="ste4" d="M476.4,482.3h-4.3v4.3h4.3V482.3z"/>
	<path class="ste4" d="M476.4,489.5h-4.3v4.3h4.3V489.5z"/>
	<path class="ste4" d="M476.4,496.7h-4.3v4.3h4.3V496.7z"/>
	<path class="ste4" d="M405.1,338.8h-4.3v4.3h4.3V338.8z"/>
	<path class="ste4" d="M405.1,346h-4.3v4.3h4.3V346z"/>
	<path class="ste4" d="M405.1,353.1h-4.3v4.3h4.3V353.1z"/>
	<path class="ste4" d="M405.1,360.3h-4.3v4.3h4.3V360.3z"/>
	<path class="ste4" d="M405.1,367.5h-4.3v4.3h4.3V367.5z"/>
	<path class="ste4" d="M405.1,374.7h-4.3v4.3h4.3V374.7z"/>
	<path class="ste4" d="M405.1,381.9h-4.3v4.3h4.3V381.9z"/>
	<path class="ste4" d="M405.1,389h-4.3v4.3h4.3V389z"/>
	<path class="ste4" d="M405.1,396.2h-4.3v4.3h4.3V396.2z"/>
	<path class="ste4" d="M405.1,403.4h-4.3v4.3h4.3V403.4z"/>
	<path class="ste4" d="M405.1,410.5h-4.3v4.3h4.3V410.5z"/>
	<path class="ste4" d="M405.1,417.7h-4.3v4.3h4.3V417.7z"/>
	<path class="ste4" d="M405.1,424.9h-4.3v4.3h4.3V424.9z"/>
	<path class="ste4" d="M405.1,432.1h-4.3v4.3h4.3V432.1z"/>
	<path class="ste4" d="M405.1,439.3h-4.3v4.3h4.3V439.3z"/>
	<path class="ste4" d="M405.1,446.4h-4.3v4.3h4.3V446.4z"/>
	<path class="ste4" d="M405.1,453.6h-4.3v4.3h4.3V453.6z"/>
	<path class="ste4" d="M405.1,460.8h-4.3v4.3h4.3V460.8z"/>
	<path class="ste4" d="M405.1,468h-4.3v4.3h4.3V468z"/>
	<path class="ste4" d="M405.1,475.1h-4.3v4.3h4.3V475.1z"/>
	<path class="ste4" d="M405.1,482.3h-4.3v4.3h4.3V482.3z"/>
	<path class="ste4" d="M405.1,489.5h-4.3v4.3h4.3V489.5z"/>
	<path class="ste4" d="M405.1,496.7h-4.3v4.3h4.3V496.7z"/>
	<path class="ste4" d="M398.3,338.8h-4.3v4.3h4.3V338.8z"/>
	<path class="ste4" d="M398.3,346h-4.3v4.3h4.3V346z"/>
	<path class="ste4" d="M398.3,353.1h-4.3v4.3h4.3V353.1z"/>
	<path class="ste4" d="M398.3,360.3h-4.3v4.3h4.3V360.3z"/>
	<path class="ste4" d="M398.3,367.5h-4.3v4.3h4.3V367.5z"/>
	<path class="ste4" d="M398.3,374.7h-4.3v4.3h4.3V374.7z"/>
	<path class="ste4" d="M398.3,381.9h-4.3v4.3h4.3V381.9z"/>
	<path class="ste4" d="M398.3,389h-4.3v4.3h4.3V389z"/>
	<path class="ste4" d="M398.3,396.2h-4.3v4.3h4.3V396.2z"/>
	<path class="ste4" d="M398.3,403.4h-4.3v4.3h4.3V403.4z"/>
	<path class="ste4" d="M398.3,410.5h-4.3v4.3h4.3V410.5z"/>
	<path class="ste4" d="M398.3,417.7h-4.3v4.3h4.3V417.7z"/>
	<path class="ste4" d="M398.3,424.9h-4.3v4.3h4.3V424.9z"/>
	<path class="ste4" d="M398.3,432.1h-4.3v4.3h4.3V432.1z"/>
	<path class="ste4" d="M398.3,439.3h-4.3v4.3h4.3V439.3z"/>
	<path class="ste4" d="M398.3,446.4h-4.3v4.3h4.3V446.4z"/>
	<path class="ste4" d="M398.3,453.6h-4.3v4.3h4.3V453.6z"/>
	<path class="ste4" d="M398.3,460.8h-4.3v4.3h4.3V460.8z"/>
	<path class="ste4" d="M398.3,468h-4.3v4.3h4.3V468z"/>
	<path class="ste4" d="M391.5,338.8h-4.3v4.3h4.3V338.8z"/>
	<path class="ste4" d="M391.5,346h-4.3v4.3h4.3V346z"/>
	<path class="ste4" d="M391.5,353.1h-4.3v4.3h4.3V353.1z"/>
	<path class="ste4" d="M391.5,360.3h-4.3v4.3h4.3V360.3z"/>
	<path class="ste4" d="M391.5,367.5h-4.3v4.3h4.3V367.5z"/>
	<path class="ste4" d="M391.5,374.7h-4.3v4.3h4.3V374.7z"/>
	<path class="ste4" d="M391.5,381.9h-4.3v4.3h4.3V381.9z"/>
	<path class="ste4" d="M391.5,389h-4.3v4.3h4.3V389z"/>
	<path class="ste4" d="M391.5,396.2h-4.3v4.3h4.3V396.2z"/>
	<path class="ste4" d="M391.5,403.4h-4.3v4.3h4.3V403.4z"/>
	<path class="ste4" d="M391.5,410.5h-4.3v4.3h4.3V410.5z"/>
	<path class="ste4" d="M391.5,417.7h-4.3v4.3h4.3V417.7z"/>
	<path class="ste4" d="M391.5,424.9h-4.3v4.3h4.3V424.9z"/>
	<path class="ste4" d="M391.5,432.1h-4.3v4.3h4.3V432.1z"/>
	<path class="ste4" d="M391.5,439.3h-4.3v4.3h4.3V439.3z"/>
	<path class="ste4" d="M391.5,446.4h-4.3v4.3h4.3V446.4z"/>
	<path class="ste4" d="M391.5,453.6h-4.3v4.3h4.3V453.6z"/>
	<path class="ste4" d="M391.5,460.8h-4.3v4.3h4.3V460.8z"/>
	<path class="ste4" d="M391.5,468h-4.3v4.3h4.3V468z"/>
	<path class="ste4" d="M384.7,338.8h-4.3v4.3h4.3V338.8z"/>
	<path class="ste4" d="M384.7,346h-4.3v4.3h4.3V346z"/>
	<path class="ste4" d="M384.7,353.1h-4.3v4.3h4.3V353.1z"/>
	<path class="ste4" d="M384.7,360.3h-4.3v4.3h4.3V360.3z"/>
	<path class="ste4" d="M384.7,367.5h-4.3v4.3h4.3V367.5z"/>
	<path class="ste4" d="M384.7,374.7h-4.3v4.3h4.3V374.7z"/>
	<path class="ste4" d="M384.7,381.9h-4.3v4.3h4.3V381.9z"/>
	<path class="ste4" d="M384.7,389h-4.3v4.3h4.3V389z"/>
	<path class="ste4" d="M384.7,396.2h-4.3v4.3h4.3V396.2z"/>
	<path class="ste4" d="M384.7,403.4h-4.3v4.3h4.3V403.4z"/>
	<path class="ste4" d="M384.7,410.5h-4.3v4.3h4.3V410.5z"/>
	<path class="ste4" d="M384.7,417.7h-4.3v4.3h4.3V417.7z"/>
	<path class="ste4" d="M384.7,424.9h-4.3v4.3h4.3V424.9z"/>
	<path class="ste4" d="M384.7,432.1h-4.3v4.3h4.3V432.1z"/>
	<path class="ste4" d="M384.7,439.3h-4.3v4.3h4.3V439.3z"/>
	<path class="ste4" d="M377.9,338.8h-4.3v4.3h4.3V338.8z"/>
	<path class="ste4" d="M377.9,346h-4.3v4.3h4.3V346z"/>
	<path class="ste4" d="M377.9,353.1h-4.3v4.3h4.3V353.1z"/>
	<path class="ste4" d="M377.9,360.3h-4.3v4.3h4.3V360.3z"/>
	<path class="ste4" d="M377.9,367.5h-4.3v4.3h4.3V367.5z"/>
	<path class="ste4" d="M377.9,374.7h-4.3v4.3h4.3V374.7z"/>
	<path class="ste4" d="M377.9,381.9h-4.3v4.3h4.3V381.9z"/>
	<path class="ste4" d="M377.9,389h-4.3v4.3h4.3V389z"/>
	<path class="ste4" d="M377.9,396.2h-4.3v4.3h4.3V396.2z"/>
	<path class="ste4" d="M377.9,403.4h-4.3v4.3h4.3V403.4z"/>
	<path class="ste4" d="M377.9,410.5h-4.3v4.3h4.3V410.5z"/>
	<path class="ste4" d="M377.9,417.7h-4.3v4.3h4.3V417.7z"/>
	<path class="ste4" d="M377.9,424.9h-4.3v4.3h4.3V424.9z"/>
	<path class="ste4" d="M371.1,338.8h-4.3v4.3h4.3V338.8z"/>
	<path class="ste4" d="M371.1,346h-4.3v4.3h4.3V346z"/>
	<path class="ste4" d="M371.1,353.1h-4.3v4.3h4.3V353.1z"/>
	<path class="ste4" d="M371.1,360.3h-4.3v4.3h4.3V360.3z"/>
	<path class="ste4" d="M371.1,367.5h-4.3v4.3h4.3V367.5z"/>
	<path class="ste4" d="M371.1,374.7h-4.3v4.3h4.3V374.7z"/>
	<path class="ste4" d="M371.1,381.9h-4.3v4.3h4.3V381.9z"/>
	<path class="ste4" d="M371.1,389h-4.3v4.3h4.3V389z"/>
	<path class="ste4" d="M371.1,396.2h-4.3v4.3h4.3V396.2z"/>
	<path class="ste4" d="M371.1,403.4h-4.3v4.3h4.3V403.4z"/>
	<path class="ste4" d="M371.1,410.5h-4.3v4.3h4.3V410.5z"/>
	<path class="ste4" d="M371.1,417.7h-4.3v4.3h4.3V417.7z"/>
	<path class="ste4" d="M768,336.7h-4.3v4.3h4.3V336.7z"/>
	<path class="ste4" d="M768,343.8h-4.3v4.3h4.3V343.8z"/>
	<path class="ste4" d="M768,351h-4.3v4.3h4.3V351z"/>
	<path class="ste4" d="M768,358.2h-4.3v4.3h4.3V358.2z"/>
	<path class="ste4" d="M768,365.4h-4.3v4.3h4.3V365.4z"/>
	<path class="ste4" d="M768,372.5h-4.3v4.3h4.3V372.5z"/>
	<path class="ste4" d="M768,379.7h-4.3v4.3h4.3V379.7z"/>
	<path class="ste4" d="M768,386.9h-4.3v4.3h4.3V386.9z"/>
	<path class="ste4" d="M768,394.1h-4.3v4.3h4.3V394.1z"/>
	<path class="ste4" d="M768,401.2h-4.3v4.3h4.3V401.2z"/>
	<path class="ste4" d="M768,408.4h-4.3v4.3h4.3V408.4z"/>
	<path class="ste4" d="M768,415.6h-4.3v4.3h4.3V415.6z"/>
	<path class="ste4" d="M768,422.8h-4.3v4.3h4.3V422.8z"/>
	<path class="ste4" d="M768,429.9h-4.3v4.3h4.3V429.9z"/>
	<path class="ste4" d="M768,437.1h-4.3v4.3h4.3V437.1z"/>
	<path class="ste4" d="M768,444.3h-4.3v4.3h4.3V444.3z"/>
	<path class="ste4" d="M768,451.5h-4.3v4.3h4.3V451.5z"/>
	<path class="ste4" d="M768,465.8h-4.3v4.3h4.3V465.8z"/>
	<path class="ste4" d="M768,473h-4.3v4.3h4.3V473z"/>
	<path class="ste4" d="M768,480.2h-4.3v4.3h4.3V480.2z"/>
	<path class="ste4" d="M768,487.4h-4.3v4.3h4.3V487.4z"/>
	<path class="ste4" d="M768,494.5h-4.3v4.3h4.3V494.5z"/>
	<path class="ste4" d="M761.2,336.7h-4.3v4.3h4.3V336.7z"/>
	<path class="ste4" d="M761.2,343.8h-4.3v4.3h4.3V343.8z"/>
	<path class="ste4" d="M761.2,351h-4.3v4.3h4.3V351z"/>
	<path class="ste4" d="M761.2,358.2h-4.3v4.3h4.3V358.2z"/>
	<path class="ste4" d="M761.2,365.4h-4.3v4.3h4.3V365.4z"/>
	<path class="ste4" d="M761.2,372.5h-4.3v4.3h4.3V372.5z"/>
	<path class="ste4" d="M761.2,379.7h-4.3v4.3h4.3V379.7z"/>
	<path class="ste4" d="M761.2,386.9h-4.3v4.3h4.3V386.9z"/>
	<path class="ste4" d="M761.2,394.1h-4.3v4.3h4.3V394.1z"/>
	<path class="ste4" d="M761.2,401.2h-4.3v4.3h4.3V401.2z"/>
	<path class="ste4" d="M761.2,408.4h-4.3v4.3h4.3V408.4z"/>
	<path class="ste4" d="M761.2,415.6h-4.3v4.3h4.3V415.6z"/>
	<path class="ste4" d="M761.2,422.8h-4.3v4.3h4.3V422.8z"/>
	<path class="ste4" d="M761.2,429.9h-4.3v4.3h4.3V429.9z"/>
	<path class="ste4" d="M761.2,437.1h-4.3v4.3h4.3V437.1z"/>
	<path class="ste4" d="M761.2,444.3h-4.3v4.3h4.3V444.3z"/>
	<path class="ste4" d="M761.2,487.4h-4.3v4.3h4.3V487.4z"/>
	<path class="ste4" d="M761.2,494.5h-4.3v4.3h4.3V494.5z"/>
	<path class="ste4" d="M754.4,336.7h-4.3v4.3h4.3V336.7z"/>
	<path class="ste4" d="M754.4,343.8h-4.3v4.3h4.3V343.8z"/>
	<path class="ste4" d="M754.4,351h-4.3v4.3h4.3V351z"/>
	<path class="ste4" d="M754.4,358.2h-4.3v4.3h4.3V358.2z"/>
	<path class="ste4" d="M754.4,365.4h-4.3v4.3h4.3V365.4z"/>
	<path class="ste4" d="M754.4,372.5h-4.3v4.3h4.3V372.5z"/>
	<path class="ste4" d="M754.4,379.7h-4.3v4.3h4.3V379.7z"/>
	<path class="ste4" d="M754.4,386.9h-4.3v4.3h4.3V386.9z"/>
	<path class="ste4" d="M754.4,394.1h-4.3v4.3h4.3V394.1z"/>
	<path class="ste4" d="M754.4,401.2h-4.3v4.3h4.3V401.2z"/>
	<path class="ste4" d="M754.4,408.4h-4.3v4.3h4.3V408.4z"/>
	<path class="ste4" d="M754.4,415.6h-4.3v4.3h4.3V415.6z"/>
	<path class="ste4" d="M754.4,422.8h-4.3v4.3h4.3V422.8z"/>
	<path class="ste4" d="M754.4,429.9h-4.3v4.3h4.3V429.9z"/>
	<path class="ste4" d="M754.4,437.1h-4.3v4.3h4.3V437.1z"/>
	<path class="ste4" d="M754.4,444.3h-4.3v4.3h4.3V444.3z"/>
	<path class="ste4" d="M754.4,458.6h-4.3v4.3h4.3V458.6z"/>
	<path class="ste4" d="M754.4,465.8h-4.3v4.3h4.3V465.8z"/>
	<path class="ste4" d="M754.4,473h-4.3v4.3h4.3V473z"/>
	<path class="ste4" d="M754.4,480.2h-4.3v4.3h4.3V480.2z"/>
	<path class="ste4" d="M754.4,494.5h-4.3v4.3h4.3V494.5z"/>
	<path class="ste4" d="M635.8,386.9h-4.3v4.3h4.3V386.9z"/>
	<path class="ste4" d="M635.8,394.1h-4.3v4.3h4.3V394.1z"/>
	<path class="ste4" d="M635.8,401.2h-4.3v4.3h4.3V401.2z"/>
	<path class="ste4" d="M635.8,408.4h-4.3v4.3h4.3V408.4z"/>
	<path class="ste4" d="M635.8,415.6h-4.3v4.3h4.3V415.6z"/>
	<path class="ste4" d="M635.8,422.8h-4.3v4.3h4.3V422.8z"/>
	<path class="ste4" d="M635.8,429.9h-4.3v4.3h4.3V429.9z"/>
	<path class="ste4" d="M635.8,437.1h-4.3v4.3h4.3V437.1z"/>
	<path class="ste4" d="M635.8,444.3h-4.3v4.3h4.3V444.3z"/>
	<path class="ste4" d="M635.8,451.5h-4.3v4.3h4.3V451.5z"/>
	<path class="ste4" d="M635.8,458.6h-4.3v4.3h4.3V458.6z"/>
	<path class="ste4" d="M635.8,465.8h-4.3v4.3h4.3V465.8z"/>
	<path class="ste4" d="M635.8,473h-4.3v4.3h4.3V473z"/>
	<path class="ste4" d="M635.8,487.4h-4.3v4.3h4.3V487.4z"/>
	<path class="ste4" d="M635.8,494.5h-4.3v4.3h4.3V494.5z"/>
	<path class="ste4" d="M635.8,501.7h-4.3v4.3h4.3V501.7z"/>
	<path class="ste4" d="M635.8,508.9h-4.3v4.3h4.3V508.9z"/>
	<path class="ste4" d="M635.8,523.2h-4.3v4.3h4.3V523.2z"/>
	<path class="ste4" d="M635.8,530.4h-4.3v4.3h4.3V530.4z"/>
	<path class="ste4" d="M635.8,537.6h-4.3v4.3h4.3V537.6z"/>
	<path class="ste4" d="M629,386.9h-4.3v4.3h4.3V386.9z"/>
	<path class="ste4" d="M629,394.1h-4.3v4.3h4.3V394.1z"/>
	<path class="ste4" d="M629,401.2h-4.3v4.3h4.3V401.2z"/>
	<path class="ste4" d="M629,408.4h-4.3v4.3h4.3V408.4z"/>
	<path class="ste4" d="M629,415.6h-4.3v4.3h4.3V415.6z"/>
	<path class="ste4" d="M629,422.8h-4.3v4.3h4.3V422.8z"/>
	<path class="ste4" d="M629,429.9h-4.3v4.3h4.3V429.9z"/>
	<path class="ste4" d="M629,437.1h-4.3v4.3h4.3V437.1z"/>
	<path class="ste4" d="M629,444.3h-4.3v4.3h4.3V444.3z"/>
	<path class="ste4" d="M629,451.5h-4.3v4.3h4.3V451.5z"/>
	<path class="ste4" d="M629,458.6h-4.3v4.3h4.3V458.6z"/>
	<path class="ste4" d="M629,465.8h-4.3v4.3h4.3V465.8z"/>
	<path class="ste4" d="M629,473h-4.3v4.3h4.3V473z"/>
	<path class="ste4" d="M629,494.5h-4.3v4.3h4.3V494.5z"/>
	<path class="ste4" d="M629,501.7h-4.3v4.3h4.3V501.7z"/>
	<path class="ste4" d="M629,516h-4.3v4.3h4.3V516z"/>
	<path class="ste4" d="M629,523.2h-4.3v4.3h4.3V523.2z"/>
	<path class="ste4" d="M629,530.4h-4.3v4.3h4.3V530.4z"/>
	<path class="ste4" d="M629,537.6h-4.3v4.3h4.3V537.6z"/>
	<path class="ste4" d="M622.2,386.9h-4.3v4.3h4.3V386.9z"/>
	<path class="ste4" d="M622.2,394.1h-4.3v4.3h4.3V394.1z"/>
	<path class="ste4" d="M622.2,401.2h-4.3v4.3h4.3V401.2z"/>
	<path class="ste4" d="M622.2,408.4h-4.3v4.3h4.3V408.4z"/>
	<path class="ste4" d="M622.2,415.6h-4.3v4.3h4.3V415.6z"/>
	<path class="ste4" d="M622.2,422.8h-4.3v4.3h4.3V422.8z"/>
	<path class="ste4" d="M622.2,429.9h-4.3v4.3h4.3V429.9z"/>
	<path class="ste4" d="M622.2,437.1h-4.3v4.3h4.3V437.1z"/>
	<path class="ste4" d="M622.2,444.3h-4.3v4.3h4.3V444.3z"/>
	<path class="ste4" d="M622.2,451.5h-4.3v4.3h4.3V451.5z"/>
	<path class="ste4" d="M622.2,458.6h-4.3v4.3h4.3V458.6z"/>
	<path class="ste4" d="M622.2,465.8h-4.3v4.3h4.3V465.8z"/>
	<path class="ste4" d="M622.2,473h-4.3v4.3h4.3V473z"/>
	<path class="ste4" d="M622.2,480.2h-4.3v4.3h4.3V480.2z"/>
	<path class="ste4" d="M622.2,494.5h-4.3v4.3h4.3V494.5z"/>
	<path class="ste4" d="M622.2,508.9h-4.3v4.3h4.3V508.9z"/>
	<path class="ste4" d="M622.2,516h-4.3v4.3h4.3V516z"/>
	<path class="ste4" d="M622.2,523.2h-4.3v4.3h4.3V523.2z"/>
	<path class="ste4" d="M622.2,530.4h-4.3v4.3h4.3V530.4z"/>
	<path class="ste4" d="M622.2,537.6h-4.3v4.3h4.3V537.6z"/>
	<path class="ste4" d="M663.5,427.8h-4.3v4.3h4.3V427.8z"/>
	<path class="ste4" d="M663.5,435h-4.3v4.3h4.3V435z"/>
	<path class="ste4" d="M663.5,442.2h-4.3v4.3h4.3V442.2z"/>
	<path class="ste4" d="M663.5,449.3h-4.3v4.3h4.3V449.3z"/>
	<path class="ste4" d="M663.5,456.5h-4.3v4.3h4.3V456.5z"/>
	<path class="ste4" d="M663.5,463.7h-4.3v4.3h4.3V463.7z"/>
	<path class="ste4" d="M663.5,485.2h-4.3v4.3h4.3V485.2z"/>
	<path class="ste4" d="M663.5,492.4h-4.3v4.3h4.3V492.4z"/>
	<path class="ste4" d="M663.5,499.6h-4.3v4.3h4.3V499.6z"/>
	<path class="ste4" d="M663.5,506.7h-4.3v4.3h4.3V506.7z"/>
	<path class="ste4" d="M663.5,513.9h-4.3v4.3h4.3V513.9z"/>
	<path class="ste4" d="M663.5,521.1h-4.3v4.3h4.3V521.1z"/>
	<path class="ste4" d="M663.5,528.3h-4.3v4.3h4.3V528.3z"/>
	<path class="ste4" d="M656.7,427.8h-4.3v4.3h4.3V427.8z"/>
	<path class="ste4" d="M656.7,435h-4.3v4.3h4.3V435z"/>
	<path class="ste4" d="M656.7,442.2h-4.3v4.3h4.3V442.2z"/>
	<path class="ste4" d="M656.7,449.3h-4.3v4.3h4.3V449.3z"/>
	<path class="ste4" d="M656.7,456.5h-4.3v4.3h4.3V456.5z"/>
	<path class="ste4" d="M656.7,463.7h-4.3v4.3h4.3V463.7z"/>
	<path class="ste4" d="M656.7,485.2h-4.3v4.3h4.3V485.2z"/>
	<path class="ste4" d="M656.7,492.4h-4.3v4.3h4.3V492.4z"/>
	<path class="ste4" d="M656.7,499.6h-4.3v4.3h4.3V499.6z"/>
	<path class="ste4" d="M656.7,506.7h-4.3v4.3h4.3V506.7z"/>
	<path class="ste4" d="M656.7,513.9h-4.3v4.3h4.3V513.9z"/>
	<path class="ste4" d="M656.7,521.1h-4.3v4.3h4.3V521.1z"/>
	<path class="ste4" d="M656.7,535.4h-4.3v4.3h4.3V535.4z"/>
	<path class="ste4" d="M430.8,396.2h-4.3v4.3h4.3V396.2z"/>
	<path class="ste4" d="M430.8,403.4h-4.3v4.3h4.3V403.4z"/>
	<path class="ste4" d="M430.8,410.5h-4.3v4.3h4.3V410.5z"/>
	<path class="ste4" d="M430.8,417.7h-4.3v4.3h4.3V417.7z"/>
	<path class="ste4" d="M430.8,424.9h-4.3v4.3h4.3V424.9z"/>
	<path class="ste4" d="M430.8,432.1h-4.3v4.3h4.3V432.1z"/>
	<path class="ste4" d="M430.8,439.3h-4.3v4.3h4.3V439.3z"/>
	<path class="ste4" d="M430.8,446.4h-4.3v4.3h4.3V446.4z"/>
	<path class="ste4" d="M430.8,453.6h-4.3v4.3h4.3V453.6z"/>
	<path class="ste4" d="M430.8,460.8h-4.3v4.3h4.3V460.8z"/>
	<path class="ste4" d="M430.8,468h-4.3v4.3h4.3V468z"/>
	<path class="ste4" d="M430.8,482.3h-4.3v4.3h4.3V482.3z"/>
	<path class="ste4" d="M430.8,489.5h-4.3v4.3h4.3V489.5z"/>
	<path class="ste4" d="M430.8,496.7h-4.3v4.3h4.3V496.7z"/>
	<path class="ste4" d="M430.8,503.8h-4.3v4.3h4.3V503.8z"/>
	<path class="ste4" d="M430.8,511h-4.3v4.3h4.3V511z"/>
	<path class="ste4" d="M430.8,518.2h-4.3v4.3h4.3V518.2z"/>
	<path class="ste4" d="M430.8,525.4h-4.3v4.3h4.3V525.4z"/>
	<path class="ste4" d="M430.8,532.5h-4.3v4.3h4.3V532.5z"/>
	<path class="ste4" d="M424,396.2h-4.3v4.3h4.3V396.2z"/>
	<path class="ste4" d="M424,403.4h-4.3v4.3h4.3V403.4z"/>
	<path class="ste4" d="M424,410.5h-4.3v4.3h4.3V410.5z"/>
	<path class="ste4" d="M424,417.7h-4.3v4.3h4.3V417.7z"/>
	<path class="ste4" d="M424,424.9h-4.3v4.3h4.3V424.9z"/>
	<path class="ste4" d="M424,432.1h-4.3v4.3h4.3V432.1z"/>
	<path class="ste4" d="M424,439.3h-4.3v4.3h4.3V439.3z"/>
	<path class="ste4" d="M424,446.4h-4.3v4.3h4.3V446.4z"/>
	<path class="ste4" d="M424,453.6h-4.3v4.3h4.3V453.6z"/>
	<path class="ste4" d="M424,460.8h-4.3v4.3h4.3V460.8z"/>
	<path class="ste4" d="M424,468h-4.3v4.3h4.3V468z"/>
	<path class="ste4" d="M424,475.1h-4.3v4.3h4.3V475.1z"/>
	<path class="ste4" d="M424,482.3h-4.3v4.3h4.3V482.3z"/>
	<path class="ste4" d="M424,489.5h-4.3v4.3h4.3V489.5z"/>
	<path class="ste4" d="M424,496.7h-4.3v4.3h4.3V496.7z"/>
	<path class="ste4" d="M424,503.8h-4.3v4.3h4.3V503.8z"/>
	<path class="ste4" d="M424,511h-4.3v4.3h4.3V511z"/>
	<path class="ste4" d="M424,518.2h-4.3v4.3h4.3V518.2z"/>
	<path class="ste4" d="M424,525.4h-4.3v4.3h4.3V525.4z"/>
	<path class="ste4" d="M424,532.5h-4.3v4.3h4.3V532.5z"/>
	<path class="ste4" d="M464.3,424.1H460v4.3h4.3V424.1z"/>
	<path class="ste4" d="M464.3,431.3H460v4.3h4.3V431.3z"/>
	<path class="ste4" d="M464.3,438.5H460v4.3h4.3V438.5z"/>
	<path class="ste4" d="M464.3,445.7H460v4.3h4.3V445.7z"/>
	<path class="ste4" d="M464.3,452.9H460v4.3h4.3V452.9z"/>
	<path class="ste4" d="M464.3,460H460v4.3h4.3V460z"/>
	<path class="ste4" d="M464.3,467.2H460v4.3h4.3V467.2z"/>
	<path class="ste4" d="M464.3,474.4H460v4.3h4.3V474.4z"/>
	<path class="ste4" d="M464.3,481.5H460v4.3h4.3V481.5z"/>
	<path class="ste4" d="M464.3,488.7H460v4.3h4.3V488.7z"/>
	<path class="ste4" d="M457.5,424.1h-4.3v4.3h4.3V424.1z"/>
	<path class="ste4" d="M457.5,431.3h-4.3v4.3h4.3V431.3z"/>
	<path class="ste4" d="M457.5,438.5h-4.3v4.3h4.3V438.5z"/>
	<path class="ste4" d="M457.5,445.7h-4.3v4.3h4.3V445.7z"/>
	<path class="ste4" d="M457.5,452.9h-4.3v4.3h4.3V452.9z"/>
	<path class="ste4" d="M457.5,460h-4.3v4.3h4.3V460z"/>
	<path class="ste4" d="M457.5,467.2h-4.3v4.3h4.3V467.2z"/>
	<path class="ste4" d="M457.5,474.4h-4.3v4.3h4.3V474.4z"/>
	<path class="ste4" d="M457.5,481.5h-4.3v4.3h4.3V481.5z"/>
	<path class="ste1" d="M498,151.8h-7.2v400.2h7.2V151.8z"/>
	<path class="ste1" d="M633.1,151.8h-7.2v400.2h7.2V151.8z"/>
	<path class="ste1" d="M768.2,151.8h-7.2v400.2h7.2V151.8z"/>
	<path class="ste4" d="M257.4,513h44.3c2,0,3.9,0.8,5.4,2.2c1.4,1.4,2.2,3.3,2.2,5.4v85.6h-59.4v-85.5c0-1,0.2-2,0.5-2.9
		c0.4-0.9,0.9-1.8,1.6-2.5c0.7-0.7,1.5-1.3,2.4-1.7C255.4,513.3,256.4,513.1,257.4,513L257.4,513z"/>
	<path class="ste3" d="M309.3,525.7h-59.4v6.7h59.4V525.7z"/>
	<path class="ste1" d="M283.6,595h14.8c1.1,0,2.1,0.4,2.9,1.2s1.2,1.8,1.2,2.9v7.2h-23V599c0-1.1,0.4-2.1,1.2-2.9
		S282.5,594.9,283.6,595L283.6,595z"/>
	<path class="ste3" d="M302.6,606.2h-16.5c-0.7,0-1.4-0.3-1.9-0.8s-0.8-1.2-0.8-1.9c0-0.7,0.3-1.4,0.8-1.9s1.2-0.8,1.9-0.8h16.5
		c0.7,0,1.4,0.3,1.9,0.8s0.8,1.2,0.8,1.9c0,0.7-0.3,1.4-0.8,1.9S303.3,606.2,302.6,606.2z"/>
	<path class="ste1" d="M566.3,133c21.7-5.1,35.2-26.9,30.1-48.6c-5.1-21.7-26.9-35.2-48.6-30.1c-21.7,5.1-35.2,26.9-30.1,48.6
		C522.8,124.7,544.6,138.2,566.3,133z"/>
	<path class="ste4" d="M557,128c19,0,34.4-15.4,34.4-34.4c0-19-15.4-34.4-34.4-34.4c-19,0-34.4,15.4-34.4,34.4
		C522.6,112.6,538,128,557,128z"/>
	<path class="ste4" d="M558.7,70.1v24l15.9-9"/>
	<path class="ste1" d="M558.7,95.8c-0.3,0-0.6-0.1-0.9-0.2c-0.3-0.2-0.5-0.4-0.6-0.6c-0.1-0.3-0.2-0.6-0.2-0.9V70
		c0-0.4,0.2-0.8,0.5-1.1c0.3-0.3,0.7-0.5,1.2-0.5c0.4,0,0.9,0.2,1.2,0.5s0.5,0.7,0.5,1.1v21.2l13.4-7.6c0.4-0.2,0.9-0.3,1.3-0.2
		c0.4,0.1,0.8,0.4,1,0.8c0.2,0.4,0.3,0.9,0.2,1.3s-0.4,0.8-0.8,1l-15.9,9C559.2,95.7,559,95.8,558.7,95.8z"/>
	<path class="ste1" d="M170,488.4c-3.1-5.2-8.2-0.7-8.2-0.7c0.7-9.8-8.2-16.4-8.2-16.4s10.4,0,11.9-9.9c1.4-9.9-3.6-5.3-8.4-5.4
		s-9.8,13.9-3.4,21.7c6.3,7.9,4.6,21.2-9.9,34.1c-3.5,3.3-6.1,7.3-7.6,11.8c1.1-11.8,1.7-28.5-1.7-39.6c-5.9-18.9,5.4-24,8.6-33.5
		c3.2-9.4-8.6-17.4-8.6-17.4s11.2-5.1,5.7-10.9c-5.5-5.8-16.7-5-16.7,2.6c0,7.6,7.6,10.5,7.6,10.5s8.7,9.1,8.7,13.7
		c0,4.7-8.7,15-8.7,15s4-8.7-4-9.1c-8-0.4-10.5,10.2-7.3,14.9s8.7,0.7,8.7,0.7c0.4,5.5,1.2,11,2.5,16.3c0.8,2.7,0.4,13.4-0.2,24.5
		c-1.5-4-3.9-7.6-7.1-10.5c-14.5-12.9-16.2-26.3-9.9-34.1c6.3-7.8,1.3-21.8-3.4-21.7c-4.7,0.1-9.9-4.6-8.4,5.4s11.9,10,11.9,10
		s-9,6.7-8.3,16.4c0,0-5.2-4.4-8.2,0.7c-5.5,9.1,7.3,14.7,9.4,10.3c0,0,27.1,19.2,20.6,46.8l1.5,2.2c-0.2,2.2-0.3,3.6-0.3,3.6
		l2.1-0.9l2.4,3.5c-0.1,4,0.1,8,0.6,12l6.5-9.6c-6.5-27.6,20.6-46.8,20.6-46.8C162.8,503.1,175.6,497.5,170,488.4z"/>
	<path class="ste5" d="M170,488.4c-3.1-5.2-8.2-0.7-8.2-0.7c0.7-9.8-8.2-16.4-8.2-16.4s10.4,0,11.9-9.9c1.4-9.9-3.6-5.3-8.4-5.4
		s-9.8,13.9-3.4,21.7c6.3,7.9,4.6,21.2-9.9,34.1c-3.5,3.3-6.1,7.3-7.6,11.8c1.1-11.8,1.7-28.5-1.7-39.6c-5.9-18.9,5.4-24,8.6-33.5
		c3.2-9.4-8.6-17.4-8.6-17.4s11.2-5.1,5.7-10.9c-5.5-5.8-16.7-5-16.7,2.6c0,7.6,7.6,10.5,7.6,10.5s8.7,9.1,8.7,13.7
		c0,4.7-8.7,15-8.7,15s4-8.7-4-9.1c-8-0.4-10.5,10.2-7.3,14.9s8.7,0.7,8.7,0.7c0.4,5.5,1.2,11,2.5,16.3c0.8,2.7,0.4,13.4-0.2,24.5
		c-1.5-4-3.9-7.6-7.1-10.5c-14.5-12.9-16.2-26.3-9.9-34.1c6.3-7.8,1.3-21.8-3.4-21.7c-4.7,0.1-9.9-4.6-8.4,5.4s11.9,10,11.9,10
		s-9,6.7-8.3,16.4c0,0-5.2-4.4-8.2,0.7c-5.5,9.1,7.3,14.7,9.4,10.3c0,0,27.1,19.2,20.6,46.8l1.5,2.2c-0.2,2.2-0.3,3.6-0.3,3.6
		l2.1-0.9l2.4,3.5c-0.1,4,0.1,8,0.6,12l6.5-9.6c-6.5-27.6,20.6-46.8,20.6-46.8C162.8,503.1,175.6,497.5,170,488.4z"/>
	<path class="ste3" d="M164.7,606.2h-62.1l-6.7-68h75.5L164.7,606.2z"/>
	<path class="ste4" d="M174.8,530.8H92.6v15h82.1V530.8z"/>
	<path class="ste6" d="M473.9,187.3l-42.8,23c-1.2,0.6-1.6,2.1-1,3.2l13.6,25.3c0.6,1.2,2.1,1.6,3.2,1l42.8-23c1.2-0.6,1.6-2.1,1-3.2
		l-13.6-25.3C476.5,187.1,475,186.7,473.9,187.3z"/>
	<path class="ste7" d="M473.9,187.3l-42.8,23c-1.2,0.6-1.6,2.1-1,3.2l13.6,25.3c0.6,1.2,2.1,1.6,3.2,1l42.8-23c1.2-0.6,1.6-2.1,1-3.2
		l-13.6-25.3C476.5,187.1,475,186.7,473.9,187.3z"/>
	<path class="st8" d="M466.1,216.4c-0.5,1.1-1.4,2.1-2.5,2.7c-1.1,0.6-2.4,0.8-3.6,0.6l-28.3-4.2l27.8,2.8c1.1,0.1,2.2-0.1,3.1-0.6
		c1-0.5,1.7-1.3,2.2-2.2l13.3-25L466.1,216.4z"/>
	<path class="ste6" d="M498.2,188c-4.5-10.9-45-37.7-42.1-40.1s10.2,2.7,10.2,2.7s-4.1-4.7,0-5c4.1-0.3,12.9,5.2,12.9,5.2
		s-4.3-4.9,0-5.2c4.3-0.2,12.5,7.7,12.5,7.7s-5.7-8.2,2.9-2.3c8.6,5.9,15.7,25.1,16.1,34.7C511.1,195.3,502.7,198.9,498.2,188z"/>
	<path class="ste9" d="M498.2,188c-4.5-10.9-45-37.7-42.1-40.1s10.2,2.7,10.2,2.7s-4.1-4.7,0-5c4.1-0.3,12.9,5.2,12.9,5.2
		s-4.3-4.9,0-5.2c4.3-0.2,12.5,7.7,12.5,7.7s-5.7-8.2,2.9-2.3c8.6,5.9,15.7,25.1,16.1,34.7C511.1,195.3,502.7,198.9,498.2,188z"/>
	<path class="ste6" d="M480,189.2l-3.3,3.7c-0.1,0.1-0.1,0.1-0.2,0.1c-0.1,0-0.2,0-0.2,0c-0.1,0-0.2-0.1-0.3-0.2
		c-0.1-0.1-0.1-0.2-0.1-0.4l0.5-4.4l-5.7,0.4c-0.1,0-0.2,0-0.2,0c-0.1,0-0.1-0.1-0.2-0.2c0,0-0.1-0.1-0.1-0.2c0-0.1,0-0.1,0-0.2
		c0-0.1,0-0.1,0.1-0.2c0,0,0.1-0.1,0.1-0.1l5.4-3.4L480,189.2z"/>
	<path class="ste10" d="M480,189.2l-3.3,3.7c-0.1,0.1-0.1,0.1-0.2,0.1c-0.1,0-0.2,0-0.2,0c-0.1,0-0.2-0.1-0.3-0.2
		c-0.1-0.1-0.1-0.2-0.1-0.4l0.5-4.4l-5.7,0.4c-0.1,0-0.2,0-0.2,0c-0.1,0-0.1-0.1-0.2-0.2c0,0-0.1-0.1-0.1-0.2c0-0.1,0-0.1,0-0.2
		c0-0.1,0-0.1,0.1-0.2c0,0,0.1-0.1,0.1-0.1l5.4-3.4L480,189.2z"/>
	<path class="ste6" d="M535.5,179.6c3.9,13.7-4.4,29.4-19.9,29.2c-15.6-0.2-22.4-15.1-31-17.2c-8.6-2.1-10.9-6.4-8.8-10.6
		c2-4.2,7.5-4.2,18.8-0.6c9.5,3,21.4,3.3,26.3,0.6C529.8,176,533,161,533,161c11.3-3.3,18.8,1.8,18.8,1.8
		C544.9,166.7,539.2,172.5,535.5,179.6z"/>
	<path class="ste11" d="M535.5,179.6c3.9,13.7-4.4,29.4-19.9,29.2c-15.6-0.2-22.4-15.1-31-17.2c-8.6-2.1-10.9-6.4-8.8-10.6
		c2-4.2,7.5-4.2,18.8-0.6c9.5,3,21.4,3.3,26.3,0.6C529.8,176,533,161,533,161c11.3-3.3,18.8,1.8,18.8,1.8
		C544.9,166.7,539.2,172.5,535.5,179.6z"/>
	<path class="ste12" d="M480.8,183c0.2,0,0.4,0.1,0.5,0.3c0.1,0.1,0.2,0.3,0.2,0.5s-0.1,0.4-0.2,0.5c-0.1,0.1-0.3,0.2-0.5,0.3
		c-0.2,0-0.4-0.1-0.5-0.3c-0.1-0.1-0.2-0.3-0.2-0.5s0.1-0.4,0.2-0.5C480.5,183.1,480.6,183,480.8,183z"/>
	<path class="ste6" d="M521,183.8c11.7-1,49.7-31.2,51.1-27.7c1.5,3.6-5.7,8.8-5.7,8.8s5.8-2.4,4.7,1.5c-1,4-8.9,10.7-8.9,10.7
		s6.1-2.5,4.9,1.6c-1.1,4.2-11.1,9.5-11.1,9.5s9.5-2.9,1.2,3.4c-8.2,6.3-28.8,7.1-38,4.6S509.2,184.8,521,183.8z"/>
	<path class="ste9" d="M521,183.8c11.7-1,49.7-31.2,51.1-27.7c1.5,3.6-5.7,8.8-5.7,8.8s5.8-2.4,4.7,1.5c-1,4-8.9,10.7-8.9,10.7
		s6.1-2.5,4.9,1.6c-1.1,4.2-11.1,9.5-11.1,9.5s9.5-2.9,1.2,3.4c-8.2,6.3-28.8,7.1-38,4.6S509.2,184.8,521,183.8z"/>
	<path class="ste6" d="M579.7,154.7c-0.1,0-0.3-0.1-0.4-0.2c-0.1-0.1-0.2-0.2-0.2-0.4c0-0.1,0-0.3,0.1-0.4c0.1-0.1,0.2-0.2,0.3-0.3
		c1.6-0.7,3.3-1.2,4.9-1.7c0.1,0,0.2,0,0.3,0s0.2,0,0.3,0.1c0.1,0,0.2,0.1,0.2,0.2c0.1,0.1,0.1,0.1,0.1,0.2c0,0.1,0,0.2,0,0.3
		c0,0.1,0,0.2-0.1,0.3c0,0.1-0.1,0.1-0.2,0.2c-0.1,0.1-0.2,0.1-0.2,0.1c-1.6,0.5-3.3,1-4.9,1.6c-0.1,0-0.1,0-0.2,0V154.7z"/>
	<path class="ste6" d="M673,292.9c-0.2,0-0.3-0.1-0.4-0.3c-0.1-0.1-0.1-0.3-0.1-0.5c0-0.2,0.1-0.3,0.3-0.4c0.1-0.1,0.3-0.1,0.5-0.1
		c3.4,0.6,6.8,1,10.2,1c0.2,0,0.3,0.1,0.4,0.2c0.1,0.1,0.2,0.3,0.2,0.4c0,0.2-0.1,0.3-0.2,0.4c-0.1,0.1-0.2,0.2-0.4,0.2
		C680,293.9,676.5,293.6,673,292.9z M693.7,293.4c-0.1,0-0.3-0.1-0.4-0.2c-0.1-0.1-0.2-0.2-0.2-0.4c0-0.1,0-0.2,0-0.3
		c0-0.1,0.1-0.2,0.1-0.2c0.1-0.1,0.1-0.1,0.2-0.2c0.1,0,0.2-0.1,0.2-0.1c3.4-0.4,6.8-1,10.1-1.7c0.1,0,0.2,0,0.3,0
		c0.1,0,0.2,0,0.2,0.1c0.1,0,0.1,0.1,0.2,0.2c0,0.1,0.1,0.2,0.1,0.2c0,0.1,0,0.2,0,0.3c0,0.1,0,0.2-0.1,0.2c0,0.1-0.1,0.1-0.2,0.2
		c-0.1,0-0.2,0.1-0.2,0.1c-3.4,0.8-6.8,1.4-10.3,1.7L693.7,293.4z M663.3,290c-0.1,0-0.2,0-0.3-0.1c-3.2-1.4-6.2-3.3-8.9-5.6
		c-0.1-0.1-0.2-0.3-0.2-0.5c0-0.2,0-0.3,0.2-0.5s0.3-0.2,0.5-0.2c0.2,0,0.3,0,0.5,0.2c2.6,2.2,5.5,4,8.6,5.4
		c0.2,0.1,0.3,0.2,0.3,0.4c0.1,0.2,0,0.3,0,0.5c0,0.1-0.1,0.2-0.2,0.3C663.5,289.9,663.3,289.9,663.3,290L663.3,290z M713.3,288.4
		c-0.1-0.2,0-0.3,0-0.5c0.1-0.2,0.2-0.3,0.4-0.3c3.2-1.1,6.5-2.3,9.6-3.7c0.1,0,0.3,0,0.4,0s0.3,0.2,0.3,0.3c0,0.1,0.1,0.2,0.1,0.2
		c0,0.1,0,0.2,0,0.3c0,0.1-0.1,0.2-0.1,0.2s-0.1,0.1-0.2,0.2c-3.2,1.4-6.5,2.7-9.7,3.8h-0.2c-0.1,0-0.3,0-0.4-0.1
		C713.4,288.6,713.3,288.5,713.3,288.4z M732.9,280.5c-0.1,0-0.3,0-0.4,0c-0.1-0.1-0.2-0.1-0.3-0.2c0-0.1-0.1-0.2-0.1-0.2
		c0-0.1,0-0.2,0-0.2c0-0.1,0.1-0.2,0.1-0.2s0.1-0.1,0.2-0.2c3-1.7,6-3.5,8.7-5.5c0.1-0.1,0.3-0.1,0.5-0.1s0.3,0.1,0.4,0.3
		c0,0.1,0.1,0.1,0.1,0.2c0,0.1,0,0.2,0,0.2c0,0.1,0,0.2-0.1,0.2c0,0.1-0.1,0.1-0.2,0.2c-2.8,1.9-5.8,3.8-8.8,5.5c-0.1,0-0.2,0-0.3,0
		L732.9,280.5z M648,276.6c-0.1,0-0.3,0-0.4,0c-0.1,0-0.2-0.1-0.3-0.2c-0.5-1-1.1-2-1.5-3c-1-2.2-1.8-4.4-2.3-6.8c0-0.1,0-0.2,0-0.3
		c0-0.1,0-0.2,0.1-0.2c0-0.1,0.1-0.1,0.2-0.2c0.1-0.1,0.1-0.1,0.2-0.1c0.2,0,0.3,0,0.5,0.1c0.1,0.1,0.3,0.2,0.3,0.4
		c0.5,2.2,1.3,4.4,2.2,6.5c0.5,1,1,2,1.5,2.9c0,0.1,0.1,0.2,0.1,0.2s0,0.2,0,0.2c0,0.1-0.1,0.2-0.1,0.2c-0.1,0.1-0.1,0.1-0.2,0.2
		c-0.1,0-0.2,0-0.3,0L648,276.6z M749.8,268.6c-0.1,0-0.2-0.1-0.3-0.1c-0.1-0.1-0.1-0.1-0.2-0.2c-0.1-0.1-0.2-0.3-0.2-0.5
		c0-0.2,0.1-0.3,0.2-0.5c2.6-2.3,5-4.7,7.2-7.3c0.1-0.1,0.1-0.1,0.2-0.1c0.1,0,0.2,0,0.2,0s0.2,0,0.2,0c0.1,0,0.1,0.1,0.2,0.1
		c0.1,0.1,0.2,0.3,0.2,0.5c0,0.2-0.1,0.3-0.2,0.5c-2.3,2.6-4.7,5.1-7.3,7.4c-0.1,0.1-0.3,0.2-0.4,0.2L749.8,268.6z M642.9,256.6
		c-0.2,0-0.3-0.1-0.5-0.2c-0.1-0.1-0.2-0.3-0.2-0.5c0-3.5,0.4-7,1-10.4c0-0.2,0.1-0.3,0.3-0.4c0.1-0.1,0.3-0.1,0.5-0.1
		c0.1,0,0.2,0,0.2,0.1c0.1,0,0.1,0.1,0.2,0.2c0,0.1,0.1,0.1,0.1,0.2c0,0.1,0,0.2,0,0.2c-0.6,3.4-0.9,6.8-0.9,10.2c0,0.1,0,0.2,0,0.2
		c0,0.1-0.1,0.1-0.1,0.2c-0.1,0.1-0.1,0.1-0.2,0.1C643.1,256.6,643.1,256.6,642.9,256.6L642.9,256.6z M646.2,236.2
		c-0.2-0.1-0.3-0.2-0.4-0.3c-0.1-0.2-0.1-0.3-0.1-0.5c0.9-3,2-6.2,3.3-9.8c0.1-0.2,0.2-0.3,0.3-0.4c0.2-0.1,0.3-0.1,0.5,0
		c0.2,0.1,0.3,0.2,0.3,0.3c0.1,0.2,0.1,0.3,0,0.5c-1.3,3.6-2.4,6.8-3.3,9.8c0,0.1-0.1,0.2-0.2,0.3c-0.1,0.1-0.2,0.1-0.4,0.1
		L646.2,236.2z M653.2,216.7c-0.1,0-0.2-0.1-0.2-0.1c-0.1-0.1-0.1-0.1-0.1-0.2c0-0.1,0-0.2,0-0.3c0-0.1,0-0.2,0.1-0.3
		c1.1-2.7,2.6-5.8,4.1-9.2v-0.2c0.1-0.1,0.2-0.2,0.4-0.3c0.2,0,0.3,0,0.5,0c0.1,0.1,0.3,0.2,0.3,0.3c0.1,0.1,0.1,0.3,0,0.5v0.2
		c-1.6,3.4-3.1,6.5-4.2,9.2c0,0.1-0.1,0.2-0.2,0.3c-0.1,0.1-0.2,0.1-0.3,0.1L653.2,216.7z M662,198c-0.1,0-0.2-0.1-0.2-0.1
		c-0.2-0.1-0.3-0.2-0.3-0.4c-0.1-0.2-0.1-0.3,0-0.5c1.5-3.6,2.8-6.7,3.7-9.6c0.1-0.2,0.2-0.3,0.3-0.4c0.2-0.1,0.3-0.1,0.5,0
		c0.2,0.1,0.3,0.2,0.4,0.3c0.1,0.2,0.1,0.3,0,0.5c-1,2.9-2.2,6.1-3.8,9.7c-0.1,0.1-0.1,0.2-0.2,0.3C662.3,197.9,662.2,197.9,662,198
		L662,198z M668.2,178.2c-0.2,0-0.3-0.1-0.4-0.3c-0.1-0.1-0.1-0.3-0.1-0.5c0.3-1.8,0.4-3.6,0.4-5.4c0-1.6-0.1-3.2-0.4-4.7
		c0-0.1,0-0.3,0.1-0.4c0.1-0.1,0.2-0.2,0.3-0.3c0.1,0,0.2,0,0.3,0c0.1,0,0.2,0,0.2,0.1s0.1,0.1,0.2,0.2c0.1,0.1,0.1,0.1,0.1,0.2
		c0.3,1.6,0.5,3.3,0.5,5c0,1.9-0.2,3.7-0.5,5.6c0,0.2-0.1,0.3-0.2,0.4c-0.1,0.1-0.3,0.2-0.4,0.2L668.2,178.2z M663.8,158.8
		c-0.1,0-0.2,0-0.3-0.1c-0.1-0.1-0.2-0.1-0.2-0.2c-2.2-2.6-4.9-4.7-7.9-6.2c-0.1-0.1-0.3-0.2-0.3-0.4c-0.1-0.2,0-0.3,0-0.5
		c0.1-0.1,0.2-0.3,0.4-0.3c0.2,0,0.3,0,0.5,0c3.1,1.6,6,3.9,8.3,6.5c0.1,0.1,0.2,0.3,0.2,0.5c0,0.2-0.1,0.3-0.2,0.5
		C664.1,158.7,664,158.7,663.8,158.8L663.8,158.8z M594.5,150.3c-0.1,0-0.3-0.1-0.4-0.1c-0.1-0.1-0.2-0.2-0.2-0.4c0-0.1,0-0.2,0-0.3
		c0-0.1,0-0.2,0.1-0.2c0-0.1,0.1-0.1,0.2-0.2c0.1,0,0.1-0.1,0.2-0.1c3.4-0.7,6.9-1.3,10.3-1.7c0.1,0,0.2,0,0.2,0
		c0.1,0,0.2,0.1,0.2,0.1c0.1,0.1,0.1,0.1,0.2,0.2c0,0.1,0.1,0.2,0.1,0.2c0,0.1,0,0.2,0,0.2c0,0.1-0.1,0.2-0.1,0.2
		c-0.1,0.1-0.1,0.1-0.2,0.2c-0.1,0-0.2,0.1-0.2,0.1c-3.5,0.4-6.9,1-10.2,1.7L594.5,150.3L594.5,150.3z M646,148.9
		c-3.3-0.8-6.7-1.2-10.1-1.5c-0.2,0-0.3-0.1-0.4-0.2c-0.1-0.1-0.2-0.3-0.1-0.5c0-0.2,0.1-0.3,0.2-0.4c0.1-0.1,0.3-0.2,0.5-0.2
		c3.5,0.2,6.9,0.7,10.3,1.5c0.1,0,0.2,0,0.2,0.1c0.1,0,0.1,0.1,0.2,0.2c0.1,0.1,0.1,0.1,0.1,0.2c0,0.1,0,0.2,0,0.2
		c0,0.2-0.1,0.3-0.2,0.4c-0.1,0.1-0.3,0.2-0.5,0.1L646,148.9z M615.1,147.8c-0.2,0-0.3-0.1-0.4-0.2c-0.1-0.1-0.1-0.3-0.1-0.4
		c0-0.1,0-0.2,0-0.2c0-0.1,0.1-0.2,0.1-0.2c0.1-0.1,0.1-0.1,0.2-0.1c0.1,0,0.2-0.1,0.2-0.1c2.9-0.2,6.5-0.4,10.3-0.5
		c0.2,0,0.3,0.1,0.4,0.2c0.1,0.1,0.2,0.3,0.2,0.4c0,0.2-0.1,0.3-0.2,0.5c-0.1,0.1-0.3,0.2-0.5,0.2c-3.8,0.1-7.3,0.3-10.3,0.5
		L615.1,147.8z"/>
	<path class="ste6" d="M763.1,252.7c-0.1,0-0.3,0-0.4-0.1c-0.1,0-0.1-0.1-0.2-0.2c0-0.1-0.1-0.1-0.1-0.2c0-0.1,0-0.2,0-0.2
		c0-0.1,0.1-0.2,0.1-0.2c0.8-1.5,1.6-3,2.2-4.5c0.1-0.2,0.2-0.3,0.4-0.3c0.2-0.1,0.3-0.1,0.5,0c0.2,0.1,0.3,0.2,0.3,0.4
		s0.1,0.3,0,0.5c-0.7,1.6-1.5,3.2-2.3,4.7c-0.1,0.1-0.1,0.2-0.2,0.2C763.3,252.7,763.2,252.7,763.1,252.7L763.1,252.7z"/>
	<path class="ste13" d="M184.6,275.9L202.5,466h9.2l-18.8-190.5L184.6,275.9z"/>
	<path class="ste13" d="M210,275.9l12.1,187.6h7.5l-10.4-188L210,275.9z"/>
	<path class="ste13" d="M208.8,640.6h-9.2V479.3h13.8L208.8,640.6z"/>
	<path class="ste13" d="M260.9,639.8h-9.2L248,479.3h13.7L260.9,639.8z"/>
	<path class="ste13" d="M274.6,640.2h9.2l3.8-160.5h-13.8L274.6,640.2z"/>
	<path class="ste13" d="M344.2,640.2h9.2l0.4-159.2h-13.8L344.2,640.2z"/>
	<path class="ste14" d="M270.9,460.1h-72.9v21.7h72.9V460.1z"/>
	<path class="ste15" d="M356.3,460.1h-85.4v21.7h85.4V460.1z"/>
	<path class="ste16" d="M280.5,606v17.1h19.6v-19.2L280.5,606z"/>
	<path class="ste6" d="M279.6,638.2v-16.4l20.5-0.3l22.9,12.1c0.6,0.3,1.2,0.8,1.5,1.4c0.4,0.6,0.6,1.3,0.6,2c0,1-0.4,2-1.1,2.8
		c-0.7,0.7-1.7,1.2-2.7,1.2l-38.4,0.4c-0.4,0-0.8-0.1-1.2-0.2c-0.4-0.2-0.7-0.4-1-0.7c-0.3-0.3-0.5-0.6-0.7-1
		C279.7,639.1,279.6,638.7,279.6,638.2z"/>
	<path class="ste16" d="M370.5,605.6v17.1h19.6v-19.2L370.5,605.6z"/>
	<path class="ste6" d="M369.7,637.8v-16.4l20.5-0.3l22.9,12.1c0.6,0.3,1.2,0.8,1.5,1.4c0.4,0.6,0.6,1.3,0.6,2c0,1-0.4,2-1.1,2.8
		c-0.7,0.7-1.7,1.2-2.8,1.2l-38.4,0.4c-0.4,0-0.8-0.1-1.2-0.2c-0.4-0.2-0.7-0.4-1-0.7c-0.3-0.3-0.5-0.6-0.7-1
		C369.8,638.7,369.7,638.2,369.7,637.8z"/>
	<path class="ste17" d="M144.2,640.6h6.2l33.8-250.1h-6.7L144.2,640.6z"/>
	<path class="ste17" d="M265.5,640.6h-6.2l-33.8-250.1h6.7L265.5,640.6z"/>
	<path class="ste17" d="M247.1,527.6h-85.9v6.7h85.9V527.6z"/>
	<path class="ste17" d="M471.4,640.6h6.2l33.8-250.1h-6.7L471.4,640.6z"/>
	<path class="ste17" d="M592.7,640.6h-6.3l-33.8-250.1h6.7L592.7,640.6z"/>
	<path class="ste17" d="M574.3,527.6h-85.9v6.7h85.9V527.6z"/>
	<path class="ste14" d="M292.1,253l0.8,25.4l-111.7,2.5l-1.2-24.6L292.1,253z"/>
	<path class="ste18" d="M588.5,382.2H163.8c-3.7,0-6.7,3-6.7,6.7s3,6.7,6.7,6.7h424.7c3.7,0,6.7-3,6.7-6.7S592.2,382.2,588.5,382.2z"
		/>
	<path class="ste12" d="M268.8,613.9h52.5l8.8-115c0,0,0.4-16.7-0.8-24.6c0,0,21.7,14.2,26.7,16.7l-1.5,114.4c0,0,35.3,8.1,51.5,3.1
		l5.8-124.6c0,0,4.2-31.3-20-51.3l-44-36.9l-114.1-0.4c0,0-12,45.7,12.6,71.9l24.6,24.5c1,1,1.7,2.1,2.2,3.4c0.5,1.3,0.7,2.6,0.7,4
		L268.8,613.9z"/>
	<path class="st8" d="M329.2,474.3c0,0,1.2-15-10.4-32.1l-22.5-37.1c0,0,47.4,37.8,66.1,58.8c4.4,4.9,6.8,11.3,6.7,17.8l-1.6,126
		c-4.4-0.5-8.8-1.3-13.1-2.3l1.5-114.3L329.2,474.3z"/>
	<path class="ste6" d="M299.4,258.9L255,269.2c0,0-21.7,0.4-28.3,23.8l-9.8,51.5l23.6,16.9l19.3,20.8H383l-6.7-81.2
		c0,0-6.3-22.6-49.4-32.4L299.4,258.9z"/>
	<path class="st8" d="M262.1,291.7l-2,35.8l-0.4,54.7h30.7C290.5,382.1,271.3,328.8,262.1,291.7z"/>
	<path class="st8" d="M348.4,382.1h19.3c0,0-12.2-42.1-12.6-75.4L348.4,382.1z"/>
	<path class="ste12" d="M490.1,261.3H371c-5.8,0-10.5,4.7-10.5,10.5v75.3c0,5.8,4.7,10.5,10.5,10.5h119.1c5.8,0,10.5-4.7,10.5-10.5
		v-75.3C500.5,266,495.9,261.3,490.1,261.3z"/>
	<path class="st8" d="M490.2,261.3H370.8c-5.7,0-10.3,4.6-10.3,10.3v75.6c0,5.7,4.6,10.3,10.3,10.3h119.4c5.7,0,10.3-4.6,10.3-10.3
		v-75.6C500.5,265.9,495.9,261.3,490.2,261.3z"/>
	<path class="ste16" d="M438.2,242.3c0,0.4-0.2,0.8-0.5,1.1c-0.3,0.3-0.7,0.5-1.1,0.6l-13.1,1.9c0,0,4.2,0.8,4.2,3.3
		c0,0,0.8,1.7-1.7,3.3c0.5,0.8,0.7,1.8,0.6,2.8c-0.1,1-0.4,1.9-1,2.6c0,0,1.1,2.7-0.5,3.4l-29.5-0.1c0,0,10-18.8,26.3-20.8l14-0.3
		h0.4c0.3,0,0.5,0.1,0.8,0.2c0.3,0.1,0.5,0.3,0.7,0.5c0.2,0.2,0.3,0.4,0.4,0.7S438.2,242,438.2,242.3z"/>
	<path class="ste19" d="M438.2,242.3c0,0.4-0.2,0.8-0.5,1.1c-0.3,0.3-0.7,0.5-1.1,0.6l-13.1,1.9c-4.4-0.3-8.8,0.9-12.5,3.3
		c2.9-5.8,15.8-5.8,15.8-5.8c5.9-0.4,8.2-1.9,9-3.3h0.4c0.3,0,0.5,0.1,0.8,0.2c0.3,0.1,0.5,0.3,0.7,0.5c0.2,0.2,0.3,0.4,0.4,0.7
		S438.2,242,438.2,242.3z"/>
	<path class="ste20" d="M424.3,253.4l-6.3,6.2c0,0-1.4,1.4-8,1.8"/>
	<path class="ste16" d="M326.7,253.4v17.3c0,3.6-1.4,7-4,9.6c-2.5,2.5-6,4-9.6,4s-7-1.4-9.6-4c-2.5-2.5-4-6-4-9.6v-26.5l4.4-1.8
		L326.7,253.4z"/>
	<path class="ste19" d="M326.7,253.4v12.3c-3.7-0.2-13.6-1.9-19.8-14.7L326.7,253.4z"/>
	<path class="ste6" d="M336.7,237.1c4.1,0,7.5-4.8,7.5-10.6c0-5.9-3.4-10.6-7.5-10.6s-7.5,4.8-7.5,10.6
		C329.2,232.4,332.6,237.1,336.7,237.1z"/>
	<path class="st8" d="M335.9,235c3,0,5.4-3.4,5.4-7.7c0-4.2-2.4-7.7-5.4-7.7s-5.4,3.4-5.4,7.7C330.5,231.6,332.9,235,335.9,235z"/>
	<path class="ste16" d="M334.9,216.6c-3.7-10-14.9-15.1-24.9-11.4c-10,3.7-15.1,14.9-11.4,24.9l6,16c3.7,10,14.9,15.1,24.9,11.4
		c10-3.7,15.1-14.9,11.4-24.9L334.9,216.6z"/>
	<path class="ste12" d="M290.4,238.6c0,0-10.6-12.9-3-30.9c0.6-1.6,1.7-2.9,3.1-3.8c0.9-0.6,2-1,3.1-1c1.1,0,2.2,0.3,3.1,0.9
		c0,0,0-0.2,0.1-0.6c0.3-1.5,0.8-3,1.7-4.3c0.8-1.3,1.9-2.4,3.2-3.3c1.3-0.9,2.7-1.5,4.3-1.8c1.5-0.3,3.1-0.3,4.6,0
		c5.4,1,10.9,1.1,16.3,0.3c0.9-0.1,1.8-0.3,2.7-0.6c3.1-0.9,13.4-2.7,14.1,11.1c0,0,2.5,7.2-8.6,12.6l-1.7-3.5
		c-0.9-1.5-2-2.9-3.4-4.1c0,0-11.4,9.6-25.6,7.1l-1.6,5L290.4,238.6z"/>
	<path class="ste16" d="M299,235h6v12.1h-6c-1.6,0-3.1-0.6-4.2-1.8c-1.1-1.1-1.8-2.7-1.8-4.2c0-0.8,0.1-1.6,0.4-2.3
		c0.3-0.7,0.7-1.4,1.3-2c0.6-0.6,1.2-1,2-1.3C297.4,235.2,298.2,235,299,235z"/>
	<path class="ste6" d="M297.6,222.9c0,0-2.5-21,13.1-29.3l3.5,0.6c0,0-12,12.1-9.1,28.3L297.6,222.9z"/>
	<path class="ste15" d="M301.7,245c4.6,0,8.3-5.3,8.3-11.9c0-6.6-3.7-11.9-8.3-11.9c-4.6,0-8.3,5.3-8.3,11.9
		C293.4,239.7,297.1,245,301.7,245z"/>
	<path class="ste6" d="M297.6,243.4c4.6,0,8.3-4.6,8.3-10.2c0-5.6-3.7-10.2-8.3-10.2s-8.3,4.6-8.3,10.2
		C289.2,238.8,293,243.4,297.6,243.4z"/>
	<path class="st8" d="M296.9,240c3.1,0,5.6-3.3,5.6-7.3s-2.5-7.3-5.6-7.3c-3.1,0-5.6,3.3-5.6,7.3S293.8,240,296.9,240z"/>
	<path class="ste6" d="M245.7,385.9c17.1,0,31-13.8,31-30.8c0-17-13.9-30.8-31-30.8c-17.1,0-31.1,13.8-31.1,30.8
		C214.6,372.1,228.5,385.9,245.7,385.9z"/>
	<path class="ste16" d="M300.1,359.2c0,0-71.7,39.2-80,2.5c0,0-7.1-28.3,24.2-28.3c0,0,23.8-0.4,58.4,6.7l35.4,7.3
		c3.2,0.7,6.1,2.4,8.2,5l15.5,19c0.2,0.2,0.3,0.4,0.3,0.7c0.1,0.2,0.1,0.5,0,0.8c0,0.3-0.1,0.5-0.3,0.7c-0.1,0.2-0.3,0.4-0.6,0.5
		c-0.3,0.2-0.7,0.3-1.1,0.2c-0.4,0-0.7-0.2-1-0.5L341.7,358l3.1,8.3c0.3,0.8,0.4,1.7,0.4,2.6c-0.1,0.9-0.4,1.7-0.8,2.5
		c-1,1.6-2.9,2.9-6.4,2.1c0,0-2.5,2.5-6.7,0c0,0-3.5,2.1-12.1,2.5c-0.2,0-0.5,0-0.6-0.1c-0.2-0.1-0.3-0.3-0.4-0.5
		c-0.1-0.2-0.1-0.4,0-0.7c0.1-0.2,0.2-0.4,0.4-0.5c1.6-1.5,4.1-3.4,6.6-3.2l-2.5-5.8C322.6,365.1,305.9,367.6,300.1,359.2z"/>
	<path class="ste20" d="M330.9,352.2c0,0,9.2-0.8,10.8,5.8"/>
	<path class="ste20" d="M327.1,353.8l5.1,2.4c1.4,0.7,2.6,1.7,3.4,2.9c0.9,1.3,1.4,2.7,1.5,4.2l0.8,10"/>
	<path class="ste20" d="M331.3,373.4l-0.3-6.6c0-1.1-0.3-2.1-0.8-3.1c-0.5-1-1.2-1.8-2-2.5l-4-3.3"/>
	<path class="ste12" d="M494.2,261.3H381.9c-7.7,0-13.9,6.2-13.9,13.9v68.5c0,7.7,6.2,13.9,13.9,13.9h112.3c7.7,0,13.9-6.2,13.9-13.9
		v-68.5C508,267.5,501.8,261.3,494.2,261.3z"/>
	<path class="ste6" d="M464.5,270.9L464.5,270.9c-2,0-3.5,1.6-3.5,3.5v14.2c0,2,1.6,3.5,3.5,3.5h0c2,0,3.5-1.6,3.5-3.5v-14.2
		C468,272.5,466.5,270.9,464.5,270.9z"/>
	<path class="ste6" d="M475.3,270.9L475.3,270.9c-2,0-3.5,1.6-3.5,3.5v14.2c0,2,1.6,3.5,3.5,3.5h0c2,0,3.5-1.6,3.5-3.5v-14.2
		C478.9,272.5,477.3,270.9,475.3,270.9z"/>
	<path class="ste6" d="M486.6,270.9L486.6,270.9c-2,0-3.5,1.6-3.5,3.5v14.2c0,2,1.6,3.5,3.5,3.5h0c2,0,3.5-1.6,3.5-3.5v-14.2
		C490.1,272.5,488.5,270.9,486.6,270.9z"/>
	<path class="ste6" d="M423,309.2l15.8,68.3h-48.3c-0.3,0-0.7,0.1-1,0.2c-0.3,0.1-0.6,0.3-0.8,0.5c-0.2,0.2-0.4,0.5-0.5,0.8
		s-0.2,0.6-0.2,1c0,0.7,0.3,1.3,0.7,1.8c0.5,0.5,1.1,0.7,1.8,0.7H461c0.9,0,1.8-0.2,2.6-0.6c0.8-0.4,1.5-1,2.1-1.7
		c0.6-0.7,1-1.5,1.2-2.4c0.2-0.9,0.2-1.8,0.1-2.7l-13.5-65.6L423,309.2z"/>
	<path class="st8" d="M423,309.2l-0.3,48.2l11.4,0.3L423,309.2z"/>
	<path class="ste6" d="M110.3,515.3c-10.5-21.6-29-32.7-49.7-26.6s-23.9,35.1-8.4,42.4s31-14,39.1-18.4
		C99.5,508.3,110.3,515.3,110.3,515.3z"/>
	<path class="ste12" d="M120.5,573c0-2.6-0.2-5.2-0.3-7.8c-0.2-5.2-0.4-10.4-0.6-15.6c-0.3-9.5-1.4-18.9-5.3-27.6
		c-3.5-7.9-9.3-14.6-16.7-19.2c-2.7-1.7-5.7-2.9-8.8-3.8c-2.8-2.8-6.3-4.8-10.2-5.6c-4.8-1-9.7-1.1-14.6-0.4c-0.2,0-0.2,0.3,0,0.3
		c4.6-0.6,9.3-0.2,13.8,1c1.9,0.5,3.8,1.2,5.6,2.1c1.1,0.6,2.2,1.3,3.2,2c-4.2-0.9-8.5-0.8-12.7,0.1c-1.5,0.4-3,0.8-4.4,1.4
		c-1.1-0.3-2.3-0.4-3.4-0.3c-1.5,0.1-3,0.3-4.5,0.6c-3,0.8-5.9,2.1-8.5,3.7c-0.2,0,0,0.3,0.2,0.2c2.6-1.5,5.4-2.5,8.3-3.2
		c1.4-0.3,2.8-0.5,4.3-0.6c0.8,0,1.6,0,2.4,0c-5.9,2.7-10.7,7.5-13.4,13.3c0,0.2,0.2,0.3,0.2,0.1c1.6-3.4,4-6.4,7-8.8
		c3-2.4,6.4-4,10.1-4.9c0.5-0.1,0.9-0.2,1.4-0.2c-0.1,0.7-0.2,1.4-0.2,2.1c-0.2,1-0.3,2.1-0.5,3.1c-0.4,2.1-1,4.3-1.7,6.3
		c-0.7,2.1-1.6,4.1-2.6,6.1c-0.9,2.1-2.1,4.1-3.5,6c0,0-0.1,0.1-0.1,0.1c0,0,0,0.1,0,0.1c0,0,0.1,0,0.1,0c0,0,0.1,0,0.1,0
		c0,0,0,0,0.1-0.1c1.2-2,2.7-3.8,3.8-5.8c1.1-1.9,2-3.9,2.8-6c0.8-2.1,1.4-4.3,1.8-6.5c0.2-1.2,0.4-2.3,0.5-3.5
		c0.1-0.7,0.2-1.4,0.2-2.2c2.4-0.4,4.9-0.4,7.3-0.1c-0.9,5.2-1.9,10.5-4.8,15c-0.1,0.1,0.2,0.3,0.3,0.1c1.4-2.4,2.6-4.8,3.6-7.4
		c1-2.5,1.6-5,1.8-7.7c4.3,0.6,8.4,2,12.2,4.1c7.1,4.1,12.8,10.3,16.2,17.8c3.6,8,5.7,16.6,6,25.3c0.7,11,0.8,22.2,1.9,33.2
		c0,0.7,1.2,1,1.3,0.1C120.5,577.8,120.6,575.4,120.5,573z"/>
	<path class="ste12" d="M96.1,500.9c-0.7-0.8-1.5-1.5-2.4-2.2c-0.9-0.7-1.8-1.4-2.7-2c-1.8-1.3-3.9-2.2-6-2.8c-0.2,0-0.3,0.2,0,0.3
		c2.1,0.5,4.1,1.5,5.9,2.9c0.9,0.6,1.7,1.3,2.6,2.1c0.7,0.8,1.5,1.4,2.4,2C96.1,501.2,96.3,501,96.1,500.9z"/>
	<path class="ste12" d="M62.6,508.7c-1.7,2-3.4,4.1-4.8,6.3c-1.4,2.2-2.7,4.6-3.6,7.1c0,0,0.1,0.1,0.1,0c2.4-4.7,5.3-9.2,8.5-13.4
		C62.9,508.8,62.7,508.6,62.6,508.7z"/>
	<path class="ste12" d="M85.2,506.6c-0.2,1.3-0.6,2.7-1.2,3.9c-0.6,1.2-1.3,2.4-2,3.5c0,0,0,0.2,0.1,0c1.8-2.1,3-4.7,3.3-7.4
		C85.5,506.5,85.2,506.4,85.2,506.6z"/>
	<path class="ste6" d="M119,515.9c0,0,14.9-18.7,43.7-12.1c27.3,6.3,39.8,56.4,12.3,62.4s-22.8-40.3-32.9-48.2
		C134.8,512.2,124.1,513.4,119,515.9z"/>
	<path class="ste12" d="M184.8,531.2c-1.9-1.6-3.8-3.2-5.9-4.5c-2-1.3-4.1-2.4-6.3-3.1c-1.1-1.7-2.4-3.3-3.7-4.8
		c-2.5-2.7-5.5-5.1-8.7-6.9h0.9c1.5-0.1,3.1-0.1,4.6,0c3.1,0.2,6.1,0.9,8.9,2.2c0.2,0,0.3-0.2,0.1-0.2c-2.8-1.2-5.8-2.1-8.9-2.7
		c-1.5-0.3-3-0.4-4.5-0.4c-0.8,0-1.6,0-2.4,0.1h-0.5c-2.6-1.3-5.4-2.3-8.3-3c0.3-0.1,0.5-0.1,0.8-0.2c1.4-0.3,2.8-0.6,4.2-0.7
		c2.9-0.3,5.8-0.3,8.6,0.1c0.2,0,0.2-0.2,0-0.2c-2.9-0.4-5.8-0.5-8.7-0.4c-2.4,0.1-4.9,0.4-7.2,1c-1.7-0.3-3.5-0.5-5.2-0.6
		c-10-0.4-20.9,3.3-27.2,11.5c-6.2,8.2-7.4,19.2-8.5,29.2c-1.6,13.9-1.9,27.9-0.9,41.8c0,0.8,1.2,0.7,1.2-0.1
		c0.4-11.8,0.8-23.5,1.9-35.4c0.5-5.4,1.1-10.9,2-16.3c0.7-4.6,2-9.2,4-13.4c2.1-4.4,5.5-8,9.7-10.4c4.2-2.4,8.9-3.9,13.7-4.2
		c4.3-0.4,8.7,0.1,12.9,1.2c-0.1,0.8-0.1,1.7,0,2.6c0.1,1.1,0.3,2.1,0.6,3.1c0.3,1,0.7,1.9,1.2,2.8c0.5,1,1.2,1.8,1.8,2.8
		c0,0.1,0.3,0,0.2-0.2c-1.2-1.7-2-3.6-2.3-5.7c-0.2-1-0.3-1.9-0.4-2.9v-2.2c4.6,1.4,8.8,3.7,12.6,6.6c0.7,0.6,1.4,1.2,2,1.8
		c-1,0.9-1.8,1.9-2.4,3c-1,1.4-1.8,3-2.6,4.6c-1.3,3.2-2.3,6.5-2.7,9.9c0,0.2,0.2,0.2,0.2,0c0.5-3.3,1.6-6.5,3.3-9.5
		c0.8-1.5,1.6-2.9,2.6-4.2c0.5-0.7,1-1.4,1.5-2c0.3-0.3,0.6-0.7,0.9-1.1c3.4,3.3,6.1,7.2,8.1,11.5c-1.4,1.4-2.5,3.1-3.4,4.8
		c-1,1.8-1.9,3.8-2.7,5.7c-1.4,3.8-2.5,7.7-3.4,11.7c0,0,0,0.1,0,0.1c0,0,0,0.1,0.1,0.1c0,0,0.1,0,0.1,0s0.1,0,0.1-0.1
		c0,0,0-0.1,0-0.1c0.9-4,2.3-7.9,4.2-11.5c0.9-1.8,1.8-3.6,2.7-5.3c1-1.6,1.9-3.3,2.7-5c1.9,4.2,3,8.7,3.3,13.3c0,0.2,0.3,0.2,0.3,0
		c-0.5-7.2-2.7-14.2-6.4-20.4c1.8,0.7,3.5,1.5,5.2,2.4c2.2,1.1,4.2,2.5,6,4.2C184.8,531.5,184.9,531.3,184.8,531.2z"/>
	<path class="ste12" d="M163.7,532.2c-0.9,2.8-1.9,5.6-2.7,8.5c-0.8,2.8-1.2,5.6-1.3,8.5h0.1c0.8-5.7,2.2-11.4,4.1-16.8
		c0,0,0,0,0-0.1c0,0,0,0,0-0.1c0,0,0,0,0,0c0,0,0,0-0.1,0c0,0,0,0-0.1,0C163.8,532.1,163.8,532.1,163.7,532.2
		C163.8,532.1,163.8,532.1,163.7,532.2C163.7,532.2,163.7,532.2,163.7,532.2z"/>
	<path class="ste12" d="M181.9,525.2c-1.1-1.1-2.4-2-3.8-2.7c-1.4-0.7-2.9-1.2-4.4-1.6c-0.2,0-0.2,0.2,0,0.3c1.5,0.4,2.9,1,4.3,1.8
		c1.4,0.7,2.7,1.5,3.9,2.4C181.9,525.4,182,525.2,181.9,525.2z"/>
	<path class="ste6" d="M133.1,490.9c0,0,2.8-33.6,27.8-44.5c20.9-9.1,32.8,14.3,18.1,28.7C167,486.7,147.9,481.5,133.1,490.9z"/>
	<path class="ste12" d="M174.3,452.9c-3.8,1.5-7.5,3.3-11.1,5.3c-3,1.7-5.9,3.6-8.6,5.7c0.4-0.9,0.8-1.8,1.2-2.6
		c0.6-1.3,1.3-2.6,2.1-3.8c1.5-2.5,3.3-4.9,5.4-7c0.1-0.1,0-0.3-0.2-0.2c-2.1,2.1-4,4.3-5.8,6.7c-0.9,1.2-1.7,2.5-2.4,3.8
		c-0.7,1.2-1.3,2.5-1.7,3.9L153,465c-4.4,3.5-8.4,7.4-11.9,11.7c0-0.3,0.1-0.7,0.2-1c0.5-1.6,1-3.3,1.5-4.9c1.1-3.4,2.6-6.7,4.5-9.8
		c0,0,0,0,0,0s0,0,0-0.1c0,0,0,0,0,0c0,0,0,0,0,0c0,0,0,0,0,0c0,0,0,0-0.1,0c0,0,0,0,0,0c0,0,0,0,0,0c-2,3.1-3.7,6.3-5.2,9.6
		c-0.7,1.6-1.3,3.3-1.8,5c-0.4,1.1-0.6,2.2-0.8,3.4c-1.1,1.4-2.2,2.8-3.2,4.2c-10.7,15.3-16.1,33.7-17.4,52.2
		c-0.4,5.5-0.5,11-0.3,16.5c0,5.6,0.5,11.1,1.5,16.6c0,0,0,0.1,0.1,0.1c0,0,0.1,0.1,0.1,0.1c0,0,0.1,0,0.1,0c0,0,0.1,0,0.1,0
		c0.1,0,0.1-0.1,0.1-0.1c0,0,0.1-0.1,0.1-0.2c-0.1-4.9-0.6-9.7-0.7-14.5c-0.1-4.9,0.1-9.7,0.5-14.6c0.8-9.7,2.6-19.3,5.4-28.6
		c2.9-9.5,7.2-18.6,12.7-26.9c1.1-0.2,2.1-0.5,3.1-0.8l3.7-1c2.4-0.6,4.8-1.5,7-2.6c0.2,0,0-0.3-0.1-0.2c-2.2,1.2-4.6,2-7.1,2.4
		c-2,0.4-4,0.6-5.9,1.1c1.8-2.7,3.8-5.2,5.8-7.6c4.7,0.4,9.5,0.1,14.2-1c2.5-0.6,4.9-1.4,7.2-2.3c2.5-1,4.9-2.2,7.3-3.2
		c0.2,0,0-0.4-0.1-0.3c-4.5,2.5-9.4,4.1-14.5,4.8c-4.5,0.7-9,1.1-13.5,1.1c1.8-2,3.6-4,5.6-5.9c6.5-6.6,14.4-11.7,23-15
		C174.6,453.1,174.5,452.8,174.3,452.9z"/>
	<path class="ste12" d="M154,453c-1.1,1.4-2.2,2.9-3.1,4.5c-0.9,1.6-1.7,3.4-2.2,5.2h0.1c0.8-1.6,1.5-3.4,2.4-5
		c0.8-1.6,1.8-3.1,3-4.5C154.3,453,154.1,452.9,154,453z"/>
	<path class="ste12" d="M177.2,464.2c-1.6,0.9-3.3,1.6-5.1,2.1c-1.7,0.6-3.5,1-5.2,1.4v0.1c1.9-0.2,3.7-0.6,5.4-1.2
		c1.7-0.7,3.4-1.4,5-2.3C177.5,464.3,177.4,464.1,177.2,464.2z"/>
	<path class="ste6" d="M113.8,484.8c-0.1,1.5-3.8-12.2-24.9-24.3c-19.3-11-42.1-39.7-23.4-57.8C80.7,388.3,120.7,420,113.8,484.8z"/>
	<path class="ste12" d="M128.3,563.1c-0.3-14.2-1.4-28.4-3.3-42.5c-1.7-12.9-4.7-25.7-8.9-38c-1.6-4.4-3.4-8.8-5.3-13.1
		c0.1-1.7,0.1-3.3,0-5c-0.1-2.2-0.3-4.3-0.5-6.4c-0.2-2.1-0.4-4.3-0.7-6.4c-0.3-2.1-0.7-4.3-0.8-6.4c0,0,0-0.1,0-0.1
		c0,0-0.1,0-0.1,0c0,0-0.1,0-0.1,0c0,0,0,0.1,0,0.1c0.4,2.2,0.7,4.5,0.7,6.8c0.2,2.1,0.3,4.1,0.3,6.2c0,2.1,0,4.2,0,6.2v2.4
		c-2-4.2-4.1-8.3-6.4-12.4c1.4-8.8-0.4-17.9-2.2-26.5c0-0.2-0.3,0-0.3,0c0.9,4.5,1.3,9,1.3,13.5c0,3.6,0,7.2-0.1,10.9
		c-0.5-0.9-1-1.7-1.5-2.6c-2.7-4.5-5.7-8.9-8.8-13.1c0.2-2.1,0.2-4.2-0.2-6.2c-0.4-2.3-0.9-4.6-1.5-6.8c-0.7-2.2-1.4-4.4-2.3-6.6
		c-0.9-2.2-2.1-4.3-3-6.6c0,0,0-0.1-0.1-0.1c0,0-0.1,0-0.1,0c0,0,0,0,0,0c0,0,0,0,0,0c0,0,0,0,0,0.1c0,0,0,0,0,0
		c1.1,2.1,1.9,4.3,2.5,6.6c0.7,2.2,1.3,4.4,1.7,6.6c0.5,2.2,0.8,4.5,1.1,6.7c0.2,1.5,0.3,3,0.6,4.5c-4.5-6.1-9.5-11.8-14.8-17.2
		c-0.1-0.1-0.3,0-0.2,0.2c8,9.1,15.2,18.9,21.5,29.3l0.7,1.2c-1.2-0.7-2.5-1.3-3.6-1.9l-6.2-3.4c-2-1.1-4-2.2-6-3.3
		c-1-0.6-2-1.2-3.1-1.7c-1.3-0.6-2.5-1.2-3.6-2c-0.2-0.1-0.3,0.1-0.2,0.2c2,1.1,3.8,2.8,5.8,4c2,1.2,4,2.5,6,3.6
		c3.8,2.1,7.8,3.6,11.5,5.8c2.6,4.5,4.9,9.1,7.1,13.8c-2.2-1.4-4.5-2.8-6.9-4.1c-1.5-0.8-3-1.7-4.5-2.5c-1.5-0.7-2.9-1.6-4.3-2.6
		c-0.1-0.1-0.3,0-0.2,0.2c2.5,2.2,5.2,4.1,8.1,5.6c2.7,1.6,5.4,3.1,8.3,4.5c2.3,5,4.4,10,6.2,15.2c8.9,25.2,12.2,51.9,13.7,78.5
		c0.5,7.9,0.7,15.8,0.8,23.8c0.1,7.9-0.3,15.8-0.3,23.7c0,0,0,0.1,0.1,0.1c0,0,0.1,0,0.1,0c0,0,0.1,0,0.1,0c0,0,0.1-0.1,0.1-0.1
		c1-7,1.1-14.2,1.4-21.2C128.4,577.7,128.4,570.3,128.3,563.1z"/>
	<path class="ste12" d="M89.8,449.1c-3.9-1.7-7.6-3.6-11.2-5.8c-3.7-2.1-7.2-4.3-10.6-6.8c0,0-0.1,0,0,0.1c3.2,2.7,6.7,5.1,10.2,7.2
		c3.7,2.1,7.6,3.9,11.6,5.5C89.9,449.4,90,449.2,89.8,449.1z"/>
	<path class="ste12" d="M96,420.6c-0.3-1.2-0.7-2.4-1.1-3.6c0,0,0,0,0-0.1s0,0,0-0.1c-0.3-0.7-0.5-1.4-0.8-2c0-0.1,0-0.2,0-0.3
		l-0.2-0.4l0.2,0.7c0,0.1,0.1,0.3,0.1,0.4c1.4,4.7,2.4,9.5,3.1,14.3c0,0,0,0.1,0,0.1c0,0,0.1,0,0.1,0c0,0,0,0,0,0c0,0,0,0,0,0
		c0,0,0,0,0,0c0,0,0,0,0,0C97.3,426.6,96.8,423.6,96,420.6z"/>
	<path class="ste12" d="M150.6,568.2l-1.5,17.9l-4.6,54.5H95l-4.6-54.5l-1.5-17.9H150.6z"/>
	<path class="st8" d="M150.6,568.2l-1.5,17.9H90.4l-1.5-17.9H150.6z"/>
	<path class="ste12" d="M155.4,561.1H84v17.1h71.4V561.1z"/>
	<path class="ste6" d="M269.2,164.5h-34.9c-2.8,0-5.1,2.3-5.1,5.1v14.9c0,2.8,2.3,5.1,5.1,5.1h34.9c2.8,0,5.1-2.3,5.1-5.1v-14.9
		C274.3,166.8,272,164.5,269.2,164.5z"/>
	<path class="ste6" d="M255.8,187.7l17,13.3l-10.5-14.3L255.8,187.7z"/>
	<path class="ste21" d="M261.8,177c0-0.2,0-0.4,0.1-0.6c0.1-0.2,0.2-0.3,0.3-0.5c0.1-0.1,0.3-0.2,0.5-0.3c0.2-0.1,0.4-0.1,0.6-0.1
		c0.3,0,0.6,0.1,0.8,0.3c0.2,0.2,0.4,0.4,0.5,0.7c0.1,0.3,0.1,0.6,0.1,0.9c-0.1,0.3-0.2,0.5-0.4,0.8c-0.2,0.2-0.5,0.3-0.8,0.4
		c-0.3,0.1-0.6,0-0.9-0.1c-0.3-0.1-0.5-0.3-0.7-0.5C261.9,177.6,261.8,177.3,261.8,177L261.8,177z"/>
	<path class="ste21" d="M254.1,177c0-0.4,0.2-0.8,0.4-1c0.3-0.3,0.6-0.4,1-0.4c0.3,0,0.6,0.1,0.8,0.3c0.2,0.2,0.4,0.4,0.5,0.7
		c0.1,0.3,0.1,0.6,0.1,0.9c-0.1,0.3-0.2,0.5-0.4,0.8c-0.2,0.2-0.5,0.3-0.8,0.4c-0.3,0.1-0.6,0-0.9-0.1c-0.3-0.1-0.5-0.3-0.7-0.5
		C254.2,177.6,254.1,177.3,254.1,177L254.1,177z"/>
	<path class="ste21" d="M246.4,177c0-0.4,0.2-0.8,0.4-1c0.3-0.3,0.6-0.4,1-0.4c0.3,0,0.6,0.1,0.8,0.3c0.2,0.2,0.4,0.4,0.5,0.7
		s0.1,0.6,0.1,0.9c-0.1,0.3-0.2,0.5-0.4,0.8c-0.2,0.2-0.5,0.3-0.8,0.4c-0.3,0.1-0.6,0-0.9-0.1c-0.3-0.1-0.5-0.3-0.7-0.5
		C246.5,177.6,246.4,177.3,246.4,177L246.4,177z"/>
	<path class="ste21" d="M238.8,177c0-0.4,0.2-0.8,0.4-1c0.3-0.3,0.6-0.4,1-0.4c0.3,0,0.6,0.1,0.8,0.3c0.2,0.2,0.4,0.4,0.5,0.7
		s0.1,0.6,0.1,0.9c-0.1,0.3-0.2,0.5-0.4,0.8c-0.2,0.2-0.5,0.3-0.8,0.4c-0.3,0.1-0.6,0-0.9-0.1c-0.3-0.1-0.5-0.3-0.7-0.5
		C238.8,177.6,238.7,177.3,238.8,177L238.8,177z"/>
</g>
</svg>
