<svg width="59" height="47" viewBox="0 0 59 47" fill="none" xmlns="http://www.w3.org/2000/svg">
<path d="M52.5 0.5H12.25C9.07887 0.5 6.5 3.07887 6.5 6.25V20.625H12.25V12L30.65 25.8C31.1478 26.1728 31.7531 26.3743 32.375 26.3743C32.9969 26.3743 33.6022 26.1728 34.1 25.8L52.5 12V37.875H29.5V43.625H52.5C55.6711 43.625 58.25 41.0461 58.25 37.875V6.25C58.25 3.07887 55.6711 0.5 52.5 0.5ZM32.375 19.9062L14.1647 6.25H50.5853L32.375 19.9062Z" fill="#F9A826"/>
<path d="M0.75 23.5H20.875V29.25H0.75V23.5ZM6.5 32.125H23.75V37.875H6.5V32.125ZM15.125 40.75H26.625V46.5H15.125V40.75Z" fill="#F9A826"/>
</svg>
