<svg width="30" height="30" viewBox="0 0 30 30" fill="none" xmlns="http://www.w3.org/2000/svg">
<g clip-path="url(#clip0_49_1148)">
<path d="M26.9416 4.99999C26.828 4.98828 26.7135 4.98828 26.5999 4.99999H3.26662C3.11707 5.00229 2.96852 5.02472 2.82495 5.06666L14.8666 17.0583L26.9416 4.99999Z" fill="#F9A826"/>
<path d="M28.1751 6.15845L16.0417 18.2418C15.7295 18.5522 15.307 18.7264 14.8667 18.7264C14.4264 18.7264 14.004 18.5522 13.6917 18.2418L1.66673 6.25011C1.62976 6.38598 1.61016 6.52599 1.6084 6.66678V23.3334C1.6084 23.7755 1.78399 24.1994 2.09655 24.512C2.40911 24.8245 2.83304 25.0001 3.27507 25.0001H26.6084C27.0504 25.0001 27.4743 24.8245 27.7869 24.512C28.0995 24.1994 28.2751 23.7755 28.2751 23.3334V6.66678C28.2684 6.49316 28.2347 6.32164 28.1751 6.15845ZM4.41673 23.3334H3.2584V22.1418L9.31673 16.1334L10.4917 17.3084L4.41673 23.3334ZM26.5917 23.3334H25.4251L19.3501 17.3084L20.5251 16.1334L26.5834 22.1418L26.5917 23.3334Z" fill="#F9A826"/>
</g>
<defs>
<clipPath id="clip0_49_1148">
<rect width="30" height="30" fill="white"/>
</clipPath>
</defs>
</svg>
