<svg width="671" height="568" viewBox="0 0 671 568" fill="none" xmlns="http://www.w3.org/2000/svg">
<path d="M518.569 509.083L159.679 509.973C159.679 509.973 79.0663 483.005 43.5424 383.492C23.5425 327.386 22.8249 266.215 41.503 209.655C42.1086 207.803 42.7409 205.951 43.391 204.117L43.4711 203.894C44.1301 202.042 44.8069 200.199 45.5016 198.365C45.5016 198.267 45.5728 198.169 45.6173 198.072C45.6619 197.974 45.7064 197.822 45.7598 197.698C52.7377 179.436 61.6966 161.994 72.4762 145.684C72.6276 145.462 72.7701 145.239 72.9215 145.025C74.2573 143.013 75.6228 141.019 77.018 139.042C90.1065 120.504 105.507 103.71 122.846 89.068C169.813 49.4036 239.463 17.4941 342.348 15.0189C342.348 15.0189 346.168 14.9121 352.954 15.2059H353.177C385.076 16.6037 481.059 26.7803 554.859 96.3153C556.687 98.0307 558.495 99.7847 560.282 101.577C571.784 113.057 582.2 125.575 591.398 138.971C592.752 140.939 594.07 142.924 595.388 144.954C595.539 145.168 595.681 145.391 595.815 145.613C606.305 161.953 615.125 179.307 622.14 197.413C622.173 197.482 622.203 197.554 622.229 197.626L622.487 198.294C623.199 200.119 623.885 201.962 624.571 203.823L624.651 204.046C625.322 205.868 625.975 207.714 626.61 209.584C630.526 220.979 633.852 232.569 636.575 244.307C636.575 244.307 677.309 397.738 518.569 509.083Z" fill="#F9A826"/>
<path opacity="0.7" d="M518.569 509.083L159.679 509.973C159.679 509.973 79.0663 483.005 43.5424 383.492C23.5425 327.386 22.8249 266.215 41.503 209.655C42.1086 207.803 42.7409 205.951 43.391 204.117L43.4711 203.894C44.1301 202.042 44.8069 200.199 45.5016 198.365C45.5016 198.267 45.5728 198.169 45.6173 198.072C45.6619 197.974 45.7064 197.822 45.7598 197.698C52.7377 179.436 61.6966 161.994 72.4762 145.684C72.6276 145.462 72.7701 145.239 72.9215 145.025C74.2573 143.013 75.6228 141.019 77.018 139.042C90.1065 120.504 105.507 103.71 122.846 89.068C169.813 49.4036 239.463 17.4941 342.348 15.0189C342.348 15.0189 346.168 14.9121 352.954 15.2059H353.177C385.076 16.6037 481.059 26.7803 554.859 96.3153C556.687 98.0307 558.495 99.7847 560.282 101.577C571.784 113.057 582.2 125.575 591.398 138.971C592.752 140.939 594.07 142.924 595.388 144.954C595.539 145.168 595.681 145.391 595.815 145.613C606.305 161.953 615.125 179.307 622.14 197.413C622.173 197.482 622.203 197.554 622.229 197.626L622.487 198.294C623.199 200.119 623.885 201.962 624.571 203.823L624.651 204.046C625.322 205.868 625.975 207.714 626.61 209.584C630.526 220.979 633.852 232.569 636.575 244.307C636.575 244.307 677.309 397.738 518.569 509.083Z" fill="white"/>
<path d="M624.571 203.859H43.543C44.202 202.007 44.8788 200.164 45.5734 198.33H622.488C623.2 200.155 623.886 201.998 624.571 203.859Z" fill="#F9A826"/>
<path opacity="0.35" d="M624.571 203.859H43.543C44.202 202.007 44.8788 200.164 45.5734 198.33H622.488C623.2 200.155 623.886 201.998 624.571 203.859Z" fill="white"/>
<path d="M626.61 209.619H41.5205C42.1261 207.767 42.7584 205.916 43.4085 204.081H624.651C625.322 205.91 625.975 207.756 626.61 209.619Z" fill="#F9A826"/>
<path opacity="0.4" d="M626.61 209.619H41.5205C42.1261 207.767 42.7584 205.916 43.4085 204.081H624.651C625.322 205.91 625.975 207.756 626.61 209.619Z" fill="white"/>
<path d="M342.126 139.007V144.99H72.9844C74.3202 142.978 75.6857 140.983 77.0809 139.007H342.126Z" fill="white"/>
<path d="M595.405 144.99H353.862V139.007H591.416C592.769 140.975 594.096 142.96 595.405 144.99Z" fill="white"/>
<path d="M342.125 145.649V197.662H45.7959C52.7737 179.401 61.7327 161.959 72.5123 145.649H342.125Z" fill="#2E3135"/>
<path opacity="0.26" d="M342.348 15.019V197.413H342.125L232.588 197.635L45.6621 198.009C45.6621 197.885 45.7512 197.76 45.8046 197.635C52.7824 179.374 61.7414 161.932 72.521 145.622C72.6724 145.4 72.8149 145.177 72.9663 144.963C74.3021 142.951 75.6676 140.957 77.0628 138.98C90.1513 120.442 105.551 103.648 122.89 89.0058C169.813 49.4037 239.463 17.4942 342.348 15.019Z" fill="white"/>
<path d="M622.229 197.662H352.972V145.649H595.833C606.315 161.978 615.128 179.32 622.14 197.413C622.174 197.494 622.204 197.577 622.229 197.662Z" fill="#2E3135"/>
<path d="M267.524 383.804L298.293 537.413H302.282L279.253 382.923L267.524 383.804Z" fill="#2E3135"/>
<path opacity="0.2" d="M267.524 383.804L270.935 401.041L281.88 398.495L279.253 382.923L267.524 383.804Z" fill="black"/>
<path d="M228.001 391.114C269.266 391.114 302.718 380.758 302.718 367.983C302.718 355.208 269.266 344.852 228.001 344.852C186.736 344.852 153.284 355.208 153.284 367.983C153.284 380.758 186.736 391.114 228.001 391.114Z" fill="#3F4347"/>
<path d="M170.329 535.642C170.329 537.85 166.349 536.301 166.349 536.301C162.582 537.627 159.483 543.423 159.483 543.423C152.403 552.718 122.516 544.527 122.516 544.527C105.907 540.325 103.476 535.455 103.476 535.455C100.154 528.332 109.416 528.866 109.416 528.866C109.251 528.888 109.095 528.95 108.96 529.046C108.825 529.143 108.716 529.271 108.643 529.42C108.57 529.569 108.534 529.734 108.54 529.9C108.546 530.066 108.593 530.228 108.677 530.371C110.093 532.775 115 537.912 131.831 541.206C131.831 541.206 151.316 549.006 157.319 540.316C157.849 539.542 158.502 538.86 159.251 538.295C162.439 535.927 170.347 529.347 170.347 522.625L170.57 511.122C169.857 511.051 169.172 511.015 168.548 511.006C168.833 510.116 169.02 509.564 169.02 509.564L173.233 507.578L175.014 511.959C175.192 519.402 170.329 535.642 170.329 535.642Z" fill="#E6E6E6"/>
<path d="M247.593 374.509C242.678 379.308 233.808 392.761 226.532 404.38C220.049 414.743 214.83 423.647 214.83 423.647L177.855 510.543C177.628 511.086 177.21 511.526 176.679 511.779C176.148 512.032 175.542 512.08 174.978 511.914C173.525 511.491 172.033 511.211 170.525 511.077C168.385 510.861 166.226 510.933 164.105 511.291C161.27 511.829 158.387 512.077 155.502 512.03C147.932 511.852 143.479 509.119 140.879 506.216C139.836 505.051 138.977 503.732 138.332 502.308C137.947 501.456 137.741 500.534 137.729 499.599C137.717 498.665 137.898 497.738 138.261 496.876L158.574 448.656L179.823 388.897C175.03 383.902 169.967 379.173 164.657 374.732C163.641 373.885 162.553 373.128 161.406 372.47C120.646 349.117 108.143 334.889 108.143 334.889C99.0679 322.273 111.901 306.336 111.901 306.336C118.544 298.145 189.494 304.645 189.494 304.645L247.593 374.509Z" fill="#2F2E41"/>
<path opacity="0.2" d="M226.532 404.38C220.049 414.743 214.83 423.647 214.83 423.647L177.855 510.543C177.628 511.086 177.21 511.526 176.679 511.779C176.148 512.032 175.542 512.08 174.978 511.914C171.454 510.902 167.748 510.689 164.131 511.291C161.296 511.83 158.414 512.077 155.529 512.03L155.057 511.736C169.448 512.181 185.825 468.795 185.825 468.795C192.469 450.428 205.755 433.182 205.755 433.182C214.385 421.002 217.484 406.837 217.484 406.837L226.532 404.38Z" fill="black"/>
<path d="M170.552 511.077L170.356 521.583V522.58C170.356 529.302 162.448 535.882 159.26 538.25C158.511 538.815 157.858 539.498 157.328 540.271C151.325 548.97 131.84 541.162 131.84 541.162C115.027 537.868 110.12 532.73 108.686 530.326C108.602 530.183 108.555 530.021 108.549 529.855C108.544 529.69 108.579 529.525 108.652 529.376C108.725 529.227 108.834 529.098 108.969 529.002C109.104 528.905 109.261 528.843 109.425 528.822L118.847 527.584C120.273 527.393 121.68 527.077 123.05 526.64C128.238 525.013 132.707 521.649 135.705 517.114C137.909 513.721 139.661 510.054 140.915 506.207C143.515 509.11 147.968 511.843 155.538 512.021C158.423 512.068 161.305 511.821 164.14 511.282C165.593 511.029 167.066 510.919 168.54 510.953C169.154 510.971 169.84 511.006 170.552 511.077Z" fill="#F9A826"/>
<path opacity="0.2" d="M170.356 521.583V522.58C170.356 529.302 162.448 535.882 159.26 538.25C158.511 538.815 157.858 539.498 157.328 540.271C151.325 548.97 131.84 541.162 131.84 541.162C115.027 537.868 110.12 532.73 108.686 530.326C108.602 530.183 108.555 530.021 108.549 529.855C108.544 529.69 108.579 529.525 108.652 529.376C108.725 529.227 108.834 529.098 108.969 529.002C109.104 528.905 109.261 528.843 109.425 528.822L118.847 527.584C120.273 527.393 121.68 527.077 123.05 526.64C124.075 526.854 131.769 528.296 137.13 524.788C137.13 524.788 137.13 538.66 152.626 536.363C152.617 536.381 162.929 533.665 170.356 521.583Z" fill="black"/>
<path d="M155.938 398.415C166.09 393.439 176.691 389.435 187.597 386.457C187.597 386.457 211.731 378.275 228.999 388.007C228.999 388.007 234.093 390.001 234.093 398.415H155.938Z" fill="#F9A826"/>
<path d="M153.971 402.84C153.971 402.84 151.094 393.544 179.209 395.539C179.209 395.539 196.477 399.99 211.749 395.316C211.749 395.316 233.443 390.865 234.556 400.658C234.556 400.658 237.228 410.176 213.744 408.404C209.23 408.44 204.74 409.063 200.386 410.256C198.09 410.856 195.739 411.223 193.368 411.351C182.557 411.903 154.861 412.464 153.971 402.84Z" fill="#E6E6E6"/>
<path opacity="0.2" d="M175.192 384.223L179.85 388.897C179.85 388.897 208.187 376.726 228.999 388.007C230.114 388.568 231.091 389.367 231.861 390.349C232.63 391.331 233.174 392.471 233.452 393.687C233.452 393.687 241.752 380.742 247.113 374.99L242.179 374.233L232.107 386.698L214.474 371.188C214.474 371.188 203.04 370.102 195.88 368.66L208.196 377.18C208.196 377.18 187.811 376.228 175.192 384.223Z" fill="black"/>
<path d="M270.846 159.814C270.846 173.766 263.721 185.491 254.175 188.777C252.414 189.373 250.566 189.674 248.707 189.667C241.173 189.667 234.52 184.601 230.522 176.846C227.872 171.553 226.517 165.706 226.568 159.787C226.568 143.289 236.48 129.908 248.707 129.908C260.934 129.908 270.846 143.316 270.846 159.814Z" fill="#F9B499"/>
<path d="M240.514 115.547C258.663 113.997 268.851 128.163 268.851 128.163C276.376 135.285 275.495 147.421 275.495 147.421C279.253 154.285 270.632 155.496 270.632 155.496C270.427 153.617 269.875 150.848 269.875 150.848C260.97 152.068 255.564 147.643 255.564 147.643C255.064 149.528 255.064 151.51 255.564 153.395C247.371 152.504 242.063 142.55 242.063 142.55C242.082 144.688 241.54 146.794 240.492 148.657C239.443 150.521 237.925 152.078 236.088 153.172C234.975 153.617 234.538 150.296 234.538 150.296C232.989 159.378 227.414 161.39 227.414 161.39L218.402 164.871C218.402 164.871 212.845 162.912 213.735 155.612C213.735 155.612 209.069 156.849 207.733 149.379C207.066 145.612 207.616 141.73 209.304 138.297C210.991 134.863 213.729 132.056 217.119 130.282C220.761 128.47 224.72 127.382 228.776 127.076C228.776 127.076 230.994 115.547 240.514 115.547Z" fill="#2F2E41"/>
<path opacity="0.2" d="M224.323 144.767C224.354 147.69 223.669 150.575 222.329 153.172C222.329 153.172 219.007 158.933 222.106 158.933C222.106 158.933 224.546 159.378 232.071 151.187C232.071 151.187 241.084 146.691 241.867 143.957L242.01 142.55L242.811 143.77C247.771 143.287 252.6 141.898 257.06 139.675C257.06 139.675 249.758 138.348 248.431 135.223C248.431 135.223 258.075 139.016 264.318 138.117C264.318 138.117 261.709 140.975 258.387 140.316C258.387 140.316 266.58 150.047 275.441 147.394C275.441 147.394 269.456 130.13 250.203 129.249C250.203 129.249 249.09 125.928 254.406 125.688C254.406 125.688 247.282 121.485 235.812 133.433C235.812 133.433 218.099 133.211 211.232 150.92C211.286 150.964 217.707 144.1 224.323 144.767Z" fill="black"/>
<path d="M244.717 209.174H238.964L230.994 202.31C226.345 198.33 226.23 194.234 226.23 194.234C226.098 192.505 226.381 190.77 227.055 189.172C227.729 187.574 228.774 186.159 230.103 185.046L230.522 176.873C234.521 184.628 241.209 189.694 248.707 189.694C250.566 189.7 252.414 189.399 254.175 188.803L254.237 193.255C259.554 197.885 244.717 209.174 244.717 209.174Z" fill="#F9B499"/>
<path d="M230.558 176.873L230.317 182.215C230.317 182.215 239.223 200.191 255.368 196.38C255.474 195.806 255.429 195.215 255.237 194.664C255.045 194.113 254.713 193.621 254.273 193.237L254.211 188.785C254.211 188.785 239.802 194.377 230.558 176.873Z" fill="#F7A48B"/>
<path d="M222.187 299.97C209.612 301.119 189.477 304.645 189.477 304.645L189.147 272.913C183.038 285.289 176.511 291.655 173.046 294.406C171.582 295.58 169.921 296.484 168.139 297.077C160.775 299.507 155.574 298.021 152.012 295.474C150.08 294.078 148.486 292.266 147.349 290.172C146.211 288.078 145.559 285.755 145.439 283.375C145.376 282.166 145.442 280.954 145.635 279.76C146.146 276.897 146.87 274.075 147.799 271.319C155.449 248.171 177.419 216.261 177.419 216.261C184.721 195.018 218.268 191.982 218.268 191.982C214.849 196.247 217.93 219.36 217.93 219.36L222.187 299.97Z" fill="#F9A826"/>
<path d="M206.406 194.225L198.667 232.412L209.077 233.738L203.102 237.95L213.788 300.994L222.222 299.97L217.965 219.351C217.965 219.351 214.884 196.683 218.304 191.973C214.285 192.411 210.307 193.164 206.406 194.225Z" fill="#F9A826"/>
<path opacity="0.4" d="M206.406 194.225L198.667 232.412L209.077 233.738L203.102 237.95L213.788 300.994L222.222 299.97L217.965 219.351C217.965 219.351 214.884 196.683 218.304 191.973C214.285 192.411 210.307 193.164 206.406 194.225Z" fill="white"/>
<path d="M333.861 292.759C333.861 292.759 298.791 293.364 248.368 297.21L247.166 297.299L256.739 215.389L261.263 192.489C265.209 193.521 269.077 194.827 272.841 196.398C284.792 201.312 302.229 211.249 306.503 228.45L333.861 292.759Z" fill="#F9A826"/>
<path d="M272.609 237.478L264.861 235.929L271.985 242.571L254.54 296.712L248.306 297.193L247.104 297.282L256.677 215.371L261.201 192.471C265.146 193.503 269.015 194.809 272.778 196.38L272.609 237.478Z" fill="#F9A826"/>
<path opacity="0.4" d="M272.609 237.478L264.861 235.929L271.985 242.571L254.54 296.712L248.306 297.193L247.104 297.282L256.677 215.371L261.201 192.471C265.146 193.503 269.015 194.809 272.778 196.38L272.609 237.478Z" fill="white"/>
<path d="M198.097 258.17C199.867 255.104 196.907 250.082 191.485 246.952C186.062 243.822 180.231 243.77 178.461 246.836C176.69 249.902 179.65 254.925 185.073 258.055C190.495 261.185 196.326 261.236 198.097 258.17Z" fill="#2F2E41"/>
<path opacity="0.2" d="M178.523 251.447C149.865 273.554 145.511 283.25 145.511 283.25L145.439 283.366C145.376 282.157 145.442 280.945 145.635 279.751C146.146 276.888 146.87 274.066 147.799 271.31C150.492 268.414 153.44 265.765 156.607 263.395L178.461 246.835C178.109 247.555 177.931 248.347 177.942 249.149C177.953 249.95 178.152 250.737 178.523 251.447V251.447Z" fill="black"/>
<path opacity="0.2" d="M189.146 272.913L193.795 265.167C193.795 265.167 193.555 292.972 198.88 303.193L189.476 304.645L189.146 272.913Z" fill="black"/>
<path d="M215.979 236.641L213.352 236.783C213.143 236.806 212.933 236.754 212.759 236.637C212.584 236.52 212.457 236.344 212.399 236.142L209.728 227.479C209.675 227.34 209.659 227.19 209.679 227.043C209.7 226.895 209.757 226.756 209.846 226.636C209.934 226.516 210.051 226.421 210.186 226.358C210.321 226.296 210.47 226.268 210.618 226.277L214.581 226.438L215.365 231.78L214.207 222.583L208.232 222.778C207.969 222.788 207.713 222.859 207.482 222.985C207.252 223.111 207.055 223.29 206.906 223.506C206.757 223.723 206.661 223.971 206.625 224.231C206.589 224.491 206.615 224.756 206.7 225.004L211.705 239.855C211.839 240.254 212.099 240.599 212.446 240.838C212.793 241.077 213.207 241.198 213.628 241.182L216.549 241.101L215.979 236.641Z" fill="#C2C4C6"/>
<path d="M216.077 236.641L215.364 231.806L215.979 236.641H216.077Z" fill="#C2C4C6"/>
<path d="M225.018 175.751C229.297 175.751 232.766 172.482 232.766 168.45C232.766 164.418 229.297 161.15 225.018 161.15C220.739 161.15 217.271 164.418 217.271 168.45C217.271 172.482 220.739 175.751 225.018 175.751Z" fill="#F9B499"/>
<path d="M257.113 187.486C257.113 187.486 263.757 189.694 261.985 204.081L260.435 220.686C260.435 220.686 253.578 210.723 244.717 209.174C244.717 209.174 259.553 197.662 254.237 193.237L254.174 188.785C255.178 188.407 256.159 187.973 257.113 187.486Z" fill="#2F2E41"/>
<path d="M230.103 185.046L230.281 182.215C230.281 182.215 222.088 185.634 218.268 192.009C217.316 193.599 216.794 195.409 216.754 197.261C216.527 204.656 216.92 212.057 217.929 219.386C217.929 219.386 227.449 209.869 238.964 209.21L230.994 202.345C230.994 202.345 221.251 194.564 230.103 185.046Z" fill="#2F2E41"/>
<path d="M180.117 254.181C180.117 254.181 188.934 245.277 191.81 237.727C191.81 237.727 195.791 223.785 204.429 223.785C204.429 223.785 213.949 223.117 213.281 227.542C213.281 227.542 213.504 228.655 211.954 228.655C211.954 228.655 212.622 229.314 212.622 231.326C212.622 231.326 215.721 234.201 213.513 239.953C213.513 239.953 211.518 247.076 205.988 245.491C205.988 245.491 206.647 256.335 196.904 257.217L193.342 260.413C193.342 260.413 187.242 261.116 180.117 254.181Z" fill="#F9B499"/>
<path d="M209.959 236.837C209.44 237.621 209.038 238.475 208.765 239.374C208.286 240.997 207.934 242.655 207.714 244.333C207.661 244.707 207.608 245.09 207.527 245.473C207.073 242.713 207.572 238.626 209.959 236.837V236.837Z" fill="#F7A48B"/>
<path d="M210.182 232.189C210.486 232.025 210.822 231.924 211.167 231.894C211.512 231.864 211.859 231.905 212.188 232.014C212.517 232.123 212.82 232.299 213.078 232.53C213.336 232.76 213.545 233.041 213.69 233.356C214.286 234.545 214.465 235.899 214.198 237.202C214.038 236.57 213.922 235.955 213.753 235.359C213.281 233.489 212.355 231.94 210.191 232.189H210.182Z" fill="#F7A48B"/>
<path d="M211.954 228.655C211.001 228.352 209.968 228.014 209.006 227.809C208.667 227.72 208.329 227.657 207.964 227.542C208.306 227.386 208.675 227.298 209.05 227.283C209.611 227.246 210.172 227.353 210.68 227.593C211.188 227.833 211.626 228.198 211.954 228.655Z" fill="#F7A48B"/>
<path d="M180.117 254.181L181.622 252.631C186.202 255.517 191.483 257.096 196.895 257.199L193.333 260.395C193.333 260.395 187.242 261.116 180.117 254.181Z" fill="#F7A48B"/>
<path d="M239.187 218.469V218.594C239.026 219.101 237.851 219.555 235.99 219.92C232.703 220.469 229.374 220.725 226.042 220.686C218.918 220.686 213.156 219.742 212.88 218.558V218.469C212.88 217.249 218.784 216.252 226.06 216.252C233.336 216.252 239.187 217.249 239.187 218.469Z" fill="#E1E1E2"/>
<path d="M239.16 218.594L234.582 245.304C234.444 246.103 234.028 246.828 233.407 247.351C232.786 247.874 232.001 248.161 231.189 248.162H219.87C219.251 248.167 218.641 248.005 218.106 247.691C217.571 247.377 217.132 246.925 216.834 246.381C216.636 246.023 216.51 245.63 216.46 245.224L212.897 218.638C213.174 219.823 218.962 220.766 226.06 220.766C229.392 220.805 232.72 220.549 236.007 220.001C237.824 219.555 238.999 219.101 239.16 218.594Z" fill="#C2C4C6"/>
<path opacity="0.2" d="M239.16 218.594L234.583 245.304C234.444 246.103 234.028 246.828 233.407 247.351C232.787 247.874 232.001 248.161 231.19 248.162H219.871C219.251 248.167 218.641 248.005 218.106 247.691C217.572 247.377 217.132 246.925 216.834 246.381C219.247 244.877 226.274 239.819 231.688 229.171L235.999 220.001C237.824 219.555 239 219.101 239.16 218.594Z" fill="black"/>
<path d="M353.195 15.2148V203.859H342.348V15.0189C342.348 15.0189 346.168 14.9121 352.954 15.2059L353.195 15.2148Z" fill="#F9A826"/>
<path opacity="0.35" d="M353.195 15.2148V203.859H342.348V15.0189C342.348 15.0189 346.168 14.9121 352.954 15.2059L353.195 15.2148Z" fill="white"/>
<path opacity="0.26" d="M622.14 197.413L560.3 197.564H554.876L534.919 197.609L353.194 198.054H352.972V15.2061H353.194C385.094 16.6039 481.077 26.7804 554.876 96.3155C556.705 98.0308 558.513 99.7848 560.3 101.577C571.801 113.058 582.217 125.575 591.416 138.971C592.769 140.939 594.087 142.924 595.405 144.954C595.557 145.168 595.699 145.391 595.833 145.613C606.317 161.954 615.13 179.308 622.14 197.413V197.413Z" fill="white"/>
<path d="M144.869 353.702L223.905 553.342L227.895 551.356L151.076 355.474L144.869 353.702Z" fill="#C2C4C6"/>
<path d="M225.232 363.442L150.631 553.128L146.642 551.133L219.034 365.214L225.232 363.442Z" fill="#C2C4C6"/>
<path d="M586.099 357.023L509.272 552.683L505.291 550.688L579.892 358.795L586.099 357.023Z" fill="#C2C4C6"/>
<path d="M561.075 377.385C554.238 377.335 547.437 378.381 540.931 380.483L561.965 528.555L558.403 529L530.084 382.255C498.202 392.218 462.785 385.816 462.785 385.816L436.22 529.222H430.877L451.912 382.255C427.778 378.694 428.223 357.023 428.223 357.023C427.177 344.993 425.503 333.025 423.209 321.169C417.367 289.901 408.96 260.76 408.96 260.76C401.539 242.343 395.566 223.374 391.096 204.028C390.303 200.538 389.921 198.57 389.921 198.57C389.475 192.338 406.743 195.009 406.743 195.009C427.137 195.766 449.632 190.361 461.69 186.898C471.078 184.187 480.829 182.943 490.597 183.212C538.036 184.637 528.721 216.252 528.721 216.252L523.378 300.834L577.398 357.495C577.461 371.856 561.075 377.385 561.075 377.385Z" fill="#3F4347"/>
<path opacity="0.2" d="M423.477 321.33L423.21 321.151C417.368 289.883 408.961 260.742 408.961 260.742C401.539 242.325 395.566 223.357 391.097 204.01L414.082 239.259C414.082 239.259 436.426 263.298 423.477 321.33Z" fill="black"/>
<path d="M616.556 331.568C616.495 333.367 615.823 335.091 614.65 336.456C599.44 355.785 495.148 370.743 368.762 370.743C240.861 370.743 135.59 355.429 122.365 335.762C121.486 334.537 120.999 333.075 120.967 331.568C120.967 309.933 231.911 292.394 368.762 292.394C505.612 292.394 616.556 309.933 616.556 331.568Z" fill="#E1E1E2"/>
<path d="M369.483 229.946C369.149 232.853 368.196 235.655 366.687 238.163C363.876 244.878 362.657 252.152 363.125 259.416C366.687 278.896 343.862 298.59 343.862 298.59C321.064 296.596 271.915 306.114 271.915 306.114C255.751 310.761 245.786 294.833 245.786 294.833C245.786 291.272 259.518 249.23 259.518 249.23C275.13 250.931 295.942 246.906 304.812 244.93C307.286 244.384 309.71 243.633 312.061 242.686C329.48 235.697 348.11 233.516 348.11 233.516C359.375 232.047 365.707 229.955 368.254 228.993C368.4 228.931 368.56 228.909 368.717 228.929C368.874 228.95 369.023 229.012 369.148 229.109C369.274 229.206 369.371 229.335 369.429 229.482C369.488 229.629 369.507 229.789 369.483 229.946V229.946Z" fill="white"/>
<path d="M361.165 298.59L350.096 312.31C330.174 306.336 272.173 312.097 272.173 312.097C257.336 314.972 254.46 314.305 254.46 314.305C239.187 311.874 245.822 294.833 245.822 294.833C245.822 294.833 255.787 310.761 271.95 306.114C271.95 306.114 321.1 296.596 343.898 298.59H361.165Z" fill="#E6E6E6"/>
<path d="M274.194 259.193C274.194 259.193 275.084 267.607 272.867 274.026L265.564 284.87L297.882 281.772C297.882 281.772 298.105 274.026 300.1 269.815C300.1 269.815 302.976 261.187 302.095 254.768C302.059 254.768 283.464 257.421 274.194 259.193Z" fill="#CCCCCC"/>
<path d="M313.378 252.996C324.911 248.278 337.592 245.722 349.686 242.82C340.468 249.942 324.893 253.326 313.378 252.996Z" fill="#CCCCCC"/>
<path d="M312.684 262.514C324.323 258.525 336.354 256.771 348.546 255.391C338.705 261.232 324.011 263.502 312.684 262.514Z" fill="#CCCCCC"/>
<path d="M310.029 273.136C321.749 269.174 334.546 267.794 346.773 266.28C337.369 272.201 321.01 274.231 310.029 273.136Z" fill="#CCCCCC"/>
<path d="M306.931 286.642C306.931 286.642 304.179 296.347 296.698 302.116C296.698 302.116 324.635 298.056 333.38 298.323L340.139 285.752C340.139 285.752 336.817 286.865 306.931 286.642Z" fill="#CCCCCC"/>
<path d="M365.921 277.489C365.921 277.489 364.888 282.244 362.056 284.514C360.355 285.876 358.012 286.348 354.851 284.354C352.672 282.011 351.484 278.916 351.538 275.718C350.371 275.632 349.259 275.191 348.35 274.453C347.736 273.786 347.522 272.797 348.439 271.293C348.439 271.293 340.023 270.856 344.449 266.423C344.449 266.423 340.246 260.448 355.964 258.24C355.964 258.24 361.503 258.65 362.83 257.51C363.187 257.208 363.24 256.798 362.83 256.246C362.83 256.246 361.726 254.252 357.3 254.697C357.3 254.697 353.097 255.587 351.654 252.373C351.654 252.373 350.55 249.497 357.407 249.052C357.407 249.052 366.82 247.61 367.924 251.821C367.915 251.821 373.935 266.859 365.921 277.489Z" fill="#F9B499"/>
<path d="M362.839 257.51C363.196 257.208 363.249 256.798 362.839 256.246C362.839 256.246 361.735 254.252 357.309 254.697C357.309 254.697 353.106 255.587 351.663 252.373C351.663 252.373 361.958 250.486 363.73 253.148C363.712 253.148 366.402 257.012 362.839 257.51Z" fill="#F7A48B"/>
<path d="M344.449 266.423C350.532 265.319 356.668 264.499 362.821 263.992C356.748 265.105 350.612 265.915 344.449 266.423Z" fill="#F7A48B"/>
<path d="M348.439 271.311C351.524 270.934 354.638 270.859 357.737 271.088C354.653 271.469 351.538 271.544 348.439 271.311Z" fill="#F7A48B"/>
<path d="M362.055 284.514C360.354 285.876 358.012 286.348 354.851 284.354C352.671 282.011 351.484 278.916 351.538 275.718C350.371 275.632 349.258 275.191 348.35 274.453C349.956 274.91 351.623 275.117 353.292 275.068C353.292 275.068 354.797 284.995 362.055 284.514Z" fill="#F7A48B"/>
<path d="M509.049 368.758L581.664 552.46L585.654 550.466L515.247 370.529L509.049 368.758Z" fill="#C2C4C6"/>
<path d="M616.048 340.641C616.048 362.276 505.113 379.815 368.254 379.815C231.394 379.815 120.459 362.267 120.459 340.641C120.521 338.845 121.193 337.124 122.365 335.762C135.589 355.429 240.861 370.743 368.761 370.743C495.148 370.743 599.413 355.785 614.65 336.456C615.529 337.678 616.016 339.137 616.048 340.641V340.641Z" fill="#9EA0A3"/>
<path d="M560.3 101.586V199.763H554.877V96.3243C556.706 98.0397 558.513 99.7937 560.3 101.586Z" fill="#F9A826"/>
<path opacity="0.35" d="M560.3 101.586V199.763H554.877V96.3243C556.706 98.0397 558.513 99.7937 560.3 101.586Z" fill="white"/>
<path d="M220.574 208.097C220.574 208.097 223.352 207.206 221.839 203.725C221.533 203.182 221.372 202.568 221.372 201.945C221.372 201.321 221.533 200.708 221.839 200.164C221.839 200.164 218.837 201.054 220.574 204.153C220.963 204.737 221.17 205.423 221.17 206.125C221.17 206.826 220.963 207.513 220.574 208.097V208.097Z" fill="#E6E6E6"/>
<path d="M224.377 208.364C224.377 208.364 227.164 207.474 225.642 203.992C225.338 203.448 225.179 202.835 225.179 202.212C225.179 201.588 225.338 200.976 225.642 200.431C225.642 200.431 222.649 201.277 224.377 204.42C224.766 205.004 224.973 205.69 224.973 206.392C224.973 207.094 224.766 207.78 224.377 208.364V208.364Z" fill="#E6E6E6"/>
<path d="M228.152 208.097C228.152 208.097 230.94 207.206 229.417 203.725C229.114 203.181 228.954 202.568 228.954 201.945C228.954 201.321 229.114 200.708 229.417 200.164C229.417 200.164 226.425 201.054 228.152 204.153C228.541 204.737 228.748 205.423 228.748 206.125C228.748 206.826 228.541 207.513 228.152 208.097V208.097Z" fill="#E6E6E6"/>
</svg>
