<svg width="56" height="58" viewBox="0 0 56 58" fill="none" xmlns="http://www.w3.org/2000/svg">
<path d="M4.66667 58C3.37037 58 2.26904 57.5154 1.36267 56.5463C0.454222 55.5793 0 54.4044 0 53.0215V46.7153L12.4444 34.9328V58H4.66667ZM15.5556 58V44.7239H40.4444V58H15.5556ZM43.5556 58V30.784L30.2556 18.1717L39.6667 9.29327L54.4444 23.3162C54.963 23.814 55.3519 24.3805 55.6111 25.0155C55.8704 25.6528 56 26.3309 56 27.0501V53.0215C56 54.4044 55.5458 55.5793 54.6373 56.5463C53.731 57.5154 52.6296 58 51.3333 58H43.5556ZM0 42.2346V27.0501C0 26.3309 0.12963 25.6395 0.388889 24.9757C0.648148 24.3119 1.03704 23.7587 1.55556 23.3162L24.8889 1.24464C25.3037 0.802098 25.7839 0.483471 26.3293 0.288755C26.8727 0.0962514 27.4296 0 28 0C28.5704 0 29.1283 0.0962514 29.6738 0.288755C30.2172 0.483471 30.6963 0.802098 31.1111 1.24464L37.3333 7.13591L0 42.2346Z" fill="#F9A826"/>
</svg>
