<svg width="45" height="38" viewBox="0 0 37 38" fill="none" xmlns="http://www.w3.org/2000/svg">
<path d="M18.5 14.0533C15.8479 14.0533 13.6835 16.2762 13.6835 19C13.6835 21.7238 15.8479 23.9467 18.5 23.9467C21.1522 23.9467 23.3166 21.7238 23.3166 19C23.3166 16.2762 21.1522 14.0533 18.5 14.0533ZM32.9459 19C32.9459 16.9515 32.964 14.9217 32.852 12.8769C32.74 10.5019 32.2125 8.39412 30.5214 6.6574C28.8268 4.91697 26.7781 4.37889 24.4656 4.26385C22.471 4.14881 20.4946 4.16736 18.5037 4.16736C16.5091 4.16736 14.5327 4.14881 12.5417 4.26385C10.2292 4.37889 8.1769 4.92068 6.48589 6.6574C4.79126 8.39783 4.26733 10.5019 4.15532 12.8769C4.04331 14.9254 4.06138 16.9553 4.06138 19C4.06138 21.0447 4.04331 23.0783 4.15532 25.123C4.26733 27.498 4.79487 29.6058 6.48589 31.3426C8.18052 33.083 10.2292 33.6211 12.5417 33.7361C14.5363 33.8512 16.5127 33.8326 18.5037 33.8326C20.4982 33.8326 22.4747 33.8512 24.4656 33.7361C26.7781 33.6211 28.8304 33.0793 30.5214 31.3426C32.2161 29.6021 32.74 27.498 32.852 25.123C32.9676 23.0783 32.9459 21.0484 32.9459 19ZM18.5 26.6111C14.399 26.6111 11.0892 23.2119 11.0892 19C11.0892 14.7881 14.399 11.3888 18.5 11.3888C22.6011 11.3888 25.9109 14.7881 25.9109 19C25.9109 23.2119 22.6011 26.6111 18.5 26.6111ZM26.2144 12.8547C25.2569 12.8547 24.4836 12.0605 24.4836 11.0771C24.4836 10.0937 25.2569 9.29959 26.2144 9.29959C27.1719 9.29959 27.9452 10.0937 27.9452 11.0771C27.9455 11.3106 27.9009 11.5419 27.814 11.7577C27.7271 11.9735 27.5996 12.1696 27.4389 12.3347C27.2781 12.4998 27.0872 12.6307 26.8771 12.72C26.667 12.8092 26.4418 12.855 26.2144 12.8547Z" fill="#F9A826"/>
</svg>
