<svg width="41" height="41" viewBox="0 0 41 41" fill="none" xmlns="http://www.w3.org/2000/svg">
<path d="M20.5 4.1001C13.7145 4.1001 8.19995 9.6146 8.19995 16.4001C8.19995 20.5411 10.5985 24.0056 13.3865 26.4246C14.268 27.1831 15.8055 28.3926 17.179 30.1761C18.696 32.1646 20.0695 34.2966 20.5 35.7316C20.9305 34.2966 22.304 32.1646 23.821 30.1761C25.1945 28.3926 26.732 27.1831 27.6135 26.4246C30.4015 24.0056 32.7999 20.5411 32.7999 16.4001C32.7999 9.6146 27.2854 4.1001 20.5 4.1001ZM20.5 9.3481C21.426 9.3481 22.343 9.5305 23.1986 9.8849C24.0542 10.2393 24.8316 10.7587 25.4865 11.4136C26.1413 12.0684 26.6608 12.8458 27.0151 13.7014C27.3695 14.557 27.552 15.474 27.552 16.4001C27.552 17.3262 27.3695 18.2432 27.0151 19.0988C26.6608 19.9544 26.1413 20.7318 25.4865 21.3866C24.8316 22.0415 24.0542 22.5609 23.1986 22.9153C22.343 23.2697 21.426 23.4521 20.5 23.4521C18.6296 23.4521 16.8359 22.7091 15.5134 21.3866C14.1909 20.0641 13.448 18.2704 13.448 16.4001C13.448 14.5298 14.1909 12.7361 15.5134 11.4136C16.8359 10.0911 18.6296 9.3481 20.5 9.3481Z" fill="#F9A826"/>
</svg>
