<svg width="47" height="34" viewBox="0 0 47 34" fill="none" xmlns="http://www.w3.org/2000/svg">
<path d="M25.5 7L30.5 12L25.5 17" stroke="#2F2E41" stroke-width="1.66667"/>
<path d="M22 17L17 12L22 7" stroke="#2F2E41" stroke-width="1.66667"/>
<path d="M45.4333 0.432373H1.56667C1.15116 0.432373 0.752673 0.565566 0.458866 0.802652C0.165059 1.03974 0 1.36129 0 1.69658V26.9808C0 27.3161 0.165059 27.6376 0.458866 27.8747C0.752673 28.1118 1.15116 28.245 1.56667 28.245H18.0167V30.7734H10.9667V33.3018H36.0333V30.7734H28.9833V28.245H45.4333C45.8488 28.245 46.2473 28.1118 46.5411 27.8747C46.8349 27.6376 47 27.3161 47 26.9808V1.69658C47 1.36129 46.8349 1.03974 46.5411 0.802652C46.2473 0.565566 45.8488 0.432373 45.4333 0.432373ZM43.475 3.27685V20.3437H23.5H3.525V3.27685H43.475ZM21.9461 24.6167C21.9036 24.3549 21.9639 24.0889 22.1183 23.8561C22.2727 23.6233 22.5136 23.4354 22.8072 23.3187C23.1007 23.202 23.4322 23.1624 23.755 23.2055C24.0779 23.2486 24.3759 23.3721 24.6073 23.5588C24.8387 23.7456 24.9918 23.9861 25.0452 24.2466C25.0986 24.5071 25.0495 24.7746 24.9049 25.0114C24.7603 25.2483 24.5274 25.4427 24.2389 25.5673C23.9504 25.6919 23.6208 25.7406 23.2963 25.7063C22.9539 25.6702 22.6359 25.5437 22.3917 25.3467C22.1475 25.1497 21.9908 24.893 21.9461 24.6167Z" fill="#2F2E41"/>
</svg>
