<svg width="55" height="50" viewBox="0 0 55 50" fill="none" xmlns="http://www.w3.org/2000/svg">
<path d="M10.4764 34.6154V26.9231H17.2858V34.6154H10.4764ZM44.5236 5.74615C44.5182 4.22006 43.9778 2.75856 43.0206 1.6816C42.0634 0.604646 40.7675 -1.22087e-05 39.4166 1.84881e-10H5.10709C3.75261 1.84881e-10 2.4536 0.607828 1.49583 1.68977C0.538067 2.77171 0 4.23914 0 5.76923V40.3846C0 42.9348 0.896779 45.3805 2.49306 47.1837C4.08933 48.987 6.25435 50 8.51182 50H46.4882C48.7457 50 50.9107 48.987 52.5069 47.1837C54.1032 45.3805 55 42.9348 55 40.3846V17.3077C55 15.7776 54.4619 14.3102 53.5042 13.2282C52.5464 12.1463 51.2474 11.5385 49.8929 11.5385H47.9284V39.3461C47.9284 39.8562 47.749 40.3453 47.4298 40.706C47.1105 41.0666 46.6775 41.2692 46.226 41.2692C45.7745 41.2692 45.3415 41.0666 45.0223 40.706C44.703 40.3453 44.5236 39.8562 44.5236 39.3461V5.75V5.74615ZM7.07162 13.4615C7.07162 12.9515 7.25098 12.4624 7.57024 12.1017C7.88949 11.7411 8.32249 11.5385 8.77399 11.5385H36.0118C36.4633 11.5385 36.8963 11.7411 37.2156 12.1017C37.5348 12.4624 37.7142 12.9515 37.7142 13.4615C37.7142 13.9716 37.5348 14.4607 37.2156 14.8214C36.8963 15.182 36.4633 15.3846 36.0118 15.3846H8.77399C8.32249 15.3846 7.88949 15.182 7.57024 14.8214C7.25098 14.4607 7.07162 13.9716 7.07162 13.4615ZM25.7976 23.0769H36.0118C36.4633 23.0769 36.8963 23.2795 37.2156 23.6402C37.5348 24.0008 37.7142 24.49 37.7142 25C37.7142 25.51 37.5348 25.9992 37.2156 26.3598C36.8963 26.7205 36.4633 26.9231 36.0118 26.9231H25.7976C25.3461 26.9231 24.9131 26.7205 24.5939 26.3598C24.2746 25.9992 24.0953 25.51 24.0953 25C24.0953 24.49 24.2746 24.0008 24.5939 23.6402C24.9131 23.2795 25.3461 23.0769 25.7976 23.0769ZM24.0953 36.5385C24.0953 36.0284 24.2746 35.5393 24.5939 35.1786C24.9131 34.818 25.3461 34.6154 25.7976 34.6154H36.0118C36.4633 34.6154 36.8963 34.818 37.2156 35.1786C37.5348 35.5393 37.7142 36.0284 37.7142 36.5385C37.7142 37.0485 37.5348 37.5376 37.2156 37.8983C36.8963 38.2589 36.4633 38.4615 36.0118 38.4615H25.7976C25.3461 38.4615 24.9131 38.2589 24.5939 37.8983C24.2746 37.5376 24.0953 37.0485 24.0953 36.5385ZM8.77399 23.0769H18.9882C19.4397 23.0769 19.8727 23.2795 20.1919 23.6402C20.5112 24.0008 20.6905 24.49 20.6905 25V36.5385C20.6905 37.0485 20.5112 37.5376 20.1919 37.8983C19.8727 38.2589 19.4397 38.4615 18.9882 38.4615H8.77399C8.32249 38.4615 7.88949 38.2589 7.57024 37.8983C7.25098 37.5376 7.07162 37.0485 7.07162 36.5385V25C7.07162 24.49 7.25098 24.0008 7.57024 23.6402C7.88949 23.2795 8.32249 23.0769 8.77399 23.0769Z" fill="#F9A826"/>
</svg>
