<svg width="56" height="56" viewBox="0 0 56 56" fill="none" xmlns="http://www.w3.org/2000/svg">
<path d="M36.75 8.75C36.75 11.0706 35.8281 13.2962 34.1872 14.9372C32.5462 16.5781 30.3206 17.5 28 17.5C25.6794 17.5 23.4538 16.5781 21.8128 14.9372C20.1719 13.2962 19.25 11.0706 19.25 8.75C19.25 6.42936 20.1719 4.20376 21.8128 2.56282C23.4538 0.921872 25.6794 0 28 0C30.3206 0 32.5462 0.921872 34.1872 2.56282C35.8281 4.20376 36.75 6.42936 36.75 8.75ZM54.25 10.5C54.25 12.3565 53.5125 14.137 52.1997 15.4497C50.887 16.7625 49.1065 17.5 47.25 17.5C45.3935 17.5 43.613 16.7625 42.3003 15.4497C40.9875 14.137 40.25 12.3565 40.25 10.5C40.25 8.64348 40.9875 6.86301 42.3003 5.55025C43.613 4.2375 45.3935 3.5 47.25 3.5C49.1065 3.5 50.887 4.2375 52.1997 5.55025C53.5125 6.86301 54.25 8.64348 54.25 10.5ZM8.75 17.5C10.6065 17.5 12.387 16.7625 13.6997 15.4497C15.0125 14.137 15.75 12.3565 15.75 10.5C15.75 8.64348 15.0125 6.86301 13.6997 5.55025C12.387 4.2375 10.6065 3.5 8.75 3.5C6.89348 3.5 5.11301 4.2375 3.80025 5.55025C2.4875 6.86301 1.75 8.64348 1.75 10.5C1.75 12.3565 2.4875 14.137 3.80025 15.4497C5.11301 16.7625 6.89348 17.5 8.75 17.5ZM14 25.375C14 22.96 15.96 21 18.375 21H37.625C40.04 21 42 22.96 42 25.375V42C42 45.713 40.525 49.274 37.8995 51.8995C35.274 54.525 31.713 56 28 56C24.287 56 20.726 54.525 18.1005 51.8995C15.475 49.274 14 45.713 14 42V25.375ZM10.5 25.375C10.5 23.7545 10.99 22.253 11.8265 21H4.375C1.96 21 6.24332e-08 22.96 6.24332e-08 25.375V38.5C-0.000163331 39.9984 0.320385 41.4795 0.940106 42.8438C1.55983 44.208 2.46436 45.4238 3.59294 46.4095C4.72152 47.3952 6.04799 48.1279 7.48323 48.5584C8.91847 48.9889 10.4292 49.1073 11.914 48.9055C10.9776 46.7239 10.4964 44.3741 10.5 42V25.375ZM45.5 42C45.5 44.45 44.996 46.788 44.086 48.9055C45.5708 49.1073 47.0815 48.9889 48.5168 48.5584C49.952 48.1279 51.2785 47.3952 52.4071 46.4095C53.5356 45.4238 54.4402 44.208 55.0599 42.8438C55.6796 41.4795 56.0002 39.9984 56 38.5V25.375C56 22.96 54.04 21 51.625 21H44.1735C45.0135 22.253 45.5 23.7545 45.5 25.375V42Z" fill="#F9A826"/>
</svg>
