<svg width="214" height="204" viewBox="0 0 214 204" fill="none" xmlns="http://www.w3.org/2000/svg">
<path d="M44.0086 63.5714L43.9455 63.1727H43.5462C35.7706 63.1727 33.2488 60.6751 33.2278 60.6541L32.8916 60.2764L32.5553 60.6541C32.5343 60.6751 30.0335 63.1727 22.2369 63.1727H21.8376L21.7746 63.5714C21.7535 63.6974 20.1144 76.206 32.6814 82.6282L32.8916 82.7332L33.1017 82.6282C45.7108 76.206 44.0086 63.6974 44.0086 63.5714ZM42.1172 71.3159C40.5621 75.8072 37.4519 79.2912 32.8706 81.6838C28.2893 79.2912 25.179 75.8072 23.6239 71.3159C22.4891 68.0208 22.5521 65.1455 22.6362 64.1171C29.1088 64.0332 31.9879 62.3122 32.8706 61.5986C33.7532 62.2912 36.6323 64.0332 43.1049 64.1171C43.189 65.1665 43.252 68.0208 42.1172 71.3159Z" fill="#2F2E41"/>
<path d="M56.3444 47.495L55.9031 46.3407C55.5038 46.2987 55.1255 46.1938 54.7473 46.0679L53.8436 46.9074L51.2377 45.0395L51.7421 43.9061C51.4899 43.5913 51.2798 43.2555 51.1116 42.8987L49.8718 42.8567L49.3464 39.6876L50.5022 39.2469C50.5442 38.8481 50.6493 38.4703 50.7754 38.0925L49.9348 37.1901L51.8051 34.5666L52.94 35.0703C53.2552 34.8185 53.5914 34.6086 53.9487 34.4407L53.9907 33.2024L57.164 32.6777L57.6053 33.8321C58.0046 33.874 58.3829 33.979 58.7612 34.1049L59.6648 33.2654L62.2707 35.1333L61.7663 36.2666C62.0185 36.5814 62.2287 36.9172 62.3968 37.274L63.6367 37.316L64.162 40.4851L63.0062 40.9259C62.9432 41.3246 62.8591 41.7024 62.733 42.0802L63.5736 42.9827L61.7033 45.6061L60.5685 45.1024C60.2532 45.3543 59.917 45.5642 59.5597 45.7321L59.5177 46.9703L56.3444 47.495ZM54.5371 45.0604L54.7893 45.1654C55.2516 45.3543 55.756 45.4592 56.2604 45.5012L56.5336 45.5222L56.9118 46.5086L58.6561 46.2148L58.6981 45.1654L58.9503 45.0604C59.4126 44.8506 59.8329 44.5777 60.2322 44.2629L60.4424 44.095L61.4091 44.5358L62.4388 43.1086L61.7033 42.3321L61.8084 42.0802C61.9975 41.6185 62.1026 41.1148 62.1446 40.6111L62.1656 40.3382L63.1533 39.9604L62.8591 38.2185L61.8084 38.1765L61.7033 37.9246C61.4931 37.4629 61.2199 37.0432 60.9047 36.6444L60.7366 36.4345L61.1779 35.4691L59.7489 34.4407L58.9713 35.1543L58.7191 35.0493C58.2568 34.8605 57.7524 34.7555 57.2481 34.7135L56.9749 34.6926L56.5966 33.7061L54.8523 34L54.8103 35.0493L54.5581 35.1543C54.0958 35.3642 53.6755 35.637 53.2762 35.9518L53.0661 36.1197L52.0994 35.679L51.0696 37.1061L51.8051 37.8827L51.7001 38.1345C51.5109 38.5963 51.4059 39.1 51.3638 39.6037L51.3428 39.8765L50.3551 40.2543L50.6493 41.9963L51.7001 42.0382L51.8051 42.2901C52.0153 42.7518 52.2885 43.1716 52.6037 43.5703L52.7718 43.7802L52.3305 44.7456L53.7596 45.774L54.5371 45.0604ZM56.7227 43.5913C56.0082 43.5913 55.2937 43.3605 54.7052 42.9407C53.1291 41.8284 52.7718 39.6456 53.8856 38.0716C54.9994 36.4975 57.185 36.1407 58.7612 37.253C59.5177 37.7987 60.0221 38.5963 60.1902 39.5197C60.3373 40.4432 60.1271 41.3666 59.6018 42.1222C59.0554 42.8777 58.2568 43.3814 57.3321 43.5493C57.101 43.5703 56.9118 43.5913 56.7227 43.5913ZM56.7227 37.4839C55.9031 37.4839 55.1045 37.8617 54.6002 38.5753C54.2009 39.1419 54.0327 39.8345 54.1588 40.5271C54.2849 41.2197 54.6422 41.8074 55.2096 42.2061C55.777 42.6049 56.4705 42.7728 57.164 42.6469C57.8575 42.5209 58.4459 42.1642 58.8452 41.5975C59.2445 41.0308 59.4126 40.3382 59.2865 39.6456C59.1604 38.953 58.8032 38.3654 58.2358 37.9666C57.7734 37.6518 57.2481 37.4839 56.7227 37.4839Z" fill="#2F2E41"/>
<path d="M157.091 81.7049L156.103 79.1235C155.053 78.9975 154.002 78.7667 153.014 78.4099L150.997 80.2988L145.533 76.416L146.667 73.8975C146.016 73.079 145.449 72.1765 144.986 71.2111L142.233 71.1272L141.12 64.516L143.704 63.5296C143.83 62.4802 144.062 61.4309 144.419 60.4444L142.528 58.4296L146.415 52.9728L148.937 54.1062C149.757 53.4556 150.66 52.8889 151.627 52.4272L151.711 49.6778L158.331 48.5654L159.319 51.1469C160.369 51.2728 161.42 51.5037 162.408 51.8605L164.425 49.9716L169.889 53.8543L168.754 56.3728C169.406 57.1914 169.973 58.0938 170.436 59.0593L173.189 59.1432L174.302 65.7543L171.718 66.7407C171.591 67.7901 171.36 68.8395 171.003 69.8259L172.894 71.8407L169.007 77.2975L166.485 76.1642C165.665 76.8148 164.762 77.3815 163.795 77.8432L163.711 80.5926L157.091 81.7049ZM152.72 77.0667L153.056 77.1926C154.17 77.6123 155.347 77.8852 156.545 77.9901L156.923 78.0321L157.827 80.3827L162.534 79.5852L162.618 77.0667L162.954 76.9197C164.047 76.437 165.077 75.7864 166.001 75.0099L166.275 74.779L168.586 75.8074L171.36 71.9247L169.637 70.0778L169.763 69.742C170.183 68.6296 170.457 67.4543 170.562 66.258L170.583 65.8802L172.936 64.9778L172.138 60.2765L169.616 60.1926L169.469 59.8568C168.986 58.7654 168.334 57.737 167.557 56.8136L167.325 56.5407L168.355 54.2321L164.467 51.4617L162.618 53.1827L162.282 53.0568C161.168 52.637 159.991 52.3642 158.793 52.2593L158.415 52.2383L157.511 49.8877L152.804 50.6852L152.72 53.2037L152.384 53.3506C151.291 53.8333 150.261 54.4839 149.336 55.2605L149.063 55.4914L146.752 54.463L144.02 58.3457L145.743 60.1926L145.617 60.5284C145.196 61.6407 144.923 62.816 144.818 64.0123L144.797 64.3901L142.443 65.2926L143.242 69.9938L145.764 70.0778L145.911 70.4136C146.394 71.5049 147.046 72.5333 147.823 73.4568L148.055 73.7296L147.025 76.0383L150.913 78.8086L152.72 77.0667ZM157.679 72.7432C156.145 72.7432 154.611 72.2815 153.266 71.337C149.841 68.9025 149.042 64.1383 151.48 60.7173C153.918 57.2963 158.688 56.4988 162.114 58.9333C165.539 61.3679 166.338 66.1321 163.9 69.5531C162.408 71.6309 160.054 72.7432 157.679 72.7432ZM157.7 58.7025C155.683 58.7025 153.687 59.6469 152.447 61.4099C151.438 62.816 151.06 64.516 151.333 66.216C151.627 67.916 152.552 69.3852 153.96 70.3926C156.86 72.4494 160.895 71.7778 162.954 68.8815C163.942 67.4753 164.341 65.7753 164.068 64.0753C163.774 62.3753 162.849 60.9062 161.441 59.8988C160.285 59.0802 158.982 58.7025 157.7 58.7025Z" fill="#2F2E41"/>
<path d="M54.7683 128.927C53.7596 126.094 52.6037 122.904 53.8857 119.63C55.6089 115.222 51.9523 112.956 48.737 110.92C45.963 109.199 43.3571 107.562 44.2397 104.854C45.2064 101.916 45.1434 99.6494 44.0506 98.1593C43.1259 96.9 41.4867 96.2284 39.3012 96.2494C37.5569 96.2704 36.0018 94.1296 34.3416 91.8839C32.3872 89.2395 30.3907 86.5111 27.8689 87.1197C27.4276 87.2247 27.0703 87.4765 26.8602 87.8753C25.9776 89.5333 27.3646 93.479 28.8566 97.6765C30.4538 102.21 32.2821 107.331 31.0842 109.514C29.7813 111.906 32.135 114.089 34.6358 116.419C37.2837 118.874 40.2889 121.665 39.4903 125.17C38.7338 128.444 38.5656 129.662 39.028 130.375C39.3852 130.942 40.1207 131.068 41.2346 131.278C41.9911 131.425 42.9578 131.593 44.1346 131.97C49.1993 133.544 50.6703 136.819 50.6914 136.86L50.7544 137.007L50.9015 136.986C53.3393 136.609 54.7683 135.916 55.4408 134.804C55.4828 134.741 55.5038 134.678 55.5459 134.615C56.2604 133.125 55.5669 131.173 54.7683 128.927Z" fill="#2F2E41"/>
<path d="M41.823 122.673C42.6636 123.974 43.273 125.107 43.21 126.703C43.168 128.193 42.9368 129.662 42.8107 131.131C42.7897 131.446 42.7687 131.74 42.7477 132.033C42.3274 131.677 41.9281 131.32 41.5078 130.963C41.3186 130.942 41.1295 130.942 40.9194 130.942C41.5078 131.425 42.1172 131.949 42.7056 132.474C42.6426 133.503 42.6216 134.531 42.6216 135.559C42.6216 136.168 42.6006 136.819 42.6426 137.427C42.0962 137.091 41.5288 136.756 41.0034 136.42C39.3642 135.412 37.8301 134.468 36.6533 133.964C35.7496 133.586 34.7409 133.251 33.7742 132.936C31.2524 132.117 28.6675 131.278 27.8059 129.494C27.3646 128.57 27.4066 127.458 27.932 126.115C29.256 122.652 28.0161 122.064 25.9356 121.057C24.4225 120.322 22.363 119.336 20.3035 116.838C19.3999 115.747 18.6013 114.803 17.8868 113.984C15.7642 111.486 14.5874 110.122 14.7345 109.325C14.7765 109.136 14.8816 108.968 15.0917 108.8C15.1968 108.716 15.3229 108.632 15.491 108.548C16.2896 108.107 17.0882 108.443 17.9918 108.821C19.2107 109.325 20.7028 109.975 22.7833 108.905C24.4225 108.066 26.2508 107.289 27.3436 107.919C28.1001 108.338 28.5414 109.43 28.6885 111.214C28.7306 111.78 28.9197 112.179 29.2349 112.41C29.6973 112.746 30.4118 112.704 31.2314 112.536C31.7988 113.312 32.5343 113.69 33.417 114.005C34.6568 114.446 35.5815 114.845 36.4852 115.852C38.4185 118.035 40.2889 120.259 41.823 122.673Z" fill="#3F3D56"/>
<path d="M35.1191 126.136C33.8582 125.296 32.7654 123.26 31.7147 121.288C30.2857 118.601 28.7936 115.831 26.7551 115.894C23.4767 115.978 20.5556 112.116 20.5136 112.095L20.2404 112.305C20.3665 112.473 23.3086 116.334 26.7551 116.251C28.5834 116.209 30.0335 118.874 31.3995 121.476C32.4712 123.47 33.585 125.548 34.909 126.451C35.7076 126.975 37.1786 128.046 38.9229 129.41C38.9229 129.263 38.9229 129.116 38.9229 128.969C37.3888 127.689 36.0228 126.723 35.1191 126.136Z" fill="white"/>
<path d="M145.869 152.14C145.869 152.14 147.76 147.438 144.314 140.764C140.846 134.09 138.051 135.119 146.394 129.977C154.737 124.835 146.436 108.674 153.539 106.617C160.643 104.561 166.8 78.3889 172.201 81.7259C177.602 85.063 170.394 97.8864 174.26 101.748C178.106 105.61 178.632 110.5 170.667 114.467C162.702 118.433 176.32 133.586 165.518 138.204C154.716 142.821 157.827 160.933 145.869 152.14Z" fill="#2F2E41"/>
<path d="M149.168 157.113C149.147 157.05 147.991 151.048 151.669 143.283C155.41 135.37 157.196 126.723 156.461 120.133C156.061 116.565 158.352 115.18 160.558 113.837C162.744 112.515 164.993 111.129 164.867 107.625C164.762 104.455 166.106 97.0258 166.149 96.7109L166.632 96.7949C166.611 96.8788 165.245 104.497 165.35 107.604C165.476 111.402 163.101 112.85 160.811 114.236C158.625 115.558 156.587 116.817 156.944 120.07C157.7 126.723 155.893 135.475 152.11 143.471C148.517 151.09 149.631 156.945 149.652 157.008L149.168 157.113Z" fill="white"/>
<path d="M177.854 118.119C180.859 116.691 184.053 117.342 182.393 120.343C180.733 123.344 178.253 123.575 178.716 125.947C179.178 128.319 180.397 130.9 176.488 132.411C172.579 133.901 170.751 133.649 168.376 138.036C165.98 142.422 165.161 145.675 161.063 144.626C156.965 143.556 160.369 138.162 162.492 135.895C162.492 135.895 165.371 133.461 165.329 129.074C165.287 124.688 163.48 121.749 169.154 122.043C174.828 122.295 175.816 119.084 177.854 118.119Z" fill="#3F3D56"/>
<path d="M160.411 147.69C160.579 147.124 164.53 133.544 167.767 132.075C171.066 130.564 172.852 126.619 173.63 124.415C174.639 121.54 178.947 120.973 179.115 120.952L179.178 121.435C179.136 121.435 174.996 121.98 174.092 124.562C173.126 127.353 171.276 131.005 167.977 132.516C164.951 133.901 160.937 147.69 160.895 147.837L160.411 147.69Z" fill="white"/>
<path d="M56.3234 136.755C49.8507 135.139 49.7667 131.655 49.6826 128.297C49.6196 125.548 49.5565 122.946 46.047 121.35C41.4026 119.231 41.2976 115.306 41.1925 111.843C41.1084 109.262 41.0454 106.827 39.112 105.505C34.4676 102.336 30.5378 94.6542 30.4958 94.5702L30.853 94.3813C30.8951 94.4653 34.7619 102.042 39.3432 105.169C41.4447 106.596 41.5287 109.136 41.5918 111.822C41.6969 115.327 41.8019 118.979 46.2151 120.973C49.9348 122.673 50.0189 125.527 50.0819 128.276C50.166 131.634 50.25 134.825 56.4285 136.357L56.3234 136.755Z" fill="white"/>
<path d="M47.6021 133.649H153.918V57.0024C153.918 55.911 153.035 55.0085 151.921 55.0085H49.5985C48.5058 55.0085 47.6021 55.89 47.6021 57.0024V133.649Z" fill="#F7F7F7"/>
<path d="M51.3574 119.359L149.96 119.359V58.852L51.3574 58.852L51.3574 119.359Z" fill="#2F2E41" stroke="white" stroke-width="0.5" stroke-miterlimit="10"/>
<path d="M153.918 122.295H100.77H47.6442L36.0018 165.718H101.128H165.539L153.918 122.295Z" fill="#F2F2F2"/>
<path d="M51.6581 129.914H58.1938C58.467 129.914 58.6771 130.123 58.6141 130.354L57.9836 133.188C57.9416 133.356 57.7735 133.481 57.5633 133.481H50.9225C50.6493 133.481 50.4392 133.272 50.5022 133.02L51.2378 130.186C51.2798 130.039 51.4479 129.914 51.6581 129.914Z" fill="#2F2E41" stroke="white" stroke-width="0.5" stroke-miterlimit="10"/>
<path d="M61.1779 129.914H66.1165L65.465 133.502H60.4214L61.1779 129.914Z" fill="#2F2E41" stroke="white" stroke-width="0.5" stroke-miterlimit="10"/>
<path d="M68.5753 129.914H73.5138L73.0095 133.502H67.9658L68.5753 129.914Z" fill="#2F2E41" stroke="white" stroke-width="0.5" stroke-miterlimit="10"/>
<path d="M75.9936 129.914H80.9322L80.5539 133.502H75.5103L75.9936 129.914Z" fill="#2F2E41" stroke="white" stroke-width="0.5" stroke-miterlimit="10"/>
<path d="M83.3909 129.914H88.3295L88.0983 133.502H83.0547L83.3909 129.914Z" fill="#2F2E41" stroke="white" stroke-width="0.5" stroke-miterlimit="10"/>
<path d="M90.7883 129.914H95.7268L95.6428 133.502H90.5991L90.7883 129.914Z" fill="#2F2E41" stroke="white" stroke-width="0.5" stroke-miterlimit="10"/>
<path d="M150.051 129.914H142.633L143.431 133.502H150.976L150.051 129.914Z" fill="#2F2E41" stroke="white" stroke-width="0.5" stroke-miterlimit="10"/>
<path d="M140.174 129.914H135.235L135.887 133.502H140.93L140.174 129.914Z" fill="#2F2E41" stroke="white" stroke-width="0.5" stroke-miterlimit="10"/>
<path d="M132.777 129.914H127.838L128.342 133.502H133.386L132.777 129.914Z" fill="#2F2E41" stroke="white" stroke-width="0.5" stroke-miterlimit="10"/>
<path d="M125.358 129.914H120.42L120.798 133.502H125.841L125.358 129.914Z" fill="#2F2E41" stroke="white" stroke-width="0.5" stroke-miterlimit="10"/>
<path d="M117.961 129.914H113.022L113.253 133.502H118.297L117.961 129.914Z" fill="#2F2E41" stroke="white" stroke-width="0.5" stroke-miterlimit="10"/>
<path d="M110.563 129.914H105.625L105.709 133.502H110.753L110.563 129.914Z" fill="#2F2E41" stroke="white" stroke-width="0.5" stroke-miterlimit="10"/>
<path d="M98.2066 129.914H103.145L103.208 133.502H98.2066V129.914Z" fill="#2F2E41" stroke="white" stroke-width="0.5" stroke-miterlimit="10"/>
<path d="M49.4935 136.168H59.7909L59.2025 139.862H48.6949L49.4935 136.168Z" fill="#2F2E41" stroke="white" stroke-width="0.5" stroke-miterlimit="10"/>
<path d="M151.648 136.168H138.913L139.627 139.862H152.636L151.648 136.168Z" fill="#2F2E41" stroke="white" stroke-width="0.5" stroke-miterlimit="10"/>
<path d="M136.349 136.168H131.263L131.831 139.862H137.043L136.349 136.168Z" fill="#2F2E41" stroke="white" stroke-width="0.5" stroke-miterlimit="10"/>
<path d="M128.7 136.168H123.614L124.034 139.862H129.246L128.7 136.168Z" fill="#2F2E41" stroke="white" stroke-width="0.5" stroke-miterlimit="10"/>
<path d="M121.05 136.168H115.964L116.259 139.862H121.449L121.05 136.168Z" fill="#2F2E41" stroke="white" stroke-width="0.5" stroke-miterlimit="10"/>
<path d="M113.4 136.168H108.315L108.462 139.862H113.653L113.4 136.168Z" fill="#2F2E41" stroke="white" stroke-width="0.5" stroke-miterlimit="10"/>
<path d="M47.9384 142.737H58.488L57.7104 146.41H46.9717L47.9384 142.737Z" fill="#2F2E41" stroke="white" stroke-width="0.5" stroke-miterlimit="10"/>
<path d="M61.1148 142.737H66.3896L65.7802 146.41H60.4003L61.1148 142.737Z" fill="#2F2E41" stroke="white" stroke-width="0.5" stroke-miterlimit="10"/>
<path d="M69.0376 142.737H74.3124H108.567L108.714 146.41H68.4492L69.0376 142.737Z" fill="#2F2E41" stroke="white" stroke-width="0.5" stroke-miterlimit="10"/>
<path d="M111.215 142.737H116.49L116.784 146.41H111.404L111.215 142.737Z" fill="#2F2E41" stroke="white" stroke-width="0.5" stroke-miterlimit="10"/>
<path d="M119.117 142.737H124.391L124.833 146.41H119.453L119.117 142.737Z" fill="#2F2E41" stroke="white" stroke-width="0.5" stroke-miterlimit="10"/>
<path d="M127.039 142.737H132.314L132.882 146.41H127.523L127.039 142.737Z" fill="#2F2E41" stroke="white" stroke-width="0.5" stroke-miterlimit="10"/>
<path d="M134.941 142.737H140.216L140.93 146.41H135.571L134.941 142.737Z" fill="#2F2E41" stroke="white" stroke-width="0.5" stroke-miterlimit="10"/>
<path d="M142.843 142.737H153.392L154.359 146.41H143.62L142.843 142.737Z" fill="#2F2E41" stroke="white" stroke-width="0.5" stroke-miterlimit="10"/>
<path d="M105.772 136.168H100.707V139.862H105.856L105.772 136.168Z" fill="#2F2E41" stroke="white" stroke-width="0.5" stroke-miterlimit="10"/>
<path d="M98.1225 136.168H93.0158L92.8687 139.862H98.0805L98.1225 136.168Z" fill="#2F2E41" stroke="white" stroke-width="0.5" stroke-miterlimit="10"/>
<path d="M90.473 136.168H85.3664L85.0721 139.862H90.2839L90.473 136.168Z" fill="#2F2E41" stroke="white" stroke-width="0.5" stroke-miterlimit="10"/>
<path d="M82.8235 136.168H77.7168L77.2755 139.862H82.4873L82.8235 136.168Z" fill="#2F2E41" stroke="white" stroke-width="0.5" stroke-miterlimit="10"/>
<path d="M75.174 136.168H70.0673L69.4789 139.862H74.6906L75.174 136.168Z" fill="#2F2E41" stroke="white" stroke-width="0.5" stroke-miterlimit="10"/>
<path d="M67.5245 136.168H62.4178L61.7033 139.862H66.894L67.5245 136.168Z" fill="#2F2E41" stroke="white" stroke-width="0.5" stroke-miterlimit="10"/>
<path d="M51.8892 127.668L52.7298 124.478H55.1256L54.348 127.668H51.8892Z" fill="#2F2E41" stroke="white" stroke-width="0.5" stroke-miterlimit="10"/>
<path d="M57.5213 124.478H62.3127L61.6612 127.668H56.7647L57.5213 124.478Z" fill="#2F2E41" stroke="white" stroke-width="0.5" stroke-miterlimit="10"/>
<path d="M64.7295 124.478H69.5209L68.9745 127.668H64.099L64.7295 124.478Z" fill="#2F2E41" stroke="white" stroke-width="0.5" stroke-miterlimit="10"/>
<path d="M71.9167 124.478H76.7081L76.2878 127.668H71.4123L71.9167 124.478Z" fill="#2F2E41" stroke="white" stroke-width="0.5" stroke-miterlimit="10"/>
<path d="M79.1038 124.478H83.8952L83.601 127.668H78.7255L79.1038 124.478Z" fill="#2F2E41" stroke="white" stroke-width="0.5" stroke-miterlimit="10"/>
<path d="M86.291 124.478H91.0825L90.9143 127.668H86.0388L86.291 124.478Z" fill="#2F2E41" stroke="white" stroke-width="0.5" stroke-miterlimit="10"/>
<path d="M93.4782 124.478H98.2696L98.2276 127.668H93.3521L93.4782 124.478Z" fill="#2F2E41" stroke="white" stroke-width="0.5" stroke-miterlimit="10"/>
<path d="M100.665 124.478H105.457L105.541 127.668H100.665V124.478Z" fill="#2F2E41" stroke="white" stroke-width="0.5" stroke-miterlimit="10"/>
<path d="M107.853 124.478H112.644L112.854 127.668H107.979L107.853 124.478Z" fill="#2F2E41" stroke="white" stroke-width="0.5" stroke-miterlimit="10"/>
<path d="M115.04 124.478H119.852L120.167 127.668H115.292L115.04 124.478Z" fill="#2F2E41" stroke="white" stroke-width="0.5" stroke-miterlimit="10"/>
<path d="M122.248 124.478H127.039L127.502 127.668H122.626L122.248 124.478Z" fill="#2F2E41" stroke="white" stroke-width="0.5" stroke-miterlimit="10"/>
<path d="M129.435 124.478H134.227L134.815 127.668H129.939L129.435 124.478Z" fill="#2F2E41" stroke="white" stroke-width="0.5" stroke-miterlimit="10"/>
<path d="M136.622 124.478H141.414L142.128 127.668H137.253L136.622 124.478Z" fill="#2F2E41" stroke="white" stroke-width="0.5" stroke-miterlimit="10"/>
<path d="M143.809 124.478H148.601L149.442 127.668H144.566L143.809 124.478Z" fill="#2F2E41" stroke="white" stroke-width="0.5" stroke-miterlimit="10"/>
<path d="M162.156 169.098H39.3852C37.5149 169.098 36.0018 167.586 36.0018 165.719H165.539C165.539 167.586 164.026 169.098 162.156 169.098Z" fill="#D3D3D3"/>
<path d="M115.838 151.678C115.712 150.922 115.04 150.355 114.283 150.355H100.791H87.2787C86.5012 150.355 85.8497 150.922 85.7236 151.678L84.0424 161.857C83.8743 162.822 84.6308 163.704 85.5975 163.704H100.77H115.943C116.931 163.704 117.667 162.822 117.499 161.857L115.838 151.678Z" fill="#D3D3D3"/>
<path d="M68.9956 63.9912H58.0046V65.1245H68.9956V63.9912Z" fill="#F7F7F7"/>
<path d="M80.0075 72.4492H72.0848V73.5826H80.0075V72.4492Z" fill="#F7F7F7"/>
<path d="M86.5012 72.4492H81.2474V73.5826H86.5012V72.4492Z" fill="#F7F7F7"/>
<path d="M63.3845 93.7307H58.1307V94.864H63.3845V93.7307Z" fill="#F7F7F7"/>
<path d="M100.266 72.4492H87.5519V73.5826H100.266V72.4492Z" fill="#F7F7F7"/>
<path d="M66.3056 89.4702H58.1307V90.6036H66.3056V89.4702Z" fill="#F7F7F7"/>
<path d="M74.5015 97.9492H69.5209V99.0826H74.5015V97.9492Z" fill="#F7F7F7"/>
<path d="M68.0079 97.9492H58.1307V99.0826H68.0079V97.9492Z" fill="#F7F7F7"/>
<path d="M63.5737 102.189H58.1307V103.322H63.5737V102.189Z" fill="#F7F7F7"/>
<path d="M78.9357 63.9912H71.1391V65.1245H78.9357V63.9912Z" fill="#F7F7F7"/>
<path d="M78.9357 76.6887H71.1391V77.8221H78.9357V76.6887Z" fill="#F7F7F7"/>
<path d="M70.5717 80.9072H67.2303V82.0406H70.5717V80.9072Z" fill="#F7F7F7"/>
<path d="M71.3913 85.2097H63.9099V86.343H71.3913V85.2097Z" fill="#F7F7F7"/>
<path d="M82.8656 85.2097H72.5261V86.343H82.8656V85.2097Z" fill="#F7F7F7"/>
<path d="M65.9274 80.9492H58.1307V82.0826H65.9274V80.9492Z" fill="#F7F7F7"/>
<path d="M62.7541 85.2097H58.1307V86.343H62.7541V85.2097Z" fill="#F7F7F7"/>
<path d="M76.519 80.9492H72.1478V82.0826H76.519V80.9492Z" fill="#F7F7F7"/>
<path d="M62.649 106.407H58.2778V107.541H62.649V106.407Z" fill="#F7F7F7"/>
<path d="M65.9064 72.4492H58.1097V73.5826H65.9064V72.4492Z" fill="#F7F7F7"/>
<path d="M72.7993 93.7307H65.0027V94.864H72.7993V93.7307Z" fill="#F7F7F7"/>
<path d="M72.9043 102.189H65.1077V103.322H72.9043V102.189Z" fill="#F7F7F7"/>
<path d="M86.7533 102.189H78.9567V103.322H86.7533V102.189Z" fill="#F7F7F7"/>
<path d="M69.2267 76.6887H58.1097V77.8221H69.2267V76.6887Z" fill="#F7F7F7"/>
<path d="M118.003 63.9912H110.206V65.1245H118.003V63.9912Z" fill="#F7F7F7"/>
<path d="M90.2209 106.407H82.4243V107.541H90.2209V106.407Z" fill="#F7F7F7"/>
<path d="M125.631 63.9912H120.42V65.1245H125.631V63.9912Z" fill="#F7F7F7"/>
<path d="M143.305 68.2307H138.093V69.364H143.305V68.2307Z" fill="#F7F7F7"/>
<path d="M90.9774 63.9912H81.0372V65.1245H90.9774V63.9912Z" fill="#F7F7F7"/>
<path d="M129.687 68.2307H119.747V69.364H129.687V68.2307Z" fill="#F7F7F7"/>
<path d="M117.499 72.4492H107.558V73.5826H117.499V72.4492Z" fill="#F7F7F7"/>
<path d="M104.574 76.6887H94.634V77.8221H104.574V76.6887Z" fill="#F7F7F7"/>
<path d="M125.799 72.4492H118.738V73.5826H125.799V72.4492Z" fill="#F7F7F7"/>
<path d="M108.252 63.9912H98.3116V65.1245H108.252V63.9912Z" fill="#F7F7F7"/>
<path d="M92.8057 76.6887H86.9845V77.8221H92.8057V76.6887Z" fill="#F7F7F7"/>
<path d="M88.2454 93.7937H82.4243V94.927H88.2454V93.7937Z" fill="#F7F7F7"/>
<path d="M96.4413 63.9912H92.8057V65.1245H96.4413V63.9912Z" fill="#F7F7F7"/>
<path d="M84.6729 76.6887H81.0372V77.8221H84.6729V76.6887Z" fill="#F7F7F7"/>
<path d="M135.719 68.2307H132.083V69.364H135.719V68.2307Z" fill="#F7F7F7"/>
<path d="M63.6997 68.2307H58.0046V69.364H63.6997V68.2307Z" fill="#F7F7F7"/>
<path d="M77.6958 89.4912H73.1986V90.6245H77.6958V89.4912Z" fill="#F7F7F7"/>
<path d="M66.936 68.2307H65.1077V69.364H66.936V68.2307Z" fill="#F7F7F7"/>
<path d="M118.003 68.2307H102.809V69.364H118.003V68.2307Z" fill="#F7F7F7"/>
<path d="M103.439 102.189H88.2454V103.322H103.439V102.189Z" fill="#F7F7F7"/>
<path d="M70.1514 68.2307H68.2811V69.364H70.1514V68.2307Z" fill="#F7F7F7"/>
<path d="M101.401 68.2307H96.4413V69.364H101.401V68.2307Z" fill="#F7F7F7"/>
<path d="M106.381 72.4492H101.422V73.5826H106.381V72.4492Z" fill="#F7F7F7"/>
<path d="M80.8271 106.407H75.8675V107.541H80.8271V106.407Z" fill="#F7F7F7"/>
<path d="M95.1384 68.2307H84.5677V69.364H95.1384V68.2307Z" fill="#F7F7F7"/>
<path d="M80.8901 93.7937H74.7117V94.927H80.8901V93.7937Z" fill="#F7F7F7"/>
<path d="M77.4226 102.189H74.3334V103.322H77.4226V102.189Z" fill="#F7F7F7"/>
<path d="M83.0547 68.2307H79.4191V69.364H83.0547V68.2307Z" fill="#F7F7F7"/>
<path d="M70.8239 72.4492H67.1882V73.5826H70.8239V72.4492Z" fill="#F7F7F7"/>
<path d="M71.5384 89.4912H67.9028V90.6245H71.5384V89.4912Z" fill="#F7F7F7"/>
<path d="M78.0531 68.2307H71.7065V69.364H78.0531V68.2307Z" fill="#F7F7F7"/>
<path d="M124.917 76.7307C124.917 76.7307 126.766 79.8579 127.544 80.3616C128.594 81.0542 127.943 81.7468 127.439 81.7678C126.934 81.7678 124.37 81.9566 123.803 81.306C123.236 80.6554 122.962 78.7455 122.437 78.2418C121.912 77.7381 121.365 75.7443 122.689 75.2616C123.845 74.8208 124.917 76.7307 124.917 76.7307Z" fill="#FFB750"/>
<path d="M124.097 75.3667C124.097 75.3667 126.22 79.0395 126.577 79.5642C126.934 80.1099 125.884 80.1099 125.232 79.858C124.581 79.6062 122.941 76.9827 122.71 76.5C122.437 75.9333 122.668 75.2827 122.668 75.2827L124.097 75.3667Z" fill="#FFE3CA"/>
<path d="M121.954 77.3184L122.458 81.0751L122.71 81.0961L122.626 78.3887L121.954 77.3184Z" fill="#FFB750"/>
<path d="M106.571 76.7308C106.571 76.7308 108.42 79.8579 109.197 80.3616C110.248 81.0542 109.597 81.7468 109.092 81.7678C108.588 81.7678 106.024 81.9567 105.457 81.3061C104.889 80.6555 104.616 78.7456 104.091 78.2419C103.565 77.7382 102.998 75.6814 104.343 75.2616C105.52 74.8839 106.571 76.7308 106.571 76.7308Z" fill="#FFB750"/>
<path d="M105.877 75.3667C105.877 75.3667 107.874 79.0185 108.252 79.5642C108.609 80.1099 107.558 80.1099 106.907 79.858C106.255 79.6062 104.616 76.9827 104.385 76.5C104.112 75.9333 104.343 75.2827 104.343 75.2827L105.877 75.3667Z" fill="#FFE3CA"/>
<path d="M103.628 77.3184L104.112 81.0751L104.385 81.0961L104.301 78.3887L103.628 77.3184Z" fill="#FFB750"/>
<path d="M98.3747 48.2506L115.103 55.8692C115.103 55.8692 116.973 56.4778 117.183 58.5556C117.835 65.0198 122.668 75.2617 122.668 75.2617C124.223 76.0173 124.097 75.3667 124.097 75.3667C123.11 72.2185 121.933 59.2901 121.491 54.1062C121.407 53.0148 121.344 52.2593 121.323 52.0074C121.323 51.8395 121.134 51.6296 120.819 51.3778C118.528 49.5099 109.071 45.6692 109.071 45.6692C102.031 45.4803 98.3747 48.2506 98.3747 48.2506Z" fill="#FFE3CA"/>
<path d="M95.2224 51.5248C95.7478 56.0371 102.199 55.5334 102.199 55.5334H110.017C110.017 55.5334 107.958 60.1087 107.159 63.9494C106.318 68.042 104.322 75.2618 104.322 75.2618C104.322 75.2618 104.448 75.5136 105.877 75.3667C105.877 75.3667 112.014 63.1519 114.367 60.0667C114.872 59.4161 116.322 55.8062 116.574 53.6655C116.658 52.9519 116.616 52.3852 116.343 52.1544C116.069 51.9235 115.439 51.5038 114.619 50.9791C112.161 49.426 107.916 47.0544 105.541 46.5297C102.368 45.8161 97.345 44.4729 97.345 44.4729C97.345 44.4729 94.697 47.0124 95.2224 51.5248Z" fill="#FFE3CA"/>
<path d="M100.539 16.7271C100.539 16.7271 99.3624 14.5024 99.9298 12.1518C100.497 9.78019 102.704 7.42958 105.919 8.52093C109.134 9.61229 111.74 12.0888 109.807 14.9851C107.874 17.8604 111.551 19.1827 110.606 20.5469C109.66 21.9111 110.017 23.3592 110.416 23.674C110.816 23.9888 112.098 25.1222 111.95 26.4864C111.803 27.8296 105.709 22.5617 105.709 22.5617C105.709 22.5617 102.41 15.8666 100.539 16.7271Z" fill="#3F3D56"/>
<path d="M110.353 45.1024C110.353 45.1024 109.87 47.453 97.366 44.4938C97.366 44.4938 101.548 43.1086 110.353 45.1024Z" fill="#EB4747"/>
<path d="M97.2189 45.1443C97.0297 45.5221 96.8406 45.8789 96.6304 46.2566C101.191 46.3826 105.772 46.5295 110.332 46.6554C109.618 44.2418 109.849 40.9678 109.975 38.4912C110.122 35.448 111.803 33.3492 111.635 30.285C112.539 30.4319 112.686 30.4529 113.59 30.5999C112.203 26.6542 111.74 24.7023 107.432 23.1912C106.024 22.6875 105.121 22.6036 103.607 22.7295C98.6269 23.1492 97.1348 23.1912 94.676 27.7036C98.5008 28.3122 97.8703 29.6764 99.0262 33.4961C99.5936 35.3431 100.182 37.4208 99.8878 39.3727C99.5936 41.2826 97.2189 43.4023 97.2189 45.1443Z" fill="white"/>
<path d="M105.163 24.1357C103.124 23.758 103.565 22.6246 103.565 22.6246C103.565 22.6246 103.649 21.995 103.692 21.1765C103.692 20.9666 103.713 20.7567 103.713 20.5259C103.713 20.1901 103.692 19.8543 103.65 19.5185C103.481 18.1543 107.348 18.9728 107.348 18.9728C107.348 18.9728 107.117 21.7431 107.663 22.5617C108.189 23.4012 107.201 24.5345 105.163 24.1357Z" fill="#FFE3CA"/>
<path d="M101.275 22.6246C101.275 22.6246 105.394 27.3678 106.907 28.4592C106.907 28.4592 108.651 26.8851 107.579 22.7296C107.579 22.7296 105.604 21.7221 101.275 22.6246Z" fill="#FFE3CA"/>
<path d="M101.401 11.2074C101.401 11.2074 99.2574 15.321 101.38 19.2037C103.502 23.0864 107.663 17.5037 107.916 16.8531C108.189 16.2024 109.618 12.4876 106.781 11.3753C103.944 10.2419 102.01 10.095 101.401 11.2074Z" fill="#FFE3CA"/>
<path d="M105.52 19.6233C105.52 19.6233 105.142 20.4418 103.692 21.1764C103.692 20.9665 103.713 20.7566 103.713 20.5258C103.713 20.5258 104.7 20.4208 105.52 19.6233Z" fill="#FCD2B1"/>
<path d="M83.9373 41.4505C83.9373 41.4505 82.9286 41.8913 82.4453 41.7024C81.9619 41.4925 81.2264 41.4505 80.9952 41.4505C80.68 41.4505 79.6923 41.0938 79.7133 41.4925C79.7343 41.8703 81.3104 42.1431 81.6257 42.2691C81.9409 42.395 80.659 43.0876 80.5329 43.4024C80.4068 43.7172 81.8778 45.774 82.6974 45.1863C83.517 44.5987 83.9583 43.4234 84.1265 43.3394C84.2946 43.2555 84.7359 42.9407 84.7359 42.9407L83.9373 41.4505Z" fill="#FFE3CA"/>
<path d="M80.701 43.2136C80.701 43.2136 78.3263 45.1865 78.2843 45.4593C78.2422 45.7321 78.3683 45.8581 78.5995 45.6692C78.8306 45.5013 80.9532 43.8223 80.9532 43.8223C80.9532 43.8223 78.5785 46.6346 78.4944 46.8445C78.4524 46.9704 78.6835 47.2223 78.8096 47.1383C78.9357 47.0544 81.4786 44.4099 81.4786 44.4099C81.4786 44.4099 79.2509 47.0334 79.2509 47.2433C79.2299 47.4112 79.5031 47.6 79.6923 47.4112C79.8814 47.2223 82.088 44.9136 82.088 44.9136C82.088 44.9136 80.5959 46.9284 80.701 47.1173C80.764 47.2223 80.9532 47.4531 81.3104 46.9284C81.6677 46.4037 82.6764 45.2284 82.6764 45.2284L80.701 43.2136Z" fill="#FFE3CA"/>
<path d="M109.197 55.5124H102.199C102.199 55.5124 95.7478 56.0371 95.2224 51.5038C94.697 46.9914 97.345 44.4729 97.345 44.4729C97.345 44.4729 100.749 45.3754 103.734 46.089C105.226 45.7741 107.012 45.5643 109.113 45.6272C109.113 45.6272 121.723 49.7828 121.344 51.9865C121.344 52.0075 116.069 49.1951 109.197 55.5124Z" fill="#3F3D56"/>
<path d="M104.637 47.705L118.003 47.4951L111.257 50.9161L104.637 47.705Z" fill="#F2F2F2"/>
<path d="M108.798 45.9839C108.798 45.9839 105.793 47.1382 102.115 46.0888L101.947 44.7246L109.534 45.1444L108.798 45.9839Z" fill="white"/>
<path d="M111.257 50.9159L104.637 48.3554V47.7048L111.782 50.2653L111.257 50.9159Z" fill="#D3D3D3"/>
<path d="M108.735 46.6344C108.693 47.1172 109.197 47.4739 109.66 47.2851L110.437 46.9493C110.669 46.8443 110.816 46.6134 110.774 46.3616C110.458 44.3468 109.765 36.4974 110.774 35.1332C111.152 34.6295 111.383 34.1888 111.509 33.811C112.182 35.532 113.001 37.7567 113.337 38.953L119.642 47.348L121.765 47.8937C119.117 41.5344 116.994 38.1764 116.994 38.1764C116.574 37.0641 115.397 33.706 114.346 30.7258C113.674 28.8369 113.085 27.0949 112.749 26.1715C112.581 25.6888 112.266 25.29 111.824 25.0381C110.837 24.4505 109.218 23.527 107.747 22.8135H107.726C107.684 22.7925 107.642 22.7715 107.579 22.7505C110.395 26.969 109.303 38.953 108.735 46.6344C108.735 46.6134 108.735 46.6134 108.735 46.6344Z" fill="#FFBE55"/>
<path d="M98.3116 23.0864C97.408 23.2333 95.1804 25.395 94.0035 27.5777C92.6586 30.0753 91.2716 32.9086 90.2418 33.832C88.3505 35.553 83.0336 41.6185 82.7815 41.4716C82.6764 41.4086 84.2315 43.2765 84.4416 43.3604C84.5467 43.4024 93.1629 35.9308 94.0035 34.7975C94.7811 33.7271 96.8826 29.1938 97.5131 29.2987C97.5551 29.4037 98.3327 31.0617 99.0472 33.4753C99.0682 33.5172 99.0682 33.5592 99.0892 33.6012C99.5936 35.2802 99.5515 37.1271 99.2783 39.1839C99.0682 40.737 97.9123 43.2765 97.2188 44.5148C97.1348 44.6617 97.1558 44.9555 97.2399 45.1654C97.3029 45.2913 97.366 45.3962 97.471 45.4382L100.014 46.3827L100.602 46.5925C101.023 46.7604 101.485 46.6765 101.821 46.4246C102.094 46.2357 102.305 45.9209 102.347 45.5432C102.914 41.2197 103.628 36.7913 104.196 35.1333C106.697 27.8296 103.229 22.3308 103.229 22.3308C103.229 22.3308 99.1102 22.7925 98.3116 23.0864Z" fill="#FFBE55"/>
<path d="M111.257 50.9161L115.229 40.0864L128.027 40.2963L124.244 50.2864L111.257 50.9161Z" fill="#FFBE55"/>
<path d="M119.327 44.8716C118.928 45.6481 119.054 46.5086 119.6 46.7605C120.146 47.0333 120.882 46.6136 121.281 45.837C121.68 45.0605 121.554 44.2 121.008 43.9481C120.462 43.6753 119.705 44.095 119.327 44.8716Z" fill="#F2F0F0"/>
<path d="M111.551 24.4086C110.606 22.9814 109.933 21.8481 109.849 19.8123C109.786 18.469 109.492 16.6431 108.567 15.7407C109.534 13.2221 108.399 12.4666 107.937 11.6481C107.369 10.6197 103.166 8.14312 101.506 10.7456C99.8458 13.3271 100.434 16.0345 100.434 16.0345C100.602 14.6073 102.073 12.6765 102.073 12.6765C102.305 14.1666 105.394 16.6011 106.739 17.5876C106.718 17.6086 106.697 17.6505 106.697 17.6715C105.94 18.7629 106.886 19.8542 107.054 21.0086C107.222 22.1629 103.881 25.269 107.6 26.8221C111.32 28.3962 112.497 25.8147 111.551 24.4086Z" fill="#3F3D56"/>
<path d="M43.9035 146.662C43.9035 146.662 43.8194 147.543 39.7004 147.543C35.5815 147.543 29.5922 146.473 29.5922 146.473L39.1541 145.549C39.1541 145.549 42.8317 145.36 43.9035 146.662Z" fill="#3F3D56"/>
<path d="M33.4169 146.977C31.0842 146.977 30.0965 148.173 29.1719 148.551C28.2472 148.928 27.3225 149.495 27.3225 149.474C27.8479 148.446 28.5834 148.425 28.9617 148.089C29.34 147.753 29.2349 147.921 28.4153 147.858C27.953 147.816 27.1124 148.677 26.524 149.159C25.9986 149.558 25.6833 149.6 25.6833 149.6C25.6833 149.6 26.2928 148.74 27.0493 148.047C27.974 147.207 29.1298 146.515 29.403 146.389C29.9074 146.179 31.4625 146.137 32.5553 146.284C33.8162 146.452 35.0981 146.977 33.4169 146.977Z" fill="#3F3D56"/>
<path d="M29.5501 146.431C29.5501 146.431 27.7638 146.893 27.4486 147.144C27.2384 147.312 26.3138 148.299 26.3138 148.299C26.3138 148.299 26.9863 148.194 27.3645 147.816C27.7638 147.417 29.5501 146.431 29.5501 146.431Z" fill="#3F3D56"/>
<path d="M40.52 144.857C40.52 144.857 45.0173 145.151 44.702 147.921C44.5339 149.495 43.5042 150.041 42.1382 149.915C39.6164 149.705 36.7583 149.327 36.7583 149.327L35.4764 145.025L40.52 144.857Z" fill="#3F3D56"/>
<path d="M41.4657 145.235L45.8789 131.026C45.8789 131.026 46.5304 128.948 47.6021 129.326C49.1362 129.893 48.3797 131.593 48.2536 132.6C47.9804 134.657 48.1695 135.559 46.7405 140.512C45.8579 143.577 45.1013 147.102 44.3448 149.117C43.8194 150.502 42.9157 148.509 41.5498 147.963C38.9859 146.935 41.4657 145.235 41.4657 145.235Z" fill="#3F3D56"/>
<path d="M41.8019 123.302C42.6636 125.779 45.3325 127.059 47.7913 126.157C50.229 125.254 51.5319 122.505 50.6703 120.028C49.8087 117.552 47.1398 116.272 44.681 117.174C42.2433 118.076 40.9403 120.826 41.8019 123.302Z" fill="#3F3D56"/>
<path d="M36.9685 123.533C38.3135 125.548 41.0034 126.052 42.9578 124.667L42.6846 122.295C44.639 120.889 45.1224 118.118 43.7774 116.104L42.8527 114.739C41.5078 112.725 38.8178 112.221 36.8634 113.606L35.9808 114.236C34.0264 115.642 33.543 118.412 34.888 120.427L36.9685 123.533Z" fill="#3F3D56"/>
<path d="M35.2032 116.922C35.4344 117.258 35.6866 117.573 35.9808 117.888C37.9142 119.986 40.499 120.784 42.1382 119.923C42.8948 120.952 43.7564 121.77 44.5339 122.4C45.4376 123.134 47.7493 123.428 47.7493 123.428C49.0942 124.897 44.0506 133.481 43.6933 133.439C42.9578 133.376 42.0121 128.633 42.7056 126.912C43.0209 126.136 43.5252 125.212 43.3781 124.792C42.8527 123.344 42.1172 123.596 42.1172 123.596C42.1172 123.596 41.1505 124.73 40.394 124.688C39.6164 124.625 38.2714 123.407 38.2084 123.386C37.9772 123.197 37.7671 122.967 37.5779 122.694L35.5605 119.672C35.0351 118.832 34.909 117.825 35.2032 116.922Z" fill="#FFE3CA"/>
<path d="M50.6283 153.084C50.6283 153.084 48.9892 155.057 48.4848 155.267C47.8123 155.56 45.7528 154.931 45.7528 154.931C45.7528 154.931 45.2064 145.885 44.576 142.359C43.9455 138.833 43.0209 137.91 42.9788 136.797C42.9158 135.013 41.4237 134.3 41.6759 132.915C41.9281 131.53 42.3694 126.576 42.5165 127.227C43.7984 132.852 45.3746 128.171 45.7318 127.437C45.921 127.038 50.6283 153.084 50.6283 153.084Z" fill="#F2F0F0"/>
<path d="M43.168 125.548C43.168 125.548 41.1715 127.731 41.3186 128.591C41.4447 129.452 40.457 132.138 41.4447 135.874C42.5585 140.134 43.147 143.031 43.3571 145.822C43.5673 148.613 42.6216 151.174 42.9998 154.595C43.2941 157.281 43.9035 157.428 43.9035 157.428C43.9035 157.428 45.1014 157.722 45.942 156.673C46.7826 155.644 45.5217 146.494 45.1014 144.227C44.6811 141.939 43.3361 136.608 42.9788 135.034C42.5375 133.104 42.6216 131.131 42.6426 130.564C42.7477 128.57 42.9998 127.332 43.21 126.576C43.231 126.471 43.3361 125.296 43.168 125.548Z" fill="#3F3D56"/>
<path d="M46.6564 128.109C47.7492 131.257 51.1537 132.873 54.2639 131.719C57.3742 130.564 59.0133 127.08 57.9206 123.932C56.8278 120.784 53.4233 119.168 50.3131 120.322C47.2028 121.456 45.5637 124.961 46.6564 128.109Z" fill="#3F3D56"/>
<path d="M35.9598 182.215L37.0736 191.093L32.2401 193.38L29.5712 193.968L34.3206 190.295L32.7655 182.278L35.9598 182.215Z" fill="#FCBAA2"/>
<path d="M37.3888 192.436L36.338 192.709L35.6235 192.058L31.7567 193.989L28.3312 194.807C28.3312 194.807 28.2892 194.535 28.3943 194.388C28.8146 193.821 31.2313 192.583 31.2313 192.583C31.2313 192.583 31.2734 193.401 31.6096 193.422C31.9458 193.443 34.909 191.89 35.6025 191.47C36.7793 190.736 37.0105 190.253 37.0946 190.316C37.3467 190.442 37.3888 192.436 37.3888 192.436Z" fill="#3F3D56"/>
<path d="M24.2963 169.874L20.4506 177.429L15.1547 177.178L12.5068 176.401L18.3701 175.415L21.5644 168.95L24.2963 169.874Z" fill="#FCBAA2"/>
<path d="M20.1353 178.773L19.0846 178.521L18.7483 177.597L13.9779 177.535L11.1409 176.863C11.1409 176.863 11.4771 176.485 11.6873 176.38C12.3177 176.107 14.5663 175.981 14.5663 175.981C14.5663 175.981 14.3352 176.632 14.6294 176.8C14.9236 176.989 18.202 177.094 19.0005 177.031C20.3875 176.926 20.7868 176.632 20.8288 176.716C20.976 177.01 20.1353 178.773 20.1353 178.773Z" fill="#3F3D56"/>
<path d="M52.3515 147.27L49.4935 148.551L49.5145 152.475L29.8233 149.264C29.8233 149.264 27.953 148.655 26.7551 151.741C25.0529 156.106 20.7238 169.685 20.7238 169.685L23.4557 172.644L32.0509 157.302C32.0509 157.302 49.6616 165.844 55.4618 163.997C57.6894 163.284 59.3916 159.212 59.0764 155.099C58.8242 151.867 58.1937 148.907 58.1937 148.907L52.3515 147.27Z" fill="#FFB750"/>
<path d="M49.8507 163.913L35.7496 162.864L36.9685 185.363L32.8075 185.51L29.7393 159.149C29.7393 159.149 30.5588 155.225 33.2488 155.812C35.9597 156.421 42.4744 161.584 49.8507 163.913Z" fill="#FFB750"/>
<path d="M59.3496 169.559C59.3496 169.559 51.9523 161.269 50.0399 156.589C47.7493 150.985 47.9384 143.954 47.5181 141.625C46.7405 137.343 45.7948 129.032 45.6267 128.004C45.4376 126.975 46.0891 125.821 46.0891 125.821C46.0891 125.821 45.6057 122.715 46.9927 123.051C48.9892 123.533 50.9646 124.625 51.6581 124.96C52.961 125.548 55.6299 141.205 55.777 141.96C56.3234 144.689 58.3199 147.165 59.7489 149.705C63.1113 155.728 63.9729 162.843 63.9729 162.843C63.9729 162.843 63.5526 168.048 59.3496 169.559Z" fill="#3F3D56"/>
<path d="M51.7211 147.879C51.7211 147.879 51.6581 148.886 46.9507 148.656C42.2433 148.404 35.3503 146.83 35.3503 146.83L46.2572 146.326C46.2572 146.326 50.4392 146.347 51.7211 147.879Z" fill="#FFE3CA"/>
<path d="M39.049 147.375C36.8004 147.333 35.8337 148.488 34.951 148.844C34.0684 149.201 33.1648 149.726 33.1648 149.726C33.6691 148.739 34.3836 148.719 34.7619 148.404C35.1192 148.089 35.0351 148.257 34.2365 148.173C33.7742 148.131 32.9756 148.949 32.4082 149.411C31.9038 149.81 31.5886 149.831 31.5886 149.831C31.5886 149.831 32.177 148.991 32.9126 148.32C33.8162 147.522 34.909 146.851 35.1822 146.746C35.6656 146.557 37.1576 146.536 38.2294 146.704C39.4273 146.872 40.6672 147.417 39.049 147.375Z" fill="#FFE3CA"/>
<path d="M35.2873 146.767C35.2873 146.767 33.5641 147.186 33.2699 147.417C33.0597 147.585 32.1771 148.53 32.1771 148.53C32.1771 148.53 32.8075 148.425 33.1858 148.068C33.5641 147.732 35.2873 146.767 35.2873 146.767Z" fill="#FFE3CA"/>
<path d="M47.9594 146.767L54.9364 143.094C54.9364 143.094 54.9575 147.543 54.9995 149.243C55.0415 150.943 55.756 153.336 54.4111 153.693C53.0661 154.049 52.3726 153.86 53.7596 154.679C55.1466 155.476 54.8314 156.316 54.306 157.009C53.7806 157.701 56.0713 164.753 55.5249 165.152C53.3603 162.423 51.0276 159.044 50.0189 156.589C48.737 153.399 48.2326 149.747 47.9594 146.767Z" fill="#3F3D56"/>
<path d="M50.208 144.983L49.9348 130.795C49.9348 130.795 49.9558 126.367 50.0399 125.065C50.124 123.722 52.4146 125.296 52.4146 125.296C52.4146 125.296 55.6299 129.641 55.693 140.114C55.735 147.123 55.3567 150.775 52.1204 150.481C49.1152 150.209 45.6898 149.747 45.6898 149.747L44.1977 145.864L50.208 144.983Z" fill="#3F3D56"/>
<path d="M49.4935 152.475L25.4732 149.474L25.5363 148.97L49.5566 151.971L49.4935 152.475Z" fill="#D3D3D3"/>
<path d="M38.9649 150.628C38.9229 151.027 38.6077 151.321 38.2714 151.279L25.9565 149.747C25.6203 149.705 25.2 149.39 24.9058 148.341L20.1564 136.063C20.2194 135.559 20.6187 135.307 20.9549 135.433L33.543 137.406C33.8793 137.532 34.1104 137.826 34.2365 138.371L38.9649 150.628Z" fill="#D3D3D3"/>
<path d="M37.4098 150.964L37.5359 150.985L49.5565 152.496C49.0942 152.685 48.3587 152.748 47.5391 152.643L37.4728 151.384L37.3467 151.363L27.2805 150.104C26.4609 149.999 25.7674 149.747 25.3471 149.474L37.4098 150.964Z" fill="#D3D3D3"/>
<path d="M50.208 144.983L49.9348 130.795C49.9348 130.795 50.1449 129.599 50.5652 128.528C50.6703 130.081 51.3848 141.268 51.4689 142.737C51.574 144.332 52.8769 144.5 53.1501 145.025C53.4443 145.528 53.1921 145.633 52.2255 145.444C51.2798 145.234 51.616 145.402 51.8262 145.906C52.0363 146.431 51.5109 146.284 49.6616 145.612C48.3166 145.13 45.7318 145.612 44.4288 145.906L50.208 144.983Z" fill="#3F3D56"/>
<path d="M133.26 110.164C130.948 110.773 126.682 112.914 125.778 116.586C124.433 122.106 127.123 130.186 122.878 138.12C121.512 140.638 146.352 144.038 146.352 144.038L151.144 116.167C151.144 116.167 145.154 110.122 143.936 109.703C141.393 108.863 137.883 108.947 133.26 110.164Z" fill="#CCE9FF"/>
<path d="M151.165 116.187C152.026 118.412 154.212 131.655 151.774 134.783C151.501 135.139 153.035 135.706 152.762 137.343C152.72 137.616 152.258 138.938 152.258 138.938L150.282 139.463L145.974 134.489C145.974 134.489 147.718 131.781 150.009 121.518C150.681 118.496 150.976 115.684 151.165 116.187Z" fill="#3F3D56"/>
<path d="M134.857 132.012C134.857 132.012 136.937 137.49 141.96 138.959C142.822 139.211 143.368 140.176 142.948 140.491C142.401 140.89 141.687 140.974 140.426 140.974C137.799 140.974 134.227 140.135 131.768 137.658C128.111 134.006 126.955 132.327 127.334 130.501C127.67 128.633 134.857 132.012 134.857 132.012Z" fill="#FCD2B1"/>
<path d="M126.493 114.74C125.421 116.544 124.812 119.441 124.833 123.596C124.833 126.807 127.523 132.075 127.922 133.691C127.985 133.964 128.153 135.119 128.153 135.119L131.116 138.141L137.064 133.964L135.256 131.089L134.71 131.152C134.71 131.152 134.374 129.557 134.458 128.948C134.542 128.34 132.818 120.049 131.957 114.74C131.474 111.654 127.544 112.956 126.493 114.74Z" fill="#3F3D56"/>
<path d="M131.831 131.026L133.575 130.48L134.29 130.291C134.332 130.795 134.752 131.131 134.752 131.131L133.386 131.299L131.81 131.802L129.96 133.125L131.831 131.026Z" fill="#3F3D56"/>
<path d="M141.582 138.938L144.608 138.078C144.608 138.078 145.47 139.274 145.302 139.568C145.133 139.862 145.302 141.625 145.302 141.625L143.83 142.926L142.633 142.506C142.633 142.506 142.549 141.96 142.948 141.918C143.368 141.855 142.675 141.562 142.464 141.436C142.254 141.289 140.51 140.365 141.582 138.938Z" fill="#FCD2B1"/>
<path d="M136.917 109.891C136.58 110.878 137.085 111.99 138.051 112.326L139.775 112.955C140.741 113.312 141.792 112.767 142.128 111.78L143.662 107.247C143.999 106.26 143.494 105.148 142.528 104.791L140.804 104.162C139.838 103.805 138.787 104.351 138.451 105.337L136.917 109.891Z" fill="#FF957E"/>
<path d="M144.44 113.879C144.272 114.53 143.599 114.928 142.969 114.74L137.778 113.249C137.148 113.061 136.769 112.389 136.937 111.717L139.06 103.763C139.228 103.112 139.901 102.714 140.531 102.903L145.722 104.372C146.352 104.561 146.731 105.232 146.562 105.904L144.44 113.879Z" fill="#FCD2B1"/>
<path d="M147.13 105.106C147.172 105.064 146.646 104.477 146.92 103.322C147.277 101.769 146.121 101.14 145.259 101.119C144.755 101.098 143.053 101.916 142.149 102.189C141.246 102.462 141.33 102.105 139.69 101.811C138.598 101.601 138.346 102.21 137.967 103.049C137.589 103.91 137.547 107.184 137.547 107.184C137.694 107.394 137.925 107.562 138.072 107.394C138.219 107.226 138.808 104.603 139.291 103.826C139.754 103.049 141.645 104.288 142.675 104.896C143.683 105.505 144.587 105.61 146.205 105.274C146.394 105.484 146.562 105.715 146.562 105.82C146.562 106.03 146.1 107.52 146.1 107.52C146.1 107.52 147.004 106.953 147.256 106.512C147.382 106.365 147.424 105.652 147.13 105.106Z" fill="#FFBE55"/>
<path d="M138.577 110.059C138.514 110.269 138.303 110.416 138.093 110.353L136.98 110.038C136.769 109.975 136.643 109.744 136.706 109.534L137.274 107.415C137.337 107.205 137.547 107.058 137.757 107.121L138.871 107.436C139.081 107.499 139.207 107.73 139.144 107.939L138.577 110.059Z" fill="#FCD2B1"/>
<path d="M137.883 108.044C137.883 108.044 137.043 111.172 136.769 112.221C136.517 113.165 136.328 115.348 141.477 116.817C144.524 117.678 145.028 115.327 145.238 114.572C145.386 113.984 145.217 112.074 144.986 111.654C144.986 111.633 144.65 112.956 144.65 112.956C144.65 112.956 144.356 111.507 142.906 111.109C140.573 110.437 139.648 111.717 138.64 111.381C137.841 111.109 137.61 109.598 137.883 108.044Z" fill="#FFBE55"/>
<path d="M141.393 112.851L142.99 113.312C143.2 113.375 143.431 113.249 143.473 113.018L143.536 112.788L141.162 112.116L141.099 112.347C141.056 112.578 141.183 112.788 141.393 112.851Z" fill="#FCD2B1"/>
<path d="M166.716 144.647C165.98 146.767 153.035 154.553 148.685 154.091L135.593 154.742C124.476 153.336 119.201 135.454 119.201 135.454C119.642 130.963 130.612 137.469 134.521 139.484C140.699 142.674 144.629 142.842 144.629 142.842C148.769 143.283 153.56 139.967 158.793 139.862C164.53 139.715 167.893 141.31 166.716 144.647Z" fill="#2F2E41"/>
<path d="M138.261 142.506C138.261 142.485 138.261 142.485 138.261 142.506V141.919L160.769 141.499V142.065V142.086L160.706 142.191C160.432 142.695 159.907 142.779 159.319 142.8L139.732 143.178C139.144 143.199 138.619 143.115 138.324 142.632L138.261 142.506Z" fill="#D3D3D3"/>
<path d="M143.683 142.485C143.683 142.485 143.683 142.506 143.683 142.485L143.62 142.59C143.536 142.716 143.431 142.821 143.305 142.884L139.88 142.947C139.312 142.968 138.808 142.905 138.514 142.506L138.451 142.422C138.451 142.422 138.451 142.422 138.43 142.401V142.128L143.641 142.023L143.683 142.485Z" fill="#D3D3D3"/>
<path d="M146.73 142.275L157.974 142.066V141.667L146.709 141.898L146.73 142.275Z" fill="#D3D3D3"/>
<path d="M143.809 141.793L146.52 130.291C146.583 129.998 146.878 129.746 147.172 129.725L162.975 129.431C163.269 129.431 163.438 129.662 163.374 129.977L160.664 141.478L143.809 141.793Z" fill="#D3D3D3"/>
<path d="M133.617 157.701C135.172 157.974 136.37 156.106 136.37 156.106L140.405 152.832L139.543 150.607L131.684 154.259C131.684 154.259 132.041 157.428 133.617 157.701Z" fill="#FCD2B1"/>
<path d="M136.349 155.98C136.349 155.98 136.349 156.169 136.055 157.03C135.761 157.89 135.382 158.184 135.004 158.31C133.491 158.771 132.419 158.541 128.805 159.254C125.19 159.968 124.097 159.422 123.047 157.701C121.996 155.98 123.089 154.616 124.854 154.49C127.397 154.301 128.826 154.595 130.15 154.385C131.537 154.175 131.621 153.839 132.44 153.315C133.197 152.832 133.911 155.728 133.197 156.4C132.545 156.988 135.824 157.072 136.349 155.98Z" fill="#FFB750"/>
<path d="M135.593 157.638C134.1 158.1 133.008 157.869 129.393 158.583C125.778 159.296 124.686 158.75 123.635 157.029C123.152 156.232 123.131 155.518 123.404 154.973C122.605 155.539 122.332 156.526 123.047 157.701C124.097 159.422 125.19 159.968 128.805 159.254C132.419 158.541 133.512 158.771 135.004 158.31C135.298 158.226 135.593 158.016 135.845 157.533C135.761 157.575 135.677 157.617 135.593 157.638Z" fill="white"/>
<path d="M136.35 156.044C136.35 156.001 136.35 156.001 136.35 156.001C136.35 156.022 136.328 156.044 136.307 156.065C136.328 156.044 136.35 156.044 136.35 156.044Z" fill="#E9D6B8"/>
<path d="M128.552 157.324C128.447 157.365 128.342 157.135 128.3 156.82C128.237 156.169 128.09 155.54 127.88 154.889C127.775 154.574 127.775 154.301 127.901 154.259C128.027 154.217 128.237 154.448 128.321 154.763C128.531 155.393 128.658 156.043 128.721 156.673C128.763 156.988 128.658 157.282 128.552 157.324Z" fill="white"/>
<path d="M129.666 157.113C129.54 157.134 129.435 156.925 129.393 156.631C129.33 156.022 129.183 155.413 128.973 154.826C128.868 154.532 128.868 154.28 129.015 154.259C129.141 154.238 129.351 154.469 129.456 154.763C129.645 155.351 129.792 155.959 129.855 156.547C129.876 156.841 129.792 157.092 129.666 157.113Z" fill="white"/>
<path d="M130.843 157.072C130.717 157.093 130.591 156.862 130.549 156.547C130.444 155.917 130.297 155.309 130.065 154.679C129.96 154.364 129.96 154.112 130.087 154.112C130.234 154.112 130.444 154.343 130.549 154.658C130.78 155.267 130.927 155.896 131.011 156.505C131.053 156.799 130.969 157.051 130.843 157.072Z" fill="white"/>
<path d="M133.89 152.349C133.89 152.349 161.567 140.575 163.143 140.554C168.481 140.512 167.262 146.095 164.551 148.739C161.357 151.846 137.064 157.533 137.064 157.533L133.89 152.349Z" fill="#3F3D56"/>
<path d="M144.86 154.406L137.295 146.976L140.531 143.681L148.769 152.664L144.86 154.406Z" fill="#FCD2B1"/>
<path d="M146.415 148.572C146.415 148.572 127.186 130.333 125.905 129.788C121.512 127.941 118.801 132.957 118.949 134.699C119.159 136.944 138.682 155.204 138.682 155.204L146.415 148.572Z" fill="#3F3D56"/>
<path d="M157.806 154.973C158.247 155.393 158.331 156.673 158.331 156.673C158.331 156.673 151.921 159.191 149.673 159.233C149.084 159.254 148.033 159.003 147.025 158.709C146.857 158.667 146.457 158.205 146.289 158.163C145.974 158.079 145.911 158.373 145.659 158.289C144.986 158.058 144.482 157.869 144.461 157.827C143.095 154.847 143.557 153.378 143.557 153.378C143.557 153.378 146.499 154.259 145.995 153.567C144.923 152.098 148.012 150.607 148.685 151.384C151.459 154.511 156.503 153.735 157.806 154.973Z" fill="#FFB750"/>
<path d="M158.163 155.603C156.187 156.421 152.047 158.079 151.228 158.142C147.844 158.394 145.491 157.156 143.915 156.421C144.062 156.841 144.23 157.324 144.461 157.827C144.482 157.869 144.965 158.058 145.659 158.289C145.932 158.373 145.995 158.058 146.289 158.163C146.457 158.205 146.836 158.667 147.025 158.709C148.034 159.003 149.084 159.233 149.673 159.233C151.921 159.191 158.331 156.673 158.331 156.673C158.331 156.673 158.331 156.085 158.163 155.603Z" fill="white"/>
<path d="M153.644 153.672C153.708 153.798 153.455 153.924 153.098 154.008C152.363 154.155 151.648 154.385 150.934 154.679C150.576 154.826 150.261 154.868 150.219 154.742C150.177 154.616 150.408 154.385 150.765 154.239C151.459 153.945 152.194 153.735 152.909 153.588C153.245 153.483 153.581 153.546 153.644 153.672Z" fill="white"/>
<path d="M152.194 153.147C152.258 153.273 152.005 153.441 151.648 153.546C150.934 153.756 150.24 154.05 149.547 154.406C149.21 154.574 148.895 154.637 148.853 154.511C148.811 154.385 149.042 154.113 149.378 153.945C150.051 153.609 150.744 153.315 151.459 153.126C151.816 152.979 152.152 153.021 152.194 153.147Z" fill="white"/>
<path d="M150.807 152.685C150.85 152.811 150.618 153 150.282 153.126C149.589 153.399 148.916 153.735 148.265 154.133C147.949 154.343 147.655 154.406 147.613 154.259C147.571 154.133 147.781 153.84 148.118 153.63C148.769 153.231 149.442 152.895 150.114 152.643C150.45 152.538 150.765 152.559 150.807 152.685Z" fill="white"/>
</svg>
