<svg width="800" height="733" viewBox="0 0 800 733" fill="none" xmlns="http://www.w3.org/2000/svg">
<path d="M236.904 228.422L236.677 226.989H235.244C207.338 226.989 198.287 218.015 198.212 217.939L197.005 216.582L195.798 217.939C195.723 218.015 186.747 226.989 158.765 226.989H157.332L157.106 228.422C157.031 228.874 151.148 273.819 196.251 296.895L197.005 297.272L197.759 296.895C243.013 273.819 236.904 228.874 236.904 228.422ZM230.116 256.248C224.534 272.386 213.372 284.905 196.929 293.502C180.487 284.905 169.325 272.386 163.743 256.248C159.67 244.409 159.897 234.077 160.198 230.382C183.429 230.081 193.762 223.897 196.929 221.333C200.097 223.821 210.43 230.081 233.66 230.382C233.962 234.153 234.188 244.409 230.116 256.248Z" fill="#2F2E41"/>
<path d="M281.177 170.656L279.593 166.509C278.16 166.358 276.802 165.981 275.445 165.528L272.202 168.545L262.849 161.833L264.659 157.761C263.754 156.63 263 155.423 262.397 154.141L257.947 153.99L256.061 142.603L260.209 141.02C260.36 139.587 260.737 138.229 261.19 136.872L258.173 133.629L264.886 124.203L268.958 126.013C270.09 125.108 271.296 124.354 272.579 123.75L272.73 119.301L284.118 117.416L285.702 121.563C287.135 121.714 288.493 122.091 289.851 122.544L293.094 119.527L302.446 126.239L300.636 130.311C301.541 131.442 302.295 132.649 302.899 133.931L307.349 134.082L309.234 145.469L305.086 147.053C304.86 148.485 304.558 149.843 304.105 151.2L307.122 154.443L300.41 163.869L296.337 162.059C295.206 162.964 293.999 163.718 292.717 164.322L292.566 168.771L281.177 170.656ZM274.691 161.909L275.596 162.286C277.255 162.964 279.065 163.341 280.875 163.492L281.856 163.568L283.213 167.112L289.473 166.056L289.624 162.286L290.529 161.909C292.189 161.154 293.697 160.174 295.13 159.043L295.884 158.44L299.354 160.023L303.05 154.895L300.41 152.105L300.787 151.2C301.466 149.541 301.843 147.731 301.994 145.921L302.069 144.941L305.614 143.584L304.558 137.324L300.787 137.174L300.41 136.269C299.656 134.61 298.675 133.101 297.544 131.669L296.94 130.914L298.524 127.446L293.395 123.75L290.605 126.314L289.7 125.937C288.04 125.259 286.23 124.882 284.42 124.731L283.44 124.655L282.082 121.111L275.822 122.167L275.671 125.937L274.766 126.314C273.107 127.068 271.598 128.049 270.165 129.18L269.411 129.783L265.941 128.2L262.246 133.328L264.886 136.118L264.508 137.023C263.83 138.682 263.452 140.492 263.302 142.302L263.226 143.282L259.681 144.639L260.737 150.898L264.508 151.049L264.886 151.954C265.64 153.613 266.62 155.122 267.752 156.554L268.355 157.308L266.771 160.777L271.9 164.473L274.691 161.909ZM282.535 156.63C279.97 156.63 277.406 155.8 275.294 154.292C269.637 150.295 268.355 142.452 272.352 136.797C276.35 131.141 284.194 129.859 289.851 133.855C292.566 135.816 294.376 138.682 294.979 142C295.507 145.318 294.753 148.636 292.867 151.351C290.906 154.066 288.04 155.876 284.722 156.479C283.892 156.554 283.213 156.63 282.535 156.63ZM282.535 134.685C279.593 134.685 276.727 136.042 274.917 138.606C273.484 140.643 272.88 143.131 273.333 145.62C273.785 148.108 275.068 150.22 277.104 151.653C279.14 153.085 281.629 153.689 284.118 153.236C286.607 152.784 288.719 151.502 290.152 149.466C291.585 147.43 292.189 144.941 291.736 142.452C291.284 139.964 290.001 137.852 287.965 136.419C286.306 135.288 284.42 134.685 282.535 134.685Z" fill="#2F2E41"/>
<path d="M642.755 293.577L639.21 284.301C635.439 283.849 631.668 283.019 628.123 281.737L620.882 288.524L601.272 274.573L605.345 265.524C603.007 262.583 600.97 259.34 599.311 255.871L589.431 255.57L585.433 231.815L594.71 228.271C595.163 224.5 595.993 220.729 597.275 217.185L590.487 209.946L604.44 190.339L613.491 194.411C616.432 192.073 619.675 190.037 623.145 188.378L623.447 178.499L647.205 174.502L650.75 183.778C654.521 184.23 658.292 185.06 661.837 186.342L669.077 179.555L688.687 193.506L684.615 202.555C686.953 205.496 688.989 208.739 690.648 212.208L700.529 212.51L704.526 236.264L695.249 239.809C694.797 243.579 693.967 247.35 692.685 250.894L699.473 258.134L685.52 277.741L676.469 273.668C673.527 276.006 670.284 278.042 666.815 279.701L666.513 289.58L642.755 293.577ZM627.067 276.911L628.274 277.364C632.271 278.872 636.495 279.852 640.794 280.229L642.151 280.38L645.395 288.826L662.289 285.96L662.591 276.911L663.798 276.383C667.72 274.649 671.416 272.311 674.734 269.521L675.715 268.691L684.011 272.386L693.967 258.435L687.782 251.799L688.235 250.592C689.743 246.596 690.724 242.373 691.101 238.074L691.176 236.717L699.624 233.474L696.758 216.582L687.707 216.28L687.179 215.074C685.444 211.152 683.106 207.457 680.315 204.139L679.486 203.159L683.182 194.863L669.228 184.909L662.591 191.093L661.384 190.64C657.387 189.132 653.163 188.152 648.864 187.775L647.506 187.699L644.263 179.253L627.369 182.119L627.067 191.168L625.86 191.696C621.938 193.43 618.242 195.768 614.924 198.558L613.943 199.388L605.647 195.693L595.842 209.644L602.026 216.28L601.574 217.487C600.065 221.484 599.085 225.707 598.708 230.005L598.632 231.362L590.185 234.605L593.051 251.497L602.102 251.799L602.63 253.006C604.365 256.927 606.703 260.622 609.493 263.94L610.323 264.921L606.627 273.216L620.58 283.17L627.067 276.911ZM644.867 261.376C639.361 261.376 633.855 259.717 629.028 256.324C616.734 247.576 613.868 230.458 622.617 218.165C631.366 205.873 648.487 203.008 660.781 211.755C673.075 220.503 675.941 237.622 667.192 249.914C661.837 257.379 653.389 261.376 644.867 261.376ZM644.942 210.926C637.701 210.926 630.536 214.319 626.086 220.654C622.466 225.707 621.108 231.815 622.089 237.923C623.145 244.032 626.463 249.31 631.517 252.93C641.925 260.321 656.406 257.907 663.798 247.501C667.343 242.448 668.776 236.34 667.795 230.231C666.739 224.123 663.421 218.844 658.367 215.224C654.219 212.283 649.543 210.926 644.942 210.926Z" fill="#2F2E41"/>
<path d="M275.52 463.253C271.9 453.073 267.752 441.61 272.353 429.846C278.537 414.009 265.414 405.865 253.874 398.55C243.918 392.366 234.566 386.484 237.733 376.756C241.203 366.198 240.977 358.054 237.055 352.7C233.736 348.175 227.853 345.762 220.009 345.837C213.749 345.913 208.168 338.221 202.209 330.152C195.195 320.65 188.03 310.846 178.979 313.033C177.395 313.41 176.113 314.315 175.359 315.748C172.191 321.706 177.169 335.883 182.524 350.965C188.256 367.254 194.818 385.655 190.519 393.497C185.842 402.094 194.29 409.937 203.265 418.308C212.768 427.131 223.554 437.161 220.688 449.754C217.973 461.519 217.369 465.892 219.028 468.456C220.311 470.493 222.95 470.945 226.948 471.699C229.663 472.227 233.133 472.83 237.356 474.188C255.533 479.844 260.813 491.608 260.888 491.759L261.114 492.286L261.642 492.211C270.392 490.854 275.52 488.365 277.934 484.368C278.085 484.142 278.16 483.916 278.311 483.69C280.875 478.335 278.386 471.322 275.52 463.253Z" fill="#2F2E41"/>
<path d="M229.06 440.78C232.077 445.456 234.264 449.528 234.038 455.259C233.887 460.614 233.057 465.892 232.604 471.171C232.529 472.302 232.454 473.358 232.378 474.414C230.87 473.132 229.437 471.85 227.928 470.568C227.249 470.492 226.571 470.492 225.816 470.492C227.928 472.227 230.116 474.112 232.227 475.997C232.001 479.693 231.926 483.388 231.926 487.083C231.926 489.27 231.85 491.608 232.001 493.795C230.04 492.588 228.004 491.381 226.118 490.175C220.235 486.555 214.729 483.162 210.506 481.352C207.262 479.994 203.642 478.788 200.173 477.657C191.122 474.716 181.845 471.699 178.752 465.289C177.169 461.971 177.319 457.974 179.205 453.148C183.957 440.705 179.507 438.593 172.04 434.974C166.609 432.334 159.218 428.79 151.826 419.816C148.583 415.895 145.717 412.501 143.153 409.56C135.535 400.586 131.311 395.684 131.839 392.819C131.99 392.14 132.367 391.537 133.122 390.933C133.499 390.632 133.951 390.33 134.555 390.028C137.421 388.445 140.287 389.651 143.53 391.009C147.904 392.819 153.26 395.156 160.726 391.31C166.609 388.294 173.171 385.504 177.093 387.766C179.808 389.274 181.392 393.196 181.92 399.606C182.071 401.642 182.75 403.075 183.881 403.904C185.541 405.111 188.105 404.96 191.046 404.357C193.083 407.147 195.723 408.504 198.89 409.635C203.34 411.219 206.659 412.652 209.902 416.272C216.841 424.114 223.554 432.108 229.06 440.78Z" fill="#3F3D56"/>
<path d="M205 453.223C200.474 450.207 196.552 442.892 192.781 435.803C187.653 426.151 182.297 416.196 174.981 416.422C163.215 416.724 152.732 402.848 152.581 402.773L151.6 403.527C152.053 404.13 162.612 418.006 174.981 417.704C181.543 417.554 186.747 427.131 191.65 436.482C195.497 443.646 199.494 451.112 204.246 454.354C207.112 456.24 212.391 460.086 218.651 464.987C218.651 464.46 218.651 463.932 218.651 463.404C213.145 458.804 208.243 455.335 205 453.223Z" fill="white"/>
<path d="M602.479 546.658C602.479 546.658 609.267 529.766 596.898 505.785C584.453 481.804 574.422 485.499 604.364 467.024C634.307 448.548 604.515 390.481 630.008 383.091C655.501 375.7 677.6 281.662 696.984 293.652C716.368 305.643 690.497 351.719 704.375 365.595C718.178 379.471 720.063 397.042 691.478 411.294C662.893 425.547 711.767 479.994 672.999 496.585C634.232 513.175 645.395 578.256 602.479 546.658Z" fill="#2F2E41"/>
<path d="M614.32 564.531C614.245 564.304 610.096 542.737 623.295 514.835C636.721 486.404 643.132 455.335 640.492 431.656C639.059 418.836 647.28 413.859 655.199 409.032C663.043 404.281 671.114 399.304 670.661 386.71C670.284 375.323 675.111 348.628 675.262 347.496L676.997 347.798C676.921 348.1 672.019 375.474 672.396 386.635C672.848 400.284 664.326 405.488 656.104 410.465C648.26 415.216 640.944 419.741 642.227 431.429C644.942 455.335 638.455 486.781 624.879 515.513C611.982 542.888 615.979 563.927 616.055 564.154L614.32 564.531Z" fill="white"/>
<path d="M717.273 424.416C728.058 419.288 739.522 421.626 733.564 432.41C727.605 443.193 718.706 444.023 720.365 452.544C722.024 461.066 726.399 470.342 712.37 475.771C698.341 481.125 691.78 480.221 683.257 495.982C674.659 511.743 671.717 523.431 657.01 519.661C642.302 515.815 654.521 496.434 662.138 488.29C662.138 488.29 672.471 479.542 672.32 463.781C672.17 448.02 665.683 437.462 686.047 438.518C706.412 439.423 709.957 427.885 717.273 424.416Z" fill="#3F3D56"/>
<path d="M654.671 530.671C655.275 528.635 669.454 479.843 681.069 474.565C692.911 469.135 699.322 454.958 702.112 447.039C705.733 436.708 721.194 434.672 721.798 434.597L722.024 436.331C721.873 436.331 707.015 438.292 703.772 447.567C700.302 457.597 693.665 470.719 681.824 476.148C670.963 481.125 656.557 530.671 656.406 531.199L654.671 530.671Z" fill="white"/>
<path d="M281.102 491.381C257.871 485.575 257.57 473.056 257.268 460.991C257.042 451.112 256.815 441.761 244.22 436.029C227.551 428.413 227.174 414.311 226.797 401.868C226.495 392.592 226.269 383.845 219.33 379.094C202.662 367.707 188.558 340.106 188.407 339.804L189.689 339.126C189.84 339.427 203.718 366.651 220.16 377.887C227.702 383.015 228.004 392.14 228.23 401.793C228.607 414.386 228.984 427.508 244.823 434.672C258.173 440.78 258.475 451.036 258.701 460.915C259.003 472.981 259.304 484.444 281.479 489.949L281.102 491.381Z" fill="white"/>
<path d="M249.801 480.221H631.366V204.818C631.366 200.896 628.198 197.654 624.201 197.654H256.966C253.044 197.654 249.801 200.821 249.801 204.818V480.221Z" fill="#F7F7F7"/>
<path d="M263.278 428.875L617.163 428.875V211.464L263.278 211.464V428.875Z" fill="#2F2E41" stroke="white" stroke-width="0.5" stroke-miterlimit="10"/>
<path d="M631.366 439.423H440.621H249.952L208.167 595.449H441.903H673.075L631.366 439.423Z" fill="#F2F2F2"/>
<path d="M264.358 466.797H287.814C288.795 466.797 289.549 467.551 289.323 468.381L287.06 478.562C286.909 479.165 286.306 479.617 285.551 479.617H261.718C260.737 479.617 259.983 478.863 260.209 477.958L262.849 467.778C263 467.25 263.603 466.797 264.358 466.797Z" fill="#2F2E41" stroke="white" stroke-width="0.5" stroke-miterlimit="10"/>
<path d="M298.524 466.797H316.249L313.911 479.693H295.809L298.524 466.797Z" fill="#2F2E41" stroke="white" stroke-width="0.5" stroke-miterlimit="10"/>
<path d="M325.073 466.797H342.797L340.987 479.693H322.886L325.073 466.797Z" fill="#2F2E41" stroke="white" stroke-width="0.5" stroke-miterlimit="10"/>
<path d="M351.697 466.797H369.422L368.064 479.693H349.963L351.697 466.797Z" fill="#2F2E41" stroke="white" stroke-width="0.5" stroke-miterlimit="10"/>
<path d="M378.246 466.797H395.971L395.141 479.693H377.04L378.246 466.797Z" fill="#2F2E41" stroke="white" stroke-width="0.5" stroke-miterlimit="10"/>
<path d="M404.795 466.797H422.52L422.218 479.693H404.116L404.795 466.797Z" fill="#2F2E41" stroke="white" stroke-width="0.5" stroke-miterlimit="10"/>
<path d="M617.488 466.797H590.864L593.73 479.693H620.807L617.488 466.797Z" fill="#2F2E41" stroke="white" stroke-width="0.5" stroke-miterlimit="10"/>
<path d="M582.039 466.797H564.315L566.653 479.693H584.754L582.039 466.797Z" fill="#2F2E41" stroke="white" stroke-width="0.5" stroke-miterlimit="10"/>
<path d="M555.49 466.797H537.766L539.576 479.693H557.678L555.49 466.797Z" fill="#2F2E41" stroke="white" stroke-width="0.5" stroke-miterlimit="10"/>
<path d="M528.866 466.797H511.142L512.499 479.693H530.601L528.866 466.797Z" fill="#2F2E41" stroke="white" stroke-width="0.5" stroke-miterlimit="10"/>
<path d="M502.317 466.797H484.593L485.422 479.693H503.524L502.317 466.797Z" fill="#2F2E41" stroke="white" stroke-width="0.5" stroke-miterlimit="10"/>
<path d="M475.768 466.797H458.044L458.345 479.693H476.447L475.768 466.797Z" fill="#2F2E41" stroke="white" stroke-width="0.5" stroke-miterlimit="10"/>
<path d="M431.419 466.797H449.144L449.37 479.693H431.419V466.797Z" fill="#2F2E41" stroke="white" stroke-width="0.5" stroke-miterlimit="10"/>
<path d="M256.589 489.27H293.546L291.434 502.542H253.723L256.589 489.27Z" fill="#2F2E41" stroke="white" stroke-width="0.5" stroke-miterlimit="10"/>
<path d="M623.22 489.27H577.514L580.078 502.542H626.765L623.22 489.27Z" fill="#2F2E41" stroke="white" stroke-width="0.5" stroke-miterlimit="10"/>
<path d="M568.312 489.27H550.06L552.096 502.542H570.801L568.312 489.27Z" fill="#2F2E41" stroke="white" stroke-width="0.5" stroke-miterlimit="10"/>
<path d="M540.858 489.27H522.606L524.114 502.542H542.819L540.858 489.27Z" fill="#2F2E41" stroke="white" stroke-width="0.5" stroke-miterlimit="10"/>
<path d="M513.404 489.27H495.152L496.208 502.542H514.837L513.404 489.27Z" fill="#2F2E41" stroke="white" stroke-width="0.5" stroke-miterlimit="10"/>
<path d="M485.95 489.27H467.698L468.226 502.542H486.855L485.95 489.27Z" fill="#2F2E41" stroke="white" stroke-width="0.5" stroke-miterlimit="10"/>
<path d="M251.008 512.874H288.87L286.079 526.071H247.538L251.008 512.874Z" fill="#2F2E41" stroke="white" stroke-width="0.5" stroke-miterlimit="10"/>
<path d="M298.298 512.874H317.229L315.042 526.071H295.734L298.298 512.874Z" fill="#2F2E41" stroke="white" stroke-width="0.5" stroke-miterlimit="10"/>
<path d="M326.732 512.874H345.664H468.603L469.131 526.071H324.621L326.732 512.874Z" fill="#2F2E41" stroke="white" stroke-width="0.5" stroke-miterlimit="10"/>
<path d="M478.106 512.874H497.038L498.094 526.071H478.785L478.106 512.874Z" fill="#2F2E41" stroke="white" stroke-width="0.5" stroke-miterlimit="10"/>
<path d="M506.465 512.874H525.396L526.98 526.071H507.672L506.465 512.874Z" fill="#2F2E41" stroke="white" stroke-width="0.5" stroke-miterlimit="10"/>
<path d="M534.9 512.874H553.831L555.867 526.071H536.635L534.9 512.874Z" fill="#2F2E41" stroke="white" stroke-width="0.5" stroke-miterlimit="10"/>
<path d="M563.259 512.874H582.19L584.754 526.071H565.521L563.259 512.874Z" fill="#2F2E41" stroke="white" stroke-width="0.5" stroke-miterlimit="10"/>
<path d="M591.618 512.874H629.48L632.95 526.071H594.409L591.618 512.874Z" fill="#2F2E41" stroke="white" stroke-width="0.5" stroke-miterlimit="10"/>
<path d="M458.572 489.27H440.395V502.542H458.873L458.572 489.27Z" fill="#2F2E41" stroke="white" stroke-width="0.5" stroke-miterlimit="10"/>
<path d="M431.118 489.27H412.79L412.262 502.542H430.967L431.118 489.27Z" fill="#2F2E41" stroke="white" stroke-width="0.5" stroke-miterlimit="10"/>
<path d="M403.664 489.27H385.336L384.28 502.542H402.985L403.664 489.27Z" fill="#2F2E41" stroke="white" stroke-width="0.5" stroke-miterlimit="10"/>
<path d="M376.21 489.27H357.882L356.298 502.542H375.003L376.21 489.27Z" fill="#2F2E41" stroke="white" stroke-width="0.5" stroke-miterlimit="10"/>
<path d="M348.756 489.27H330.428L328.316 502.542H347.021L348.756 489.27Z" fill="#2F2E41" stroke="white" stroke-width="0.5" stroke-miterlimit="10"/>
<path d="M321.302 489.27H302.974L300.41 502.542H319.039L321.302 489.27Z" fill="#2F2E41" stroke="white" stroke-width="0.5" stroke-miterlimit="10"/>
<path d="M265.187 458.728L268.204 447.266H276.802L274.012 458.728H265.187Z" fill="#2F2E41" stroke="white" stroke-width="0.5" stroke-miterlimit="10"/>
<path d="M285.401 447.266H302.597L300.259 458.728H282.685L285.401 447.266Z" fill="#2F2E41" stroke="white" stroke-width="0.5" stroke-miterlimit="10"/>
<path d="M311.271 447.266H328.467L326.506 458.728H309.008L311.271 447.266Z" fill="#2F2E41" stroke="white" stroke-width="0.5" stroke-miterlimit="10"/>
<path d="M337.065 447.266H354.262L352.753 458.728H335.255L337.065 447.266Z" fill="#2F2E41" stroke="white" stroke-width="0.5" stroke-miterlimit="10"/>
<path d="M362.86 447.266H380.056L379.001 458.728H361.502L362.86 447.266Z" fill="#2F2E41" stroke="white" stroke-width="0.5" stroke-miterlimit="10"/>
<path d="M388.655 447.266H405.851L405.248 458.728H387.75L388.655 447.266Z" fill="#2F2E41" stroke="white" stroke-width="0.5" stroke-miterlimit="10"/>
<path d="M414.449 447.266H431.646L431.495 458.728H413.997L414.449 447.266Z" fill="#2F2E41" stroke="white" stroke-width="0.5" stroke-miterlimit="10"/>
<path d="M440.244 447.266H457.44L457.742 458.728H440.244V447.266Z" fill="#2F2E41" stroke="white" stroke-width="0.5" stroke-miterlimit="10"/>
<path d="M466.039 447.266H483.235L483.989 458.728H466.491L466.039 447.266Z" fill="#2F2E41" stroke="white" stroke-width="0.5" stroke-miterlimit="10"/>
<path d="M491.833 447.266H509.105L510.236 458.728H492.738L491.833 447.266Z" fill="#2F2E41" stroke="white" stroke-width="0.5" stroke-miterlimit="10"/>
<path d="M517.703 447.266H534.9L536.559 458.728H519.061L517.703 447.266Z" fill="#2F2E41" stroke="white" stroke-width="0.5" stroke-miterlimit="10"/>
<path d="M543.498 447.266H560.695L562.806 458.728H545.308L543.498 447.266Z" fill="#2F2E41" stroke="white" stroke-width="0.5" stroke-miterlimit="10"/>
<path d="M569.293 447.266H586.489L589.054 458.728H571.555L569.293 447.266Z" fill="#2F2E41" stroke="white" stroke-width="0.5" stroke-miterlimit="10"/>
<path d="M595.087 447.266H612.284L615.301 458.728H597.803L595.087 447.266Z" fill="#2F2E41" stroke="white" stroke-width="0.5" stroke-miterlimit="10"/>
<path d="M660.932 607.591H220.311C213.598 607.591 208.167 602.161 208.167 595.449H673.075C673.075 602.161 667.644 607.591 660.932 607.591Z" fill="#D3D3D3"/>
<path d="M494.699 544.999C494.247 542.284 491.833 540.248 489.118 540.248H440.696H392.199C389.409 540.248 387.071 542.284 386.618 544.999L380.584 581.574C379.981 585.043 382.696 588.21 386.166 588.21H440.621H495.076C498.621 588.21 501.261 585.043 500.658 581.574L494.699 544.999Z" fill="#D3D3D3"/>
<path d="M326.581 229.93H287.135V234.002H326.581V229.93Z" fill="#F7F7F7"/>
<path d="M366.103 260.321H337.669V264.393H366.103V260.321Z" fill="#F7F7F7"/>
<path d="M389.409 260.321H370.553V264.393H389.409V260.321Z" fill="#F7F7F7"/>
<path d="M306.444 336.788H287.588V340.86H306.444V336.788Z" fill="#F7F7F7"/>
<path d="M438.811 260.321H393.18V264.393H438.811V260.321Z" fill="#F7F7F7"/>
<path d="M316.927 321.479H287.588V325.551H316.927V321.479Z" fill="#F7F7F7"/>
<path d="M346.342 351.946H328.467V356.018H346.342V351.946Z" fill="#F7F7F7"/>
<path d="M323.037 351.946H287.588V356.018H323.037V351.946Z" fill="#F7F7F7"/>
<path d="M307.122 367.179H287.588V371.251H307.122V367.179Z" fill="#F7F7F7"/>
<path d="M362.257 229.93H334.275V234.002H362.257V229.93Z" fill="#F7F7F7"/>
<path d="M362.257 275.554H334.275V279.626H362.257V275.554Z" fill="#F7F7F7"/>
<path d="M332.238 290.711H320.246V294.784H332.238V290.711Z" fill="#F7F7F7"/>
<path d="M335.18 306.171H308.329V310.243H335.18V306.171Z" fill="#F7F7F7"/>
<path d="M376.361 306.171H339.252V310.243H376.361V306.171Z" fill="#F7F7F7"/>
<path d="M315.57 290.862H287.588V294.934H315.57V290.862Z" fill="#F7F7F7"/>
<path d="M304.181 306.171H287.588V310.243H304.181V306.171Z" fill="#F7F7F7"/>
<path d="M353.583 290.862H337.895V294.934H353.583V290.862Z" fill="#F7F7F7"/>
<path d="M303.804 382.336H288.116V386.409H303.804V382.336Z" fill="#F7F7F7"/>
<path d="M315.494 260.321H287.512V264.393H315.494V260.321Z" fill="#F7F7F7"/>
<path d="M340.233 336.788H312.251V340.86H340.233V336.788Z" fill="#F7F7F7"/>
<path d="M340.61 367.179H312.628V371.251H340.61V367.179Z" fill="#F7F7F7"/>
<path d="M390.314 367.179H362.332V371.251H390.314V367.179Z" fill="#F7F7F7"/>
<path d="M327.411 275.554H287.512V279.626H327.411V275.554Z" fill="#F7F7F7"/>
<path d="M502.468 229.93H474.486V234.002H502.468V229.93Z" fill="#F7F7F7"/>
<path d="M402.759 382.336H374.777V386.409H402.759V382.336Z" fill="#F7F7F7"/>
<path d="M529.846 229.93H511.142V234.002H529.846V229.93Z" fill="#F7F7F7"/>
<path d="M593.277 245.163H574.572V249.235H593.277V245.163Z" fill="#F7F7F7"/>
<path d="M405.474 229.93H369.799V234.002H405.474V229.93Z" fill="#F7F7F7"/>
<path d="M544.403 245.163H508.728V249.235H544.403V245.163Z" fill="#F7F7F7"/>
<path d="M500.658 260.321H464.983V264.393H500.658V260.321Z" fill="#F7F7F7"/>
<path d="M454.272 275.554H418.597V279.626H454.272V275.554Z" fill="#F7F7F7"/>
<path d="M530.45 260.321H505.108V264.393H530.45V260.321Z" fill="#F7F7F7"/>
<path d="M467.471 229.93H431.796V234.002H467.471V229.93Z" fill="#F7F7F7"/>
<path d="M412.036 275.554H391.144V279.626H412.036V275.554Z" fill="#F7F7F7"/>
<path d="M395.669 337.014H374.777V341.086H395.669V337.014Z" fill="#F7F7F7"/>
<path d="M425.084 229.93H412.036V234.002H425.084V229.93Z" fill="#F7F7F7"/>
<path d="M382.847 275.554H369.799V279.626H382.847V275.554Z" fill="#F7F7F7"/>
<path d="M566.049 245.163H553.001V249.235H566.049V245.163Z" fill="#F7F7F7"/>
<path d="M307.575 245.163H287.135V249.235H307.575V245.163Z" fill="#F7F7F7"/>
<path d="M357.807 321.555H341.666V325.627H357.807V321.555Z" fill="#F7F7F7"/>
<path d="M319.19 245.163H312.628V249.235H319.19V245.163Z" fill="#F7F7F7"/>
<path d="M502.468 245.163H447.937V249.235H502.468V245.163Z" fill="#F7F7F7"/>
<path d="M450.2 367.179H395.669V371.251H450.2V367.179Z" fill="#F7F7F7"/>
<path d="M330.73 245.163H324.017V249.235H330.73V245.163Z" fill="#F7F7F7"/>
<path d="M442.884 245.163H425.084V249.235H442.884V245.163Z" fill="#F7F7F7"/>
<path d="M460.759 260.321H442.959V264.393H460.759V260.321Z" fill="#F7F7F7"/>
<path d="M369.045 382.336H351.245V386.409H369.045V382.336Z" fill="#F7F7F7"/>
<path d="M420.408 245.163H382.47V249.235H420.408V245.163Z" fill="#F7F7F7"/>
<path d="M369.271 337.014H347.096V341.086H369.271V337.014Z" fill="#F7F7F7"/>
<path d="M356.826 367.179H345.739V371.251H356.826V367.179Z" fill="#F7F7F7"/>
<path d="M377.039 245.163H363.991V249.235H377.039V245.163Z" fill="#F7F7F7"/>
<path d="M333.143 260.321H320.095V264.393H333.143V260.321Z" fill="#F7F7F7"/>
<path d="M335.708 321.555H322.659V325.627H335.708V321.555Z" fill="#F7F7F7"/>
<path d="M359.089 245.163H336.311V249.235H359.089V245.163Z" fill="#F7F7F7"/>
<path d="M527.282 275.705C527.282 275.705 533.919 286.941 536.71 288.751C540.481 291.239 538.143 293.728 536.333 293.803C534.523 293.803 525.321 294.482 523.285 292.144C521.248 289.806 520.268 282.944 518.382 281.134C516.497 279.324 514.536 272.16 519.287 270.426C523.436 268.842 527.282 275.705 527.282 275.705Z" fill="#FFB750"/>
<path d="M524.341 270.803C524.341 270.803 531.958 284 533.241 285.885C534.523 287.846 530.752 287.846 528.413 286.941C526.075 286.036 520.192 276.609 519.363 274.875C518.382 272.839 519.212 270.501 519.212 270.501L524.341 270.803Z" fill="#FFE3CA"/>
<path d="M516.647 277.816L518.458 291.315L519.363 291.39L519.061 281.662L516.647 277.816Z" fill="#FFB750"/>
<path d="M461.438 275.705C461.438 275.705 468.075 286.941 470.866 288.751C474.637 291.239 472.299 293.728 470.489 293.803C468.678 293.803 459.477 294.482 457.44 292.144C455.404 289.807 454.423 282.944 452.538 281.134C450.652 279.324 448.616 271.934 453.443 270.426C457.667 269.068 461.438 275.705 461.438 275.705Z" fill="#FFB750"/>
<path d="M458.949 270.803C458.949 270.803 466.114 283.924 467.472 285.885C468.754 287.846 464.983 287.846 462.645 286.941C460.307 286.036 454.424 276.609 453.594 274.875C452.613 272.839 453.443 270.501 453.443 270.501L458.949 270.803Z" fill="#FFE3CA"/>
<path d="M450.879 277.816L452.613 291.315L453.594 291.39L453.292 281.662L450.879 277.816Z" fill="#FFB750"/>
<path d="M432.023 173.371L492.06 200.745C492.06 200.745 498.772 202.932 499.527 210.398C501.865 233.625 519.212 270.426 519.212 270.426C524.793 273.141 524.341 270.803 524.341 270.803C520.796 259.491 516.572 213.038 514.988 194.411C514.687 190.489 514.46 187.775 514.385 186.87C514.385 186.266 513.706 185.512 512.575 184.607C504.354 177.896 470.413 164.095 470.413 164.095C445.147 163.417 432.023 173.371 432.023 173.371Z" fill="#FFE3CA"/>
<path d="M420.71 185.135C422.595 201.349 445.75 199.539 445.75 199.539H473.807C473.807 199.539 466.416 215.979 463.55 229.779C460.533 244.484 453.368 270.426 453.368 270.426C453.368 270.426 453.82 271.331 458.949 270.803C458.949 270.803 480.972 226.913 489.42 215.828C491.23 213.49 496.434 200.519 497.339 192.827C497.641 190.263 497.49 188.227 496.51 187.398C495.529 186.568 493.266 185.06 490.325 183.175C481.5 177.594 466.265 169.073 457.742 167.187C446.353 164.623 428.327 159.797 428.327 159.797C428.327 159.797 418.824 168.922 420.71 185.135Z" fill="#FFE3CA"/>
<path d="M439.791 60.103C439.791 60.103 435.568 52.1094 437.604 43.6633C439.641 35.1418 447.56 26.6957 459.1 30.6171C470.64 34.5385 479.992 43.437 473.053 53.8438C466.114 64.1752 479.313 68.9261 475.919 73.8279C472.525 78.7296 473.807 83.933 475.24 85.0642C476.673 86.1954 481.274 90.2676 480.746 95.1693C480.218 99.9957 458.346 81.0674 458.346 81.0674C458.346 81.0674 446.504 57.0111 439.791 60.103Z" fill="#3F3D56"/>
<path d="M475.014 162.059C475.014 162.059 473.279 170.505 428.403 159.872C428.403 159.872 443.412 154.895 475.014 162.059Z" fill="#EB4747"/>
<path d="M427.875 162.21C427.196 163.568 426.517 164.85 425.763 166.207C442.13 166.659 458.572 167.187 474.939 167.64C472.374 158.968 473.204 147.203 473.656 138.305C474.184 127.37 480.218 119.829 479.615 108.819C482.858 109.347 483.386 109.422 486.629 109.95C481.651 95.7726 479.992 88.7594 464.53 83.3297C459.477 81.5199 456.234 81.2182 450.803 81.6707C432.928 83.1789 427.573 83.3297 418.749 99.5432C432.476 101.73 430.213 106.632 434.361 120.357C436.398 126.993 438.509 134.459 437.453 141.472C436.398 148.334 427.875 155.951 427.875 162.21Z" fill="white"/>
<path d="M456.385 86.7233C449.069 85.3658 450.652 81.2936 450.652 81.2936C450.652 81.2936 450.954 79.0313 451.105 76.0902C451.105 75.3361 451.18 74.582 451.18 73.7525C451.18 72.5459 451.105 71.3393 450.954 70.1327C450.351 65.231 464.229 68.172 464.229 68.172C464.229 68.172 463.399 78.1263 465.36 81.0674C467.245 84.0839 463.701 88.1561 456.385 86.7233Z" fill="#FFE3CA"/>
<path d="M442.431 81.2936C442.431 81.2936 457.214 98.3366 462.645 102.258C462.645 102.258 468.905 96.6022 465.058 81.6707C465.058 81.6707 457.968 78.0509 442.431 81.2936Z" fill="#FFE3CA"/>
<path d="M442.884 40.2697C442.884 40.2697 435.191 55.0504 442.808 69.0015C450.426 82.9526 465.36 62.8932 466.265 60.5554C467.245 58.2176 472.374 44.8698 462.192 40.873C452.01 36.8008 445.071 36.2729 442.884 40.2697Z" fill="#FFE3CA"/>
<path d="M457.667 70.5098C457.667 70.5098 456.309 73.4508 451.105 76.0902C451.105 75.3361 451.18 74.582 451.18 73.7525C451.18 73.7525 454.725 73.3754 457.667 70.5098Z" fill="#FCD2B1"/>
<path d="M380.207 148.938C380.207 148.938 376.587 150.521 374.852 149.843C373.118 149.089 370.478 148.938 369.648 148.938C368.517 148.938 364.972 147.656 365.047 149.089C365.123 150.446 370.779 151.426 371.911 151.879C373.042 152.331 368.441 154.82 367.989 155.951C367.536 157.082 372.816 164.473 375.757 162.361C378.699 160.249 380.283 156.026 380.886 155.725C381.49 155.423 383.073 154.292 383.073 154.292L380.207 148.938Z" fill="#FFE3CA"/>
<path d="M368.592 155.272C368.592 155.272 360.069 162.361 359.919 163.341C359.768 164.322 360.22 164.774 361.05 164.095C361.88 163.492 369.497 157.459 369.497 157.459C369.497 157.459 360.975 167.564 360.673 168.319C360.522 168.771 361.352 169.676 361.804 169.374C362.257 169.073 371.383 159.571 371.383 159.571C371.383 159.571 363.388 168.997 363.388 169.751C363.313 170.355 364.293 171.033 364.972 170.355C365.651 169.676 373.57 161.381 373.57 161.381C373.57 161.381 368.215 168.62 368.592 169.299C368.819 169.676 369.497 170.505 370.78 168.62C372.062 166.735 375.682 162.512 375.682 162.512L368.592 155.272Z" fill="#FFE3CA"/>
<path d="M470.866 199.463H445.75C445.75 199.463 422.595 201.349 420.71 185.06C418.824 168.846 428.327 159.797 428.327 159.797C428.327 159.797 440.546 163.04 451.256 165.604C456.611 164.473 463.022 163.718 470.564 163.945C470.564 163.945 515.818 178.876 514.46 186.794C514.46 186.87 495.529 176.765 470.866 199.463Z" fill="#3F3D56"/>
<path d="M454.499 171.41L502.468 170.656L478.257 182.948L454.499 171.41Z" fill="#F2F2F2"/>
<path d="M469.433 165.227C469.433 165.227 458.647 169.374 445.448 165.604L444.845 160.702L472.072 162.21L469.433 165.227Z" fill="white"/>
<path d="M478.257 182.948L454.499 173.748V171.41L480.143 180.611L478.257 182.948Z" fill="#D3D3D3"/>
<path d="M469.206 167.564C469.056 169.299 470.866 170.581 472.525 169.902L475.316 168.696C476.145 168.319 476.673 167.489 476.522 166.584C475.391 159.345 472.902 131.141 476.522 126.239C477.88 124.429 478.71 122.845 479.162 121.488C481.576 127.672 484.517 135.665 485.724 139.964L508.351 170.128L515.969 172.089C506.465 149.239 498.848 137.174 498.848 137.174C497.339 133.177 493.115 121.111 489.344 110.402C486.931 103.615 484.819 97.3563 483.612 94.0382C483.009 92.3037 481.877 90.8709 480.294 89.966C476.749 87.8544 470.941 84.5363 465.662 81.9723H465.586C465.435 81.8969 465.284 81.8215 465.058 81.7461C475.165 96.9038 471.243 139.964 469.206 167.564C469.206 167.489 469.206 167.489 469.206 167.564Z" fill="#FFBE55"/>
<path d="M431.797 82.9527C428.553 83.4806 420.559 91.248 416.335 99.0908C411.508 108.065 406.53 118.245 402.834 121.563C396.046 127.747 376.964 149.541 376.059 149.013C375.682 148.787 381.263 155.499 382.017 155.8C382.395 155.951 413.318 129.105 416.335 125.032C419.126 121.186 426.668 104.897 428.931 105.275C429.081 105.652 431.872 111.609 434.436 120.281C434.512 120.432 434.512 120.583 434.587 120.734C436.397 126.767 436.247 133.403 435.266 140.793C434.512 146.374 430.364 155.499 427.875 159.948C427.573 160.476 427.648 161.532 427.95 162.286C428.176 162.738 428.403 163.115 428.78 163.266L437.906 166.66L440.018 167.414C441.526 168.017 443.185 167.715 444.392 166.81C445.373 166.132 446.127 165 446.278 163.643C448.314 148.108 450.879 132.196 452.915 126.239C461.89 99.9957 449.446 80.2379 449.446 80.2379C449.446 80.2379 434.663 81.897 431.797 82.9527Z" fill="#FFBE55"/>
<path d="M478.257 182.948L492.512 144.036L538.445 144.79L524.869 180.686L478.257 182.948Z" fill="#FFBE55"/>
<path d="M507.22 161.23C505.787 164.02 506.239 167.112 508.2 168.017C510.161 168.997 512.801 167.489 514.234 164.699C515.667 161.909 515.214 158.817 513.254 157.912C511.293 156.931 508.577 158.44 507.22 161.23Z" fill="#F2F0F0"/>
<path d="M479.313 87.7036C475.919 82.5756 473.506 78.5034 473.204 71.1884C472.978 66.3621 471.922 59.8013 468.603 56.5586C472.073 47.5092 468 44.7944 466.34 41.8534C464.304 38.1582 449.219 29.2596 443.261 38.6107C437.303 47.8863 439.414 57.6144 439.414 57.6144C440.018 52.4864 445.297 45.5485 445.297 45.5485C446.127 50.9027 457.214 59.6505 462.041 63.1948C461.966 63.2702 461.89 63.4211 461.89 63.4965C459.175 67.4179 462.569 71.3393 463.173 75.4869C463.776 79.6345 451.784 90.7954 465.134 96.3759C478.484 102.032 482.707 92.7561 479.313 87.7036Z" fill="#3F3D56"/>
<path d="M236.526 526.976C236.526 526.976 236.225 530.143 221.442 530.143C206.659 530.143 185.163 526.297 185.163 526.297L219.481 522.979C219.481 522.979 232.68 522.3 236.526 526.976Z" fill="#3F3D56"/>
<path d="M198.89 528.107C190.518 528.107 186.974 532.405 183.655 533.763C180.336 535.12 177.018 537.156 177.018 537.081C178.903 533.386 181.543 533.31 182.901 532.104C184.258 530.897 183.881 531.5 180.94 531.274C179.28 531.123 176.264 534.215 174.152 535.95C172.266 537.383 171.135 537.533 171.135 537.533C171.135 537.533 173.322 534.441 176.037 531.953C179.356 528.936 183.504 526.448 184.485 525.995C186.295 525.241 191.876 525.09 195.798 525.618C200.323 526.222 204.924 528.107 198.89 528.107Z" fill="#3F3D56"/>
<path d="M185.013 526.146C185.013 526.146 178.602 527.805 177.47 528.71C176.716 529.313 173.397 532.858 173.397 532.858C173.397 532.858 175.811 532.481 177.169 531.123C178.602 529.691 185.013 526.146 185.013 526.146Z" fill="#3F3D56"/>
<path d="M224.383 520.49C224.383 520.49 240.524 521.546 239.393 531.5C238.789 537.156 235.094 539.117 230.191 538.665C221.14 537.91 210.883 536.553 210.883 536.553L206.282 521.094L224.383 520.49Z" fill="#3F3D56"/>
<path d="M227.778 521.848L243.616 470.794C243.616 470.794 245.954 463.328 249.801 464.686C255.307 466.722 252.592 472.83 252.139 476.45C251.159 483.84 251.837 487.083 246.709 504.88C243.541 515.89 240.826 528.559 238.11 535.799C236.225 540.776 232.982 533.612 228.079 531.651C218.878 527.956 227.778 521.848 227.778 521.848Z" fill="#3F3D56"/>
<path d="M228.984 443.043C232.077 451.941 241.655 456.541 250.48 453.299C259.229 450.056 263.905 440.177 260.813 431.278C257.72 422.38 248.142 417.78 239.317 421.022C230.568 424.265 225.892 434.144 228.984 443.043Z" fill="#3F3D56"/>
<path d="M211.637 443.872C216.464 451.112 226.118 452.922 233.133 447.944L232.152 439.423C239.166 434.37 240.901 424.416 236.074 417.177L232.755 412.275C227.928 405.035 218.274 403.225 211.26 408.203L208.092 410.465C201.078 415.518 199.343 425.472 204.17 432.711L211.637 443.872Z" fill="#3F3D56"/>
<path d="M205.302 420.118C206.131 421.324 207.036 422.455 208.092 423.587C215.031 431.128 224.308 433.993 230.191 430.901C232.906 434.597 235.999 437.538 238.789 439.8C242.033 442.439 250.329 443.495 250.329 443.495C255.156 448.774 237.055 479.617 235.772 479.466C233.133 479.24 229.739 462.197 232.228 456.013C233.359 453.223 235.169 449.905 234.641 448.397C232.755 443.193 230.116 444.098 230.116 444.098C230.116 444.098 226.646 448.171 223.931 448.02C221.14 447.794 216.313 443.42 216.087 443.344C215.257 442.666 214.503 441.836 213.824 440.856L206.584 429.996C204.698 426.98 204.246 423.36 205.302 420.118Z" fill="#FFE3CA"/>
<path d="M260.662 550.052C260.662 550.052 254.779 557.14 252.969 557.894C250.555 558.95 243.164 556.688 243.164 556.688C243.164 556.688 241.203 524.185 238.94 511.516C236.677 498.847 233.359 495.529 233.208 491.532C232.982 485.122 227.627 482.558 228.532 477.581C229.437 472.604 231.021 454.807 231.549 457.145C236.149 477.355 241.806 460.538 243.088 457.899C243.767 456.466 260.662 550.052 260.662 550.052Z" fill="#F2F0F0"/>
<path d="M233.887 451.112C233.887 451.112 226.722 458.954 227.25 462.046C227.702 465.138 224.157 474.791 227.702 488.214C231.7 503.523 233.811 513.929 234.566 523.959C235.32 533.989 231.926 543.189 233.283 555.481C234.339 565.134 236.527 565.662 236.527 565.662C236.527 565.662 240.826 566.718 243.843 562.947C246.86 559.252 242.334 526.372 240.826 518.228C239.317 510.008 234.49 490.854 233.208 485.198C231.624 478.26 231.926 471.171 232.001 469.135C232.378 461.971 233.283 457.522 234.038 454.807C234.113 454.43 234.49 450.207 233.887 451.112Z" fill="#3F3D56"/>
<path d="M246.407 460.312C250.329 471.624 262.547 477.43 273.71 473.283C284.873 469.135 290.756 456.617 286.834 445.305C282.912 433.993 270.693 428.187 259.531 432.334C248.368 436.407 242.485 449 246.407 460.312Z" fill="#3F3D56"/>
<path d="M208.017 654.723L212.014 686.622L194.667 694.842L185.088 696.953L202.134 683.756L196.552 654.949L208.017 654.723Z" fill="#FCBAA2"/>
<path d="M213.146 691.448L209.374 692.428L206.81 690.091L192.932 697.029L180.638 699.97C180.638 699.97 180.487 698.989 180.864 698.461C182.373 696.425 191.047 691.976 191.047 691.976C191.047 691.976 191.197 694.917 192.404 694.992C193.611 695.068 204.246 689.487 206.735 687.979C210.958 685.34 211.788 683.605 212.09 683.832C212.995 684.284 213.146 691.448 213.146 691.448Z" fill="#3F3D56"/>
<path d="M166.157 610.381L152.355 637.529L133.348 636.624L123.845 633.834L144.888 630.289L156.352 607.063L166.157 610.381Z" fill="#FCBAA2"/>
<path d="M151.223 642.355L147.452 641.45L146.245 638.132L129.124 637.906L118.942 635.493C118.942 635.493 120.149 634.136 120.903 633.759C123.166 632.778 131.236 632.326 131.236 632.326C131.236 632.326 130.406 634.663 131.462 635.267C132.518 635.945 144.284 636.322 147.15 636.096C152.128 635.719 153.561 634.663 153.712 634.965C154.24 636.021 151.223 642.355 151.223 642.355Z" fill="#3F3D56"/>
<path d="M266.847 529.163L256.589 533.763L256.664 547.865L185.993 536.327C185.993 536.327 179.28 534.14 174.981 545.225C168.872 560.911 153.335 609.702 153.335 609.702L163.14 620.335L193.988 565.209C193.988 565.209 257.192 595.902 278.009 589.266C286.004 586.702 292.113 572.072 290.982 557.291C290.077 545.678 287.814 535.045 287.814 535.045L266.847 529.163Z" fill="#FFB750"/>
<path d="M257.871 588.964L207.262 585.193L211.637 666.035L196.703 666.562L185.691 571.846C185.691 571.846 188.633 557.744 198.287 559.855C208.017 562.042 231.398 580.593 257.871 588.964Z" fill="#FFB750"/>
<path d="M291.962 609.25C291.962 609.25 265.414 579.462 258.55 562.645C250.329 542.51 251.008 517.248 249.499 508.877C246.709 493.493 243.315 463.63 242.711 459.935C242.032 456.24 244.371 452.092 244.371 452.092C244.371 452.092 242.636 440.931 247.614 442.138C254.779 443.872 261.869 447.794 264.358 449C269.034 451.112 278.613 507.369 279.141 510.084C281.102 519.887 288.267 528.786 293.396 537.91C305.463 559.553 308.556 585.118 308.556 585.118C308.556 585.118 307.047 603.82 291.962 609.25Z" fill="#3F3D56"/>
<path d="M264.584 531.35C264.584 531.35 264.358 534.969 247.463 534.14C230.568 533.235 205.829 527.579 205.829 527.579L244.974 525.769C244.974 525.769 259.983 525.845 264.584 531.35Z" fill="#FFE3CA"/>
<path d="M219.104 529.54C211.034 529.389 207.564 533.537 204.396 534.819C201.229 536.101 197.985 537.986 197.985 537.986C199.795 534.442 202.36 534.366 203.717 533.235C205 532.104 204.698 532.707 201.832 532.405C200.173 532.255 197.307 535.196 195.27 536.855C193.46 538.288 192.329 538.363 192.329 538.363C192.329 538.363 194.44 535.346 197.08 532.933C200.323 530.068 204.245 527.654 205.226 527.277C206.961 526.599 212.316 526.523 216.162 527.127C220.461 527.73 224.911 529.691 219.104 529.54Z" fill="#FFE3CA"/>
<path d="M205.603 527.353C205.603 527.353 199.418 528.861 198.362 529.691C197.608 530.294 194.44 533.687 194.44 533.687C194.44 533.687 196.703 533.31 198.061 532.028C199.418 530.822 205.603 527.353 205.603 527.353Z" fill="#FFE3CA"/>
<path d="M251.083 527.353L276.124 514.156C276.124 514.156 276.199 530.143 276.35 536.251C276.501 542.36 279.065 550.957 274.238 552.239C269.411 553.521 266.922 552.842 271.9 555.783C276.878 558.649 275.747 561.665 273.861 564.154C271.975 566.642 280.197 591.98 278.236 593.413C270.467 583.61 262.095 571.469 258.475 562.645C253.874 551.183 252.064 538.061 251.083 527.353Z" fill="#3F3D56"/>
<path d="M259.153 520.943L258.173 469.965C258.173 469.965 258.248 454.053 258.55 449.377C258.852 444.551 267.073 450.207 267.073 450.207C267.073 450.207 278.613 465.817 278.839 503.447C278.99 528.635 277.632 541.756 266.017 540.701C255.232 539.72 242.938 538.061 242.938 538.061L237.583 524.11L259.153 520.943Z" fill="#3F3D56"/>
<path d="M256.589 547.865L170.381 537.081L170.607 535.271L256.815 546.055L256.589 547.865Z" fill="#D3D3D3"/>
<path d="M218.802 541.229C218.651 542.661 217.52 543.717 216.313 543.566L172.115 538.061C170.909 537.91 169.4 536.779 168.344 533.009L151.299 488.893C151.525 487.083 152.958 486.178 154.165 486.631L199.343 493.719C200.55 494.172 201.379 495.227 201.832 497.188L218.802 541.229Z" fill="#D3D3D3"/>
<path d="M213.221 542.435L213.673 542.511L256.815 547.94C255.156 548.619 252.516 548.845 249.575 548.468L213.447 543.943L212.994 543.868L176.867 539.343C173.925 538.966 171.436 538.061 169.928 537.081L213.221 542.435Z" fill="#D3D3D3"/>
<path d="M259.153 520.943L258.173 469.965C258.173 469.965 258.927 465.666 260.436 461.82C260.813 467.401 263.377 507.595 263.679 512.874C264.056 518.605 268.732 519.208 269.713 521.094C270.769 522.904 269.863 523.281 266.394 522.602C263 521.848 264.207 522.451 264.961 524.261C265.715 526.146 263.83 525.618 257.192 523.205C252.365 521.471 243.088 523.205 238.412 524.261L259.153 520.943Z" fill="#3F3D56"/>
<path d="M557.225 395.835C548.928 398.022 533.618 405.714 530.374 418.911C525.547 438.744 535.201 467.778 519.966 496.283C515.064 505.333 604.213 517.549 604.213 517.549L621.41 417.403C621.41 417.403 599.914 395.684 595.54 394.176C586.414 391.16 573.818 391.461 557.225 395.835Z" fill="#CCE9FF"/>
<path d="M621.485 417.478C624.578 425.472 632.422 473.057 623.673 484.293C622.692 485.575 628.198 487.611 627.218 493.493C627.067 494.473 625.407 499.224 625.407 499.224L618.318 501.11L602.856 483.237C602.856 483.237 609.116 473.509 617.337 436.633C619.751 425.773 620.807 415.668 621.485 417.478Z" fill="#3F3D56"/>
<path d="M562.957 474.338C562.957 474.338 570.424 494.021 588.45 499.3C591.543 500.205 593.504 503.674 591.995 504.805C590.034 506.238 587.47 506.539 582.944 506.539C573.517 506.539 560.695 503.523 551.87 494.624C538.747 481.503 534.598 475.47 535.956 468.909C537.163 462.197 562.957 474.338 562.957 474.338Z" fill="#FCD2B1"/>
<path d="M532.939 412.275C529.092 418.76 526.905 429.167 526.98 444.098C526.98 455.636 536.635 474.565 538.068 480.371C538.294 481.352 538.897 485.499 538.897 485.499L549.532 496.359L570.877 481.352L564.39 471.02L562.429 471.247C562.429 471.247 561.222 465.515 561.524 463.328C561.826 461.141 555.641 431.354 552.549 412.275C550.814 401.189 536.71 405.865 532.939 412.275Z" fill="#3F3D56"/>
<path d="M552.096 470.794L558.356 468.834L560.921 468.155C561.072 469.965 562.58 471.171 562.58 471.171L557.678 471.775L552.021 473.584L545.384 478.335L552.096 470.794Z" fill="#3F3D56"/>
<path d="M587.093 499.224L597.954 496.132C597.954 496.132 601.046 500.431 600.443 501.487C599.839 502.542 600.443 508.877 600.443 508.877L595.163 513.552L590.864 512.044C590.864 512.044 590.562 510.084 591.995 509.933C593.504 509.707 591.015 508.651 590.26 508.198C589.506 507.67 583.246 504.352 587.093 499.224Z" fill="#FCD2B1"/>
<path d="M570.349 394.855C569.142 398.399 570.952 402.396 574.422 403.602L580.606 405.865C584.076 407.147 587.847 405.186 589.054 401.642L594.56 385.353C595.766 381.808 593.956 377.812 590.487 376.53L584.302 374.267C580.833 372.985 577.061 374.946 575.855 378.49L570.349 394.855Z" fill="#FF957E"/>
<path d="M597.35 409.183C596.747 411.521 594.333 412.954 592.071 412.275L573.441 406.921C571.178 406.242 569.821 403.829 570.424 401.416L578.042 372.835C578.645 370.497 581.059 369.064 583.321 369.743L601.951 375.022C604.214 375.7 605.571 378.113 604.968 380.527L597.35 409.183Z" fill="#FCD2B1"/>
<path d="M607.004 377.661C607.155 377.51 605.269 375.399 606.25 371.251C607.532 365.67 603.384 363.408 600.292 363.333C598.481 363.257 592.372 366.198 589.129 367.179C585.886 368.159 586.187 366.877 580.304 365.821C576.382 365.067 575.477 367.254 574.12 370.271C572.762 373.362 572.611 385.127 572.611 385.127C573.139 385.881 573.969 386.484 574.497 385.881C575.025 385.277 577.137 375.851 578.871 373.061C580.531 370.271 587.319 374.72 591.015 376.907C594.635 379.094 597.878 379.471 603.686 378.264C604.364 379.018 604.968 379.848 604.968 380.225C604.968 380.979 603.308 386.333 603.308 386.333C603.308 386.333 606.552 384.297 607.457 382.713C607.909 382.186 608.06 379.622 607.004 377.661Z" fill="#FFBE55"/>
<path d="M576.307 395.458C576.081 396.212 575.327 396.74 574.572 396.514L570.575 395.383C569.821 395.156 569.368 394.327 569.595 393.573L571.631 385.956C571.857 385.202 572.611 384.674 573.366 384.9L577.363 386.032C578.117 386.258 578.57 387.087 578.344 387.841L576.307 395.458Z" fill="#FCD2B1"/>
<path d="M573.818 388.219C573.818 388.219 570.801 399.455 569.821 403.225C568.916 406.619 568.237 414.462 586.715 419.741C597.652 422.832 599.462 414.386 600.216 411.672C600.744 409.56 600.141 402.698 599.311 401.189C599.311 401.114 598.104 405.865 598.104 405.865C598.104 405.865 597.048 400.661 591.844 399.229C583.472 396.815 580.154 401.416 576.533 400.209C573.667 399.229 572.838 393.799 573.818 388.219Z" fill="#FFBE55"/>
<path d="M586.414 405.488L592.146 407.147C592.9 407.373 593.73 406.921 593.881 406.091L594.107 405.262L585.584 402.848L585.358 403.678C585.207 404.507 585.659 405.262 586.414 405.488Z" fill="#FCD2B1"/>
<path d="M677.298 519.736C674.659 527.353 628.198 555.331 612.586 553.671L565.597 556.009C525.698 550.957 506.767 486.706 506.767 486.706C508.351 470.568 547.722 493.945 561.75 501.185C583.925 512.648 598.029 513.251 598.029 513.251C612.887 514.834 630.084 502.92 648.864 502.542C669.454 502.015 681.522 507.746 677.298 519.736Z" fill="#2F2E41"/>
<path d="M575.176 512.044C575.176 511.969 575.176 511.969 575.176 512.044V509.933L655.954 508.424V510.461V510.536L655.728 510.913C654.747 512.723 652.861 513.025 650.75 513.1L580.455 514.457C578.344 514.533 576.458 514.231 575.402 512.497L575.176 512.044Z" fill="#D3D3D3"/>
<path d="M594.635 511.969C594.635 511.969 594.635 512.044 594.635 511.969L594.409 512.346C594.107 512.798 593.73 513.175 593.277 513.402L580.983 513.628C578.947 513.703 577.137 513.477 576.081 512.044L575.855 511.743C575.855 511.743 575.855 511.743 575.779 511.667V510.687L594.484 510.31L594.635 511.969Z" fill="#D3D3D3"/>
<path d="M605.571 511.215L645.923 510.461V509.028L605.496 509.857L605.571 511.215Z" fill="#D3D3D3"/>
<path d="M595.087 509.48L604.817 468.155C605.043 467.099 606.099 466.194 607.155 466.119L663.873 465.063C664.929 465.063 665.532 465.892 665.306 467.024L655.577 508.349L595.087 509.48Z" fill="#D3D3D3"/>
<path d="M558.507 566.642C564.089 567.623 568.388 560.911 568.388 560.911L582.869 549.147L579.777 541.153L551.568 554.275C551.568 554.275 552.851 565.662 558.507 566.642Z" fill="#FCD2B1"/>
<path d="M568.312 560.458C568.312 560.458 568.312 561.137 567.256 564.229C566.2 567.321 564.843 568.377 563.485 568.829C558.055 570.488 554.208 569.659 541.235 572.223C528.263 574.787 524.341 572.826 520.57 566.642C516.798 560.458 520.72 555.557 527.056 555.104C536.182 554.425 541.311 555.481 546.063 554.727C551.04 553.973 551.342 552.766 554.284 550.881C556.999 549.147 559.563 559.554 556.999 561.967C554.661 564.078 566.427 564.38 568.312 560.458Z" fill="#FFB750"/>
<path d="M565.597 566.416C560.242 568.075 556.32 567.245 543.347 569.809C530.375 572.373 526.453 570.413 522.681 564.229C520.947 561.363 520.871 558.799 521.852 556.839C518.986 558.875 518.005 562.419 520.57 566.642C524.341 572.826 528.263 574.787 541.235 572.223C554.208 569.659 558.13 570.488 563.485 568.829C564.541 568.527 565.597 567.773 566.502 566.039C566.2 566.19 565.899 566.34 565.597 566.416Z" fill="white"/>
<path d="M568.313 560.685C568.313 560.534 568.313 560.534 568.313 560.534C568.313 560.609 568.237 560.685 568.161 560.761C568.237 560.685 568.313 560.685 568.313 560.685Z" fill="#E9D6B8"/>
<path d="M540.33 565.285C539.953 565.436 539.576 564.606 539.425 563.475C539.199 561.137 538.671 558.875 537.917 556.537C537.54 555.406 537.54 554.426 537.992 554.275C538.445 554.124 539.199 554.953 539.501 556.085C540.255 558.347 540.708 560.685 540.934 562.947C541.085 564.078 540.708 565.134 540.33 565.285Z" fill="white"/>
<path d="M544.328 564.531C543.875 564.606 543.498 563.852 543.347 562.796C543.121 560.609 542.593 558.422 541.839 556.311C541.462 555.255 541.462 554.35 541.99 554.275C542.442 554.199 543.196 555.029 543.574 556.085C544.252 558.196 544.78 560.383 545.007 562.495C545.082 563.55 544.78 564.455 544.328 564.531Z" fill="white"/>
<path d="M548.552 564.38C548.099 564.455 547.646 563.626 547.496 562.495C547.119 560.232 546.591 558.045 545.761 555.783C545.384 554.652 545.384 553.747 545.836 553.747C546.364 553.747 547.119 554.576 547.496 555.708C548.325 557.894 548.853 560.157 549.155 562.344C549.306 563.4 549.004 564.304 548.552 564.38Z" fill="white"/>
<path d="M559.488 547.412C559.488 547.412 658.82 505.106 664.477 505.031C683.634 504.88 679.259 524.94 669.53 534.441C658.066 545.602 570.877 566.039 570.877 566.039L559.488 547.412Z" fill="#3F3D56"/>
<path d="M598.859 554.803L571.706 528.107L583.321 516.267L612.887 548.544L598.859 554.803Z" fill="#FCD2B1"/>
<path d="M604.44 533.838C604.44 533.838 535.428 468.306 530.827 466.345C515.064 459.709 505.334 477.732 505.862 483.991C506.616 492.06 576.684 557.668 576.684 557.668L604.44 533.838Z" fill="#3F3D56"/>
<path d="M645.319 556.839C646.903 558.347 647.205 562.947 647.205 562.947C647.205 562.947 624.201 571.996 616.13 572.147C614.019 572.223 610.247 571.318 606.627 570.262C606.024 570.111 604.591 568.452 603.987 568.301C602.856 568 602.63 569.055 601.725 568.754C599.311 567.924 597.501 567.245 597.425 567.095C592.523 556.386 594.182 551.107 594.182 551.107C594.182 551.107 604.741 554.275 602.931 551.786C599.085 546.507 610.172 541.153 612.585 543.943C622.541 555.18 640.643 552.389 645.319 556.839Z" fill="#FFB750"/>
<path d="M646.601 559.101C639.511 562.042 624.653 568 621.712 568.226C609.568 569.131 601.121 564.681 595.464 562.042C595.992 563.55 596.596 565.285 597.425 567.095C597.501 567.246 599.235 567.924 601.724 568.754C602.705 569.055 602.931 567.924 603.987 568.301C604.591 568.452 605.948 570.111 606.627 570.262C610.247 571.318 614.018 572.147 616.13 572.147C624.201 571.996 647.204 562.947 647.204 562.947C647.204 562.947 647.205 560.836 646.601 559.101Z" fill="white"/>
<path d="M630.385 552.163C630.612 552.616 629.707 553.068 628.424 553.37C625.785 553.898 623.22 554.727 620.656 555.783C619.374 556.311 618.242 556.462 618.091 556.009C617.941 555.557 618.77 554.727 620.052 554.199C622.541 553.144 625.181 552.389 627.746 551.862C628.952 551.484 630.159 551.711 630.385 552.163Z" fill="white"/>
<path d="M625.181 550.278C625.407 550.73 624.502 551.334 623.22 551.711C620.656 552.465 618.167 553.521 615.678 554.803C614.471 555.406 613.34 555.632 613.189 555.18C613.038 554.727 613.868 553.747 615.074 553.143C617.488 551.937 619.977 550.881 622.541 550.202C623.823 549.675 625.03 549.825 625.181 550.278Z" fill="white"/>
<path d="M620.203 548.619C620.354 549.071 619.524 549.75 618.318 550.202C615.829 551.183 613.415 552.389 611.077 553.822C609.946 554.576 608.89 554.803 608.739 554.275C608.588 553.822 609.342 552.766 610.549 552.012C612.887 550.58 615.301 549.373 617.714 548.468C618.921 548.091 620.052 548.166 620.203 548.619Z" fill="white"/>
</svg>
