<svg width="846" height="873" viewBox="0 0 846 873" fill="none" xmlns="http://www.w3.org/2000/svg">
<path d="M128.831 800.105H224.948C224.948 800.105 225.297 724.154 217.004 714.987H134.505C134.505 714.987 123.942 757.502 128.831 800.105Z" fill="#FF8103"/>
<path d="M180.512 428.119L187.234 705.82" stroke="#2F2E41" stroke-width="2" stroke-miterlimit="10" stroke-linecap="round" stroke-linejoin="round"/>
<path d="M163.75 393.199L179.814 705.821" stroke="#2F2E41" stroke-width="2" stroke-miterlimit="10" stroke-linecap="round" stroke-linejoin="round"/>
<path d="M149.957 703.376L147.775 587.005" stroke="#2F2E41" stroke-width="2" stroke-miterlimit="10" stroke-linecap="round" stroke-linejoin="round"/>
<path d="M163.75 504.245L165.496 705.821" stroke="#2F2E41" stroke-width="2" stroke-miterlimit="10" stroke-linecap="round" stroke-linejoin="round"/>
<path d="M173.528 456.055C163.75 450.119 135.291 451.166 120.537 487.92C105.783 524.673 97.7517 552.085 111.72 545.014C125.688 537.943 174.314 504.332 179.901 498.57C185.401 492.808 198.321 471.071 173.528 456.055Z" fill="#303D73"/>
<path d="M171.782 625.941C145.243 606.997 109.014 617.56 111.72 688.361C114.426 759.161 240.4 675.091 171.782 625.941Z" fill="#303D73"/>
<path d="M179.814 705.821C137.299 706.17 122.894 705.821 122.894 705.821C122.894 705.821 123.942 718.654 128.83 719.789C133.719 720.923 217.003 720.749 217.003 720.749C217.003 720.749 224.075 719.876 224.948 705.821H179.814Z" fill="#F9A826"/>
<path d="M153.1 668.893C133.981 661.647 109.188 666.099 93.9979 702.328C78.895 738.558 56.3716 795.128 98.5375 768.764C140.703 742.399 161.132 734.28 168.901 717.082C176.671 699.884 179.814 679.107 153.1 668.893Z" fill="#00CA9C"/>
<path d="M178.766 580.72C145.068 586.481 141.489 628.56 178.766 658.417C216.043 688.273 241.36 713.939 252.971 717.868C264.582 721.796 290.598 725.288 278.987 676.75C267.376 628.124 261.439 566.577 178.766 580.72Z" fill="#00CA9C"/>
<path d="M152.14 529.736C129.965 510.967 97.228 536.459 85.9663 570.506C74.7046 604.64 56.8081 663.655 97.5772 631.354C138.346 598.965 198.321 568.76 152.14 529.736Z" fill="#00CA9C"/>
<path d="M186.536 472.38C154.409 488.356 166.108 521.967 194.305 533.927C222.416 545.887 291.558 582.815 281.955 554.006C272.352 525.197 238.217 446.714 186.536 472.38Z" fill="#00CA9C"/>
<path d="M176.322 424.54C175.362 400.969 199.369 397.128 217.004 400.62C234.638 404.112 268.074 413.278 262.4 421.746C256.812 430.214 225.646 439.294 217.004 442.524C208.361 445.754 177.369 451.603 176.322 424.54Z" fill="#00CA9C"/>
<path d="M114.077 369.715C135.378 355.922 173.877 362.295 173.528 381.676C173.179 401.056 166.282 402.453 152.14 395.382C137.997 388.31 102.117 377.485 114.077 369.715Z" fill="#303D73"/>
<path d="M633.25 751.566C632.289 754.534 631.678 756.193 631.678 756.193C631.678 756.193 637.004 764.05 642.067 772.081C646.17 778.716 650.099 785.351 650.622 787.97C651.757 793.644 650.622 799.93 650.622 799.93H557.211V533.752L560.616 369.192L656.821 389.707C656.821 389.707 665.813 452.039 671.051 492.11C676.376 532.181 675.939 597.307 675.939 610.925C675.939 622.187 645.559 714.463 635.17 745.804C634.734 747.201 634.297 748.51 633.861 749.645C633.686 750.343 633.512 750.955 633.25 751.566Z" fill="#2F2E41"/>
<path d="M635.17 745.804C634.734 747.201 634.297 748.51 633.861 749.645C633.599 750.344 633.424 750.955 633.25 751.566L600.25 752.613L557.211 764.748V754.97L601.123 744.32L635.17 745.804Z" fill="white"/>
<path d="M568.124 791.2C567.687 782.994 562.275 778.28 558.521 776.01V765.097L600.425 752.264L632.115 751.042C631.067 754.097 630.543 755.756 630.543 755.756C630.369 756.105 630.456 756.542 630.718 756.891C630.805 756.978 635.258 763.613 639.797 770.772C637.527 770.772 634.647 770.772 631.416 770.772C625.131 770.772 618.496 770.772 611.599 770.684H611.25C590.385 770.684 582.878 787.009 581.306 791.113H568.124V791.2Z" fill="white"/>
<path d="M630.282 752.439C629.671 754.359 629.321 755.407 629.321 755.407C629.059 756.193 629.147 757.066 629.671 757.764C629.758 757.851 633.424 763.264 637.528 769.637C635.52 769.637 633.512 769.637 631.504 769.637C625.218 769.637 618.583 769.637 611.774 769.55H611.425C598.504 769.55 590.56 775.573 586.282 780.724C583.227 784.303 581.481 787.883 580.608 790.065H569.608C568.91 784.129 565.592 779.065 560.092 775.399V766.232L600.862 753.748L630.282 752.439ZM633.948 749.645L600.25 750.955L557.299 764.137V776.708C561.489 779.065 567.076 783.867 566.902 792.509H582.267C582.267 792.509 588.203 772.081 611.25 772.081C611.338 772.081 611.512 772.081 611.599 772.081C619.456 772.169 626.004 772.169 631.417 772.169C635.956 772.169 639.535 772.169 642.242 772.169C637.178 764.137 631.853 756.28 631.853 756.28C631.853 756.28 632.551 753.836 633.948 749.645Z" fill="#2F2E41"/>
<path d="M616.576 511.403L615.004 529.736L625.393 595.735L602.87 712.019V730.439L632.29 596.783L616.576 511.403Z" fill="white"/>
<path d="M511.554 229.337C511.554 229.337 519.149 219.909 528.752 216.766C538.355 213.536 559.481 207.774 559.918 206.988C560.354 206.203 608.457 219.385 608.457 219.385C608.457 219.385 651.408 224.972 653.416 244.178C655.424 263.384 656.821 396.866 656.821 396.866C656.821 396.866 644.25 404.024 636.043 403.239C627.837 402.453 566.727 379.493 566.727 379.493L579.735 395.644C579.735 395.644 574.497 419.826 565.156 421.048L510.768 376.525C510.768 376.525 498.197 366.573 503.173 334.796C508.149 303.018 511.554 229.337 511.554 229.337Z" fill="#F9A826"/>
<path d="M565.156 422.183C564.894 422.183 564.545 422.096 564.283 421.921L509.895 377.398C509.371 376.961 496.8 366.573 501.863 334.446C506.752 303.106 510.244 230.036 510.244 229.25C510.244 228.988 510.332 228.726 510.506 228.464C510.855 228.028 518.45 218.774 528.315 215.456C532.331 214.147 538.355 212.314 544.117 210.655C550.402 208.822 557.474 206.726 558.958 206.028C559.656 205.155 561.926 205.592 584.711 211.615C596.147 214.671 607.671 217.814 608.806 218.075C611.599 218.425 652.718 224.274 654.813 244.004C656.821 263.035 658.13 391.366 658.218 396.779C658.218 397.215 657.956 397.652 657.519 397.913C656.995 398.175 644.512 405.334 635.956 404.461C628.885 403.762 585.06 387.612 570.743 382.287L580.783 394.771C581.045 395.12 581.132 395.469 581.044 395.906C580.521 398.437 575.37 421.048 565.33 422.27C565.243 422.183 565.156 422.183 565.156 422.183ZM512.863 229.774C512.601 235.972 509.197 304.59 504.482 334.796C499.681 365.263 511.466 375.215 511.641 375.303L565.505 419.477C571.965 417.905 576.767 402.54 578.338 395.818L565.767 380.104C565.418 379.668 565.418 378.969 565.767 378.533C566.116 378.096 566.727 377.834 567.251 378.096C588.378 386.041 629.932 401.144 636.218 401.755C642.853 402.366 652.892 397.302 655.511 395.906C655.424 384.906 654.027 262.337 652.107 244.178C650.273 226.194 608.719 220.607 608.282 220.607C608.195 220.607 608.195 220.607 608.107 220.607C591.259 215.98 563.934 208.734 560.354 208.211C559.132 208.822 555.815 209.869 544.902 213.099C539.14 214.845 533.204 216.591 529.188 217.901C521.069 220.694 514.26 228.202 512.863 229.774Z" fill="#2F2E41"/>
<path d="M566.727 379.318L558.172 366.66" stroke="#2F2E41" stroke-width="3" stroke-miterlimit="10"/>
<path d="M548.569 320.391C548.569 320.391 560.878 336.192 560.616 341.168C560.354 346.144 560.616 369.192 560.616 369.192L546.998 354.874L550.577 276.392" fill="white"/>
<path d="M560.616 370.501C560.267 370.501 559.918 370.327 559.656 370.065L546.037 355.748C545.775 355.486 545.688 355.136 545.688 354.787L547.259 320.391V320.304L549.267 276.305C549.267 275.606 549.966 274.995 550.664 275.082C551.362 275.082 551.974 275.693 551.886 276.479L549.878 320.042C552.061 322.923 562.1 336.28 561.926 341.256C561.664 346.145 561.926 368.93 561.926 369.192C561.926 369.715 561.577 370.239 561.14 370.414C560.965 370.501 560.791 370.501 560.616 370.501ZM548.307 354.351L559.219 365.874C559.132 359.327 559.045 345.01 559.219 341.081C559.394 338.288 554.069 330.081 549.616 324.058L548.307 354.351Z" fill="#2F2E41"/>
<path d="M656.559 375.826C655.861 375.826 655.337 375.303 655.249 374.604L646.607 260.852C646.519 260.154 647.131 259.543 647.829 259.456C648.527 259.368 649.138 259.979 649.226 260.678L657.868 374.43C657.956 375.128 657.345 375.739 656.646 375.826H656.559Z" fill="#2F2E41"/>
<path d="M627.575 799.144C627.488 799.144 627.313 799.144 627.226 799.057C626.528 798.882 626.091 798.184 626.266 797.486C627.313 793.47 622.075 783.43 619.893 779.764C610.726 770.335 599.814 758.637 599.814 756.28C599.814 753.923 599.814 744.32 599.814 744.32H602.433C602.433 744.32 602.433 753.574 602.433 756.105C603.131 758.026 612.822 768.677 621.901 777.93C621.988 778.018 621.988 778.105 622.075 778.192C622.948 779.589 630.369 792.16 628.798 798.097C628.623 798.708 628.099 799.144 627.575 799.144Z" fill="#2F2E41"/>
<path d="M571.703 180.711C571.703 180.711 568.561 207.687 550.664 210.917C550.664 210.917 571.005 231.607 573.187 233.615C577.378 237.456 609.155 253.257 609.766 239.639C610.29 225.932 606.187 217.377 606.187 217.377L598.33 204.282L600.425 184.028L571.703 180.711Z" fill="white"/>
<path d="M602.695 246.361C597.981 246.361 592.219 244.527 587.592 242.694C580.608 239.9 574.148 236.321 572.314 234.575C570.132 232.567 550.489 212.663 549.704 211.877L547.958 210.131L550.402 209.695C567.164 206.726 570.394 180.886 570.394 180.624L570.568 179.314L601.822 182.806L599.639 203.933L607.322 216.766C607.496 217.115 611.599 225.845 610.988 239.726C610.901 242.607 609.504 244.702 607.06 245.662C605.838 246.099 604.354 246.361 602.695 246.361ZM553.196 211.615C558.085 216.591 572.314 230.909 574.06 232.567C577.378 235.623 598.679 246.186 606.1 243.131C607.584 242.519 608.369 241.297 608.457 239.464C608.98 226.805 605.401 218.512 605.052 217.814L597.02 204.369L598.941 185.076L572.838 182.195C571.965 187.52 567.862 207.163 553.196 211.615Z" fill="#2F2E41"/>
<path d="M591.783 235.273C584.886 230.385 564.021 215.456 559.743 207.949C562.188 205.504 566.204 201.314 567.775 198.258L590.211 213.448L591.783 235.273Z" fill="white"/>
<path d="M568.211 200.179L588.989 214.234L590.298 232.655C587.33 230.472 583.14 227.504 578.775 224.099C567.6 215.456 563.148 210.655 561.402 208.123C564.632 204.98 566.902 202.274 568.211 200.179ZM567.164 196.25C567.338 198.869 558.259 207.687 558.259 207.687C562.188 216.679 593.354 237.893 593.354 237.893L591.521 212.75L567.164 196.25Z" fill="#2F2E41"/>
<path d="M598.243 204.107L591.521 212.75L605.052 234.488L608.457 219.298L598.243 204.107Z" fill="white"/>
<path d="M605.576 237.893L589.949 212.663L598.33 201.925L609.854 219.036L605.576 237.893ZM593.092 212.837L604.441 231.083L607.06 219.56L598.155 206.377L593.092 212.837Z" fill="#2F2E41"/>
<path d="M564.196 175.648C564.196 175.648 564.545 179.489 561.14 179.489C557.735 179.489 548.045 175.473 551.188 164.997C554.418 154.521 558.958 152.164 558.958 152.164L555.291 132.521L601.298 122.22L611.949 131.648L613.171 155.918C613.171 155.918 618.234 150.68 620.941 152.077C623.647 153.386 626.004 168.489 614.393 170.06C614.393 170.06 607.322 189.441 598.243 191.798C589.163 194.155 570.743 192.322 564.196 175.648Z" fill="white"/>
<path d="M590.997 193.893C587.505 193.893 583.663 193.37 579.822 192.06C574.933 190.401 568.561 186.822 564.545 179.314C564.457 179.402 564.458 179.489 564.37 179.576C563.846 180.187 562.886 180.886 561.227 180.886C558.783 180.886 554.156 179.227 551.45 175.648C549.878 173.552 548.394 169.973 550.053 164.735C552.585 156.442 556.077 152.95 557.648 151.727L553.894 131.648L601.735 120.911L613.258 131.125L614.306 153.124C616.314 151.553 619.195 149.807 621.464 150.942C623.647 152.077 624.956 157.227 624.171 161.854C623.647 164.91 621.814 170.06 615.266 171.283C613.869 174.949 607.147 190.838 598.504 193.108C596.409 193.544 593.79 193.893 590.997 193.893ZM562.275 167.092L565.418 175.124C571.791 191.449 589.949 192.497 597.719 190.489C604.615 188.655 611.076 174.775 612.996 169.537L613.258 168.751L614.044 168.664C619.02 167.965 620.766 164.561 621.377 161.854C622.337 157.577 620.853 153.561 620.155 153.124C619.107 152.6 616.052 154.608 613.957 156.704L611.861 158.886L610.552 132.172L600.862 123.53L556.775 133.569L560.442 152.95L559.569 153.386C559.569 153.386 555.466 155.743 552.497 165.434C551.45 168.838 551.799 171.719 553.545 173.989C555.727 176.957 559.569 178.179 561.227 178.179C561.926 178.179 562.275 177.917 562.45 177.743C562.973 177.132 563.061 176.084 562.973 175.735L562.275 167.092Z" fill="#2F2E41"/>
<path d="M566.204 151.029C566.204 151.029 572.402 145.267 582.354 147.362" stroke="#2F2E41" stroke-width="3" stroke-miterlimit="10" stroke-linecap="round" stroke-linejoin="round"/>
<path d="M604.092 141.077C604.092 141.077 588.902 140.378 589.6 151.815C590.298 163.251 598.854 165.434 598.854 165.434L595.449 169.973" stroke="#2F2E41" stroke-width="3" stroke-miterlimit="10" stroke-linecap="round" stroke-linejoin="round"/>
<path d="M581.394 176.433C581.394 176.433 587.592 181.846 594.489 178.267" stroke="#2F2E41" stroke-width="3" stroke-miterlimit="10" stroke-linecap="round" stroke-linejoin="round"/>
<path d="M615.615 151.029C615.615 151.029 613.869 159.584 612.822 160.457C611.774 161.33 609.766 137.41 608.457 134.529C607.147 131.648 605.75 124.403 597.195 129.291C588.64 134.18 588.29 137.41 579.473 137.236C570.743 137.061 561.489 135.577 561.489 135.577C561.489 135.577 558.084 141.164 560.18 146.315C562.188 151.553 563.061 166.394 563.061 166.394L561.227 167.878L559.045 161.767C559.045 161.767 552.847 157.227 551.275 164.997C551.275 164.997 544.815 153.735 543.505 141.426C542.371 131.474 544.553 120.91 556.164 115.149C582.092 102.141 584.1 101.53 584.1 101.53L584.973 107.292C584.973 107.292 613.782 98.5617 615.441 103.276C617.099 107.99 609.068 112.181 609.068 112.181C609.068 112.181 617.623 115.673 612.734 125.799C612.734 125.799 616.837 141.775 615.615 151.029Z" fill="#2F2E41"/>
<path d="M611.861 105.196C604.528 106.157 581.306 116.807 581.306 116.807C581.306 116.807 580.695 111.831 578.6 111.657C576.505 111.482 560.616 120.998 553.981 126.847C549.093 131.212 547.609 136.275 545.339 144.22C544.291 134.267 546.386 123.704 557.648 117.942C582.878 104.935 581.83 105.546 581.83 105.546L583.314 111.133C583.402 111.22 610.203 100.482 611.861 105.196Z" fill="white"/>
<path d="M277.677 800.366C277.415 798.184 277.415 792.422 282.566 785.962C284.05 784.129 285.621 781.771 287.28 778.978C294.264 767.454 301.51 749.907 301.947 736.987C302.47 721.622 304.391 601.497 304.566 587.267L352.144 590.323L331.978 712.63C331.803 713.416 327.525 733.495 328.748 744.756C329.184 748.947 329.97 752.962 330.668 756.978C331.017 758.637 331.279 760.296 331.541 761.867C332.24 766.232 332.938 771.296 332.589 776.01C331.803 784.216 324.383 797.573 322.549 800.628L277.677 800.366Z" fill="white"/>
<path d="M305.875 588.664L350.66 591.545L330.755 712.368C330.406 713.852 326.303 733.582 327.525 744.844C327.962 749.034 328.748 753.137 329.446 757.153C329.795 758.812 330.057 760.47 330.319 762.042C331.017 766.319 331.716 771.295 331.279 775.835C330.581 783.256 324.033 795.303 321.764 799.231L278.899 798.97C278.899 796.438 279.51 791.898 283.613 786.748C285.098 784.914 286.756 782.47 288.415 779.676C298.891 762.304 302.907 745.891 303.256 736.987C303.78 722.058 305.613 607.957 305.875 588.664ZM303.343 585.87C303.343 585.87 301.248 720.487 300.724 736.987C300.288 750.169 292.78 767.454 286.232 778.367C284.574 781.073 283.002 783.43 281.606 785.176C274.534 793.993 276.629 801.676 276.629 801.676L323.335 801.938C323.335 801.938 333.025 785.787 333.898 776.097C334.335 771.47 333.724 766.669 332.851 761.605C331.89 756.105 330.668 750.431 330.057 744.582C328.922 733.407 333.287 712.804 333.287 712.804L353.715 589.1L303.343 585.87Z" fill="#2F2E41"/>
<path d="M325.692 760.296C325.692 760.121 325.692 759.946 325.605 759.772C325.255 758.986 291.034 677.884 284.224 661.297C278.113 646.369 262.399 593.727 259.257 583.164L302.208 587.092L326.827 712.106C326.914 712.368 327.001 712.63 327.263 712.804C327.351 712.892 333.898 718.566 340.533 724.59C348.477 731.749 353.191 736.201 354.414 737.86C356.945 741.002 355.985 748.51 355.374 751.042C355.287 751.216 355.374 751.478 355.374 751.74L360.961 770.161L357.12 771.819L351.445 763.526C351.184 763.177 350.747 762.915 350.398 762.915C350.223 762.915 350.049 762.915 349.874 763.002C349.263 763.264 349.001 763.788 349.088 764.399C350.572 773.827 340.882 788.668 338.874 791.636L324.906 792.335L325.692 760.296Z" fill="white"/>
<path d="M261.09 584.648L301.161 588.315L325.605 712.368C325.692 712.979 326.041 713.416 326.478 713.852C326.565 713.939 333.112 719.614 339.747 725.55C349.612 734.455 352.668 737.598 353.541 738.645C355.461 741.09 355.025 747.375 354.326 750.78C354.239 751.217 354.239 751.653 354.414 752.09L359.652 769.375L357.906 770.161L352.842 762.74C352.318 762.042 351.533 761.605 350.66 761.605C350.311 761.605 350.049 761.693 349.699 761.78C348.565 762.216 347.866 763.439 348.128 764.661C349.35 772.343 342.192 785.002 338.525 790.414L326.565 790.938L327.176 764.137L327.263 760.296C327.263 759.947 327.176 759.597 327.089 759.248C326.74 758.462 292.518 677.361 285.709 660.774C279.685 646.631 265.193 598.442 261.09 584.648ZM257.423 581.68C257.423 581.68 276.106 644.972 283.002 661.734C289.812 678.496 324.382 760.208 324.382 760.208L324.295 764.05L323.597 793.644L339.66 792.859C339.66 792.859 352.231 775.224 350.398 764.137L356.683 773.391L362.62 770.859L356.683 751.304C356.683 751.304 358.866 741.352 355.461 736.987C353.803 734.891 347.517 729.13 341.406 723.542C334.684 717.519 328.136 711.757 328.136 711.757L303.343 585.783L257.423 581.68Z" fill="#2F2E41"/>
<path d="M358.255 777.145L350.398 764.224C352.144 775.311 333.986 801.938 333.986 801.938H320.192L324.208 764.137C325.343 760.296 326.39 756.367 327.089 752.701C329.097 741.875 336.779 730.003 341.319 723.63C347.43 729.13 353.715 734.979 355.374 737.074C358.779 741.439 356.596 751.391 356.596 751.391L363.406 774.002L358.255 777.145Z" fill="#2F2E41"/>
<path d="M333.898 776.097C333.025 785.7 323.335 801.938 323.335 801.938L276.629 801.676C276.629 801.676 274.534 793.994 281.606 785.176C283.002 783.43 284.574 781.073 286.232 778.367C289.637 778.192 293.566 778.279 296.621 778.978C303.343 780.462 314.256 783.517 318.359 778.28C321.152 774.788 328.398 766.581 332.938 761.605C333.724 766.669 334.335 771.47 333.898 776.097Z" fill="#2F2E41"/>
<path d="M258.908 591.196L352.319 595.473C352.319 595.473 364.541 538.117 367.771 515.157C371.001 492.197 376.763 435.365 375.89 423.492C375.104 411.532 367.334 370.938 356.16 365.263L278.899 350.16C278.899 350.16 235.337 389.183 242.67 462.515C250.003 535.847 258.908 591.196 258.908 591.196Z" fill="#F9A826"/>
<path d="M352.319 596.783L258.82 592.505C258.209 592.505 257.685 591.981 257.598 591.37C257.511 590.846 248.606 535.062 241.36 462.603C237.519 424.453 247.646 395.644 256.9 378.184C266.852 359.239 277.59 349.549 278.026 349.113C278.375 348.851 278.725 348.763 279.161 348.763L356.422 363.866C356.509 363.866 356.684 363.954 356.771 363.954C368.644 369.977 376.413 411.008 377.286 423.23C378.159 435.365 372.31 492.372 369.167 515.157C366.025 537.855 353.803 594.95 353.715 595.561C353.541 596.346 352.93 596.783 352.319 596.783ZM260.042 589.973L351.271 594.164C352.93 586.132 363.58 535.935 366.461 515.07C369.604 492.896 375.366 435.452 374.58 423.667C373.707 411.096 365.937 372.16 355.636 366.66L279.161 351.732C276.979 353.827 267.55 363.343 258.995 379.755C250.003 396.866 240.051 425.064 243.805 462.515C250.701 529.3 258.82 581.942 260.042 589.973Z" fill="#2F2E41"/>
<path d="M371.175 316.812H240.836C240.836 316.812 204.258 303.717 214.035 283.201C214.646 281.892 215.345 280.67 215.956 279.535C225.471 263.035 236.908 265.392 237.17 257.099C237.432 248.281 235.947 244.265 250.003 236.408C264.058 228.464 264.058 230.909 264.058 217.552C264.058 204.195 262.836 191.274 289.026 176.346C307.97 165.608 326.128 159.235 340.969 166.656C346.644 169.449 351.795 174.251 356.334 181.584C372.834 208.123 366.461 230.909 366.461 230.909L371.175 316.812Z" fill="#2F2E41"/>
<path d="M342.017 168.664C333.986 168.838 326.041 169.187 317.399 171.632C293.828 178.179 273.574 189.79 274.098 208.472C274.534 225.409 267.899 236.059 265.106 238.853C262.312 241.646 244.328 244.265 246.86 252.472C249.217 259.979 233.503 270.455 227.829 273.86C224.861 275.606 222.765 278.836 218.138 281.106C227.654 264.606 239.09 266.963 239.352 258.67C239.614 249.853 238.13 245.837 252.185 237.98C266.241 230.035 266.241 232.48 266.241 219.123C266.241 205.766 265.019 192.846 291.209 177.917C310.153 167.092 327.176 161.243 342.017 168.664Z" fill="white"/>
<path d="M296.534 193.108C296.534 193.108 329.271 202.711 332.676 209.258C332.676 209.258 331.629 218.861 332.676 219.734C333.724 220.607 334.16 219.21 336.43 217.377C338.787 215.544 342.716 212.314 346.557 214.147C350.311 215.98 348.216 221.742 345.335 223.139C342.454 224.448 331.192 229.337 331.192 234.401C331.192 239.464 333.549 260.59 333.724 261.725C333.898 262.86 343.239 267.138 348.565 266.09C353.977 265.043 363.144 266.265 363.144 266.265L379.993 344.748C379.993 344.748 383.397 375.303 357.207 370.589C331.017 365.874 289.463 355.922 289.463 355.922L254.019 362.644C254.019 362.644 229.4 367.184 238.13 335.494C246.773 303.891 259.431 278.051 259.431 278.051C259.431 278.051 267.899 265.217 276.629 265.217C285.272 265.217 307.01 265.217 307.01 265.217C307.01 265.217 315.391 263.122 313.994 255.003C312.597 246.884 310.938 242.519 310.938 242.519C310.938 242.519 290.859 238.504 291.732 217.639C292.605 196.774 296.534 193.108 296.534 193.108Z" fill="white"/>
<path d="M362.445 372.247C360.787 372.247 358.953 372.073 357.033 371.723C332.152 367.271 293.129 358.017 289.463 357.144L254.281 363.779C253.844 363.866 244.503 365.525 238.916 359.327C234.464 354.438 233.765 346.319 236.908 334.97C245.551 303.542 258.209 277.527 258.296 277.265L258.384 277.09C258.733 276.566 267.376 263.646 276.629 263.646H306.835C307.883 263.384 313.819 261.376 312.684 255.003C311.637 248.805 310.415 244.876 309.891 243.392C306.137 242.345 289.55 236.758 290.423 217.377C291.383 196.512 295.224 192.496 295.661 192.06L296.185 191.536L296.883 191.711C300.288 192.671 330.232 201.663 333.811 208.472L333.986 208.822L333.898 209.258C333.549 212.575 333.287 216.504 333.462 218.163L333.549 218.075C333.986 217.639 334.684 216.94 335.557 216.242L335.819 216.067C338.351 214.06 342.628 210.829 347.081 212.837C348.827 213.71 349.874 215.369 349.874 217.377C349.874 220.083 348.041 223.052 345.858 224.099L345.335 224.361C334.771 229.25 332.501 232.393 332.501 234.226C332.501 238.94 334.597 258.146 334.946 261.027C336.255 262.162 343.938 265.479 348.303 264.606C353.803 263.471 362.969 264.694 363.318 264.781L364.191 264.868L381.215 344.398C381.302 345.01 382.874 360.025 374.58 367.795C371.525 370.763 367.421 372.247 362.445 372.247ZM289.463 354.438L289.724 354.525C290.161 354.613 331.541 364.477 357.469 369.192C364.104 370.414 369.342 369.279 372.921 365.962C379.993 359.327 378.858 345.883 378.77 344.835L362.183 267.313C359.739 267.051 353.104 266.44 348.914 267.225C343.676 268.273 335.993 264.955 333.811 263.384C333.287 263.035 332.676 262.511 332.501 261.813C332.327 260.94 329.97 239.551 329.97 234.313C329.97 229.337 337.652 225.147 344.287 222.091L344.811 221.829C346.12 221.218 347.342 219.123 347.342 217.464C347.342 216.417 346.906 215.718 346.033 215.282C343.065 213.885 339.747 216.504 337.565 218.163L337.303 218.337C336.517 218.948 335.993 219.472 335.557 219.909C334.771 220.694 333.462 222.004 331.803 220.694C331.367 220.258 330.232 219.385 331.279 209.52C328.311 205.242 309.192 198.258 296.97 194.592C296.01 196.25 293.653 201.925 292.955 217.464C292.082 236.932 310.327 240.861 311.113 241.035L311.811 241.21L312.073 241.908C312.161 242.083 313.732 246.448 315.216 254.654C316.526 262.075 310.589 265.567 307.272 266.352H306.923H276.542C268.947 266.352 261.177 277.527 260.479 278.574C259.693 280.146 247.559 305.463 239.265 335.756C236.384 346.144 236.908 353.478 240.749 357.581C245.376 362.644 253.67 361.247 253.757 361.16L289.463 354.438Z" fill="#2F2E41"/>
<path d="M277.852 331.391C277.852 331.391 264.844 298.391 249.217 302.058C233.591 305.725 226.432 314.629 226.956 316.55C227.48 318.47 228.876 320.042 232.456 319.431C232.456 319.431 224.337 323.97 231.932 327.375C231.932 327.375 229.487 334.534 237.781 332.875C237.781 332.875 234.551 338.2 239.44 338.2C244.328 338.2 257.249 332.875 257.249 332.875C257.249 332.875 255.852 336.105 257.598 336.105C259.257 336.105 277.852 331.391 277.852 331.391Z" fill="white" stroke="#2F2E41" stroke-width="3" stroke-miterlimit="10" stroke-linecap="round" stroke-linejoin="round"/>
<path d="M348.652 324.145C348.652 324.145 344.374 319.78 331.366 322.486C318.359 325.105 257.598 336.105 257.598 336.105" stroke="#2F2E41" stroke-width="3" stroke-miterlimit="10" stroke-linecap="round" stroke-linejoin="round"/>
<path d="M289.462 355.835L349.438 340.645" stroke="#2F2E41" stroke-width="3" stroke-miterlimit="10" stroke-linecap="round" stroke-linejoin="round"/>
<path d="M349.438 297.344L350.747 344.573" stroke="#2F2E41" stroke-width="3" stroke-miterlimit="10" stroke-linecap="round" stroke-linejoin="round"/>
<path d="M325.954 323.534C325.954 323.534 340.009 336.629 331.366 344.573" stroke="#2F2E41" stroke-width="3" stroke-miterlimit="10" stroke-linecap="round" stroke-linejoin="round"/>
<path d="M297.232 265.043C297.232 265.043 294.788 275.781 297.232 280.67C299.677 285.558 313.819 293.415 327.001 284.685C340.184 275.955 348.652 265.916 348.652 265.916" stroke="#2F2E41" stroke-width="3" stroke-miterlimit="10" stroke-linecap="round" stroke-linejoin="round"/>
<path d="M278.463 290.534C278.463 290.534 260.566 310.002 283.352 322.748L286.058 330.605" stroke="#2F2E41" stroke-width="3" stroke-miterlimit="10" stroke-linecap="round" stroke-linejoin="round"/>
<path d="M296.97 208.123C296.97 208.123 307.534 205.853 308.232 212.401C308.931 218.948 301.685 226.282 301.685 226.282L305.439 228.551" stroke="#2F2E41" stroke-width="3" stroke-miterlimit="10" stroke-linecap="round" stroke-linejoin="round"/>
<path d="M313.295 207.687C313.295 207.687 316.7 202.274 323.248 203.234" stroke="#2F2E41" stroke-width="3" stroke-miterlimit="10" stroke-linecap="round" stroke-linejoin="round"/>
<path d="M310.24 233.178C310.24 233.178 314.954 235.797 319.93 229.599" stroke="#2F2E41" stroke-width="3" stroke-miterlimit="10" stroke-linecap="round" stroke-linejoin="round"/>
<path d="M421.984 750.955L421.635 760.296L420.936 777.145L420.063 799.93H350.573C349.089 789.105 361.398 780.549 369.866 776.01C374.231 773.653 377.548 772.43 377.548 772.43L378.247 760.296L378.945 749.645L421.984 750.955Z" fill="white" stroke="#2F2E41" stroke-width="3" stroke-miterlimit="10" stroke-linecap="round" stroke-linejoin="round"/>
<path d="M534.077 799.93H463.19L462.666 779.851L462.229 764.224L461.88 752.089L506.229 749.558L506.927 764.224L507.363 772.081C511.03 772.954 515.046 776.01 518.8 779.851C527.006 788.144 534.077 799.93 534.077 799.93Z" fill="white" stroke="#2F2E41" stroke-width="3" stroke-miterlimit="10" stroke-linecap="round" stroke-linejoin="round"/>
<path d="M421.635 760.296L420.936 777.145C416.048 780.811 410.111 791.986 410.111 791.986H400.595C400.595 791.986 397.715 786.835 393.786 780.637C391.167 776.446 378.159 775.922 369.779 776.097C374.144 773.74 377.461 772.518 377.461 772.518L378.159 760.383H421.635V760.296Z" fill="#2F2E41"/>
<path d="M518.8 779.851C514.173 781.684 505.792 785.962 502.3 793.644H471.745C471.745 793.644 466.769 784.216 462.578 779.764L462.142 764.137H506.927L507.363 771.994C511.03 772.954 515.046 776.097 518.8 779.851Z" fill="#2F2E41"/>
<path d="M496.538 395.906L506.228 749.558L458.126 752.613L448.872 499.356L425.389 751.217L376.413 749.558L397.278 403.151L401.992 389.795H496.014L496.538 395.906Z" fill="white"/>
<path d="M456.904 754.01L448.261 519.522L426.523 752.613L375.016 750.867L375.104 749.558L395.968 402.889L401.032 388.485H497.149L497.847 395.905L507.625 750.78L456.904 754.01ZM447.563 499.181L450.182 499.269L459.435 751.217L504.919 748.336L495.228 395.905L494.792 391.017H402.952L398.587 403.326L377.81 748.248L424.166 749.82L447.563 499.181Z" fill="#2F2E41"/>
<path d="M427.135 207.163C427.135 207.163 437.698 229.337 441.539 264.082C445.468 298.828 449.047 388.31 449.047 388.31H474.189L472.618 267.574C472.618 267.574 467.118 214.321 465.721 209.956C464.325 205.591 463.452 199.219 463.452 199.219L447.214 191.012L427.135 207.163Z" fill="#F9A826"/>
<path d="M474.277 389.62H449.134C448.436 389.62 447.825 389.096 447.825 388.398C447.825 387.525 444.158 298.653 440.317 264.344C436.476 230.21 426.174 208.036 426 207.774C425.738 207.25 425.912 206.552 426.349 206.203L446.515 189.965C446.952 189.616 447.476 189.616 447.912 189.79L464.15 197.996C464.499 198.171 464.761 198.52 464.848 198.957C464.848 199.044 465.721 205.33 467.118 209.52C468.515 213.972 473.84 265.217 474.015 267.4V267.487L475.586 388.223C475.586 388.572 475.412 388.922 475.237 389.183C474.888 389.445 474.626 389.62 474.277 389.62ZM450.356 387.001H472.967L471.396 267.662C469.824 252.821 465.721 213.798 464.586 210.306C463.451 206.726 462.666 201.838 462.317 200.004L447.476 192.497L428.706 207.512C430.714 212.139 439.357 233.353 442.849 263.908C446.428 296.122 449.833 376.001 450.356 387.001Z" fill="#2F2E41"/>
<path d="M394.572 407.342L449.92 403.501L446.515 329.47L465.547 322.224L473.753 326.066V403.937L497.586 405.683C497.586 405.683 500.467 387.437 499.419 373.208C498.459 359.065 496.014 330.256 496.014 330.256C496.014 330.256 536.259 339.335 539.664 322.224C543.069 305.114 542.632 291.407 530.41 262.86C518.188 234.313 515.046 226.98 515.046 226.98C515.046 226.98 499.855 191.187 458.126 195.552L419.889 191.187C419.889 191.187 415.873 187.259 406.183 196.512C406.183 196.512 369.866 198.433 364.715 215.806C359.564 233.178 353.977 279.971 357.12 303.455C360.263 326.851 366.374 350.335 403.214 344.486L394.572 407.342Z" fill="#2F2E41"/>
<path d="M428.706 212.401C428.706 212.401 438.658 240.599 441.452 260.329C444.158 280.058 445.73 287.042 445.73 287.042C445.73 287.042 471.832 283.376 475.761 283.114C475.761 283.114 473.142 249.329 471.658 244.091C470.174 238.853 465.372 213.361 464.674 208.385C463.888 203.409 461.356 197.647 461.356 197.647L446.864 192.933L428.706 212.401Z" fill="#F9A826"/>
<path d="M445.729 288.352C445.118 288.352 444.595 287.915 444.42 287.304C444.333 287.042 442.849 280.058 440.142 260.503C437.436 241.123 427.571 213.099 427.484 212.837C427.309 212.401 427.397 211.877 427.746 211.528L445.991 192.06C446.341 191.711 446.864 191.536 447.388 191.711L461.88 196.425C462.229 196.512 462.491 196.774 462.666 197.123C462.753 197.385 465.285 203.06 466.07 208.211C466.769 213.099 471.57 238.678 473.054 243.742C474.538 249.067 477.07 281.717 477.157 283.027C477.157 283.376 477.07 283.725 476.808 283.987C476.546 284.249 476.284 284.423 475.935 284.423C472.007 284.685 446.253 288.265 445.991 288.352C445.817 288.352 445.729 288.352 445.729 288.352ZM430.19 212.663C431.762 217.29 440.23 242.258 442.761 260.154C444.856 275.17 446.253 282.852 446.777 285.558C451.579 284.86 468.689 282.503 474.364 281.979C473.404 270.019 471.57 248.369 470.435 244.44C468.951 239.202 464.237 213.885 463.364 208.56C462.753 204.631 461.007 200.179 460.396 198.695L447.301 194.417L430.19 212.663Z" fill="#2F2E41"/>
<path d="M452.801 345.621L465.459 357.843L471.134 347.367L452.801 194.941H441.365L452.801 345.621Z" fill="#2F2E41"/>
<path d="M445.729 287.042L475.761 283.114L473.665 326.066L465.459 322.224L446.428 329.47L445.729 287.042Z" fill="#2F2E41"/>
<path d="M448.872 500.665C448.785 500.665 448.785 500.665 448.872 500.665C448.087 500.578 447.563 499.967 447.563 499.269L451.317 436.413C451.317 436.151 451.404 435.889 451.579 435.627L460.396 424.802C460.832 424.278 461.705 424.191 462.229 424.627C462.753 425.064 462.84 425.937 462.404 426.46L453.848 437.024L450.182 499.443C450.094 500.142 449.571 500.665 448.872 500.665Z" fill="#2F2E41"/>
<path d="M375.977 276.392C375.54 273.598 385.056 264.344 388.373 262.249C391.691 260.154 403.04 257.273 409.587 264.257C416.135 271.154 430.539 291.145 430.539 291.145C430.539 291.145 419.539 298.217 409.762 295.423C409.762 295.423 402.865 305.288 397.54 306.336C392.214 307.383 391.603 305.55 391.603 305.55C391.603 305.55 401.992 289.399 417.27 285.471C417.27 285.471 414.651 281.193 411.159 283.376C407.667 285.471 391.429 296.907 389.77 302.32C389.77 302.32 385.667 301.36 387.326 297.868C388.984 294.376 398.849 281.368 411.071 277.963C411.071 277.963 412.73 274.82 411.071 274.82C409.413 274.82 386.976 288.352 385.842 292.63C385.842 292.63 383.397 289.138 386.802 284.685C390.294 280.233 397.976 271.852 406.095 270.805C406.095 270.805 406.444 267.662 403.214 268.186C399.984 268.709 392.214 268.36 391.429 268.186C390.643 268.011 381.913 277.265 380.865 277.701C379.905 278.05 376.5 279.36 375.977 276.392Z" fill="white"/>
<path d="M419.889 191.187L427.222 211.964L438.658 223.052L446.428 193.108L426.873 184.465L419.889 191.187Z" fill="white"/>
<path d="M439.357 225.583L426.087 212.663L418.317 190.838L426.524 182.893L447.912 192.409L439.357 225.583ZM428.357 211.179L437.96 220.52L444.944 193.806L427.222 185.949L421.46 191.536L428.357 211.179Z" fill="#2F2E41"/>
<path d="M460.571 220.956L465.459 212.139C465.459 212.139 462.404 195.028 461.88 195.028C461.356 195.028 452.626 191.274 452.626 187.346C452.626 183.417 452.626 187.346 452.626 187.346L446.428 193.195L460.571 220.956Z" fill="white"/>
<path d="M460.483 223.75L444.769 192.758L451.317 186.647V185.425H453.936V187.171C453.936 189.79 460.396 193.108 461.967 193.544C463.19 193.544 463.626 194.155 466.682 211.79L466.769 212.226L460.483 223.75ZM448.087 193.369L460.658 218.163L464.15 211.877C462.928 205.155 461.531 197.909 461.007 195.988C458.825 195.203 453.936 192.671 452.102 189.528L448.087 193.369ZM461.356 196.163C461.531 196.25 461.618 196.25 461.88 196.25C461.793 196.25 461.618 196.25 461.356 196.163Z" fill="#2F2E41"/>
<path d="M469.213 128.506C469.213 128.506 479.427 162.029 452.626 175.822V187.346L446.428 193.195L426.873 184.552L425.651 169.624L413.865 156.704L406.183 139.942L421.809 112.093L471.134 117.942L469.213 128.506Z" fill="white"/>
<path d="M446.69 194.679L425.563 185.338L424.341 170.148L412.73 157.576L404.611 140.029L421.024 110.784L472.618 116.895L470.523 128.506C471.483 131.998 479.078 163.076 453.936 176.608V187.87L446.69 194.679ZM428.095 183.592L446.166 191.623L451.317 186.735V175.036L452.015 174.687C462.666 169.187 468.602 159.934 469.65 147.013C470.436 137.236 467.991 129.029 467.991 128.942L467.904 128.68L469.65 119.164L422.508 113.577L407.667 140.116L415 156.092L426.96 169.1L428.095 183.592Z" fill="#2F2E41"/>
<path d="M427.047 131.474C427.047 131.474 434.642 124.577 441.365 131.474" stroke="#2F2E41" stroke-width="3" stroke-miterlimit="10" stroke-linecap="round" stroke-linejoin="round"/>
<path d="M457.69 126.847C457.69 126.847 443.722 132.783 448.785 143.783C452.888 152.6 452.888 152.6 452.888 152.6L449.658 156.616" stroke="#2F2E41" stroke-width="3" stroke-miterlimit="10" stroke-linecap="round" stroke-linejoin="round"/>
<path d="M432.285 158.013C432.285 158.013 435.865 166.743 446.428 163.862" stroke="#2F2E41" stroke-width="3" stroke-miterlimit="10" stroke-linecap="round" stroke-linejoin="round"/>
<path d="M438.658 174.425C438.658 174.425 445.904 177.568 452.713 175.822" stroke="#2F2E41" stroke-width="3" stroke-miterlimit="10" stroke-linecap="round" stroke-linejoin="round"/>
<path d="M425.651 169.537C425.651 169.537 430.278 172.592 432.285 173.029" stroke="#2F2E41" stroke-width="3" stroke-miterlimit="10" stroke-linecap="round" stroke-linejoin="round"/>
<path d="M434.555 145.18C435.809 145.18 436.825 143.382 436.825 141.164C436.825 138.946 435.809 137.148 434.555 137.148C433.302 137.148 432.285 138.946 432.285 141.164C432.285 143.382 433.302 145.18 434.555 145.18Z" fill="#2F2E41"/>
<path d="M300.375 218.075C301.243 218.075 301.946 216.825 301.946 215.282C301.946 213.739 301.243 212.488 300.375 212.488C299.507 212.488 298.804 213.739 298.804 215.282C298.804 216.825 299.507 218.075 300.375 218.075Z" fill="#2F2E41"/>
<path d="M317.399 216.155C318.363 216.155 319.145 214.709 319.145 212.925C319.145 211.141 318.363 209.695 317.399 209.695C316.434 209.695 315.653 211.141 315.653 212.925C315.653 214.709 316.434 216.155 317.399 216.155Z" fill="#2F2E41"/>
<path d="M579.443 160.553C580.669 160.288 581.282 158.316 580.813 156.149C580.345 153.981 578.972 152.438 577.746 152.703C576.521 152.968 575.908 154.94 576.376 157.108C576.845 159.276 578.218 160.818 579.443 160.553Z" fill="#2F2E41"/>
<path d="M600.036 156.891C601.261 156.627 601.875 154.654 601.406 152.487C600.938 150.319 599.564 148.776 598.339 149.041C597.114 149.306 596.501 151.278 596.969 153.446C597.438 155.614 598.811 157.156 600.036 156.891Z" fill="#2F2E41"/>
<path d="M458.214 145.18C459.467 145.18 460.483 143.382 460.483 141.164C460.483 138.946 459.467 137.148 458.214 137.148C456.96 137.148 455.944 138.946 455.944 141.164C455.944 143.382 456.96 145.18 458.214 145.18Z" fill="#2F2E41"/>
<path d="M488.506 124.577C488.506 124.577 481.261 136.537 474.538 134.791C467.816 133.045 451.579 122.307 444.333 121.958C437.174 121.696 425.389 120.038 425.389 120.038C425.389 120.038 422.158 122.657 422.333 131.212C422.508 139.767 423.381 150.156 423.381 150.156L420.5 151.029L417.182 145.529C417.182 145.529 412.119 146.228 412.992 149.632C413.865 153.037 415.349 155.918 417.182 156.616C419.103 157.315 420.936 157.664 420.936 157.664C420.936 157.664 423.293 166.83 425.738 169.624C428.182 172.418 418.492 162.902 415.96 162.029C413.516 161.156 394.746 133.918 401.818 122.045C408.976 110.085 413.167 110.435 413.167 110.435C413.167 110.435 413.603 108.95 414.825 107.03C417.619 102.228 424.603 94.1967 439.531 95.3316C460.658 96.903 474.277 111.308 477.157 111.482C478.903 111.569 481.435 111.482 482.57 111.831C483.268 112.093 483.53 112.617 482.657 113.49C480.475 115.847 478.118 119.601 478.118 119.601L488.506 124.577Z" fill="#2F2E41"/>
<path d="M478.641 115.061C477.768 116.109 477.157 117.419 476.284 117.68C472.443 118.815 471.919 116.458 468.078 113.752C464.237 111.046 445.904 102.752 436.388 102.228C429.666 101.879 420.762 107.117 416.047 110.26C418.666 105.458 425.127 97.4268 438.833 98.5617C458.301 100.133 472.094 112.53 473.578 114.712C475.149 116.807 477.594 114.625 478.641 115.061Z" fill="white"/>
<path d="M232.456 319.431C232.456 319.431 242.146 314.542 245.289 313.582C248.431 312.621 250.963 312.447 250.963 312.447" stroke="#2F2E41" stroke-width="3" stroke-miterlimit="10" stroke-linecap="round" stroke-linejoin="round"/>
<path d="M232.456 327.375C232.456 327.375 250.701 320.391 254.106 319.955" stroke="#2F2E41" stroke-width="3" stroke-miterlimit="10" stroke-linecap="round" stroke-linejoin="round"/>
<path d="M237.694 332.875C237.694 332.875 252.796 327.026 255.066 326.851" stroke="#2F2E41" stroke-width="3" stroke-miterlimit="10" stroke-linecap="round" stroke-linejoin="round"/>
</svg>
