<svg width="34" height="34" viewBox="0 0 34 34" fill="none" xmlns="http://www.w3.org/2000/svg">
<g clip-path="url(#clip0_49_1152)">
<path d="M17 0.53125C7.90181 0.53125 0.53125 7.90287 0.53125 17C0.53125 26.0971 7.90287 33.4688 17 33.4688C26.0982 33.4688 33.4688 26.0971 33.4688 17C33.4688 7.90287 26.0971 0.53125 17 0.53125ZM25.0888 11.8139L22.3858 24.5512C22.1861 25.4543 21.6484 25.6732 20.8983 25.2482L16.7811 22.2137L14.7953 24.1262C14.5764 24.3451 14.3905 24.531 13.9655 24.531L14.2577 20.3405L21.8875 13.447C22.2201 13.1548 21.8142 12.9891 21.3754 13.2812L11.9457 19.2174L7.88163 17.9488C6.99869 17.6704 6.9785 17.0659 8.06756 16.6409L23.9456 10.5177C24.6829 10.2521 25.3268 10.6973 25.0877 11.8129L25.0888 11.8139Z" fill="#F9A826"/>
</g>
<defs>
<clipPath id="clip0_49_1152">
<rect width="34" height="34" fill="white"/>
</clipPath>
</defs>
</svg>
