<svg width="38" height="38" viewBox="0 0 38 38" fill="none" xmlns="http://www.w3.org/2000/svg">
<path d="M19 2.375C9.81914 2.375 2.375 9.81914 2.375 19C2.375 28.1809 9.81914 35.625 19 35.625C28.1809 35.625 35.625 28.1809 35.625 19C35.625 9.81914 28.1809 2.375 19 2.375ZM26.9896 14.9068C27.0008 15.0813 27.0008 15.2631 27.0008 15.4412C27.0008 20.8889 22.852 27.1641 15.2705 27.1641C12.9326 27.1641 10.7654 26.485 8.93965 25.316C9.27363 25.3531 9.59277 25.368 9.93418 25.368C11.8639 25.368 13.6377 24.7148 15.0516 23.609C13.2406 23.5719 11.7191 22.3844 11.1996 20.7516C11.8342 20.8443 12.4057 20.8443 13.0588 20.6773C12.1263 20.4879 11.2882 19.9815 10.6868 19.2441C10.0854 18.5068 9.75786 17.5839 9.75977 16.6324V16.5805C10.3053 16.8885 10.9473 17.0777 11.6189 17.1037C11.0543 16.7274 10.5912 16.2176 10.2708 15.6194C9.95038 15.0213 9.78249 14.3534 9.78203 13.6748C9.78203 12.9066 9.98242 12.2053 10.3424 11.5967C11.3774 12.8708 12.6689 13.9128 14.133 14.6551C15.5971 15.3974 17.201 15.8233 18.8404 15.9051C18.2578 13.1033 20.3508 10.8359 22.8668 10.8359C24.0543 10.8359 25.123 11.3332 25.8764 12.1348C26.8078 11.9604 27.6984 11.6115 28.4926 11.1439C28.1846 12.0977 27.5389 12.9029 26.6816 13.4113C27.5129 13.3223 28.3145 13.0922 29.0566 12.7693C28.4963 13.5932 27.7949 14.3242 26.9896 14.9068Z" fill="#F9A826"/>
</svg>
