<svg width="89" height="78" viewBox="0 0 89 78" fill="none" xmlns="http://www.w3.org/2000/svg">
<path d="M86.0333 0H2.96667C2.17986 0 1.42527 0.313604 0.868916 0.871822C0.312559 1.43004 0 2.18715 0 2.97659V62.5084C0 63.2978 0.312559 64.0549 0.868916 64.6131C1.42527 65.1713 2.17986 65.4849 2.96667 65.4849H34.1167V71.4381H20.7667V77.3913H68.2333V71.4381H54.8833V65.4849H86.0333C86.8201 65.4849 87.5747 65.1713 88.1311 64.6131C88.6874 64.0549 89 63.2978 89 62.5084V2.97659C89 2.18715 88.6874 1.43004 88.1311 0.871822C87.5747 0.313604 86.8201 0 86.0333 0ZM82.325 6.69732V46.8813H44.5H6.675V6.69732H82.325ZM41.5574 56.9421C41.4771 56.3257 41.5911 55.6994 41.8836 55.1513C42.176 54.6032 42.6322 54.1607 43.1881 53.8859C43.7439 53.6112 44.3716 53.518 44.9829 53.6194C45.5943 53.7208 46.1586 54.0117 46.5968 54.4514C47.035 54.891 47.3249 55.4572 47.426 56.0706C47.5271 56.684 47.4342 57.3138 47.1603 57.8715C46.8865 58.4292 46.4455 58.8869 45.8992 59.1804C45.3529 59.4738 44.7288 59.5882 44.1143 59.5076C43.4659 59.4225 42.8637 59.1248 42.4013 58.6609C41.9389 58.197 41.6422 57.5927 41.5574 56.9421Z" fill="#F9A826"/>
<path d="M49.8208 14.8979L60.8491 25.9262L49.8208 36.9545" stroke="#F9A826" stroke-width="5.41667"/>
<path d="M39.1792 14.8979L28.1509 25.9262L39.1792 36.9545" stroke="#F9A826" stroke-width="5.41667"/>
</svg>
