<svg width="38" height="42" viewBox="0 0 38 42" fill="none" xmlns="http://www.w3.org/2000/svg">
<g clip-path="url(#clip0_49_1142)">
<path d="M37.2083 11.3871C36.9932 10.5388 36.574 9.77074 35.9955 9.16464C35.4006 8.5399 34.6715 8.093 33.877 7.86614C30.9035 6.99989 18.9905 6.99989 18.9905 6.99989C14.0241 6.93744 9.05893 7.21212 4.123 7.82239C3.32847 8.06601 2.60073 8.52289 2.0045 9.15239C1.41867 9.77539 0.994334 10.5436 0.772667 11.3854C0.240181 14.5559 -0.018537 17.7752 6.44242e-07 20.9999C-0.0189994 24.2216 0.239084 27.4399 0.772667 30.6144C0.989584 31.4526 1.41233 32.2174 1.99975 32.8351C2.58717 33.4529 3.31867 33.8991 4.123 34.1354C7.13608 34.9999 18.9905 34.9999 18.9905 34.9999C23.9632 35.0624 28.9347 34.7877 33.877 34.1774C34.6715 33.9505 35.4006 33.5036 35.9955 32.8789C36.5738 32.2729 36.9925 31.5048 37.2068 30.6564C37.7531 27.4871 38.0188 24.2664 38 21.0401C38.0411 17.8002 37.7758 14.5644 37.2083 11.3854V11.3871ZM15.2032 26.9919V15.0096L25.1148 21.0016L15.2032 26.9919Z" fill="#F9A826"/>
</g>
<defs>
<clipPath id="clip0_49_1142">
<rect width="38" height="42" fill="white"/>
</clipPath>
</defs>
</svg>
